<svg width="197" height="42" viewBox="0 0 197 42" fill="none" xmlns="http://www.w3.org/2000/svg">
<path fill-rule="evenodd" clip-rule="evenodd" d="M16.1295 24.25C16.1685 24.118 16.2425 23.995 16.3065 23.888C16.3075 23.883 16.3085 23.878 16.3095 23.873C16.3055 23.82 16.3055 23.801 16.3215 23.773C16.4025 23.617 16.4665 23.469 16.5305 23.322C16.5445 23.376 16.5815 23.437 16.5695 23.485C16.4855 23.809 16.3925 24.132 16.2985 24.454C16.2915 24.476 16.2435 24.486 16.1965 24.506C16.2155 24.361 16.2445 24.214 16.2755 24.054C16.2445 24.211 16.2105 24.36 16.1775 24.509C16.1765 24.53 16.1745 24.551 16.1595 24.595C16.1575 24.608 16.1555 24.62 16.1545 24.631C16.1555 24.625 16.1565 24.618 16.1575 24.611C16.1755 24.648 16.1805 24.694 16.1705 24.746C16.1575 24.719 16.1515 24.687 16.1535 24.651C16.1505 24.691 16.1535 24.722 16.1565 24.753C16.1575 24.776 16.1585 24.798 16.1555 24.836C16.0705 24.989 15.9895 25.125 15.8895 25.246C15.9555 24.904 16.0335 24.575 16.1295 24.25ZM24.2135 32.386C24.2305 32.41 24.2435 32.422 24.2575 32.433C24.2165 32.494 24.1875 32.57 24.1335 32.613C23.7695 32.895 23.4005 33.169 23.0335 33.448C22.7425 33.67 22.4535 33.896 22.1615 34.119C21.9155 34.307 21.6735 34.502 21.4195 34.679C21.0575 34.931 20.6855 35.169 20.3205 35.417C20.1355 35.543 19.9575 35.68 19.7725 35.807C18.9705 36.358 18.1735 36.919 17.3595 37.453C16.7725 37.838 16.1685 38.201 15.5575 38.548C14.8485 38.95 14.1245 39.326 13.4045 39.709C12.9065 39.975 12.4115 40.248 11.9015 40.491C11.5065 40.68 11.0875 40.821 10.6845 40.994C10.2745 41.171 9.86954 41.359 9.46455 41.545C9.26554 41.637 9.06754 41.792 8.84354 41.654C8.59254 41.499 8.72054 41.258 8.75254 41.049C8.88454 40.198 8.96354 39.339 8.89154 38.482C8.83654 37.827 8.71054 37.173 8.56354 36.53C8.42754 35.932 8.26654 35.332 8.03654 34.765C7.77054 34.11 7.43154 33.484 7.10054 32.858C6.65854 32.019 6.20654 31.186 5.73655 30.363C5.46254 29.885 5.14554 29.432 4.85154 28.965C4.52154 28.442 4.19855 27.915 3.86755 27.392C3.61955 27 3.34754 26.621 3.11354 26.221C2.77754 25.647 2.46254 25.061 2.14754 24.475C1.93954 24.088 1.74254 23.694 1.55154 23.298C1.46054 23.11 1.38754 22.912 1.31554 22.715C1.15754 22.278 0.997543 21.842 0.850543 21.401C0.713543 20.987 0.570545 20.572 0.471545 20.148C0.357545 19.654 0.274544 19.151 0.202544 18.649C0.127544 18.129 0.0565441 17.606 0.0295441 17.083C-0.00245586 16.463 -0.0114569 15.839 0.0175431 15.219C0.0465431 14.611 0.132545 14.005 0.201545 13.399C0.220545 13.232 0.266543 13.067 0.302543 12.902C0.442543 12.26 0.515545 11.605 0.791545 10.993C0.931545 10.682 0.951546 10.318 1.08155 10C1.30955 9.442 1.56455 8.892 1.83955 8.355C2.10855 7.83 2.40455 7.318 2.71355 6.816C2.93855 6.451 3.20254 6.111 3.45254 5.762C3.63954 5.5 3.82754 5.238 4.02254 4.981C4.11954 4.853 4.23455 4.738 4.33955 4.616C4.97255 3.88 5.62954 3.169 6.42054 2.596C6.45954 2.568 6.51254 2.557 6.57154 2.553C6.57654 2.596 6.56654 2.625 6.55054 2.67C6.67454 2.564 6.79155 2.474 6.91555 2.369C7.02555 2.282 7.12854 2.21 7.24454 2.128C7.41354 2.015 7.56955 1.913 7.72755 1.793C7.73855 1.762 7.74954 1.75 7.77454 1.737C8.06754 1.583 8.35555 1.445 8.63055 1.283C8.35555 1.445 8.06754 1.583 7.78154 1.716C7.77654 1.689 7.77554 1.678 7.77354 1.667C8.03554 1.486 8.29254 1.297 8.56254 1.129C8.66354 1.066 8.79554 1.052 8.95154 1.009C9.13054 0.949004 9.27154 0.897002 9.41254 0.845002C9.46554 0.844002 9.51754 0.842003 9.61354 0.844003C9.74754 0.845003 9.83855 0.843004 9.92955 0.841004C9.95155 0.842004 9.97354 0.843003 10.0225 0.858003C10.1445 0.924003 10.2385 0.974002 10.3185 1.033C10.3695 1.035 10.4065 1.047 10.4565 1.065C10.7485 1.306 11.0285 1.54 11.3225 1.782C11.4295 1.954 11.5225 2.119 11.6285 2.294C11.6445 2.321 11.6475 2.339 11.6505 2.37C11.6895 2.62 11.7675 2.859 11.7585 3.093C11.7675 2.859 11.6895 2.62 11.6675 2.393C11.7555 2.552 11.8275 2.701 11.8995 2.851C11.9025 3.088 11.9055 3.324 11.8885 3.591C11.7895 3.808 11.7105 3.994 11.6265 4.16C11.6255 4.202 11.6205 4.223 11.6155 4.262C11.5575 4.398 11.4775 4.512 11.4435 4.638C11.4775 4.512 11.5575 4.398 11.6315 4.278C11.6575 4.279 11.6685 4.28 11.6785 4.28C11.5335 4.862 11.3895 5.443 11.2245 6.05C11.1275 6.229 11.0495 6.381 10.9655 6.514C10.9645 6.588 10.9575 6.641 10.9515 6.715C10.8205 7.187 10.6885 7.639 10.5665 8.104C10.5745 8.154 10.5715 8.189 10.5635 8.242C10.3995 8.746 10.2375 9.231 10.0835 9.719C9.94854 10.146 9.82254 10.576 9.66754 11.021C9.61854 11.037 9.59554 11.037 9.57154 11.017C9.77354 10.259 9.97754 9.52201 10.1965 8.771C9.94154 8.60701 9.66654 8.625 9.38954 8.616C9.66654 8.625 9.94154 8.607 10.1815 8.784C9.97754 9.522 9.77354 10.259 9.57154 11.017C9.48554 11.347 9.39855 11.657 9.29154 11.988C8.96854 12.033 9.18655 12.171 9.21455 12.267C9.20255 12.334 9.19055 12.401 9.17855 12.476C9.19155 12.402 9.20655 12.332 9.22755 12.258C9.26255 12.169 9.28555 12.089 9.31055 11.988C9.39855 11.657 9.48554 11.347 9.57254 11.037C9.59554 11.037 9.61854 11.037 9.65954 11.037C9.60855 11.366 9.53854 11.695 9.47454 12.044C9.47554 12.086 9.47154 12.107 9.46954 12.145C9.40554 12.326 9.32555 12.485 9.27754 12.654C9.05254 13.437 8.83655 14.222 8.58855 15.019C8.55055 15.031 8.54154 15.031 8.53554 15.008C8.48654 15.089 8.43955 15.147 8.39355 15.223C8.39355 15.262 8.39355 15.284 8.37255 15.325C8.33155 15.446 8.31155 15.548 8.29055 15.65C8.28955 15.753 8.28854 15.855 8.26654 15.979C8.18354 15.965 8.08955 15.943 8.06155 15.889C8.08955 15.943 8.18354 15.965 8.26554 16.001C8.06254 16.503 8.10355 17.037 8.15055 17.554C8.10355 17.037 8.06254 16.503 8.28554 15.98C8.28854 15.855 8.28954 15.753 8.30954 15.644C8.34954 15.538 8.37054 15.438 8.39254 15.321C8.39354 15.284 8.39355 15.262 8.40954 15.238C8.47554 15.216 8.52454 15.195 8.57354 15.175C8.47654 15.664 8.37055 16.152 8.28454 16.643C8.37055 16.152 8.47654 15.664 8.57854 15.157C8.58454 15.103 8.58554 15.066 8.60154 15.018C8.83654 14.222 9.05254 13.437 9.27754 12.654C9.32555 12.485 9.40554 12.326 9.48754 12.162C9.51354 12.164 9.52355 12.165 9.53355 12.166C9.52755 12.204 9.52155 12.242 9.49855 12.31C9.47655 12.384 9.47054 12.428 9.46554 12.472C9.35354 12.838 9.23555 13.203 9.12955 13.572C9.02855 13.925 8.94054 14.281 8.83054 14.668C8.77654 14.864 8.74054 15.028 8.70354 15.192C8.70254 15.213 8.70154 15.233 8.68454 15.282C8.59554 15.647 8.52254 15.984 8.45055 16.321C8.45755 16.389 8.46554 16.457 8.45354 16.55C8.41454 16.629 8.38754 16.707 8.37054 16.784C8.38754 16.712 8.41255 16.639 8.44955 16.567C8.46655 16.892 8.46754 17.226 8.45454 17.574C8.38854 17.374 8.33555 17.169 8.34655 16.959C8.33455 17.173 8.38354 17.381 8.43954 17.589C8.45554 17.663 8.47054 17.737 8.48754 17.849C8.49554 17.867 8.50355 17.885 8.51255 17.903C8.58655 18.018 8.65954 18.148 8.73054 18.293C8.68554 18.227 8.64154 18.154 8.59854 18.076C8.64154 18.159 8.68354 18.236 8.72654 18.312C8.74154 18.355 8.75554 18.398 8.78454 18.469C8.83154 18.535 8.86554 18.575 8.89854 18.614C8.92454 18.643 8.95054 18.672 8.99654 18.725C9.29654 19.082 9.63254 19.326 10.0735 19.398C10.0965 19.398 10.1185 19.397 10.1655 19.417C10.3485 19.451 10.5255 19.49 10.6995 19.521C10.5285 19.49 10.3565 19.452 10.1815 19.42C10.3755 19.414 10.5775 19.433 10.7795 19.434C11.4255 19.439 12.0725 19.431 12.7185 19.438C13.8575 19.451 14.9955 19.463 16.1335 19.495C16.3655 19.502 16.5955 19.596 16.8105 19.667C16.6245 19.678 16.4455 19.682 16.2625 19.683C16.4415 19.684 16.6235 19.684 16.8165 19.685C17.0465 19.619 17.0615 19.846 17.1895 19.95C17.2085 20.21 17.2205 20.434 17.2325 20.658C17.2325 20.68 17.2325 20.702 17.2145 20.747C17.1205 20.938 17.0465 21.106 16.9615 21.259C16.9715 21.293 16.9715 21.311 16.9695 21.344C16.9155 21.479 16.8535 21.598 16.8155 21.724C16.8535 21.598 16.9155 21.479 16.9725 21.377C16.9775 21.491 16.9775 21.587 16.9775 21.682C16.9775 21.704 16.9775 21.726 16.9585 21.77C16.8995 21.943 16.8605 22.094 16.8215 22.244C16.8225 22.267 16.8225 22.289 16.8035 22.333C16.7035 22.491 16.6225 22.627 16.5365 22.743C16.5365 22.785 16.5325 22.807 16.5295 22.845C16.4485 23.159 16.3675 23.456 16.2955 23.768C16.3055 23.801 16.3055 23.82 16.3045 23.853C16.2435 23.994 16.1685 24.117 16.1295 24.25C16.0335 24.575 15.9555 24.904 15.8725 25.251C15.8715 25.293 15.8675 25.315 15.8485 25.366C15.7125 25.831 15.5905 26.267 15.4695 26.704C15.4655 26.727 15.4615 26.749 15.4425 26.8C15.3565 27.129 15.2845 27.428 15.2125 27.728C15.2085 27.75 15.2035 27.773 15.1845 27.823C15.0485 28.305 14.9275 28.759 14.8065 29.213C14.8005 29.251 14.7945 29.289 14.7745 29.357C14.6015 29.942 14.4245 30.492 14.2945 31.054C14.2475 31.255 14.1705 31.514 14.4185 31.681C14.4605 31.725 14.5025 31.77 14.5635 31.841C14.5925 31.863 14.6205 31.882 14.6475 31.898C14.6245 31.884 14.6015 31.868 14.5765 31.849C14.7355 31.813 14.9005 31.795 15.0845 31.777C15.0315 31.877 14.9725 31.938 14.9025 31.96C14.9775 31.94 15.0425 31.879 15.1045 31.777C15.1335 31.752 15.1615 31.728 15.1995 31.693C15.5235 31.362 15.8475 31.052 16.1485 30.72C15.8475 31.052 15.5235 31.362 15.2065 31.664C15.2025 31.619 15.2015 31.594 15.2005 31.569C15.2445 31.507 15.2885 31.445 15.3615 31.37C15.3665 31.366 15.3715 31.362 15.3765 31.357C15.3825 31.328 15.4025 31.295 15.4385 31.262C15.4355 31.28 15.4275 31.299 15.4135 31.318C15.4305 31.298 15.4425 31.279 15.4555 31.261C15.9185 30.714 16.3785 30.164 16.8485 29.624C16.9745 29.48 17.1345 29.366 17.3035 29.218C17.4035 29.1 17.4785 29.003 17.5545 28.907C17.6055 28.849 17.6565 28.792 17.7295 28.716C17.7875 28.647 17.8245 28.596 17.8605 28.546C18.2285 28.105 18.5935 27.66 18.9655 27.222C19.5805 26.498 20.2045 25.78 20.8175 25.055C21.3985 24.368 21.9675 23.67 22.5495 22.984C22.8635 22.615 23.1975 22.263 23.5145 21.896C24.0615 21.261 24.5975 20.615 25.1485 19.981C25.7285 19.314 26.3375 18.672 26.8975 17.989C27.1165 17.722 27.2515 17.381 27.4005 17.062C27.6035 16.626 27.6365 16.16 27.5435 15.695C27.4225 15.095 27.1985 14.567 26.6585 14.182C26.0775 13.767 25.4295 13.656 24.7655 13.647C22.8075 13.621 20.8485 13.639 18.8905 13.634C18.4915 13.633 18.0895 13.628 17.6935 13.582C17.0655 13.51 16.8195 12.948 16.9865 12.365C17.0915 12.001 17.2025 11.639 17.3195 11.279C17.4375 10.919 17.5745 10.565 17.6865 10.203C17.7915 9.863 17.8675 9.515 17.9725 9.175C18.0795 8.83 18.2085 8.493 18.3225 8.15C18.4255 7.839 18.5215 7.525 18.6205 7.213C18.7505 6.799 18.8825 6.386 19.0115 5.972C19.0325 5.902 19.0375 5.827 19.0675 5.732C19.1175 5.639 19.1505 5.57 19.1825 5.5C19.1895 5.43 19.1965 5.36 19.2205 5.273C19.2665 5.252 19.2975 5.249 19.3315 5.265C19.2235 5.676 19.1195 6.07 18.9995 6.46C19.1195 6.07 19.2235 5.676 19.3365 5.249C19.3405 5.192 19.3435 5.171 19.3605 5.139C19.3875 5.063 19.4095 4.991 19.4295 4.917C19.4085 4.988 19.3825 5.059 19.3465 5.129C19.3105 5.085 19.3025 5.041 19.2945 4.997C19.2975 4.976 19.2995 4.954 19.3205 4.912C19.3795 4.858 19.4205 4.823 19.4615 4.789C19.4635 4.783 19.4645 4.778 19.4655 4.772C19.4675 4.74 19.4685 4.722 19.4865 4.696C19.5855 4.466 19.6735 4.246 19.7535 4.023C19.6735 4.246 19.5855 4.466 19.4775 4.679C19.4495 4.657 19.4465 4.645 19.4425 4.633C19.5785 4.211 19.6895 3.779 19.8585 3.37C20.0335 2.943 20.2555 2.534 20.4755 2.126C20.5485 1.991 20.6785 1.885 20.7985 1.764C20.7875 1.838 20.7755 1.926 20.7285 1.989C20.7755 1.926 20.7875 1.838 20.8165 1.762C20.8165 1.762 20.8185 1.759 20.8375 1.763C21.0325 1.623 21.1955 1.458 21.3875 1.34C21.7905 1.094 22.2085 0.873003 22.6365 0.642003C22.6755 0.636003 22.6965 0.632001 22.7395 0.632001C23.3285 0.524001 23.8985 0.491002 24.4915 0.624002C24.6125 0.638002 24.7125 0.646005 24.8135 0.653005C24.8135 0.653005 24.8105 0.658003 24.8165 0.677003C24.8175 0.677003 24.8185 0.678002 24.8185 0.678002C24.8705 0.649002 24.9395 0.609003 24.9815 0.628003C25.6365 0.927003 26.2985 1.217 26.8555 1.712C26.7375 1.674 26.6155 1.621 26.4975 1.562C26.6155 1.621 26.7375 1.674 26.8575 1.73C26.8575 1.73 26.8605 1.729 26.8635 1.748C26.8645 1.749 26.8665 1.75 26.8675 1.751C27.0285 1.814 27.2035 1.877 27.3515 1.979C27.5075 2.086 27.6355 2.231 27.7775 2.377C27.6605 2.323 27.5385 2.258 27.4255 2.179C27.5385 2.258 27.6605 2.323 27.7785 2.395C27.7785 2.395 27.7815 2.395 27.7835 2.414C27.7855 2.415 27.7875 2.417 27.7895 2.418C28.0075 2.54 28.2335 2.668 28.4425 2.822C28.5375 2.891 28.5955 3.011 28.6685 3.127C28.4655 2.976 28.2625 2.816 28.0595 2.648C28.2625 2.818 28.4655 2.981 28.6685 3.145C28.6925 3.168 28.7165 3.191 28.7545 3.233C28.8185 3.304 28.8685 3.355 28.9235 3.423C29.0235 3.52 29.1175 3.6 29.2175 3.696C29.2895 3.782 29.3565 3.853 29.4255 3.941C29.4575 4 29.4815 4.045 29.5165 4.081C29.4815 4.045 29.4575 4 29.4425 3.937C29.4695 3.912 29.4805 3.908 29.4915 3.905C29.7995 4.219 30.1295 4.513 30.4075 4.851C30.7345 5.248 31.0235 5.679 31.3145 6.105C31.6015 6.526 31.8965 6.945 32.1425 7.39C32.4285 7.908 32.6865 8.443 32.9175 8.987C33.4335 10.207 33.7865 11.472 33.9955 12.786C34.0975 13.43 34.1335 14.069 34.1355 14.715C34.1385 15.463 34.1715 16.214 34.1145 16.957C34.0685 17.563 33.9215 18.162 33.7945 18.759C33.7025 19.196 33.5705 19.625 33.4395 20.078C33.4035 20.131 33.3865 20.163 33.3685 20.194C33.3635 20.232 33.3595 20.271 33.3385 20.331C33.3145 20.386 33.3075 20.419 33.3015 20.451C33.3015 20.473 33.3015 20.496 33.2825 20.541C33.1975 20.716 33.1315 20.868 33.0655 21.02C33.0265 21.158 32.9885 21.296 32.9295 21.459C32.8755 21.551 32.8425 21.618 32.8085 21.685C32.8045 21.738 32.8005 21.79 32.7745 21.863C32.7205 21.884 32.6865 21.885 32.6535 21.886C32.6515 21.891 32.6505 21.896 32.6485 21.901C32.6425 21.936 32.6395 21.957 32.6195 21.985C32.5845 22.059 32.5635 22.125 32.5405 22.201C32.5375 22.211 32.5345 22.233 32.5195 22.24C32.4815 22.294 32.4595 22.342 32.4255 22.403C32.4035 22.458 32.3915 22.501 32.3635 22.55C32.2935 22.63 32.2285 22.699 32.1865 22.78C32.2285 22.699 32.2935 22.63 32.3695 22.565C32.3935 22.585 32.3965 22.595 32.3985 22.606C32.3945 22.643 32.3905 22.68 32.3655 22.739C32.2425 22.962 32.1385 23.164 32.0355 23.365C32.0315 23.388 32.0285 23.412 32.0055 23.458C31.9515 23.544 31.9165 23.608 31.8825 23.672C31.8795 23.681 31.8775 23.69 31.8585 23.716C31.8205 23.765 31.8005 23.796 31.7805 23.827C31.7095 23.968 31.6395 24.11 31.5495 24.274C31.5115 24.327 31.4925 24.358 31.4725 24.389C31.4705 24.398 31.4685 24.407 31.4495 24.433C31.4115 24.481 31.3905 24.511 31.3705 24.542C31.3605 24.572 31.3505 24.602 31.3165 24.648C31.2645 24.673 31.2385 24.683 31.2125 24.693C31.3585 24.41 31.5075 24.127 31.6515 23.843C31.5075 24.127 31.3585 24.41 31.2115 24.694C31.2385 24.683 31.2645 24.673 31.3035 24.657C31.2965 24.701 31.2765 24.751 31.2395 24.805C31.2225 24.808 31.2175 24.804 31.2165 24.786C31.2145 24.744 31.2115 24.721 31.2095 24.699C31.2095 24.699 31.2105 24.696 31.2115 24.694C31.2105 24.696 31.2095 24.699 31.1935 24.703C31.1545 24.755 31.1325 24.803 31.1035 24.863C31.0825 24.9 31.0675 24.924 31.0375 24.954C30.9885 25.014 30.9545 25.069 30.9215 25.123C30.9215 25.123 30.9165 25.144 30.8955 25.155C30.8505 25.214 30.8275 25.261 30.8025 25.309C30.8005 25.309 30.7965 25.311 30.7795 25.315C30.7245 25.384 30.6875 25.449 30.6465 25.531C30.6105 25.588 30.5785 25.629 30.5295 25.674C30.4895 25.726 30.4655 25.773 30.4305 25.831C30.4095 25.868 30.3985 25.896 30.3705 25.928C30.2815 26.049 30.2085 26.166 30.1275 26.296C30.0715 26.367 30.0255 26.426 29.9635 26.49C29.9105 26.546 29.8725 26.596 29.8325 26.657C29.8295 26.668 29.8265 26.689 29.8115 26.695C29.7745 26.732 29.7525 26.765 29.7165 26.808C29.6255 26.913 29.5475 27.007 29.4535 27.106C29.4155 27.159 29.3935 27.207 29.3695 27.255C29.3685 27.256 29.3665 27.258 29.3515 27.262C29.3145 27.298 29.2935 27.331 29.2615 27.37C29.2375 27.387 29.2275 27.4 29.2065 27.424C29.1705 27.48 29.1495 27.529 29.1275 27.578C29.1275 27.578 29.1245 27.599 29.1055 27.61C29.0425 27.669 28.9985 27.717 28.9395 27.77C28.8895 27.829 28.8555 27.883 28.8205 27.936C28.8155 27.957 28.8095 27.977 28.7815 28.011C28.6885 28.092 28.6185 28.16 28.5315 28.232C28.4605 28.303 28.4045 28.37 28.3345 28.445C28.2595 28.532 28.1995 28.61 28.1225 28.693C28.1405 28.711 28.1435 28.735 28.1455 28.775C28.0585 28.865 27.9715 28.937 27.8675 29.011C27.9335 28.911 28.0165 28.808 28.1145 28.701C28.0165 28.808 27.9335 28.911 27.8505 29.013C27.8025 29.07 27.7545 29.126 27.6815 29.196C27.5095 29.36 27.3635 29.51 27.2015 29.665C27.1455 29.718 27.1055 29.766 27.0545 29.821C27.0325 29.84 27.0225 29.853 26.9965 29.871C26.8715 29.99 26.7635 30.106 26.6395 30.227C26.6785 30.224 26.7005 30.227 26.7405 30.229C26.7025 30.27 26.6485 30.312 26.5785 30.346C26.5845 30.304 26.6035 30.27 26.6375 30.23C26.6035 30.27 26.5835 30.304 26.5645 30.338C26.5015 30.399 26.4385 30.459 26.3445 30.529C26.2915 30.552 26.2655 30.56 26.2475 30.576C26.2655 30.56 26.2915 30.552 26.3305 30.538C26.2415 30.683 26.1535 30.849 26.0255 30.974C25.8345 31.162 25.6145 31.321 25.4075 31.494C25.2355 31.639 25.0695 31.792 24.8935 31.932C24.7165 32.072 24.5305 32.201 24.3305 32.335C24.3325 32.29 24.3415 32.234 24.3745 32.205C24.3415 32.234 24.3325 32.29 24.3115 32.334C24.3115 32.334 24.3105 32.333 24.2965 32.332C24.2575 32.344 24.2325 32.358 24.2075 32.371C23.5405 32.88 22.8775 33.394 22.2045 33.896C22.8775 33.394 23.5405 32.88 24.2125 32.384C24.2325 32.358 24.2575 32.343 24.2965 32.332C24.3025 32.361 24.2925 32.39 24.2705 32.426C24.2445 32.421 24.2305 32.41 24.2135 32.386ZM10.0835 9.719C10.2375 9.231 10.3995 8.746 10.5705 8.264C10.5825 8.268 10.6055 8.276 10.6055 8.276C10.5855 8.398 10.5665 8.52 10.5275 8.672C10.4025 9.041 10.2965 9.378 10.1905 9.716C10.1885 9.737 10.1855 9.758 10.1665 9.804C10.1425 9.874 10.1365 9.917 10.1305 9.961C10.0875 10.17 10.0485 10.379 10.0015 10.587C9.98554 10.658 9.95154 10.724 9.91054 10.824C9.85554 10.986 9.81655 11.117 9.77655 11.248C9.77555 11.269 9.77454 11.291 9.75754 11.34C9.65354 11.601 9.56654 11.833 9.47454 12.044C9.53854 11.695 9.60855 11.366 9.68555 11.021C9.82255 10.576 9.94854 10.146 10.0835 9.719ZM14.2945 31.054C14.4245 30.492 14.6015 29.942 14.7755 29.376C14.7965 29.418 14.8205 29.476 14.8075 29.524C14.8205 29.476 14.7965 29.418 14.7895 29.346C14.7945 29.289 14.8005 29.251 14.8225 29.208C14.9275 28.759 15.0485 28.305 15.1845 27.84C15.2125 27.849 15.2425 27.874 15.2375 27.889C15.2425 27.874 15.2125 27.849 15.1995 27.812C15.2035 27.773 15.2085 27.75 15.2295 27.722C15.2845 27.428 15.3565 27.129 15.4435 26.817C15.4405 26.947 15.4345 27.09 15.4015 27.227C15.4345 27.09 15.4405 26.947 15.4575 26.789C15.4615 26.749 15.4655 26.727 15.4855 26.699C15.5905 26.267 15.7125 25.831 15.8485 25.382C15.8035 25.658 15.7535 25.948 15.6815 26.231C15.7535 25.948 15.8035 25.658 15.8635 25.354C15.8675 25.315 15.8715 25.293 15.8915 25.266C15.9895 25.125 16.0705 24.989 16.1515 24.853C16.1515 24.928 16.1685 25.01 16.1465 25.078C16.0425 25.406 15.9105 25.725 15.8195 26.056C15.6345 26.732 15.4765 27.415 15.2945 28.092C15.1235 28.727 14.9255 29.356 14.7595 29.993C14.6475 30.424 14.5675 30.864 14.4765 31.3C14.4335 31.509 14.5345 31.667 14.7215 31.716C14.8235 31.742 14.9555 31.655 15.0735 31.616C15.1055 31.606 15.1335 31.586 15.1815 31.57C15.2015 31.594 15.2025 31.619 15.1965 31.674C15.1615 31.728 15.1335 31.752 15.0845 31.777C14.9005 31.795 14.7355 31.813 14.5575 31.823C14.5025 31.77 14.4605 31.725 14.4205 31.658C14.1705 31.514 14.2475 31.255 14.2945 31.054ZM29.8115 26.695C29.8085 26.712 29.8005 26.731 29.7865 26.751C29.8035 26.729 29.8145 26.709 29.8265 26.689C29.8265 26.689 29.8295 26.668 29.8485 26.657C29.9065 26.628 29.9445 26.61 29.9855 26.594C29.9885 26.596 29.9925 26.599 29.9925 26.599C29.9365 26.882 29.7335 27.052 29.4965 27.21C29.4765 27.21 29.4715 27.206 29.4735 27.189C29.4735 27.148 29.4715 27.124 29.4695 27.101C29.5475 27.007 29.6255 26.913 29.7345 26.808C29.7395 26.803 29.7435 26.799 29.7475 26.795C29.7525 26.764 29.7755 26.732 29.8115 26.695ZM29.4735 27.189C29.4475 27.221 29.4235 27.235 29.3855 27.252C29.3935 27.207 29.4155 27.159 29.4535 27.106C29.4715 27.124 29.4735 27.148 29.4735 27.189ZM5.19154 3.908C4.81554 4.28 4.48254 4.695 4.11454 5.095C4.07954 5.133 4.05854 5.167 4.02454 5.211C3.79454 5.521 3.57854 5.821 3.34854 6.123C3.31454 6.157 3.29655 6.189 3.26855 6.235C3.18955 6.359 3.12054 6.467 3.03654 6.58C2.97154 6.669 2.92255 6.753 2.86755 6.852C2.85555 6.889 2.84954 6.91 2.82854 6.936C2.78054 6.991 2.74854 7.041 2.71054 7.104C2.70154 7.125 2.69854 7.134 2.68154 7.146C2.65154 7.181 2.63554 7.214 2.61354 7.263C2.56754 7.353 2.52854 7.426 2.47354 7.504C2.40654 7.608 2.35554 7.708 2.29954 7.82C2.29054 7.841 2.28755 7.849 2.27055 7.861C2.24055 7.898 2.22654 7.931 2.20554 7.981C2.17754 8.054 2.15554 8.11 2.11954 8.169C2.08654 8.204 2.06855 8.236 2.04055 8.284C1.99655 8.373 1.96254 8.448 1.91354 8.527C1.87954 8.562 1.86055 8.594 1.83255 8.642C1.77355 8.783 1.72254 8.908 1.65654 9.037C1.62554 9.074 1.60854 9.108 1.58754 9.161C1.55154 9.276 1.52354 9.373 1.49054 9.467C1.34654 9.869 1.20155 10.269 1.04155 10.675C0.995545 10.766 0.966545 10.852 0.931545 10.957C0.901545 11.113 0.877543 11.249 0.837543 11.39C0.837543 11.421 0.823544 11.456 0.793544 11.496C0.792544 11.466 0.807544 11.432 0.835544 11.393C0.807544 11.432 0.792544 11.466 0.772544 11.52C0.740544 11.679 0.713545 11.817 0.674545 11.957C0.660545 11.993 0.657545 12.025 0.652545 12.074C0.648545 12.109 0.647546 12.13 0.629546 12.157C0.583546 12.249 0.554545 12.335 0.520545 12.441C0.514545 12.498 0.512546 12.536 0.497546 12.584C0.485546 12.621 0.486544 12.651 0.481544 12.701C0.470544 12.809 0.465545 12.896 0.445545 12.996C0.394545 13.256 0.358546 13.505 0.317546 13.774C0.312546 13.848 0.311543 13.903 0.295543 13.968C0.325543 13.999 0.339545 14.04 0.354545 14.113C0.355545 14.165 0.354545 14.185 0.346545 14.217C0.323545 14.241 0.306546 14.252 0.290546 14.263C0.289546 14.216 0.287544 14.169 0.287544 14.121C0.287544 14.172 0.288546 14.225 0.290546 14.283C0.290546 14.343 0.291545 14.383 0.278545 14.436C0.245545 14.495 0.208545 14.54 0.208545 14.585C0.208545 14.54 0.245544 14.495 0.293544 14.434C0.332544 14.416 0.342546 14.416 0.352546 14.439C0.369546 14.359 0.386546 14.303 0.421546 14.226C0.460546 14.17 0.480544 14.136 0.501544 14.102C0.503544 13.915 0.505546 13.728 0.525546 13.514C0.563546 13.435 0.582546 13.384 0.602546 13.332C0.582546 13.285 0.561546 13.239 0.525546 13.189C0.509546 13.165 0.509543 13.144 0.510543 13.107C0.575543 12.893 0.648545 12.696 0.701545 12.495C0.648545 12.696 0.575544 12.893 0.508544 13.076C0.490544 13.035 0.476543 13.009 0.461543 12.984C0.465543 12.896 0.470545 12.809 0.492545 12.696C0.494545 12.689 0.496546 12.681 0.498546 12.675C0.486546 12.65 0.485546 12.621 0.497546 12.584C0.505546 12.598 0.508545 12.615 0.506545 12.635C0.510545 12.612 0.510546 12.593 0.511546 12.575C0.512546 12.536 0.514544 12.498 0.536544 12.436C0.586544 12.325 0.615545 12.237 0.645545 12.15C0.647545 12.13 0.648544 12.109 0.668544 12.074C0.708544 12.057 0.730546 12.055 0.754546 12.075C0.752546 12.033 0.753543 12.012 0.753543 11.976C0.889543 11.614 1.02554 11.267 1.18454 10.905C1.28654 10.989 1.36255 11.075 1.52055 11.022C1.36255 11.075 1.28655 10.989 1.18755 10.886C1.30055 10.486 1.42854 10.087 1.56554 9.692C1.42854 10.087 1.30055 10.486 1.16555 10.901C1.02555 11.267 0.889545 11.614 0.736545 11.959C0.709545 11.957 0.698545 11.956 0.687545 11.955C0.713545 11.817 0.740544 11.679 0.787544 11.517C0.823544 11.456 0.837546 11.421 0.852546 11.385C0.877546 11.249 0.901544 11.113 0.946544 10.952C0.997544 10.841 1.02754 10.755 1.05754 10.67C1.20154 10.269 1.34654 9.869 1.49054 9.467C1.52354 9.373 1.55155 9.276 1.60255 9.158C1.63955 9.102 1.65555 9.068 1.67255 9.033C1.72255 8.908 1.77354 8.783 1.84854 8.641C1.89154 8.59 1.90954 8.557 1.92754 8.523C1.96254 8.448 1.99655 8.373 2.05555 8.282C2.09855 8.233 2.11654 8.2 2.13454 8.167C2.15554 8.11 2.17754 8.054 2.21954 7.978C2.25554 7.924 2.27054 7.891 2.28554 7.858C2.28754 7.849 2.29054 7.841 2.31554 7.818C2.38854 7.702 2.43854 7.601 2.48954 7.5C2.52854 7.426 2.56754 7.353 2.62854 7.261C2.66454 7.208 2.68054 7.175 2.69554 7.143C2.69854 7.134 2.70154 7.125 2.72654 7.103C2.78054 7.036 2.81254 6.983 2.84354 6.931C2.84954 6.91 2.85554 6.889 2.88354 6.85C2.95454 6.747 3.00354 6.661 3.05154 6.575C3.12054 6.467 3.18955 6.359 3.28355 6.234C3.32655 6.185 3.34454 6.153 3.36354 6.121C3.57854 5.821 3.79455 5.521 4.04055 5.208C4.04655 5.203 4.05155 5.198 4.05555 5.193C4.06155 5.163 4.08054 5.131 4.11454 5.095C4.11254 5.112 4.10554 5.13 4.09354 5.149C4.10854 5.128 4.11955 5.11 4.12955 5.091C4.48255 4.695 4.81554 4.28 5.19154 3.908ZM0.211543 17.688C0.213543 17.858 0.276543 18.028 0.309543 18.216C0.310543 18.257 0.314545 18.28 0.313545 18.325C0.361545 18.622 0.414544 18.897 0.466544 19.189C0.467544 19.229 0.471543 19.252 0.469543 19.296C0.469543 19.385 0.462544 19.456 0.480544 19.52C0.462544 19.456 0.469545 19.385 0.486545 19.303C0.534545 19.376 0.553546 19.465 0.588546 19.549C0.637546 19.667 0.697543 19.781 0.753543 19.913C0.755543 19.952 0.754544 19.974 0.744544 20.004C0.742544 20.041 0.751546 20.069 0.761546 20.114C0.763546 20.152 0.764545 20.174 0.763545 20.216C0.843545 20.43 0.925545 20.625 1.00754 20.835C1.00954 20.873 1.01054 20.894 1.01054 20.916C1.11854 21.281 1.21254 21.65 1.33654 22.01C1.21254 21.65 1.11855 21.281 1.02555 20.925C1.10055 21.049 1.16155 21.162 1.22155 21.295C1.48555 21.982 1.75054 22.649 2.01454 23.316C1.75054 22.649 1.48555 21.982 1.24155 21.295C1.47555 21.202 1.58055 21.268 1.62255 21.501C1.58055 21.268 1.47555 21.202 1.24255 21.275C1.16155 21.162 1.10055 21.049 1.02555 20.925C1.01055 20.894 1.00955 20.873 1.01155 20.814C1.00555 20.798 0.999544 20.781 0.994544 20.766C0.915544 20.601 0.838545 20.417 0.763545 20.216C0.810545 20.312 0.856546 20.414 0.901546 20.523C0.856546 20.409 0.810544 20.302 0.765544 20.195C0.764544 20.174 0.763544 20.152 0.772544 20.106C0.773544 20.096 0.772544 20.087 0.772544 20.078C0.772544 20.082 0.772544 20.086 0.772544 20.09C0.751544 20.069 0.742544 20.041 0.744544 20.004C0.757544 20.017 0.766545 20.034 0.770545 20.055C0.766545 20.031 0.760546 20.013 0.754546 19.996C0.754546 19.974 0.755543 19.952 0.753543 19.913C0.752543 19.907 0.751545 19.9 0.750545 19.894C0.695545 19.779 0.636546 19.666 0.588546 19.549C0.553546 19.465 0.534546 19.376 0.491546 19.282C0.471546 19.252 0.467543 19.229 0.476543 19.178C0.507543 19.089 0.524543 19.029 0.558543 18.98C0.545543 18.948 0.547543 18.926 0.551543 18.887C0.660543 18.902 0.725545 18.926 0.749545 18.972C0.726545 18.922 0.661543 18.893 0.552543 18.871C0.552543 18.871 0.546544 18.873 0.543544 18.873C0.492544 18.617 0.443544 18.362 0.377544 18.1C0.357544 18.008 0.354544 17.923 0.363544 17.815C0.375544 17.794 0.400544 17.793 0.419544 17.797C0.514544 18.06 0.590544 18.318 0.655544 18.54C0.590544 18.318 0.514544 18.06 0.418544 17.782C0.380544 17.739 0.363546 17.715 0.345546 17.692C0.345546 17.419 0.344546 17.146 0.345546 16.825C0.364546 16.349 0.381544 15.92 0.397544 15.492C0.485544 15.402 0.573544 15.312 0.710544 15.174C0.573544 15.312 0.485544 15.402 0.397544 15.474C0.376544 15.416 0.356544 15.376 0.335544 15.336C0.341544 15.048 0.346546 14.76 0.352546 14.449C0.346546 14.76 0.340546 15.048 0.317546 15.342C0.356546 15.376 0.376544 15.416 0.397544 15.474C0.381544 15.92 0.364543 16.349 0.343543 16.802C0.309543 16.782 0.254546 16.738 0.254546 16.693C0.254546 16.738 0.309544 16.782 0.341544 16.849C0.344544 17.146 0.345544 17.419 0.335544 17.7C0.333544 17.737 0.341543 17.765 0.350543 17.816C0.354543 17.923 0.357543 18.008 0.357543 18.108C0.339543 18.148 0.325546 18.173 0.311546 18.199C0.276546 18.028 0.213543 17.858 0.211543 17.688ZM2.60955 25.06C2.64355 25.12 2.70755 25.164 2.76855 25.228C2.79655 25.282 2.81255 25.324 2.82555 25.382C2.84955 25.426 2.87754 25.454 2.90654 25.499C2.93054 25.551 2.95354 25.586 2.97454 25.64C3.13954 25.851 3.31055 26.075 3.46455 26.31C3.31055 26.075 3.13954 25.851 2.97654 25.621C2.95354 25.586 2.93055 25.551 2.90755 25.482C2.90455 25.475 2.90154 25.468 2.89754 25.462C2.87154 25.448 2.84655 25.421 2.82555 25.382C2.84055 25.388 2.85554 25.399 2.86954 25.414C2.85654 25.395 2.84254 25.38 2.82854 25.366C2.81254 25.324 2.79654 25.282 2.76754 25.209C2.59854 24.853 2.44455 24.527 2.28455 24.204C2.44455 24.527 2.59855 24.853 2.75655 25.197C2.70755 25.164 2.64355 25.12 2.60955 25.06ZM3.95354 27.282C4.13754 27.56 4.34754 27.821 4.55654 28.104C4.63454 28.241 4.70154 28.365 4.76654 28.506C4.79454 28.547 4.82554 28.571 4.85854 28.608C4.86054 28.62 4.86855 28.643 4.86655 28.66C4.91055 28.722 4.95655 28.767 5.00455 28.828C5.02755 28.88 5.04955 28.915 5.06955 28.967C5.11655 29.027 5.16355 29.07 5.21355 29.129C5.23455 29.183 5.25454 29.221 5.27254 29.276C5.31854 29.337 5.36554 29.382 5.41354 29.441C5.41854 29.475 5.42354 29.495 5.42654 29.533C5.49154 29.626 5.55755 29.7 5.62555 29.793C5.64955 29.864 5.67154 29.919 5.69054 29.991C5.76854 30.118 5.84954 30.227 5.93354 30.354C5.98854 30.478 6.04254 30.585 6.09354 30.709C6.15854 30.801 6.22455 30.875 6.29254 30.962C6.29554 30.974 6.30354 30.998 6.30154 31.016C6.39754 31.177 6.49754 31.321 6.59854 31.476C6.59954 31.488 6.60754 31.511 6.60654 31.527C6.63554 31.569 6.66654 31.594 6.70254 31.634C6.72454 31.689 6.74055 31.728 6.75655 31.784C6.78755 31.826 6.81954 31.85 6.85754 31.892C6.88354 31.963 6.90354 32.017 6.91954 32.088C6.94554 32.13 6.97554 32.156 7.00754 32.193C7.00854 32.205 7.01654 32.227 7.01454 32.244C7.04354 32.287 7.07354 32.314 7.10455 32.359C7.12855 32.447 7.15255 32.516 7.17355 32.602C7.24955 32.734 7.32755 32.847 7.40755 32.976C7.41455 33.009 7.41955 33.028 7.42355 33.066C7.50555 33.21 7.58755 33.336 7.67255 33.473C7.67455 33.485 7.68155 33.507 7.68055 33.524C7.70855 33.568 7.73855 33.595 7.76855 33.641C7.79355 33.728 7.81755 33.796 7.83855 33.883C7.93455 34.079 8.03254 34.257 8.13254 34.454C8.15854 34.56 8.18454 34.647 8.20454 34.752C8.27454 34.897 8.35054 35.025 8.42754 35.17C8.43154 35.207 8.43454 35.229 8.42654 35.262C8.47754 35.453 8.54055 35.632 8.60255 35.828C8.60555 35.868 8.61055 35.89 8.60955 35.932C8.69555 36.383 8.79054 36.813 8.87554 37.244C8.79054 36.813 8.69554 36.383 8.62554 35.938C8.68054 36.006 8.71055 36.09 8.74955 36.169C8.79354 36.258 8.84654 36.344 8.89754 36.451C8.89554 36.442 8.89354 36.433 8.89254 36.424C8.84354 36.339 8.79255 36.256 8.74955 36.169C8.71055 36.09 8.68055 36.006 8.63055 35.918C8.61055 35.89 8.60554 35.868 8.61354 35.816C8.61054 35.8 8.60655 35.785 8.60255 35.77C8.53355 35.611 8.47454 35.442 8.42654 35.262C8.46854 35.357 8.50754 35.456 8.54254 35.559C8.50954 35.453 8.47354 35.352 8.43854 35.25C8.43454 35.229 8.43155 35.207 8.43555 35.168C8.44155 35.15 8.45654 35.144 8.47354 35.149C8.45354 35.122 8.45054 35.1 8.44854 35.061C8.46254 35.006 8.49655 34.958 8.48455 34.93C8.49655 34.958 8.46254 35.006 8.43454 35.036C8.34954 34.929 8.27954 34.831 8.20954 34.734C8.18454 34.647 8.15855 34.56 8.13155 34.435C8.12055 34.41 8.10954 34.386 8.09854 34.362C8.01154 34.218 7.92355 34.058 7.83855 33.883C7.89055 33.967 7.94155 34.055 7.99255 34.149C7.94255 34.051 7.89154 33.957 7.84154 33.864C7.81754 33.796 7.79355 33.728 7.76955 33.624C7.76655 33.616 7.76254 33.608 7.75854 33.601C7.73154 33.589 7.70555 33.563 7.68055 33.524C7.69555 33.529 7.71054 33.539 7.72554 33.552C7.71154 33.534 7.69654 33.521 7.68154 33.507C7.68154 33.507 7.67455 33.485 7.67155 33.454C7.66555 33.443 7.65954 33.431 7.65354 33.42C7.57654 33.318 7.49955 33.2 7.42355 33.066C7.46955 33.126 7.51655 33.193 7.56255 33.265C7.51655 33.189 7.47055 33.118 7.42355 33.047C7.41955 33.028 7.41454 33.009 7.41154 32.956C7.41554 32.896 7.41755 32.869 7.43655 32.846C7.41755 32.821 7.41654 32.799 7.41354 32.761C7.33854 32.56 7.28355 32.365 7.18755 32.193C7.28355 32.365 7.33854 32.56 7.39654 32.741C7.31154 32.687 7.24454 32.635 7.17654 32.584C7.15254 32.516 7.12854 32.447 7.10554 32.343C7.10154 32.334 7.09754 32.327 7.09354 32.32C7.06654 32.307 7.04054 32.282 7.01454 32.244C7.03054 32.249 7.04555 32.258 7.06055 32.272C7.04555 32.254 7.03154 32.241 7.01654 32.227C7.01654 32.227 7.00855 32.205 7.00655 32.178C7.00455 32.173 7.00155 32.168 6.99855 32.163C6.97155 32.152 6.94454 32.127 6.91954 32.088C6.93754 32.094 6.95354 32.104 6.96854 32.12C6.95354 32.101 6.93855 32.087 6.92355 32.072C6.90355 32.017 6.88354 31.963 6.85654 31.875C6.85254 31.869 6.84854 31.863 6.84454 31.857C6.81554 31.847 6.78555 31.823 6.75655 31.784C6.77355 31.789 6.79154 31.798 6.80854 31.813C6.79054 31.794 6.77354 31.781 6.75754 31.767C6.74054 31.728 6.72454 31.689 6.70254 31.618C6.69854 31.612 6.69554 31.606 6.69154 31.601C6.66254 31.591 6.63354 31.566 6.60654 31.527C6.62354 31.532 6.64055 31.542 6.65755 31.557C6.64055 31.538 6.62354 31.524 6.60754 31.511C6.60754 31.511 6.59955 31.488 6.59755 31.457C6.59055 31.445 6.58255 31.432 6.57555 31.42C6.48355 31.301 6.39154 31.167 6.30154 31.016C6.35854 31.087 6.41455 31.165 6.47055 31.248C6.41455 31.161 6.35855 31.079 6.30355 30.998C6.30355 30.998 6.29555 30.974 6.29155 30.944C6.28655 30.936 6.28055 30.927 6.27555 30.919C6.21455 30.865 6.15354 30.795 6.09354 30.709C6.13154 30.741 6.16754 30.778 6.20454 30.821C6.16754 30.775 6.13155 30.733 6.09555 30.691C6.04255 30.585 5.98854 30.478 5.93254 30.336C5.92354 30.321 5.91554 30.306 5.90654 30.291C5.83354 30.206 5.76054 30.106 5.69054 29.991C5.73454 30.04 5.77754 30.095 5.82054 30.154C5.77754 30.09 5.73555 30.032 5.69355 29.973C5.67155 29.919 5.64955 29.864 5.62455 29.775C5.61755 29.762 5.60955 29.75 5.60255 29.739C5.54355 29.685 5.48454 29.616 5.42654 29.533C5.46154 29.562 5.49554 29.597 5.52954 29.637C5.49554 29.593 5.46154 29.554 5.42754 29.515C5.42354 29.495 5.41855 29.475 5.41455 29.423C5.40955 29.415 5.40555 29.407 5.40055 29.4C5.35655 29.373 5.31454 29.332 5.27254 29.276C5.29754 29.29 5.32255 29.308 5.34755 29.331C5.32255 29.304 5.29854 29.281 5.27354 29.259C5.25454 29.221 5.23455 29.183 5.21355 29.111C5.20855 29.103 5.20354 29.095 5.19854 29.088C5.15454 29.062 5.11155 29.022 5.06955 28.967C5.09555 28.98 5.12055 28.999 5.14555 29.022C5.12055 28.994 5.09554 28.972 5.07154 28.95C5.04954 28.915 5.02755 28.88 5.00555 28.81C5.00055 28.801 4.99554 28.793 4.99054 28.785C4.94754 28.758 4.90555 28.716 4.86655 28.66C4.89155 28.674 4.91554 28.693 4.93954 28.717C4.91654 28.689 4.89255 28.666 4.86855 28.643C4.86855 28.643 4.86054 28.62 4.85754 28.592C4.85454 28.587 4.85154 28.583 4.84854 28.578C4.82054 28.568 4.79254 28.544 4.76654 28.506C4.78354 28.51 4.80054 28.52 4.81654 28.536C4.80054 28.517 4.78455 28.503 4.76855 28.489C4.70155 28.365 4.63454 28.241 4.55854 28.084C4.54554 28.026 4.55155 27.995 4.53955 27.976C4.55155 27.995 4.54555 28.026 4.54655 28.071C4.34755 27.821 4.13754 27.56 3.95354 27.282ZM11.0465 5.658C11.0475 5.651 11.0495 5.645 11.0515 5.638C10.9815 5.624 10.8855 5.605 10.8475 5.547C10.8845 5.603 10.9765 5.623 11.0465 5.658ZM4.19054 5.263C4.09154 5.369 4.04455 5.524 3.95854 5.665C3.87954 5.748 3.80954 5.819 3.75354 5.9C3.80954 5.819 3.87955 5.748 3.97755 5.665C4.02855 5.652 4.04855 5.653 4.06055 5.643C4.04855 5.653 4.02855 5.652 3.99255 5.657C4.04455 5.524 4.09154 5.369 4.19054 5.263ZM2.59555 7.671C2.53955 7.774 2.52254 7.897 2.47954 8.016C2.45754 8.03 2.45055 8.041 2.42955 8.06C2.39055 8.1 2.36754 8.135 2.34054 8.187C2.16054 8.498 1.97355 8.786 1.81255 9.088C1.97355 8.786 2.16054 8.498 2.35854 8.184C2.40154 8.128 2.42454 8.092 2.44654 8.056C2.45054 8.041 2.45755 8.03 2.49955 8.017C2.58355 7.993 2.66755 7.987 2.68555 7.949C2.66755 7.987 2.58354 7.993 2.50954 8.012C2.52254 7.897 2.53955 7.774 2.59555 7.671ZM8.72954 14.005C8.82754 13.594 8.94854 13.189 9.07154 12.772C9.10854 12.733 9.13255 12.702 9.16555 12.669C9.16855 12.653 9.16355 12.64 9.15755 12.61C9.15755 12.612 9.15654 12.615 9.15654 12.617C9.15654 12.624 9.15654 12.631 9.15654 12.637C9.16254 12.639 9.16855 12.652 9.16555 12.669C9.15855 12.671 9.15754 12.658 9.15654 12.646C9.15654 12.662 9.15654 12.672 9.15654 12.672C9.13254 12.702 9.10854 12.733 9.07154 12.772C8.94354 12.646 8.92054 12.135 8.99054 11.965C8.92054 12.135 8.94354 12.646 9.05954 12.781C8.94854 13.189 8.82754 13.594 8.72954 14.005ZM15.5295 19.592C15.6245 19.592 15.7195 19.649 15.7905 19.684C15.8685 19.682 15.9225 19.685 15.9965 19.685C16.1905 19.7 16.3635 19.727 16.5375 19.732C16.3695 19.727 16.2015 19.702 16.0345 19.685C16.0215 19.685 16.0095 19.685 15.9965 19.685C15.9225 19.685 15.8685 19.682 15.8145 19.68C15.7195 19.649 15.6245 19.592 15.5295 19.592ZM26.2055 13.684C26.3005 13.684 26.4015 13.694 26.4995 13.718C26.5925 13.741 26.6815 13.778 26.7955 13.828C26.8715 13.909 26.9155 13.988 26.9815 14.033C27.2925 14.244 27.4825 14.546 27.6385 14.894C27.6715 14.935 27.7035 14.96 27.7355 15.005C27.7525 15.13 27.7705 15.235 27.7875 15.36C27.8215 15.595 27.8935 15.81 27.8835 16.022C27.8935 15.81 27.8215 15.595 27.8085 15.359C27.9785 15.325 28.0375 15.391 28.0555 15.543C28.0375 15.391 27.9785 15.325 27.8085 15.338C27.7705 15.235 27.7525 15.13 27.7345 14.988C27.7305 14.979 27.7255 14.971 27.7205 14.963C27.6935 14.952 27.6665 14.929 27.6385 14.894C27.6525 14.897 27.6675 14.905 27.6825 14.916C27.6675 14.9 27.6515 14.889 27.6365 14.877C27.4825 14.546 27.2925 14.244 26.9815 14.033C26.9155 13.988 26.8715 13.909 26.8155 13.829C26.9865 13.596 27.0665 13.599 27.2535 13.786C27.0665 13.599 26.9865 13.596 26.7925 13.811C26.6815 13.778 26.5925 13.741 26.4995 13.718C26.4015 13.694 26.3005 13.684 26.2015 13.668C26.1925 13.666 26.1835 13.663 26.1635 13.637C26.0665 13.399 25.8805 13.393 25.6895 13.373C25.5115 13.145 25.2765 13.269 25.0695 13.242C24.9345 13.242 24.8005 13.243 24.6285 13.227C24.3775 13.221 24.1635 13.231 23.9495 13.241C23.9125 13.241 23.8745 13.241 23.8145 13.222C23.7775 13.185 23.7625 13.15 23.7465 13.149C23.7625 13.15 23.7775 13.185 23.7955 13.222C23.1475 13.24 22.4975 13.24 21.8245 13.24C21.8495 13.205 21.8975 13.14 21.9465 13.14C21.8975 13.14 21.8495 13.205 21.8015 13.24C21.7795 13.24 21.7565 13.241 21.7075 13.224C21.5965 13.182 21.5115 13.141 21.4255 13.138C21.5115 13.141 21.5965 13.182 21.6915 13.223C21.3035 13.248 20.9065 13.255 20.5095 13.259C20.9065 13.255 21.3035 13.248 21.7175 13.241C21.7565 13.241 21.7795 13.24 21.8245 13.24C22.4975 13.24 23.1475 13.24 23.8175 13.24C23.8745 13.241 23.9125 13.241 23.9655 13.255C24.1945 13.26 24.4075 13.252 24.6425 13.243C24.8005 13.243 24.9345 13.242 25.0755 13.26C25.1835 13.32 25.2855 13.362 25.3875 13.42C25.3865 13.455 25.3855 13.475 25.3855 13.496C25.2825 13.492 25.1795 13.489 25.0505 13.468C24.9855 13.437 24.9475 13.424 24.9095 13.411C24.3355 13.421 23.7625 13.439 23.1895 13.437C23.7625 13.439 24.3355 13.421 24.9165 13.426C24.9605 13.453 24.9965 13.467 25.0555 13.483C25.1795 13.489 25.2825 13.492 25.3945 13.508C25.3855 13.475 25.3865 13.455 25.4025 13.417C25.4395 13.401 25.4605 13.403 25.4815 13.405C25.4845 13.437 25.4875 13.468 25.4925 13.516C25.4655 13.527 25.4355 13.524 25.3975 13.509C25.4355 13.524 25.4655 13.528 25.5165 13.534C25.7405 13.575 25.9445 13.614 26.1615 13.657C26.1835 13.663 26.1925 13.666 26.2055 13.684ZM25.0355 20.626C25.0035 20.663 24.9905 20.715 24.9535 20.768C24.3705 21.437 23.8025 22.098 23.2345 22.759C23.2355 22.759 23.2405 22.759 23.2535 22.759C23.3485 22.711 23.4345 22.674 23.4995 22.615C23.4345 22.674 23.3495 22.711 23.2535 22.759C23.8035 22.098 24.3705 21.437 24.9725 20.768C24.9775 20.763 24.9825 20.759 24.9875 20.754C24.9915 20.711 25.0045 20.661 25.0355 20.626ZM23.2335 22.76C23.2315 22.76 23.2275 22.762 23.2185 22.766C23.1275 22.889 23.0525 23.004 22.9705 23.133C22.9165 23.204 22.8705 23.261 22.8075 23.322C22.7735 23.371 22.7345 23.422 22.6885 23.472C22.7385 23.42 22.7815 23.369 22.8245 23.319C22.8705 23.261 22.9165 23.204 22.9885 23.13C23.0875 22.996 23.1605 22.878 23.2335 22.76ZM22.8015 23.327C22.7125 23.412 22.6395 23.495 22.5525 23.587C22.1435 24.036 21.7465 24.473 21.3565 24.917C21.2665 25.02 21.2065 25.15 21.1145 25.269C21.0595 25.302 21.0155 25.329 20.9845 25.366C21.0155 25.329 21.0595 25.302 21.1345 25.269C21.1405 25.268 21.1465 25.267 21.1525 25.266C21.2065 25.149 21.2665 25.02 21.3565 24.917C21.7465 24.473 22.1435 24.036 22.5715 23.588C22.5785 23.582 22.5845 23.576 22.5905 23.571C22.6445 23.49 22.7155 23.41 22.8015 23.327ZM17.9765 28.888C17.1225 29.852 16.2605 30.809 15.3865 31.777C15.2715 31.864 15.1785 31.955 15.0705 32.02C15.1785 31.955 15.2715 31.864 15.3975 31.79C15.4745 31.766 15.5475 31.749 15.6055 31.719C15.5485 31.748 15.4785 31.764 15.4125 31.782C16.2605 30.809 17.1225 29.852 17.9765 28.888ZM15.2995 26.701C15.3015 26.694 15.3025 26.688 15.3035 26.681C15.2725 26.686 15.2175 26.67 15.2185 26.656C15.2175 26.67 15.2705 26.686 15.2995 26.701ZM15.3045 26.675C15.3225 26.535 15.3375 26.415 15.3705 26.292C15.4095 26.238 15.4315 26.188 15.4625 26.122C15.4975 26.062 15.5355 26.022 15.5485 25.975C15.5355 26.022 15.4975 26.062 15.4445 26.125C15.3965 26.195 15.3745 26.245 15.3525 26.295C15.3375 26.415 15.3225 26.535 15.3045 26.675ZM15.9865 24.2C16.0985 23.738 16.2125 23.277 16.3405 22.8C16.2915 22.706 16.2395 22.598 16.2245 22.486C16.2395 22.598 16.2915 22.706 16.3265 22.816C16.2125 23.277 16.0985 23.738 15.9865 24.2ZM10.2825 19.76C9.80555 19.681 9.40454 19.427 9.00354 19.156C8.86454 19.283 8.66854 19.238 8.57154 19.082C8.66854 19.238 8.86455 19.283 9.00555 19.173C9.40455 19.427 9.80555 19.681 10.2825 19.76ZM17.2655 13.145C17.3805 13.267 17.5635 13.349 17.8195 13.408C17.8765 13.424 17.9225 13.428 17.9895 13.432C18.1885 13.426 18.3655 13.41 18.5435 13.411C18.3655 13.41 18.1885 13.426 17.9845 13.417C17.9085 13.399 17.8575 13.397 17.8075 13.396C17.5575 13.342 17.3795 13.264 17.2655 13.145ZM33.5905 11.561C33.7495 12.245 33.8185 12.95 33.9155 13.658C33.9315 13.691 33.9425 13.731 33.9475 13.775C33.9425 13.726 33.9355 13.686 33.9275 13.646C33.8185 12.95 33.7495 12.245 33.5905 11.561ZM33.9155 13.664C33.9165 13.734 33.9275 13.794 33.9385 13.872C33.9535 13.98 33.9675 14.069 33.9675 14.158C33.9436 14.159 33.9345 14.159 33.9095 14.16C33.8725 14.16 33.8515 14.16 33.8305 14.137C33.8285 14.011 33.8265 13.908 33.8275 13.787C33.8135 13.729 33.7985 13.688 33.7825 13.624C33.7475 13.355 33.7435 13.099 33.6715 12.864C33.5205 12.364 33.6085 11.81 33.3225 11.32C33.2935 11.417 33.2635 11.493 33.2085 11.634C33.2635 11.493 33.2935 11.417 33.3225 11.342C33.6085 11.81 33.5205 12.364 33.6715 12.864C33.7435 13.099 33.7475 13.355 33.7695 13.634C33.7705 13.643 33.7725 13.652 33.7735 13.661C33.7995 13.692 33.8145 13.731 33.8275 13.787C33.8145 13.773 33.8025 13.754 33.7925 13.731C33.8015 13.758 33.8135 13.781 33.8245 13.805C33.8265 13.908 33.8285 14.011 33.8165 14.152C33.7945 14.418 33.7875 14.647 33.7625 14.878C33.5925 14.948 33.5925 14.861 33.5725 14.741C33.5925 14.861 33.5925 14.948 33.7625 14.897C33.7815 14.952 33.7815 14.991 33.7605 15.03C33.7815 15.117 33.7815 15.205 33.7815 15.314C33.7305 15.296 33.6375 15.255 33.6385 15.216C33.6375 15.255 33.7305 15.296 33.7955 15.35C33.8045 15.422 33.8025 15.486 33.8025 15.548C33.8025 15.485 33.8045 15.417 33.7955 15.328C33.7815 15.205 33.7815 15.117 33.7805 15.029C33.7815 14.991 33.7815 14.952 33.7815 14.895C33.7875 14.647 33.7945 14.418 33.8155 14.174C33.8515 14.16 33.8725 14.16 33.9115 14.179C33.9305 14.236 33.9305 14.274 33.9165 14.314C33.9325 14.37 33.9625 14.423 33.9915 14.476C33.9975 14.526 34.0035 14.575 33.9875 14.647C33.8415 14.745 33.8295 14.815 33.9795 14.875C33.9715 15.166 33.9636 15.456 33.9385 15.779C33.8715 15.917 33.8345 16.019 33.9955 16.063C33.9995 16.098 34.0045 16.132 33.9995 16.182C33.9495 16.201 33.9085 16.205 33.8515 16.208C33.8245 16.007 33.8115 15.806 33.8035 15.605C33.8115 15.806 33.8245 16.007 33.8355 16.231C33.8175 16.529 33.8015 16.804 33.7845 17.079C33.7825 17.117 33.7805 17.155 33.7755 17.212C33.7245 17.336 33.6765 17.441 33.5945 17.621C33.6765 17.442 33.7245 17.337 33.7715 17.232C33.7725 17.225 33.7745 17.219 33.7755 17.212C33.7805 17.155 33.7825 17.117 33.8015 17.078C33.8535 17.075 33.8875 17.072 33.9225 17.091C33.9105 17.204 33.9015 17.297 33.8815 17.388C33.9015 17.297 33.9105 17.204 33.9255 17.073C33.9285 16.997 33.9295 16.96 33.9445 16.912C33.9535 16.823 33.9495 16.744 33.9445 16.648C33.9455 16.596 33.9475 16.561 33.9645 16.519C33.9925 16.458 34.0045 16.405 34.0195 16.332C34.0115 16.274 34.0005 16.236 33.9995 16.182C34.0045 16.132 33.9995 16.098 34.0065 16.046C33.9975 15.951 33.9775 15.872 33.9565 15.77C33.9635 15.456 33.9715 15.166 33.9945 14.863C34.0056 14.787 34.0005 14.724 34.0025 14.643C34.0035 14.575 33.9975 14.526 34.0035 14.459C33.9625 14.423 33.9325 14.37 33.9165 14.314C33.9495 14.314 33.9685 14.315 34.0005 14.319C34.0145 14.361 34.0145 14.4 34.0045 14.455C34.0145 14.4 34.0145 14.36 34.0195 14.304C34.0095 14.244 33.9955 14.201 33.9815 14.158C33.9675 14.069 33.9535 13.98 33.9505 13.861C33.9505 13.852 33.9505 13.843 33.9505 13.834C33.9505 13.837 33.9505 13.839 33.9505 13.842C33.9275 13.793 33.9165 13.734 33.9155 13.664ZM31.4935 6.924C31.2995 6.595 31.0755 6.283 30.8575 5.948C30.8755 6.045 30.8845 6.127 30.8945 6.209L30.8655 5.963C31.0755 6.283 31.2995 6.595 31.4935 6.924ZM19.7325 4.619C19.6155 5.068 19.3485 5.48 19.3875 5.978C19.3865 5.986 19.3905 6.003 19.3705 6.009C19.3125 6.171 19.2735 6.327 19.2225 6.496C19.1365 6.657 19.0425 6.799 18.9935 6.955C19.0425 6.799 19.1365 6.657 19.2425 6.492C19.2475 6.479 19.2525 6.466 19.2575 6.453C19.2775 6.309 19.3155 6.162 19.3705 6.009C19.3595 6.094 19.3425 6.182 19.3195 6.271C19.3465 6.179 19.3685 6.091 19.3905 6.003C19.3905 6.003 19.3865 5.986 19.4075 5.977C19.6455 5.807 19.8435 5.817 20.0305 6.024C19.8435 5.817 19.6455 5.807 19.4085 5.969C19.3485 5.48 19.6155 5.068 19.7325 4.619ZM18.1645 9.65C18.1165 9.801 18.0945 9.96 18.0595 10.125C18.0585 10.136 18.0605 10.156 18.0425 10.162C17.9845 10.304 17.9455 10.44 17.8985 10.593C17.7585 11.073 17.6275 11.537 17.4775 12.007C17.5615 12.216 17.5975 12.447 17.7025 12.64C17.5975 12.447 17.5615 12.216 17.4965 12.001C17.6275 11.537 17.7585 11.073 17.9175 10.589C17.9205 10.582 17.9235 10.575 17.9265 10.568C17.9465 10.437 17.9855 10.302 18.0425 10.162C18.0295 10.249 18.0075 10.338 17.9785 10.43C18.0105 10.335 18.0355 10.245 18.0605 10.156C18.0605 10.156 18.0585 10.136 18.0795 10.125C18.1725 10.034 18.3075 9.952 18.3055 9.873C18.3075 9.952 18.1725 10.034 18.0805 10.115C18.0945 9.96 18.1165 9.801 18.1645 9.65ZM17.8925 13.239C18.3085 13.24 18.7245 13.24 19.1625 13.24C19.2885 13.241 19.3925 13.241 19.5065 13.253C19.5615 13.257 19.6075 13.249 19.6765 13.241C19.9055 13.24 20.1115 13.24 20.3385 13.24C20.4375 13.208 20.5565 13.156 20.6785 13.148C20.5565 13.156 20.4375 13.208 20.3165 13.239C20.1115 13.24 19.9055 13.24 19.6675 13.228C19.6515 13.227 19.6365 13.226 19.6235 13.226C19.6295 13.226 19.6365 13.227 19.6435 13.227C19.6075 13.249 19.5615 13.257 19.5065 13.253C19.5305 13.239 19.5595 13.23 19.5925 13.227C19.5545 13.229 19.5255 13.235 19.4965 13.24C19.3925 13.241 19.2885 13.241 19.1575 13.22C18.9695 13.177 18.8095 13.143 18.6475 13.138C18.8095 13.143 18.9695 13.177 19.1355 13.219C18.7245 13.24 18.3085 13.24 17.8925 13.239ZM26.2785 30.333C26.7345 29.912 27.1515 29.45 27.6025 28.998C27.7275 28.843 27.8375 28.696 27.9465 28.547C27.9445 28.546 27.9395 28.545 27.9285 28.547C27.7375 28.654 27.5685 28.763 27.5865 29.006C27.1515 29.45 26.7345 29.912 26.2785 30.333ZM27.9485 28.546C27.9505 28.547 27.9555 28.547 27.9655 28.546C28.0195 28.396 28.0825 28.238 28.1665 28.092C28.0825 28.237 28.0205 28.394 27.9485 28.546ZM30.4905 25.412C30.7235 25.061 30.9485 24.704 31.1905 24.338C31.5365 23.686 31.8695 23.045 32.2135 22.396C32.2345 22.358 32.2435 22.33 32.2645 22.291C32.3205 22.184 32.3625 22.089 32.4175 21.982C31.9905 22.132 31.8365 21.849 31.7055 21.489C31.8365 21.849 31.9905 22.132 32.4045 21.993C32.3625 22.089 32.3205 22.184 32.2505 22.282C32.1845 22.271 32.1465 22.258 32.1085 22.245L32.2025 22.405C31.8695 23.045 31.5365 23.686 31.1905 24.338C31.0625 24.249 30.9485 24.149 30.7915 24.01L31.1765 24.349C30.9485 24.704 30.7235 25.061 30.4905 25.412ZM32.7945 21.047C32.9085 20.734 33.0075 20.414 33.1225 20.08C33.0585 20.141 33.0035 20.185 32.8955 20.27C33.0035 20.185 33.0585 20.141 33.1135 20.098C33.0075 20.414 32.9085 20.734 32.7945 21.047ZM3.34854 6.123C3.34454 6.153 3.32654 6.185 3.29254 6.219C3.29654 6.189 3.31454 6.157 3.34854 6.123ZM3.03654 6.58C3.00354 6.661 2.95454 6.747 2.88954 6.835C2.92254 6.753 2.97154 6.669 3.03654 6.58ZM2.82854 6.936C2.81254 6.983 2.78054 7.036 2.73254 7.09C2.74854 7.041 2.78054 6.991 2.82854 6.936ZM2.68154 7.146C2.68054 7.175 2.66454 7.208 2.63554 7.244C2.63554 7.214 2.65154 7.181 2.68154 7.146ZM2.47354 7.504C2.43854 7.601 2.38854 7.702 2.32154 7.805C2.35554 7.708 2.40654 7.608 2.47354 7.504ZM2.27055 7.861C2.27055 7.891 2.25554 7.924 2.22554 7.961C2.22654 7.931 2.24055 7.898 2.27055 7.861ZM2.11954 8.169C2.11654 8.2 2.09854 8.233 2.06554 8.267C2.06854 8.236 2.08654 8.204 2.11954 8.169ZM1.91354 8.527C1.90954 8.557 1.89154 8.59 1.85754 8.625C1.86054 8.594 1.87954 8.562 1.91354 8.527ZM1.65654 9.037C1.65554 9.068 1.63954 9.102 1.60754 9.139C1.60854 9.108 1.62554 9.074 1.65654 9.037ZM1.04155 10.675C1.02755 10.755 0.997544 10.841 0.952544 10.932C0.966544 10.852 0.995545 10.766 1.04155 10.675ZM0.674545 11.957C0.698545 11.956 0.709544 11.957 0.737544 11.975C0.753544 12.012 0.752544 12.033 0.751544 12.053C0.730544 12.055 0.708546 12.057 0.671546 12.059C0.657546 12.025 0.660545 11.993 0.674545 11.957ZM0.629546 12.157C0.615546 12.237 0.586546 12.325 0.540546 12.417C0.554546 12.335 0.583546 12.249 0.629546 12.157ZM0.445545 12.996C0.476544 13.009 0.490545 13.035 0.507545 13.092C0.509545 13.144 0.509544 13.165 0.509544 13.186C0.458544 13.37 0.406546 13.555 0.338546 13.746C0.358546 13.505 0.394545 13.256 0.445545 12.996ZM0.290546 14.283C0.306546 14.252 0.323545 14.241 0.360545 14.219C0.389545 14.208 0.398544 14.209 0.405544 14.228C0.386544 14.303 0.369546 14.359 0.352546 14.415C0.342546 14.416 0.332545 14.416 0.306545 14.42C0.291545 14.383 0.290546 14.343 0.290546 14.283ZM0.525546 13.189C0.561546 13.239 0.582544 13.285 0.585544 13.337C0.548544 13.393 0.529544 13.444 0.508544 13.518C0.505544 13.728 0.503543 13.915 0.483543 14.103C0.429543 14.108 0.393544 14.112 0.355544 14.099C0.339544 14.04 0.325546 13.999 0.310546 13.958C0.311546 13.903 0.312545 13.848 0.333545 13.766C0.406545 13.555 0.458546 13.37 0.525546 13.189ZM0.585544 13.337C0.582544 13.384 0.563545 13.435 0.527545 13.491C0.529545 13.444 0.548544 13.393 0.585544 13.337ZM0.483543 14.103C0.480543 14.136 0.460545 14.17 0.423545 14.207C0.398545 14.209 0.389545 14.208 0.367545 14.206C0.354545 14.185 0.355544 14.165 0.356544 14.131C0.393544 14.112 0.429543 14.108 0.483543 14.103ZM0.309543 18.216C0.325543 18.173 0.339545 18.148 0.374545 18.115C0.442545 18.357 0.490544 18.607 0.537544 18.858C0.539544 18.863 0.541544 18.868 0.543544 18.873C0.546544 18.873 0.552543 18.871 0.551543 18.887C0.547543 18.926 0.545545 18.948 0.542545 18.97C0.524545 19.029 0.507545 19.089 0.478545 19.16C0.414545 18.897 0.361543 18.622 0.330543 18.331C0.369543 18.377 0.383544 18.438 0.404544 18.498C0.383544 18.438 0.369544 18.377 0.335544 18.309C0.314544 18.28 0.310543 18.257 0.309543 18.216ZM0.335544 17.7C0.363544 17.715 0.380543 17.739 0.399543 17.778C0.400543 17.793 0.375544 17.794 0.362544 17.794C0.341544 17.765 0.333544 17.737 0.335544 17.7ZM7.17355 32.602C7.24455 32.635 7.31154 32.687 7.39754 32.758C7.41654 32.799 7.41754 32.821 7.41854 32.843C7.41754 32.869 7.41554 32.896 7.41054 32.941C7.32754 32.847 7.24955 32.734 7.17355 32.602ZM8.20454 34.752C8.27954 34.831 8.34954 34.929 8.43354 35.052C8.45054 35.1 8.45355 35.122 8.45655 35.144C8.45655 35.144 8.44154 35.15 8.43354 35.151C8.35054 35.025 8.27454 34.897 8.20454 34.752ZM9.22755 12.258C9.18655 12.171 8.96855 12.033 9.29055 12.009C9.28555 12.089 9.26255 12.169 9.22755 12.258ZM2.42955 8.06C2.42455 8.092 2.40154 8.128 2.36254 8.168C2.36754 8.135 2.39055 8.1 2.42955 8.06ZM8.30954 15.644C8.31154 15.548 8.33154 15.446 8.37154 15.341C8.37054 15.438 8.34954 15.538 8.30954 15.644ZM8.57854 15.157C8.52454 15.195 8.47554 15.216 8.40954 15.22C8.43954 15.147 8.48655 15.089 8.53255 15.031C8.54155 15.031 8.55054 15.031 8.57254 15.03C8.58554 15.066 8.58454 15.103 8.57854 15.157ZM25.6895 13.373C25.6365 13.394 25.5795 13.395 25.5025 13.401C25.4605 13.403 25.4395 13.401 25.4035 13.402C25.2855 13.362 25.1835 13.32 25.0755 13.26C25.2765 13.269 25.5115 13.145 25.6895 13.373ZM25.5025 13.401C25.5795 13.395 25.6365 13.394 25.6925 13.392C25.8805 13.393 26.0665 13.399 26.1505 13.633C25.9445 13.614 25.7405 13.575 25.5145 13.518C25.4875 13.468 25.4845 13.437 25.5025 13.401ZM24.9165 13.426C24.9475 13.424 24.9855 13.437 25.0285 13.465C24.9965 13.467 24.9605 13.453 24.9165 13.426ZM23.2185 22.766C23.1605 22.877 23.0875 22.996 22.9955 23.117C23.0525 23.004 23.1275 22.889 23.2185 22.766ZM4.21555 27.202C4.07455 26.883 3.95955 26.553 3.85355 26.209C4.16755 26.171 4.33455 25.997 4.34555 25.712C4.33455 25.997 4.16754 26.171 3.85054 26.19C3.76854 26.115 3.70754 26.039 3.63454 25.931C3.63154 25.927 3.62755 25.922 3.62455 25.918C3.49455 25.936 3.43455 25.88 3.40155 25.788C3.43555 25.883 3.49855 25.946 3.63655 25.95C3.70755 26.039 3.76855 26.115 3.83255 26.209C3.95955 26.553 4.07455 26.883 4.21555 27.202ZM3.54254 25.819C3.48354 25.748 3.42654 25.688 3.37054 25.627C3.36454 25.611 3.35454 25.598 3.33054 25.562C3.28154 25.424 3.31254 25.257 3.11354 25.269C2.97654 25.104 2.81954 24.97 2.73054 24.748C2.81954 24.97 2.97654 25.104 3.11354 25.288C3.18354 25.397 3.25154 25.487 3.33054 25.582C3.35454 25.598 3.36454 25.611 3.37054 25.646C3.42754 25.695 3.48454 25.752 3.54254 25.819ZM15.3705 26.292C15.3745 26.245 15.3965 26.195 15.4355 26.141C15.4315 26.188 15.4095 26.238 15.3705 26.292ZM0.722545 19.727C0.696545 19.567 0.675545 19.409 0.666545 19.241C0.703545 19.182 0.728545 19.132 0.743545 19.09C0.729545 19.128 0.705546 19.173 0.672546 19.226C0.627546 19.151 0.601543 19.072 0.559543 18.982C0.601543 19.072 0.626544 19.151 0.647544 19.246C0.670544 19.413 0.695545 19.571 0.722545 19.727ZM17.8195 13.408C17.8575 13.397 17.9085 13.399 17.9635 13.416C17.9225 13.428 17.8765 13.424 17.8195 13.408ZM33.9675 14.158C33.9955 14.201 34.0095 14.244 34.0055 14.302C33.9685 14.315 33.9495 14.314 33.9305 14.312C33.9305 14.274 33.9305 14.236 33.9275 14.179C33.9345 14.159 33.9436 14.159 33.9675 14.158ZM23.9655 13.255C24.1635 13.231 24.3775 13.221 24.6055 13.227C24.4075 13.252 24.1945 13.26 23.9655 13.255ZM33.9445 16.912C33.9245 16.845 33.9195 16.766 33.9295 16.676C33.9495 16.744 33.9535 16.823 33.9445 16.912ZM33.9645 16.519C33.9615 16.473 33.9735 16.419 34.0015 16.359C34.0045 16.405 33.9925 16.458 33.9645 16.519ZM33.8015 17.078C33.8015 16.804 33.8175 16.529 33.8515 16.231C33.9085 16.205 33.9495 16.201 33.9905 16.198C34.0005 16.236 34.0115 16.274 34.0035 16.339C33.9735 16.419 33.9615 16.473 33.9485 16.526C33.9475 16.561 33.9455 16.596 33.9295 16.659C33.9195 16.766 33.9245 16.845 33.9295 16.924C33.9295 16.96 33.9285 16.997 33.9245 17.051C33.8875 17.072 33.8535 17.075 33.8015 17.078ZM34.0065 16.046C33.8345 16.019 33.8715 15.917 33.9395 15.802C33.9775 15.872 33.9975 15.951 34.0065 16.046ZM33.9945 14.863C33.8295 14.815 33.8415 14.745 33.9815 14.665C34.0005 14.724 34.0056 14.787 33.9945 14.863ZM27.6025 28.998C27.5685 28.763 27.7375 28.654 27.9305 28.548C27.8385 28.695 27.7285 28.843 27.6025 28.998ZM32.2135 22.396C32.1705 22.351 32.1395 22.298 32.1085 22.245C32.1465 22.258 32.1845 22.271 32.2375 22.293C32.2435 22.33 32.2345 22.358 32.2135 22.396ZM3.11354 25.288C3.31254 25.257 3.28154 25.424 3.31955 25.557C3.25154 25.487 3.18354 25.397 3.11354 25.288ZM7.24454 2.128C7.12854 2.21 7.02555 2.282 6.90354 2.346C6.87154 2.334 6.85955 2.329 6.84655 2.324C6.99155 2.193 7.13755 2.062 7.29855 1.948C7.29555 2.015 7.27654 2.066 7.24454 2.128ZM29.2065 27.424C29.2215 27.452 29.2215 27.489 29.2205 27.544C29.1995 27.568 29.1795 27.573 29.1435 27.578C29.1495 27.529 29.1705 27.48 29.2065 27.424ZM24.4915 0.624002C24.4805 0.621002 24.4695 0.618003 24.4585 0.615003C23.8905 0.491003 23.3245 0.524003 22.7455 0.615003C22.8985 0.540003 23.0665 0.487003 23.2345 0.434003C23.2715 0.433003 23.3085 0.432003 23.3875 0.434003C23.5565 0.437003 23.6875 0.419002 23.8095 0.443002C23.6875 0.419002 23.5565 0.437003 23.4055 0.433003C23.4265 0.400003 23.4755 0.341002 23.5155 0.346002C23.9215 0.400002 24.3265 0.463004 24.7305 0.530004C24.7615 0.535004 24.7855 0.585004 24.8135 0.634004C24.7125 0.646004 24.6125 0.638002 24.4915 0.624002ZM22.6365 0.642003C22.6095 0.628003 22.5985 0.614003 22.5765 0.593003C22.7795 0.526003 22.9925 0.467003 23.2205 0.420003C23.0665 0.487003 22.8985 0.540002 22.7245 0.610002C22.6965 0.632002 22.6755 0.636003 22.6365 0.642003ZM10.5665 8.104C10.6885 7.639 10.8205 7.187 10.9675 6.736C10.9925 6.736 11.0025 6.737 11.0125 6.737C11.0095 6.776 11.0055 6.814 10.9875 6.881C10.9675 6.94 10.9625 6.971 10.9585 7.002C10.9565 7.023 10.9545 7.043 10.9355 7.09C10.8975 7.197 10.8755 7.278 10.8535 7.358C10.8515 7.379 10.8505 7.401 10.8335 7.447C10.8135 7.503 10.8085 7.533 10.8035 7.564C10.8015 7.585 10.7995 7.605 10.7825 7.654C10.7035 7.827 10.6405 7.973 10.5665 8.104ZM28.9395 27.77C28.9585 27.788 28.9615 27.812 28.9645 27.853C28.9275 27.892 28.8905 27.914 28.8365 27.936C28.8555 27.883 28.8895 27.829 28.9395 27.77ZM19.4655 4.772C19.4235 4.821 19.3815 4.856 19.3235 4.896C19.3405 4.814 19.3735 4.728 19.4245 4.637C19.4465 4.645 19.4495 4.657 19.4625 4.687C19.4685 4.722 19.4675 4.74 19.4655 4.772ZM32.5195 22.24C32.5385 22.257 32.5415 22.281 32.5445 22.324C32.5175 22.358 32.4915 22.373 32.4515 22.389C32.4595 22.342 32.4815 22.294 32.5195 22.24ZM29.9635 26.49C29.9815 26.508 29.9845 26.532 29.9855 26.574C29.9445 26.61 29.9065 26.628 29.8515 26.646C29.8725 26.596 29.9105 26.546 29.9635 26.49ZM29.3515 27.262C29.3685 27.28 29.3705 27.303 29.3705 27.341C29.3475 27.36 29.3265 27.362 29.2885 27.364C29.2935 27.331 29.3145 27.298 29.3515 27.262ZM7.72755 1.793C7.56955 1.913 7.41354 2.015 7.25854 2.117C7.27654 2.066 7.29554 2.015 7.31654 1.948C7.31954 1.933 7.34154 1.926 7.37054 1.923C7.37654 1.921 7.38155 1.919 7.38755 1.917C7.49155 1.834 7.61455 1.75 7.75455 1.667C7.77555 1.678 7.77655 1.689 7.77055 1.721C7.74955 1.75 7.73854 1.762 7.73154 1.776C7.65854 1.808 7.58654 1.839 7.50954 1.871C7.58854 1.84 7.65855 1.813 7.72755 1.793ZM31.0375 24.954C31.0565 24.971 31.0595 24.995 31.0635 25.036C31.0265 25.076 30.9905 25.098 30.9375 25.121C30.9545 25.069 30.9885 25.014 31.0375 24.954ZM11.3225 1.782C11.0285 1.54 10.7485 1.306 10.4875 1.068C10.5675 1.078 10.6285 1.091 10.6905 1.105C10.9125 1.312 11.1355 1.52 11.3545 1.752C11.3515 1.776 11.3375 1.79 11.3225 1.782ZM21.3875 1.34C21.1955 1.458 21.0325 1.623 20.8385 1.762C20.9065 1.642 20.9775 1.51 21.0815 1.416C21.2235 1.287 21.3815 1.167 21.5505 1.077C21.8705 0.907004 22.2045 0.760002 22.5605 0.602002C22.5985 0.614002 22.6095 0.628003 22.6205 0.642003C22.2085 0.873003 21.7905 1.094 21.3875 1.34ZM32.6485 21.901C32.6845 21.885 32.7185 21.884 32.7695 21.882C32.7535 21.933 32.7215 21.985 32.6675 22.023C32.6435 21.998 32.6395 21.987 32.6355 21.977C32.6395 21.957 32.6425 21.936 32.6485 21.901ZM31.1935 24.703C31.2115 24.721 31.2145 24.744 31.2145 24.784C31.1875 24.815 31.1635 24.83 31.1245 24.848C31.1325 24.803 31.1545 24.755 31.1935 24.703ZM30.5295 25.674C30.5475 25.693 30.5485 25.716 30.5475 25.755C30.5205 25.787 30.4955 25.802 30.4555 25.819C30.4655 25.773 30.4895 25.726 30.5295 25.674ZM28.9235 3.423C28.9555 3.408 28.9915 3.409 29.0475 3.411C29.1085 3.458 29.1515 3.504 29.2085 3.559C29.2205 3.593 29.2205 3.618 29.2155 3.662C29.1175 3.6 29.0235 3.52 28.9235 3.423ZM32.6195 21.985C32.6395 21.987 32.6435 21.998 32.6505 22.025C32.6535 22.05 32.6535 22.059 32.6505 22.08C32.6225 22.122 32.5965 22.151 32.5575 22.185C32.5635 22.125 32.5845 22.059 32.6195 21.985ZM28.5315 28.232C28.5505 28.25 28.5525 28.274 28.5545 28.314C28.5535 28.341 28.5515 28.35 28.5425 28.372C28.4845 28.402 28.4335 28.419 28.3655 28.437C28.4045 28.37 28.4605 28.303 28.5315 28.232ZM27.2015 29.665C27.2195 29.684 27.2215 29.707 27.2235 29.747C27.2105 29.776 27.1975 29.788 27.1765 29.81C27.1445 29.82 27.1225 29.82 27.0825 29.817C27.1055 29.766 27.1455 29.718 27.2015 29.665ZM13.3695 25.226C13.3755 25.225 13.3825 25.225 13.3885 25.224C13.3475 25.185 13.3055 25.147 13.2645 25.108C13.3025 25.144 13.3415 25.18 13.3695 25.226ZM25.4075 27.772C25.4045 27.774 25.4015 27.777 25.3985 27.779C25.5775 27.946 25.6605 27.835 25.7395 27.714C25.6615 27.833 25.5805 27.942 25.4075 27.772ZM25.8795 27.492C25.8745 27.492 25.8695 27.492 25.8655 27.493L25.8335 27.597C25.8435 27.564 25.8535 27.531 25.8795 27.492ZM30.8415 25.297C30.8685 25.286 30.8875 25.276 30.9075 25.266C30.8855 25.315 30.8645 25.364 30.8255 25.414C30.8065 25.391 30.8055 25.368 30.8005 25.328C30.7965 25.311 30.8005 25.309 30.8165 25.307C30.8175 25.307 30.8175 25.306 30.8185 25.306C30.8275 25.261 30.8505 25.214 30.8905 25.165C30.9095 25.186 30.9115 25.209 30.9105 25.249C30.8885 25.272 30.8685 25.285 30.8415 25.297ZM10.0675 19.38C9.63255 19.326 9.29654 19.082 9.00954 18.733C9.03554 18.72 9.07654 18.711 9.10154 18.728C9.42354 18.937 9.74255 19.15 10.0675 19.38ZM27.2175 29.661C27.3635 29.51 27.5095 29.36 27.6745 29.21C27.7095 29.249 27.7495 29.311 27.7385 29.322C27.5825 29.474 27.4205 29.618 27.2415 29.747C27.2215 29.707 27.2195 29.684 27.2175 29.661ZM8.46754 16.314C8.52254 15.984 8.59554 15.647 8.68354 15.298C8.73154 15.647 8.66354 15.989 8.46754 16.314ZM16.9945 21.672C16.9775 21.587 16.9775 21.491 16.9745 21.363C16.9715 21.311 16.9715 21.293 16.9715 21.274C17.0465 21.106 17.1205 20.938 17.2115 20.764C17.1555 21.059 17.0835 21.361 16.9945 21.672ZM16.5315 23.304C16.4665 23.469 16.4025 23.617 16.3125 23.759C16.3675 23.456 16.4485 23.159 16.5415 22.869C16.5645 22.89 16.5745 22.904 16.5855 22.919C16.5845 22.941 16.5835 22.962 16.5665 23.011C16.5475 23.086 16.5425 23.133 16.5385 23.181C16.5365 23.216 16.5355 23.251 16.5315 23.304ZM10.2075 9.709C10.2965 9.378 10.4025 9.041 10.5235 8.692C10.4335 9.022 10.3285 9.362 10.2075 9.709ZM9.47855 12.064C9.56655 11.833 9.65355 11.601 9.75555 11.356C9.70255 11.615 9.63454 11.886 9.55054 12.161C9.52354 12.165 9.51355 12.164 9.48555 12.146C9.47155 12.107 9.47554 12.086 9.47855 12.064ZM11.0295 6.732C11.0025 6.737 10.9925 6.736 10.9665 6.715C10.9575 6.641 10.9645 6.588 10.9715 6.534C11.0495 6.381 11.1275 6.229 11.2215 6.07C11.1735 6.285 11.1105 6.506 11.0295 6.732ZM28.1385 28.688C28.1995 28.61 28.2595 28.532 28.3515 28.446C28.4335 28.419 28.4845 28.402 28.5355 28.384C28.4175 28.52 28.2995 28.657 28.1635 28.775C28.1435 28.735 28.1405 28.711 28.1385 28.688ZM16.6035 22.915C16.5745 22.904 16.5645 22.89 16.5415 22.852C16.5325 22.807 16.5365 22.785 16.5405 22.763C16.6225 22.627 16.7035 22.491 16.8015 22.35C16.7515 22.533 16.6865 22.721 16.6035 22.915ZM17.2485 20.647C17.2205 20.434 17.2085 20.21 17.1955 19.966C17.3865 20.091 17.4055 20.272 17.2485 20.647ZM11.6315 4.18C11.7105 3.994 11.7895 3.808 11.8845 3.614C11.9585 3.863 11.8515 4.072 11.6955 4.276C11.6685 4.28 11.6575 4.279 11.6315 4.262C11.6205 4.223 11.6255 4.202 11.6315 4.18ZM10.6875 1.087C10.6285 1.091 10.5675 1.078 10.4745 1.061C10.4065 1.047 10.3695 1.035 10.3335 1.024C10.2385 0.974003 10.1445 0.924002 10.0385 0.859002C10.2985 0.766002 10.4865 0.933003 10.6875 1.087ZM11.9055 2.83C11.8275 2.701 11.7555 2.552 11.6665 2.379C11.6475 2.339 11.6445 2.321 11.6495 2.285C11.6605 2.253 11.6645 2.24 11.6695 2.227C11.7505 2.421 11.8315 2.615 11.9055 2.83ZM10.5775 8.118C10.6405 7.973 10.7035 7.827 10.7805 7.67C10.8805 7.896 10.7335 8.074 10.6215 8.271C10.6055 8.276 10.5825 8.268 10.5755 8.246C10.5715 8.189 10.5745 8.154 10.5775 8.118ZM32.0535 23.365C32.1385 23.164 32.2425 22.962 32.3615 22.757C32.2755 22.956 32.1735 23.16 32.0535 23.365ZM28.5485 28.227C28.6185 28.16 28.6885 28.092 28.7755 28.026C28.8745 28.228 28.6895 28.251 28.5725 28.314C28.5525 28.274 28.5505 28.25 28.5485 28.227ZM29.4895 3.887C29.4805 3.908 29.4695 3.912 29.4405 3.919C29.3565 3.853 29.2895 3.782 29.2215 3.677C29.2205 3.618 29.2205 3.593 29.2215 3.568C29.3095 3.669 29.3985 3.769 29.4895 3.887ZM28.9185 3.407C28.8685 3.355 28.8185 3.304 28.7675 3.232C28.9135 3.148 28.9295 3.156 29.0465 3.393C28.9915 3.409 28.9555 3.408 28.9185 3.407ZM8.72155 15.186C8.74055 15.028 8.77654 14.864 8.82654 14.687C8.92155 14.865 8.87755 15.032 8.72155 15.186ZM16.8385 22.235C16.8605 22.094 16.8995 21.943 16.9555 21.786C16.9325 21.929 16.8935 22.078 16.8385 22.235ZM11.6625 2.212C11.6645 2.24 11.6605 2.253 11.6355 2.275C11.5225 2.119 11.4295 1.954 11.3375 1.79C11.3375 1.79 11.3515 1.776 11.3585 1.77C11.4215 1.829 11.4775 1.895 11.5475 1.985C11.5775 2.031 11.5925 2.053 11.6075 2.076C11.6235 2.116 11.6395 2.157 11.6625 2.212ZM26.6555 30.221C26.7635 30.106 26.8715 29.99 26.9995 29.888C27.0185 29.924 27.0185 29.947 27.0195 29.97C26.9385 30.047 26.8585 30.125 26.7515 30.216C26.7005 30.227 26.6785 30.224 26.6555 30.221ZM9.39954 0.832002C9.27154 0.897002 9.13054 0.949001 8.96954 1C9.09554 0.939001 9.24154 0.879002 9.39954 0.832002ZM29.9795 26.484C30.0255 26.426 30.0715 26.367 30.1415 26.293C30.1915 26.265 30.2175 26.252 30.2435 26.239C30.1715 26.357 30.0995 26.475 30.0105 26.596C29.9925 26.599 29.9885 26.596 29.9875 26.576C29.9845 26.532 29.9815 26.508 29.9795 26.484ZM33.0825 21.017C33.1315 20.868 33.1975 20.716 33.2785 20.557C33.2295 20.705 33.1645 20.859 33.0825 21.017ZM6.83255 2.333C6.85955 2.329 6.87154 2.334 6.89654 2.361C6.79154 2.474 6.67454 2.564 6.55754 2.654C6.56654 2.625 6.57655 2.596 6.59055 2.553C6.66955 2.472 6.74355 2.407 6.83255 2.333ZM9.79454 11.243C9.81654 11.117 9.85555 10.986 9.90855 10.844C9.88555 10.967 9.84854 11.103 9.79454 11.243ZM30.2565 26.229C30.2175 26.252 30.1915 26.265 30.1515 26.28C30.2085 26.166 30.2815 26.049 30.3745 25.945C30.3955 25.98 30.3965 26.003 30.3975 26.026C30.3545 26.09 30.3125 26.154 30.2565 26.229ZM17.5365 28.907C17.4785 29.003 17.4035 29.1 17.3125 29.203C17.3705 29.109 17.4445 29.008 17.5365 28.907ZM28.9555 27.765C28.9985 27.717 29.0425 27.669 29.1035 27.621C29.0805 27.704 29.0415 27.787 28.9835 27.853C28.9615 27.812 28.9585 27.788 28.9555 27.765ZM19.2755 5.001C19.3025 5.041 19.3105 5.085 19.3325 5.139C19.3435 5.171 19.3405 5.192 19.3325 5.229C19.2975 5.249 19.2665 5.252 19.2215 5.258C19.2235 5.175 19.2395 5.089 19.2755 5.001ZM32.4175 22.603C32.3965 22.595 32.3935 22.585 32.3855 22.559C32.3915 22.501 32.4035 22.458 32.4405 22.401C32.4915 22.373 32.5175 22.358 32.5445 22.344C32.5475 22.346 32.5525 22.35 32.5525 22.35C32.5135 22.433 32.4745 22.517 32.4175 22.603ZM9.92354 0.824002C9.83854 0.843002 9.74754 0.845003 9.63354 0.843003C9.71254 0.828003 9.81555 0.817002 9.92354 0.824002ZM30.4165 26.027C30.3965 26.003 30.3955 25.98 30.3915 25.94C30.3985 25.896 30.4095 25.868 30.4455 25.829C30.4955 25.802 30.5205 25.787 30.5485 25.774C30.5505 25.776 30.5545 25.779 30.5545 25.779C30.5145 25.862 30.4745 25.945 30.4165 26.027ZM29.2215 27.416C29.2275 27.4 29.2375 27.387 29.2785 27.371C29.3265 27.362 29.3475 27.36 29.3715 27.36C29.3745 27.363 29.3795 27.368 29.3795 27.368C29.3385 27.433 29.2975 27.497 29.2385 27.544C29.2215 27.489 29.2215 27.452 29.2215 27.416ZM10.8695 7.353C10.8755 7.278 10.8975 7.197 10.9335 7.106C10.9265 7.179 10.9065 7.263 10.8695 7.353ZM31.0535 24.948C31.0675 24.924 31.0825 24.9 31.1185 24.861C31.1635 24.83 31.1875 24.815 31.2145 24.802C31.2175 24.804 31.2225 24.808 31.2225 24.808C31.1815 24.89 31.1405 24.971 31.0815 25.036C31.0595 24.995 31.0565 24.971 31.0535 24.948ZM30.5465 25.67C30.5785 25.629 30.6105 25.588 30.6615 25.533C30.6885 25.521 30.6975 25.522 30.7075 25.523C30.6685 25.606 30.6305 25.69 30.5735 25.776C30.5545 25.779 30.5505 25.776 30.5505 25.757C30.5485 25.716 30.5475 25.693 30.5465 25.67ZM19.1655 5.505C19.1505 5.57 19.1175 5.639 19.0695 5.715C19.0855 5.65 19.1165 5.579 19.1655 5.505ZM32.5345 22.233C32.5345 22.233 32.5375 22.211 32.5545 22.195C32.5965 22.151 32.6225 22.122 32.6475 22.093C32.6285 22.176 32.6085 22.258 32.5705 22.345C32.5525 22.35 32.5475 22.346 32.5465 22.326C32.5415 22.281 32.5385 22.257 32.5345 22.233ZM32.8265 21.682C32.8425 21.618 32.8755 21.551 32.9235 21.478C32.9065 21.541 32.8745 21.61 32.8265 21.682ZM31.8995 23.672C31.9165 23.608 31.9515 23.544 31.9995 23.475C31.9815 23.537 31.9495 23.604 31.8995 23.672ZM30.7155 25.51C30.6975 25.522 30.6885 25.521 30.6645 25.517C30.6875 25.449 30.7245 25.384 30.7835 25.332C30.8055 25.368 30.8065 25.391 30.8075 25.414C30.7795 25.442 30.7515 25.47 30.7155 25.51ZM27.0365 29.971C27.0185 29.947 27.0185 29.924 27.0165 29.884C27.0225 29.853 27.0325 29.84 27.0715 29.824C27.1225 29.82 27.1445 29.82 27.1675 29.82C27.1295 29.87 27.0925 29.921 27.0365 29.971ZM17.8435 28.547C17.8245 28.596 17.7875 28.647 17.7345 28.7C17.7545 28.652 17.7895 28.6 17.8435 28.547ZM16.5535 23.175C16.5425 23.133 16.5475 23.086 16.5655 23.027C16.5755 23.067 16.5715 23.118 16.5535 23.175ZM10.1465 9.958C10.1365 9.917 10.1425 9.874 10.1625 9.819C10.1705 9.857 10.1665 9.906 10.1465 9.958ZM9.48154 12.467C9.47054 12.428 9.47654 12.384 9.49354 12.329C9.50354 12.366 9.50054 12.415 9.48154 12.467ZM8.89954 18.596C8.86554 18.575 8.83155 18.535 8.79655 18.48C8.83055 18.502 8.86454 18.54 8.89954 18.596ZM29.4795 27.212C29.4585 27.263 29.4365 27.312 29.3965 27.364C29.3795 27.368 29.3745 27.363 29.3735 27.344C29.3705 27.303 29.3685 27.28 29.3665 27.258C29.3665 27.258 29.3685 27.256 29.3835 27.253C29.4235 27.235 29.4475 27.221 29.4715 27.206C29.4715 27.206 29.4765 27.21 29.4795 27.212ZM33.3165 20.445C33.3075 20.419 33.3145 20.386 33.3325 20.35C33.3405 20.377 33.3365 20.408 33.3165 20.445ZM11.6205 2.068C11.5925 2.053 11.5775 2.031 11.5615 1.995C11.5845 2.007 11.6085 2.034 11.6205 2.068ZM33.3855 20.194C33.3865 20.163 33.4035 20.131 33.4345 20.095C33.4325 20.124 33.4175 20.159 33.3855 20.194ZM31.3865 24.542C31.3905 24.511 31.4115 24.481 31.4455 24.446C31.4405 24.476 31.4225 24.509 31.3865 24.542ZM31.4895 24.389C31.4925 24.358 31.5115 24.327 31.5445 24.293C31.5405 24.322 31.5235 24.355 31.4895 24.389ZM31.7975 23.827C31.8005 23.796 31.8205 23.765 31.8545 23.73C31.8505 23.759 31.8325 23.793 31.7975 23.827ZM10.8165 7.56C10.8085 7.533 10.8135 7.503 10.8315 7.463C10.8395 7.487 10.8345 7.521 10.8165 7.56ZM10.9715 6.998C10.9625 6.971 10.9675 6.94 10.9855 6.9C10.9935 6.924 10.9895 6.959 10.9715 6.998Z" fill="url(#paint0_linear_2432_3351)"/>
<path d="M54.3768 9.92261V12.7067H58.8666V15.2947H54.3768V18.314H59.4547V21H51.0242V7.23659H59.4547V9.92261H54.3768ZM68.2974 9.94222C69.5783 9.94222 70.5978 10.3605 71.3559 11.197C72.1271 12.0205 72.5127 13.1576 72.5127 14.6084V21H69.1796V15.0594C69.1796 14.3274 68.9901 13.7588 68.6111 13.3537C68.232 12.9485 67.7223 12.7459 67.0818 12.7459C66.4413 12.7459 65.9316 12.9485 65.5525 13.3537C65.1735 13.7588 64.9839 14.3274 64.9839 15.0594V21H61.6313V10.0599H64.9839V11.5107C65.3238 11.0271 65.7813 10.648 66.3564 10.3735C66.9315 10.086 67.5785 9.94222 68.2974 9.94222ZM85.1552 15.3535C85.1552 15.6672 85.1355 15.9939 85.0963 16.3338H77.5088C77.5611 17.0134 77.7768 17.5363 78.1558 17.9023C78.5479 18.2552 79.025 18.4316 79.587 18.4316C80.4236 18.4316 81.0052 18.0787 81.332 17.3729H84.9003C84.7173 18.0918 84.384 18.7388 83.9004 19.3139C83.4298 19.889 82.8351 20.3399 82.1162 20.6667C81.3973 20.9935 80.5935 21.1568 79.7047 21.1568C78.6329 21.1568 77.6787 20.9281 76.8422 20.4706C76.0057 20.0132 75.3521 19.3596 74.8816 18.51C74.4111 17.6604 74.1758 16.6671 74.1758 15.5299C74.1758 14.3928 74.4045 13.3994 74.862 12.5498C75.3325 11.7002 75.9861 11.0467 76.8226 10.5892C77.6591 10.1317 78.6198 9.903 79.7047 9.903C80.7634 9.903 81.7045 10.1252 82.5279 10.5696C83.3514 11.014 83.9919 11.6479 84.4493 12.4714C84.9199 13.2948 85.1552 14.2555 85.1552 15.3535ZM81.7241 14.4712C81.7241 13.8961 81.528 13.4386 81.1359 13.0988C80.7438 12.7589 80.2537 12.589 79.6655 12.589C79.1034 12.589 78.6264 12.7524 78.2342 13.0792C77.8552 13.4059 77.6199 13.87 77.5284 14.4712H81.7241ZM90.2765 11.8832C90.6686 11.282 91.1587 10.8114 91.7469 10.4716C92.3351 10.1187 92.9886 9.94222 93.7075 9.94222V13.4909H92.786C91.9495 13.4909 91.3221 13.6739 90.9038 14.0399C90.4856 14.3928 90.2765 15.0202 90.2765 15.922V21H86.9238V10.0599H90.2765V11.8832ZM99.4665 9.903C100.238 9.903 100.911 10.0599 101.486 10.3735C102.074 10.6872 102.525 11.099 102.839 11.6087V10.0599H106.191V20.9804C106.191 21.9868 105.989 22.8952 105.584 23.7056C105.191 24.5291 104.584 25.1826 103.76 25.6662C102.95 26.1498 101.937 26.3917 100.721 26.3917C99.1005 26.3917 97.7869 26.0061 96.7804 25.2349C95.774 24.4768 95.1989 23.4442 95.0551 22.1371H98.3685C98.4731 22.5554 98.7214 22.8822 99.1136 23.1174C99.5057 23.3658 99.9893 23.49 100.564 23.49C101.257 23.49 101.806 23.2874 102.211 22.8822C102.63 22.4901 102.839 21.8561 102.839 20.9804V19.4315C102.512 19.9413 102.061 20.3595 101.486 20.6863C100.911 21 100.238 21.1568 99.4665 21.1568C98.5646 21.1568 97.7477 20.9281 97.0157 20.4706C96.2838 20.0001 95.7021 19.34 95.2708 18.4904C94.8525 17.6278 94.6434 16.6344 94.6434 15.5103C94.6434 14.3862 94.8525 13.3994 95.2708 12.5498C95.7021 11.7002 96.2838 11.0467 97.0157 10.5892C97.7477 10.1317 98.5646 9.903 99.4665 9.903ZM102.839 15.5299C102.839 14.6934 102.603 14.0333 102.133 13.5497C101.675 13.0661 101.113 12.8243 100.447 12.8243C99.7802 12.8243 99.2116 13.0661 98.741 13.5497C98.2836 14.0203 98.0548 14.6738 98.0548 15.5103C98.0548 16.3468 98.2836 17.0134 98.741 17.5101C99.2116 17.9937 99.7802 18.2356 100.447 18.2356C101.113 18.2356 101.675 17.9937 102.133 17.5101C102.603 17.0265 102.839 16.3664 102.839 15.5299ZM110.303 8.9227C109.715 8.9227 109.231 8.75278 108.852 8.41295C108.486 8.06004 108.303 7.62871 108.303 7.11895C108.303 6.59612 108.486 6.16479 108.852 5.82495C109.231 5.47205 109.715 5.29559 110.303 5.29559C110.878 5.29559 111.349 5.47205 111.715 5.82495C112.094 6.16479 112.283 6.59612 112.283 7.11895C112.283 7.62871 112.094 8.06004 111.715 8.41295C111.349 8.75278 110.878 8.9227 110.303 8.9227ZM111.969 10.0599V21H108.617V10.0599H111.969ZM124.712 15.3535C124.712 15.6672 124.692 15.9939 124.653 16.3338H117.065C117.118 17.0134 117.333 17.5363 117.712 17.9023C118.105 18.2552 118.582 18.4316 119.144 18.4316C119.98 18.4316 120.562 18.0787 120.889 17.3729H124.457C124.274 18.0918 123.941 18.7388 123.457 19.3139C122.986 19.889 122.392 20.3399 121.673 20.6667C120.954 20.9935 120.15 21.1568 119.261 21.1568C118.19 21.1568 117.235 20.9281 116.399 20.4706C115.562 20.0132 114.909 19.3596 114.438 18.51C113.968 17.6604 113.732 16.6671 113.732 15.5299C113.732 14.3928 113.961 13.3994 114.419 12.5498C114.889 11.7002 115.543 11.0467 116.379 10.5892C117.216 10.1317 118.176 9.903 119.261 9.903C120.32 9.903 121.261 10.1252 122.085 10.5696C122.908 11.014 123.548 11.6479 124.006 12.4714C124.477 13.2948 124.712 14.2555 124.712 15.3535ZM121.281 14.4712C121.281 13.8961 121.085 13.4386 120.693 13.0988C120.3 12.7589 119.81 12.589 119.222 12.589C118.66 12.589 118.183 12.7524 117.791 13.0792C117.412 13.4059 117.177 13.87 117.085 14.4712H121.281ZM135.792 7.23659C137.242 7.23659 138.51 7.52414 139.595 8.09925C140.68 8.67436 141.517 9.48474 142.105 10.5304C142.706 11.563 143.007 12.7589 143.007 14.1183C143.007 15.4646 142.706 16.6605 142.105 17.7062C141.517 18.7518 140.674 19.5622 139.576 20.1373C138.491 20.7124 137.229 21 135.792 21H130.635V7.23659H135.792ZM135.576 18.0983C136.844 18.0983 137.831 17.7519 138.536 17.0592C139.242 16.3664 139.595 15.3861 139.595 14.1183C139.595 12.8504 139.242 11.8636 138.536 11.1578C137.831 10.452 136.844 10.0991 135.576 10.0991H133.988V18.0983H135.576ZM149.86 21.1568C148.788 21.1568 147.821 20.9281 146.958 20.4706C146.109 20.0132 145.436 19.3596 144.939 18.51C144.455 17.6604 144.214 16.6671 144.214 15.5299C144.214 14.4058 144.462 13.419 144.959 12.5694C145.455 11.7068 146.135 11.0467 146.998 10.5892C147.86 10.1317 148.828 9.903 149.899 9.903C150.971 9.903 151.938 10.1317 152.801 10.5892C153.664 11.0467 154.343 11.7068 154.84 12.5694C155.337 13.419 155.585 14.4058 155.585 15.5299C155.585 16.654 155.33 17.6474 154.82 18.51C154.324 19.3596 153.638 20.0132 152.762 20.4706C151.899 20.9281 150.932 21.1568 149.86 21.1568ZM149.86 18.2552C150.501 18.2552 151.043 18.0199 151.487 17.5493C151.945 17.0788 152.174 16.4057 152.174 15.5299C152.174 14.6542 151.951 13.9811 151.507 13.5105C151.076 13.04 150.54 12.8047 149.899 12.8047C149.246 12.8047 148.703 13.04 148.272 13.5105C147.841 13.968 147.625 14.6411 147.625 15.5299C147.625 16.4057 147.834 17.0788 148.252 17.5493C148.684 18.0199 149.22 18.2552 149.86 18.2552ZM164.049 21L160.716 16.4122V21H157.364V6.49156H160.716V14.5104L164.03 10.0599H168.167L163.618 15.5495L168.206 21H164.049ZM175.581 18.1571V21H173.875C172.66 21 171.712 20.7059 171.032 20.1177C170.353 19.5165 170.013 18.5427 170.013 17.1964V12.8439H168.68V10.0599H170.013V7.39344H173.365V10.0599H175.561V12.8439H173.365V17.2356C173.365 17.5624 173.444 17.7977 173.601 17.9415C173.758 18.0852 174.019 18.1571 174.385 18.1571H175.581ZM187.761 15.3535C187.761 15.6672 187.742 15.9939 187.702 16.3338H180.115C180.167 17.0134 180.383 17.5363 180.762 17.9023C181.154 18.2552 181.631 18.4316 182.193 18.4316C183.03 18.4316 183.611 18.0787 183.938 17.3729H187.506C187.323 18.0918 186.99 18.7388 186.506 19.3139C186.036 19.889 185.441 20.3399 184.722 20.6667C184.003 20.9935 183.199 21.1568 182.311 21.1568C181.239 21.1568 180.285 20.9281 179.448 20.4706C178.612 20.0132 177.958 19.3596 177.488 18.51C177.017 17.6604 176.782 16.6671 176.782 15.5299C176.782 14.3928 177.011 13.3994 177.468 12.5498C177.939 11.7002 178.592 11.0467 179.429 10.5892C180.265 10.1317 181.226 9.903 182.311 9.903C183.369 9.903 184.311 10.1252 185.134 10.5696C185.957 11.014 186.598 11.6479 187.055 12.4714C187.526 13.2948 187.761 14.2555 187.761 15.3535ZM184.33 14.4712C184.33 13.8961 184.134 13.4386 183.742 13.0988C183.35 12.7589 182.86 12.589 182.271 12.589C181.709 12.589 181.232 12.7524 180.84 13.0792C180.461 13.4059 180.226 13.87 180.134 14.4712H184.33ZM192.882 11.8832C193.275 11.282 193.765 10.8114 194.353 10.4716C194.941 10.1187 195.595 9.94222 196.314 9.94222V13.4909H195.392C194.556 13.4909 193.928 13.6739 193.51 14.0399C193.092 14.3928 192.882 15.0202 192.882 15.922V21H189.53V10.0599H192.882V11.8832Z" fill="#6C6C6A"/>
<path d="M64.0426 35.4115C63.7275 35.4115 63.4449 35.359 63.1948 35.254C62.9448 35.1439 62.7472 34.9939 62.6022 34.8039C62.4571 34.6088 62.3771 34.3862 62.3621 34.1362H63.0673C63.0873 34.3412 63.1823 34.5088 63.3524 34.6388C63.5274 34.7688 63.755 34.8339 64.0351 34.8339C64.2951 34.8339 64.5002 34.7763 64.6502 34.6613C64.8003 34.5463 64.8753 34.4012 64.8753 34.2262C64.8753 34.0461 64.7953 33.9136 64.6352 33.8286C64.4752 33.7386 64.2276 33.651 63.8925 33.566C63.5874 33.486 63.3374 33.406 63.1423 33.326C62.9523 33.2409 62.7872 33.1184 62.6472 32.9584C62.5122 32.7933 62.4446 32.5783 62.4446 32.3132C62.4446 32.1031 62.5072 31.9106 62.6322 31.7355C62.7572 31.5605 62.9348 31.4229 63.1648 31.3229C63.3949 31.2179 63.6575 31.1654 63.9525 31.1654C64.4077 31.1654 64.7753 31.2804 65.0553 31.5105C65.3354 31.7405 65.4854 32.0556 65.5055 32.4557H64.8228C64.8078 32.2407 64.7202 32.0681 64.5602 31.9381C64.4052 31.8081 64.1951 31.743 63.93 31.743C63.685 31.743 63.4899 31.7955 63.3449 31.9006C63.1998 32.0056 63.1273 32.1431 63.1273 32.3132C63.1273 32.4482 63.1698 32.5608 63.2549 32.6508C63.3449 32.7358 63.4549 32.8058 63.5849 32.8608C63.72 32.9108 63.905 32.9684 64.1401 33.0334C64.4352 33.1134 64.6752 33.1934 64.8603 33.2734C65.0453 33.3485 65.2029 33.4635 65.3329 33.6185C65.4679 33.7736 65.538 33.9761 65.543 34.2262C65.543 34.4513 65.4804 34.6538 65.3554 34.8339C65.2304 35.0139 65.0528 35.1564 64.8228 35.2615C64.5977 35.3615 64.3376 35.4115 64.0426 35.4115ZM70.1526 31.2329V35.344H69.47V34.7363C69.3399 34.9464 69.1574 35.1114 68.9223 35.2315C68.6923 35.3465 68.4372 35.404 68.1571 35.404C67.837 35.404 67.5495 35.339 67.2944 35.209C67.0393 35.0739 66.8368 34.8739 66.6867 34.6088C66.5417 34.3437 66.4692 34.0211 66.4692 33.641V31.2329H67.1443V33.551C67.1443 33.9561 67.2469 34.2687 67.4519 34.4888C67.657 34.7038 67.9371 34.8114 68.2922 34.8114C68.6573 34.8114 68.9448 34.6988 69.1549 34.4738C69.3649 34.2487 69.47 33.9211 69.47 33.491V31.2329H70.1526ZM72.7607 35.4115C72.4456 35.4115 72.163 35.359 71.913 35.254C71.6629 35.1439 71.4654 34.9939 71.3203 34.8039C71.1753 34.6088 71.0953 34.3862 71.0803 34.1362H71.7854C71.8055 34.3412 71.9005 34.5088 72.0705 34.6388C72.2456 34.7688 72.4731 34.8339 72.7532 34.8339C73.0133 34.8339 73.2183 34.7763 73.3684 34.6613C73.5184 34.5463 73.5934 34.4012 73.5934 34.2262C73.5934 34.0461 73.5134 33.9136 73.3534 33.8286C73.1933 33.7386 72.9458 33.651 72.6107 33.566C72.3056 33.486 72.0555 33.406 71.8605 33.326C71.6704 33.2409 71.5054 33.1184 71.3653 32.9584C71.2303 32.7933 71.1628 32.5783 71.1628 32.3132C71.1628 32.1031 71.2253 31.9106 71.3503 31.7355C71.4754 31.5605 71.6529 31.4229 71.883 31.3229C72.113 31.2179 72.3756 31.1654 72.6707 31.1654C73.1258 31.1654 73.4934 31.2804 73.7735 31.5105C74.0536 31.7405 74.2036 32.0556 74.2236 32.4557H73.5409C73.5259 32.2407 73.4384 32.0681 73.2783 31.9381C73.1233 31.8081 72.9132 31.743 72.6482 31.743C72.4031 31.743 72.2081 31.7955 72.063 31.9006C71.918 32.0056 71.8455 32.1431 71.8455 32.3132C71.8455 32.4482 71.888 32.5608 71.973 32.6508C72.063 32.7358 72.1731 32.8058 72.3031 32.8608C72.4381 32.9108 72.6232 32.9684 72.8582 33.0334C73.1533 33.1134 73.3934 33.1934 73.5784 33.2734C73.7635 33.3485 73.921 33.4635 74.0511 33.6185C74.1861 33.7736 74.2561 33.9761 74.2611 34.2262C74.2611 34.4513 74.1986 34.6538 74.0736 34.8339C73.9485 35.0139 73.771 35.1564 73.5409 35.2615C73.3159 35.3615 73.0558 35.4115 72.7607 35.4115ZM76.0575 31.7955V34.2187C76.0575 34.4187 76.1001 34.5613 76.1851 34.6463C76.2701 34.7263 76.4176 34.7663 76.6277 34.7663H77.1303V35.344H76.5152C76.1351 35.344 75.85 35.2565 75.6599 35.0814C75.4699 34.9064 75.3749 34.6188 75.3749 34.2187V31.7955H74.8422V31.2329H75.3749V30.1976H76.0575V31.2329H77.1303V31.7955H76.0575ZM77.7024 33.2734C77.7024 32.8533 77.7874 32.4857 77.9575 32.1706C78.1275 31.8506 78.3601 31.603 78.6552 31.428C78.9552 31.2529 79.2878 31.1654 79.6529 31.1654C80.013 31.1654 80.3256 31.2429 80.5907 31.3979C80.8558 31.553 81.0533 31.748 81.1833 31.9831V31.2329H81.8735V35.344H81.1833V34.5788C81.0483 34.8189 80.8458 35.0189 80.5757 35.179C80.3106 35.334 80.0005 35.4115 79.6454 35.4115C79.2803 35.4115 78.9502 35.3215 78.6552 35.1414C78.3601 34.9614 78.1275 34.7088 77.9575 34.3837C77.7874 34.0587 77.7024 33.6886 77.7024 33.2734ZM81.1833 33.2809C81.1833 32.9709 81.1208 32.7008 80.9958 32.4707C80.8708 32.2407 80.7007 32.0656 80.4857 31.9456C80.2756 31.8206 80.043 31.758 79.788 31.758C79.5329 31.758 79.3003 31.8181 79.0903 31.9381C78.8802 32.0581 78.7127 32.2332 78.5877 32.4632C78.4626 32.6933 78.4001 32.9634 78.4001 33.2734C78.4001 33.5885 78.4626 33.8636 78.5877 34.0987C78.7127 34.3287 78.8802 34.5063 79.0903 34.6313C79.3003 34.7513 79.5329 34.8114 79.788 34.8114C80.043 34.8114 80.2756 34.7513 80.4857 34.6313C80.7007 34.5063 80.8708 34.3287 80.9958 34.0987C81.1208 33.8636 81.1833 33.591 81.1833 33.2809ZM83.3798 30.5652C83.2498 30.5652 83.1397 30.5202 83.0497 30.4302C82.9597 30.3402 82.9147 30.2301 82.9147 30.1001C82.9147 29.9701 82.9597 29.86 83.0497 29.77C83.1397 29.68 83.2498 29.635 83.3798 29.635C83.5048 29.635 83.6099 29.68 83.6949 29.77C83.7849 29.86 83.8299 29.9701 83.8299 30.1001C83.8299 30.2301 83.7849 30.3402 83.6949 30.4302C83.6099 30.5202 83.5048 30.5652 83.3798 30.5652ZM83.7099 31.2329V35.344H83.0272V31.2329H83.7099ZM86.8764 31.1579C87.3766 31.1579 87.7817 31.3104 88.0917 31.6155C88.4018 31.9156 88.5569 32.3507 88.5569 32.9208V35.344H87.8817V33.0184C87.8817 32.6083 87.7792 32.2957 87.5741 32.0806C87.3691 31.8606 87.089 31.7505 86.7339 31.7505C86.3738 31.7505 86.0862 31.8631 85.8712 32.0881C85.6611 32.3132 85.5561 32.6408 85.5561 33.0709V35.344H84.8734V31.2329H85.5561V31.8181C85.6911 31.608 85.8737 31.4455 86.1037 31.3304C86.3388 31.2154 86.5963 31.1579 86.8764 31.1579ZM89.417 33.2734C89.417 32.8533 89.502 32.4857 89.672 32.1706C89.8421 31.8506 90.0746 31.603 90.3697 31.428C90.6698 31.2529 91.0024 31.1654 91.3675 31.1654C91.7276 31.1654 92.0402 31.2429 92.3052 31.3979C92.5703 31.553 92.7679 31.748 92.8979 31.9831V31.2329H93.5881V35.344H92.8979V34.5788C92.7629 34.8189 92.5603 35.0189 92.2902 35.179C92.0252 35.334 91.7151 35.4115 91.36 35.4115C90.9949 35.4115 90.6648 35.3215 90.3697 35.1414C90.0746 34.9614 89.8421 34.7088 89.672 34.3837C89.502 34.0587 89.417 33.6886 89.417 33.2734ZM92.8979 33.2809C92.8979 32.9709 92.8354 32.7008 92.7103 32.4707C92.5853 32.2407 92.4153 32.0656 92.2002 31.9456C91.9901 31.8206 91.7576 31.758 91.5025 31.758C91.2475 31.758 91.0149 31.8181 90.8048 31.9381C90.5948 32.0581 90.4272 32.2332 90.3022 32.4632C90.1772 32.6933 90.1146 32.9634 90.1146 33.2734C90.1146 33.5885 90.1772 33.8636 90.3022 34.0987C90.4272 34.3287 90.5948 34.5063 90.8048 34.6313C91.0149 34.7513 91.2475 34.8114 91.5025 34.8114C91.7576 34.8114 91.9901 34.7513 92.2002 34.6313C92.4153 34.5063 92.5853 34.3287 92.7103 34.0987C92.8354 33.8636 92.8979 33.591 92.8979 33.2809ZM95.4244 31.9981C95.5645 31.753 95.7695 31.553 96.0396 31.3979C96.3097 31.2429 96.6172 31.1654 96.9623 31.1654C97.3324 31.1654 97.665 31.2529 97.9601 31.428C98.2552 31.603 98.4877 31.8506 98.6578 32.1706C98.8278 32.4857 98.9129 32.8533 98.9129 33.2734C98.9129 33.6886 98.8278 34.0587 98.6578 34.3837C98.4877 34.7088 98.2527 34.9614 97.9526 35.1414C97.6575 35.3215 97.3274 35.4115 96.9623 35.4115C96.6072 35.4115 96.2947 35.334 96.0246 35.179C95.7595 35.0239 95.5595 34.8264 95.4244 34.5863V35.344H94.7417V29.7925H95.4244V31.9981ZM98.2152 33.2734C98.2152 32.9634 98.1527 32.6933 98.0276 32.4632C97.9026 32.2332 97.7325 32.0581 97.5175 31.9381C97.3074 31.8181 97.0749 31.758 96.8198 31.758C96.5697 31.758 96.3372 31.8206 96.1221 31.9456C95.9121 32.0656 95.742 32.2432 95.612 32.4782C95.4869 32.7083 95.4244 32.9759 95.4244 33.2809C95.4244 33.591 95.4869 33.8636 95.612 34.0987C95.742 34.3287 95.9121 34.5063 96.1221 34.6313C96.3372 34.7513 96.5697 34.8114 96.8198 34.8114C97.0749 34.8114 97.3074 34.7513 97.5175 34.6313C97.7325 34.5063 97.9026 34.3287 98.0276 34.0987C98.1527 33.8636 98.2152 33.5885 98.2152 33.2734ZM100.494 29.7925V35.344H99.8115V29.7925H100.494ZM105.409 33.1309C105.409 33.2609 105.401 33.3985 105.386 33.5435H102.1C102.125 33.9486 102.263 34.2662 102.513 34.4963C102.768 34.7213 103.076 34.8339 103.436 34.8339C103.731 34.8339 103.976 34.7663 104.171 34.6313C104.371 34.4913 104.511 34.3062 104.591 34.0762H105.326C105.216 34.4713 104.996 34.7938 104.666 35.0439C104.336 35.289 103.926 35.4115 103.436 35.4115C103.046 35.4115 102.695 35.324 102.385 35.1489C102.08 34.9739 101.84 34.7263 101.665 34.4062C101.49 34.0812 101.403 33.7061 101.403 33.2809C101.403 32.8558 101.488 32.4832 101.658 32.1631C101.828 31.8431 102.065 31.598 102.37 31.428C102.68 31.2529 103.036 31.1654 103.436 31.1654C103.826 31.1654 104.171 31.2504 104.471 31.4204C104.771 31.5905 105.001 31.8256 105.161 32.1256C105.326 32.4207 105.409 32.7558 105.409 33.1309ZM104.703 32.9884C104.703 32.7283 104.646 32.5057 104.531 32.3207C104.416 32.1306 104.258 31.9881 104.058 31.8931C103.863 31.793 103.646 31.743 103.406 31.743C103.061 31.743 102.765 31.8531 102.52 32.0731C102.28 32.2932 102.143 32.5983 102.108 32.9884H104.703ZM112.061 33.1309C112.061 33.2609 112.053 33.3985 112.038 33.5435H108.752C108.777 33.9486 108.915 34.2662 109.165 34.4963C109.42 34.7213 109.728 34.8339 110.088 34.8339C110.383 34.8339 110.628 34.7663 110.823 34.6313C111.023 34.4913 111.163 34.3062 111.243 34.0762H111.978C111.868 34.4713 111.648 34.7938 111.318 35.0439C110.988 35.289 110.578 35.4115 110.088 35.4115C109.698 35.4115 109.348 35.324 109.038 35.1489C108.732 34.9739 108.492 34.7263 108.317 34.4062C108.142 34.0812 108.055 33.7061 108.055 33.2809C108.055 32.8558 108.14 32.4832 108.31 32.1631C108.48 31.8431 108.717 31.598 109.023 31.428C109.333 31.2529 109.688 31.1654 110.088 31.1654C110.478 31.1654 110.823 31.2504 111.123 31.4204C111.423 31.5905 111.653 31.8256 111.813 32.1256C111.978 32.4207 112.061 32.7558 112.061 33.1309ZM111.356 32.9884C111.356 32.7283 111.298 32.5057 111.183 32.3207C111.068 32.1306 110.911 31.9881 110.71 31.8931C110.515 31.793 110.298 31.743 110.058 31.743C109.713 31.743 109.418 31.8531 109.173 32.0731C108.932 32.2932 108.795 32.5983 108.76 32.9884H111.356ZM114.965 31.1579C115.465 31.1579 115.87 31.3104 116.18 31.6155C116.49 31.9156 116.645 32.3507 116.645 32.9208V35.344H115.97V33.0184C115.97 32.6083 115.868 32.2957 115.663 32.0806C115.458 31.8606 115.178 31.7505 114.822 31.7505C114.462 31.7505 114.175 31.8631 113.96 32.0881C113.75 32.3132 113.645 32.6408 113.645 33.0709V35.344H112.962V31.2329H113.645V31.8181C113.78 31.608 113.962 31.4455 114.192 31.3304C114.427 31.2154 114.685 31.1579 114.965 31.1579ZM121.512 33.1309C121.512 33.2609 121.504 33.3985 121.489 33.5435H118.203C118.228 33.9486 118.366 34.2662 118.616 34.4963C118.871 34.7213 119.178 34.8339 119.539 34.8339C119.834 34.8339 120.079 34.7663 120.274 34.6313C120.474 34.4913 120.614 34.3062 120.694 34.0762H121.429C121.319 34.4713 121.099 34.7938 120.769 35.0439C120.439 35.289 120.029 35.4115 119.539 35.4115C119.148 35.4115 118.798 35.324 118.488 35.1489C118.183 34.9739 117.943 34.7263 117.768 34.4062C117.593 34.0812 117.506 33.7061 117.506 33.2809C117.506 32.8558 117.591 32.4832 117.761 32.1631C117.931 31.8431 118.168 31.598 118.473 31.428C118.783 31.2529 119.138 31.1654 119.539 31.1654C119.929 31.1654 120.274 31.2504 120.574 31.4204C120.874 31.5905 121.104 31.8256 121.264 32.1256C121.429 32.4207 121.512 32.7558 121.512 33.1309ZM120.806 32.9884C120.806 32.7283 120.749 32.5057 120.634 32.3207C120.519 32.1306 120.361 31.9881 120.161 31.8931C119.966 31.793 119.749 31.743 119.509 31.743C119.163 31.743 118.868 31.8531 118.623 32.0731C118.383 32.2932 118.246 32.5983 118.211 32.9884H120.806ZM123.095 31.9006C123.215 31.6655 123.385 31.483 123.606 31.3529C123.831 31.2229 124.103 31.1579 124.423 31.1579V31.8631H124.243C123.478 31.8631 123.095 32.2782 123.095 33.1084V35.344H122.413V31.2329H123.095V31.9006ZM126.907 31.1654C127.262 31.1654 127.572 31.2429 127.837 31.3979C128.107 31.553 128.307 31.748 128.437 31.9831V31.2329H129.127V35.434C129.127 35.8091 129.047 36.1417 128.887 36.4318C128.727 36.7269 128.497 36.9569 128.197 37.122C127.902 37.287 127.557 37.3695 127.162 37.3695C126.622 37.3695 126.172 37.242 125.811 36.9869C125.451 36.7319 125.239 36.3843 125.174 35.9442H125.849C125.924 36.1942 126.079 36.3943 126.314 36.5443C126.549 36.6994 126.832 36.7769 127.162 36.7769C127.537 36.7769 127.842 36.6593 128.077 36.4243C128.317 36.1892 128.437 35.8591 128.437 35.434V34.5713C128.302 34.8114 128.102 35.0114 127.837 35.1714C127.572 35.3315 127.262 35.4115 126.907 35.4115C126.542 35.4115 126.209 35.3215 125.909 35.1414C125.614 34.9614 125.381 34.7088 125.211 34.3837C125.041 34.0587 124.956 33.6886 124.956 33.2734C124.956 32.8533 125.041 32.4857 125.211 32.1706C125.381 31.8506 125.614 31.603 125.909 31.428C126.209 31.2529 126.542 31.1654 126.907 31.1654ZM128.437 33.2809C128.437 32.9709 128.375 32.7008 128.25 32.4707C128.125 32.2407 127.955 32.0656 127.739 31.9456C127.529 31.8206 127.297 31.758 127.042 31.758C126.787 31.758 126.554 31.8181 126.344 31.9381C126.134 32.0581 125.966 32.2332 125.841 32.4632C125.716 32.6933 125.654 32.9634 125.654 33.2734C125.654 33.5885 125.716 33.8636 125.841 34.0987C125.966 34.3287 126.134 34.5063 126.344 34.6313C126.554 34.7513 126.787 34.8114 127.042 34.8114C127.297 34.8114 127.529 34.7513 127.739 34.6313C127.955 34.5063 128.125 34.3287 128.25 34.0987C128.375 33.8636 128.437 33.591 128.437 33.2809ZM133.822 31.2329L131.346 37.2795H130.641L131.451 35.299L129.793 31.2329H130.551L131.841 34.5638L133.117 31.2329H133.822ZM136.253 33.2809C136.253 32.8558 136.338 32.4857 136.508 32.1706C136.678 31.8506 136.913 31.603 137.213 31.428C137.519 31.2529 137.866 31.1654 138.256 31.1654C138.761 31.1654 139.176 31.2879 139.502 31.533C139.832 31.778 140.049 32.1181 140.154 32.5533H139.419C139.349 32.3032 139.211 32.1056 139.006 31.9606C138.806 31.8156 138.556 31.743 138.256 31.743C137.866 31.743 137.551 31.8781 137.311 32.1481C137.071 32.4132 136.951 32.7908 136.951 33.2809C136.951 33.7761 137.071 34.1587 137.311 34.4288C137.551 34.6988 137.866 34.8339 138.256 34.8339C138.556 34.8339 138.806 34.7638 139.006 34.6238C139.206 34.4838 139.344 34.2837 139.419 34.0236H140.154C140.044 34.4438 139.824 34.7813 139.494 35.0364C139.164 35.2865 138.751 35.4115 138.256 35.4115C137.866 35.4115 137.519 35.324 137.213 35.1489C136.913 34.9739 136.678 34.7263 136.508 34.4062C136.338 34.0862 136.253 33.7111 136.253 33.2809ZM142.858 35.4115C142.473 35.4115 142.123 35.324 141.808 35.1489C141.498 34.9739 141.253 34.7263 141.073 34.4062C140.898 34.0812 140.81 33.7061 140.81 33.2809C140.81 32.8608 140.9 32.4907 141.08 32.1706C141.265 31.8456 141.515 31.598 141.83 31.428C142.145 31.2529 142.498 31.1654 142.888 31.1654C143.278 31.1654 143.631 31.2529 143.946 31.428C144.261 31.598 144.509 31.8431 144.689 32.1631C144.874 32.4832 144.966 32.8558 144.966 33.2809C144.966 33.7061 144.871 34.0812 144.681 34.4062C144.496 34.7263 144.243 34.9739 143.923 35.1489C143.603 35.324 143.248 35.4115 142.858 35.4115ZM142.858 34.8114C143.103 34.8114 143.333 34.7538 143.548 34.6388C143.763 34.5238 143.936 34.3512 144.066 34.1212C144.201 33.8911 144.268 33.611 144.268 33.2809C144.268 32.9509 144.203 32.6708 144.073 32.4407C143.943 32.2107 143.773 32.0406 143.563 31.9306C143.353 31.8156 143.126 31.758 142.881 31.758C142.631 31.758 142.4 31.8156 142.19 31.9306C141.985 32.0406 141.82 32.2107 141.695 32.4407C141.57 32.6708 141.508 32.9509 141.508 33.2809C141.508 33.616 141.568 33.8986 141.688 34.1287C141.813 34.3587 141.978 34.5313 142.183 34.6463C142.388 34.7563 142.613 34.8114 142.858 34.8114ZM147.867 31.1579C148.367 31.1579 148.772 31.3104 149.082 31.6155C149.392 31.9156 149.547 32.3507 149.547 32.9208V35.344H148.872V33.0184C148.872 32.6083 148.77 32.2957 148.564 32.0806C148.359 31.8606 148.079 31.7505 147.724 31.7505C147.364 31.7505 147.077 31.8631 146.862 32.0881C146.651 32.3132 146.546 32.6408 146.546 33.0709V35.344H145.864V31.2329H146.546V31.8181C146.681 31.608 146.864 31.4455 147.094 31.3304C147.329 31.2154 147.587 31.1579 147.867 31.1579ZM152.118 35.4115C151.803 35.4115 151.52 35.359 151.27 35.254C151.02 35.1439 150.822 34.9939 150.677 34.8039C150.532 34.6088 150.452 34.3862 150.437 34.1362H151.143C151.163 34.3412 151.258 34.5088 151.428 34.6388C151.603 34.7688 151.83 34.8339 152.11 34.8339C152.37 34.8339 152.575 34.7763 152.725 34.6613C152.875 34.5463 152.951 34.4012 152.951 34.2262C152.951 34.0461 152.87 33.9136 152.71 33.8286C152.55 33.7386 152.303 33.651 151.968 33.566C151.663 33.486 151.413 33.406 151.218 33.326C151.028 33.2409 150.862 33.1184 150.722 32.9584C150.587 32.7933 150.52 32.5783 150.52 32.3132C150.52 32.1031 150.582 31.9106 150.707 31.7355C150.832 31.5605 151.01 31.4229 151.24 31.3229C151.47 31.2179 151.733 31.1654 152.028 31.1654C152.483 31.1654 152.85 31.2804 153.131 31.5105C153.411 31.7405 153.561 32.0556 153.581 32.4557H152.898C152.883 32.2407 152.795 32.0681 152.635 31.9381C152.48 31.8081 152.27 31.743 152.005 31.743C151.76 31.743 151.565 31.7955 151.42 31.9006C151.275 32.0056 151.203 32.1431 151.203 32.3132C151.203 32.4482 151.245 32.5608 151.33 32.6508C151.42 32.7358 151.53 32.8058 151.66 32.8608C151.795 32.9108 151.98 32.9684 152.215 33.0334C152.51 33.1134 152.75 33.1934 152.936 33.2734C153.121 33.3485 153.278 33.4635 153.408 33.6185C153.543 33.7736 153.613 33.9761 153.618 34.2262C153.618 34.4513 153.556 34.6538 153.431 34.8339C153.306 35.0139 153.128 35.1564 152.898 35.2615C152.673 35.3615 152.413 35.4115 152.118 35.4115ZM158.228 31.2329V35.344H157.545V34.7363C157.415 34.9464 157.233 35.1114 156.998 35.2315C156.767 35.3465 156.512 35.404 156.232 35.404C155.912 35.404 155.625 35.339 155.37 35.209C155.115 35.0739 154.912 34.8739 154.762 34.6088C154.617 34.3437 154.544 34.0211 154.544 33.641V31.2329H155.22V33.551C155.22 33.9561 155.322 34.2687 155.527 34.4888C155.732 34.7038 156.012 34.8114 156.367 34.8114C156.732 34.8114 157.02 34.6988 157.23 34.4738C157.44 34.2487 157.545 33.9211 157.545 33.491V31.2329H158.228ZM160.063 29.7925V35.344H159.381V29.7925H160.063ZM162.059 31.7955V34.2187C162.059 34.4187 162.102 34.5613 162.187 34.6463C162.272 34.7263 162.42 34.7663 162.63 34.7663H163.132V35.344H162.517C162.137 35.344 161.852 35.2565 161.662 35.0814C161.472 34.9064 161.377 34.6188 161.377 34.2187V31.7955H160.844V31.2329H161.377V30.1976H162.059V31.2329H163.132V31.7955H162.059ZM163.704 33.2734C163.704 32.8533 163.789 32.4857 163.959 32.1706C164.129 31.8506 164.362 31.603 164.657 31.428C164.957 31.2529 165.29 31.1654 165.655 31.1654C166.015 31.1654 166.328 31.2429 166.593 31.3979C166.858 31.553 167.055 31.748 167.185 31.9831V31.2329H167.875V35.344H167.185V34.5788C167.05 34.8189 166.848 35.0189 166.578 35.179C166.313 35.334 166.002 35.4115 165.647 35.4115C165.282 35.4115 164.952 35.3215 164.657 35.1414C164.362 34.9614 164.129 34.7088 163.959 34.3837C163.789 34.0587 163.704 33.6886 163.704 33.2734ZM167.185 33.2809C167.185 32.9709 167.123 32.7008 166.998 32.4707C166.873 32.2407 166.703 32.0656 166.488 31.9456C166.278 31.8206 166.045 31.758 165.79 31.758C165.535 31.758 165.302 31.8181 165.092 31.9381C164.882 32.0581 164.715 32.2332 164.59 32.4632C164.465 32.6933 164.402 32.9634 164.402 33.2734C164.402 33.5885 164.465 33.8636 164.59 34.0987C164.715 34.3287 164.882 34.5063 165.092 34.6313C165.302 34.7513 165.535 34.8114 165.79 34.8114C166.045 34.8114 166.278 34.7513 166.488 34.6313C166.703 34.5063 166.873 34.3287 166.998 34.0987C167.123 33.8636 167.185 33.591 167.185 33.2809ZM171.032 31.1579C171.532 31.1579 171.937 31.3104 172.247 31.6155C172.558 31.9156 172.713 32.3507 172.713 32.9208V35.344H172.037V33.0184C172.037 32.6083 171.935 32.2957 171.73 32.0806C171.525 31.8606 171.245 31.7505 170.89 31.7505C170.53 31.7505 170.242 31.8631 170.027 32.0881C169.817 32.3132 169.712 32.6408 169.712 33.0709V35.344H169.029V31.2329H169.712V31.8181C169.847 31.608 170.029 31.4455 170.259 31.3304C170.495 31.2154 170.752 31.1579 171.032 31.1579ZM173.573 33.2809C173.573 32.8558 173.658 32.4857 173.828 32.1706C173.998 31.8506 174.233 31.603 174.533 31.428C174.838 31.2529 175.186 31.1654 175.576 31.1654C176.081 31.1654 176.496 31.2879 176.821 31.533C177.151 31.778 177.369 32.1181 177.474 32.5533H176.739C176.669 32.3032 176.531 32.1056 176.326 31.9606C176.126 31.8156 175.876 31.743 175.576 31.743C175.186 31.743 174.871 31.8781 174.63 32.1481C174.39 32.4132 174.27 32.7908 174.27 33.2809C174.27 33.7761 174.39 34.1587 174.63 34.4288C174.871 34.6988 175.186 34.8339 175.576 34.8339C175.876 34.8339 176.126 34.7638 176.326 34.6238C176.526 34.4838 176.664 34.2837 176.739 34.0236H177.474C177.364 34.4438 177.144 34.7813 176.814 35.0364C176.483 35.2865 176.071 35.4115 175.576 35.4115C175.186 35.4115 174.838 35.324 174.533 35.1489C174.233 34.9739 173.998 34.7263 173.828 34.4062C173.658 34.0862 173.573 33.7111 173.573 33.2809ZM181.926 31.2329L179.45 37.2795H178.745L179.555 35.299L177.897 31.2329H178.655L179.945 34.5638L181.22 31.2329H181.926Z" fill="#6C6C6A"/>
<defs>
<linearGradient id="paint0_linear_2432_3351" x1="15.7529" y1="4.642" x2="15.7529" y2="34.7155" gradientUnits="userSpaceOnUse">
<stop stop-color="#397E00"/>
<stop offset="1" stop-color="#81C713"/>
</linearGradient>
</defs>
</svg>
