<svg width="13" height="13" viewBox="0 0 13 13" fill="none" xmlns="http://www.w3.org/2000/svg">
<path d="M6.22101 12.442C9.65677 12.442 12.442 9.65683 12.442 6.22107C12.442 2.78531 9.65677 0 6.22101 0C2.78524 0 0 2.78531 0 6.22107C0 9.65683 2.78524 12.442 6.22101 12.442Z" fill="white"/>
<path d="M6.22125 11.8903C9.35215 11.8903 11.8903 9.35222 11.8903 6.22131C11.8903 3.09041 9.35215 0.552246 6.22125 0.552246C3.09035 0.552246 0.552246 3.09041 0.552246 6.22131C0.552246 9.35222 3.09035 11.8903 6.22125 11.8903Z" fill="#81C713"/>
<path fill-rule="evenodd" clip-rule="evenodd" d="M4.81212 0.501343C4.81212 0.501343 3.76312 3.57933 3.17412 5.30933C3.08412 5.57333 3.12712 5.86526 3.29012 6.09326C3.45312 6.32026 3.71511 6.45532 3.99511 6.45532H6.38213C6.38213 6.45532 5.66313 8.95428 5.26513 10.3373C5.23913 10.4273 5.28012 10.5232 5.36312 10.5682C5.44612 10.6122 5.54913 10.5922 5.61013 10.5212C6.49813 9.47024 8.18611 7.4763 9.38811 6.0553C9.63711 5.7613 9.69311 5.34924 9.53011 5.00024C9.36811 4.65024 9.01811 4.42725 8.63311 4.42725H6.59414C6.44014 4.42725 6.29513 4.35229 6.20513 4.22729C6.11513 4.10129 6.09211 3.93933 6.14211 3.79333C6.54411 2.62333 7.36312 0.240234 7.36312 0.240234" fill="white"/>
</svg>
