<svg width="35" height="42" viewBox="0 0 35 42" fill="none" xmlns="http://www.w3.org/2000/svg">
<path fill-rule="evenodd" clip-rule="evenodd" d="M16.1295 23.9043C16.1685 23.7723 16.2425 23.6493 16.3065 23.5423C16.3075 23.5373 16.3085 23.5323 16.3095 23.5273C16.3055 23.4743 16.3055 23.4553 16.3215 23.4273C16.4025 23.2713 16.4665 23.1233 16.5305 22.9763C16.5445 23.0303 16.5815 23.0913 16.5695 23.1393C16.4855 23.4633 16.3925 23.7863 16.2985 24.1083C16.2915 24.1303 16.2435 24.1403 16.1965 24.1603C16.2155 24.0153 16.2445 23.8683 16.2755 23.7083C16.2445 23.8653 16.2105 24.0143 16.1775 24.1633C16.1765 24.1843 16.1745 24.2053 16.1595 24.2493C16.1575 24.2623 16.1555 24.2743 16.1545 24.2853C16.1555 24.2793 16.1565 24.2723 16.1575 24.2653C16.1755 24.3023 16.1805 24.3483 16.1705 24.4003C16.1575 24.3733 16.1515 24.3413 16.1535 24.3053C16.1505 24.3453 16.1535 24.3763 16.1565 24.4073C16.1575 24.4303 16.1585 24.4523 16.1555 24.4903C16.0705 24.6433 15.9895 24.7793 15.8895 24.9003C15.9555 24.5583 16.0335 24.2293 16.1295 23.9043ZM24.2135 32.0403C24.2305 32.0643 24.2435 32.0763 24.2575 32.0873C24.2165 32.1483 24.1875 32.2243 24.1335 32.2673C23.7695 32.5493 23.4005 32.8233 23.0335 33.1023C22.7425 33.3243 22.4535 33.5503 22.1615 33.7733C21.9155 33.9613 21.6735 34.1563 21.4195 34.3333C21.0575 34.5853 20.6855 34.8233 20.3205 35.0713C20.1355 35.1973 19.9575 35.3343 19.7725 35.4613C18.9705 36.0123 18.1735 36.5733 17.3595 37.1073C16.7725 37.4923 16.1685 37.8553 15.5575 38.2023C14.8485 38.6043 14.1245 38.9803 13.4045 39.3633C12.9065 39.6293 12.4115 39.9023 11.9015 40.1453C11.5065 40.3343 11.0875 40.4753 10.6845 40.6483C10.2745 40.8253 9.86954 41.0133 9.46455 41.1993C9.26554 41.2913 9.06754 41.4463 8.84354 41.3083C8.59254 41.1533 8.72054 40.9123 8.75254 40.7033C8.88454 39.8523 8.96354 38.9933 8.89154 38.1363C8.83654 37.4813 8.71054 36.8273 8.56354 36.1843C8.42754 35.5863 8.26654 34.9863 8.03654 34.4193C7.77054 33.7643 7.43154 33.1383 7.10054 32.5123C6.65854 31.6733 6.20654 30.8403 5.73655 30.0173C5.46254 29.5393 5.14554 29.0863 4.85154 28.6193C4.52154 28.0963 4.19855 27.5693 3.86755 27.0463C3.61955 26.6543 3.34754 26.2753 3.11354 25.8753C2.77754 25.3013 2.46254 24.7153 2.14754 24.1293C1.93954 23.7423 1.74254 23.3483 1.55154 22.9523C1.46054 22.7643 1.38754 22.5663 1.31554 22.3693C1.15754 21.9323 0.997543 21.4963 0.850543 21.0553C0.713543 20.6413 0.570545 20.2263 0.471545 19.8023C0.357545 19.3083 0.274544 18.8053 0.202544 18.3033C0.127544 17.7833 0.0565441 17.2603 0.0295441 16.7373C-0.00245586 16.1173 -0.0114569 15.4933 0.0175431 14.8733C0.0465431 14.2653 0.132545 13.6593 0.201545 13.0533C0.220545 12.8863 0.266543 12.7213 0.302543 12.5563C0.442543 11.9143 0.515545 11.2593 0.791545 10.6473C0.931545 10.3363 0.951546 9.9723 1.08155 9.6543C1.30955 9.0963 1.56455 8.5463 1.83955 8.0093C2.10855 7.4843 2.40455 6.9723 2.71355 6.4703C2.93855 6.1053 3.20254 5.7653 3.45254 5.4163C3.63954 5.1543 3.82754 4.8923 4.02254 4.6353C4.11954 4.5073 4.23455 4.3923 4.33955 4.2703C4.97255 3.5343 5.62954 2.8233 6.42054 2.2503C6.45954 2.2223 6.51254 2.2113 6.57154 2.2073C6.57654 2.2503 6.56654 2.2793 6.55054 2.3243C6.67454 2.2183 6.79155 2.1283 6.91555 2.0233C7.02555 1.9363 7.12854 1.8643 7.24454 1.7823C7.41354 1.6693 7.56955 1.5673 7.72755 1.4473C7.73855 1.4163 7.74954 1.4043 7.77454 1.3913C8.06754 1.2373 8.35555 1.0993 8.63055 0.937299C8.35555 1.0993 8.06754 1.2373 7.78154 1.3703C7.77654 1.3433 7.77554 1.3323 7.77354 1.3213C8.03554 1.1403 8.29254 0.951299 8.56254 0.7833C8.66354 0.720299 8.79554 0.706301 8.95154 0.663301C9.13054 0.603301 9.27154 0.551299 9.41254 0.499299C9.46554 0.498299 9.51754 0.4963 9.61354 0.4983C9.74754 0.4993 9.83855 0.497301 9.92955 0.495301C9.95155 0.496301 9.97354 0.4973 10.0225 0.5123C10.1445 0.5783 10.2385 0.628299 10.3185 0.687299C10.3695 0.689299 10.4065 0.7013 10.4565 0.7193C10.7485 0.9603 11.0285 1.1943 11.3225 1.4363C11.4295 1.6083 11.5225 1.7733 11.6285 1.9483C11.6445 1.9753 11.6475 1.9933 11.6505 2.0243C11.6895 2.2743 11.7675 2.5133 11.7585 2.7473C11.7675 2.5133 11.6895 2.2743 11.6675 2.0473C11.7555 2.2063 11.8275 2.3553 11.8995 2.5053C11.9025 2.7423 11.9055 2.9783 11.8885 3.2453C11.7895 3.4623 11.7105 3.6483 11.6265 3.8143C11.6255 3.8563 11.6205 3.8773 11.6155 3.9163C11.5575 4.0523 11.4775 4.1663 11.4435 4.2923C11.4775 4.1663 11.5575 4.0523 11.6315 3.9323C11.6575 3.9333 11.6685 3.9343 11.6785 3.9343C11.5335 4.5163 11.3895 5.0973 11.2245 5.7043C11.1275 5.8833 11.0495 6.0353 10.9655 6.1683C10.9645 6.2423 10.9575 6.2953 10.9515 6.3693C10.8205 6.8413 10.6885 7.2933 10.5665 7.7583C10.5745 7.8083 10.5715 7.8433 10.5635 7.8963C10.3995 8.4003 10.2375 8.8853 10.0835 9.3733C9.94854 9.8003 9.82254 10.2303 9.66754 10.6753C9.61854 10.6913 9.59554 10.6913 9.57154 10.6713C9.77354 9.9133 9.97754 9.1763 10.1965 8.4253C9.94154 8.2613 9.66654 8.2793 9.38954 8.2703C9.66654 8.2793 9.94154 8.2613 10.1815 8.4383C9.97754 9.1763 9.77354 9.9133 9.57154 10.6713C9.48554 11.0013 9.39855 11.3113 9.29154 11.6423C8.96854 11.6873 9.18655 11.8253 9.21455 11.9213C9.20255 11.9883 9.19055 12.0553 9.17855 12.1303C9.19155 12.0563 9.20655 11.9863 9.22755 11.9123C9.26255 11.8233 9.28555 11.7433 9.31055 11.6423C9.39855 11.3113 9.48554 11.0013 9.57254 10.6913C9.59554 10.6913 9.61854 10.6913 9.65954 10.6913C9.60855 11.0203 9.53854 11.3493 9.47454 11.6983C9.47554 11.7403 9.47154 11.7613 9.46954 11.7993C9.40554 11.9803 9.32555 12.1393 9.27754 12.3083C9.05254 13.0913 8.83655 13.8763 8.58855 14.6733C8.55055 14.6853 8.54154 14.6853 8.53554 14.6623C8.48654 14.7433 8.43955 14.8013 8.39355 14.8773C8.39355 14.9163 8.39355 14.9383 8.37255 14.9793C8.33155 15.1003 8.31155 15.2023 8.29055 15.3043C8.28955 15.4073 8.28854 15.5093 8.26654 15.6333C8.18354 15.6193 8.08955 15.5973 8.06155 15.5433C8.08955 15.5973 8.18354 15.6193 8.26554 15.6553C8.06254 16.1573 8.10355 16.6913 8.15055 17.2083C8.10355 16.6913 8.06254 16.1573 8.28554 15.6343C8.28854 15.5093 8.28954 15.4073 8.30954 15.2983C8.34954 15.1923 8.37054 15.0923 8.39254 14.9753C8.39354 14.9383 8.39355 14.9163 8.40954 14.8923C8.47554 14.8703 8.52454 14.8493 8.57354 14.8293C8.47654 15.3183 8.37055 15.8063 8.28454 16.2973C8.37055 15.8063 8.47654 15.3183 8.57854 14.8113C8.58454 14.7573 8.58554 14.7203 8.60154 14.6723C8.83654 13.8763 9.05254 13.0913 9.27754 12.3083C9.32555 12.1393 9.40554 11.9803 9.48754 11.8163C9.51354 11.8183 9.52355 11.8193 9.53355 11.8203C9.52755 11.8583 9.52155 11.8963 9.49855 11.9643C9.47655 12.0383 9.47054 12.0823 9.46554 12.1263C9.35354 12.4923 9.23555 12.8573 9.12955 13.2263C9.02855 13.5793 8.94054 13.9353 8.83054 14.3223C8.77654 14.5183 8.74054 14.6823 8.70354 14.8463C8.70254 14.8673 8.70154 14.8873 8.68454 14.9363C8.59554 15.3013 8.52254 15.6383 8.45055 15.9753C8.45755 16.0433 8.46554 16.1113 8.45354 16.2043C8.41454 16.2833 8.38754 16.3613 8.37054 16.4383C8.38754 16.3663 8.41255 16.2933 8.44955 16.2213C8.46655 16.5463 8.46754 16.8803 8.45454 17.2283C8.38854 17.0283 8.33555 16.8233 8.34655 16.6133C8.33455 16.8273 8.38354 17.0353 8.43954 17.2433C8.45554 17.3173 8.47054 17.3913 8.48754 17.5033C8.49554 17.5213 8.50355 17.5393 8.51255 17.5573C8.58655 17.6723 8.65954 17.8023 8.73054 17.9473C8.68554 17.8813 8.64154 17.8083 8.59854 17.7303C8.64154 17.8133 8.68354 17.8903 8.72654 17.9663C8.74154 18.0093 8.75554 18.0523 8.78454 18.1233C8.83154 18.1893 8.86554 18.2293 8.89854 18.2683C8.92454 18.2973 8.95054 18.3263 8.99654 18.3793C9.29654 18.7363 9.63254 18.9803 10.0735 19.0523C10.0965 19.0523 10.1185 19.0513 10.1655 19.0713C10.3485 19.1053 10.5255 19.1443 10.6995 19.1753C10.5285 19.1443 10.3565 19.1063 10.1815 19.0743C10.3755 19.0683 10.5775 19.0873 10.7795 19.0883C11.4255 19.0933 12.0725 19.0853 12.7185 19.0923C13.8575 19.1053 14.9955 19.1173 16.1335 19.1493C16.3655 19.1563 16.5955 19.2503 16.8105 19.3213C16.6245 19.3323 16.4455 19.3363 16.2625 19.3373C16.4415 19.3383 16.6235 19.3383 16.8165 19.3393C17.0465 19.2733 17.0615 19.5003 17.1895 19.6043C17.2085 19.8643 17.2205 20.0883 17.2325 20.3123C17.2325 20.3343 17.2325 20.3563 17.2145 20.4013C17.1205 20.5923 17.0465 20.7603 16.9615 20.9133C16.9715 20.9473 16.9715 20.9653 16.9695 20.9983C16.9155 21.1333 16.8535 21.2523 16.8155 21.3783C16.8535 21.2523 16.9155 21.1333 16.9725 21.0313C16.9775 21.1453 16.9775 21.2413 16.9775 21.3363C16.9775 21.3583 16.9775 21.3803 16.9585 21.4243C16.8995 21.5973 16.8605 21.7483 16.8215 21.8983C16.8225 21.9213 16.8225 21.9433 16.8035 21.9873C16.7035 22.1453 16.6225 22.2813 16.5365 22.3973C16.5365 22.4393 16.5325 22.4613 16.5295 22.4993C16.4485 22.8133 16.3675 23.1103 16.2955 23.4223C16.3055 23.4553 16.3055 23.4743 16.3045 23.5073C16.2435 23.6483 16.1685 23.7713 16.1295 23.9043C16.0335 24.2293 15.9555 24.5583 15.8725 24.9053C15.8715 24.9473 15.8675 24.9693 15.8485 25.0203C15.7125 25.4853 15.5905 25.9213 15.4695 26.3583C15.4655 26.3813 15.4615 26.4033 15.4425 26.4543C15.3565 26.7833 15.2845 27.0823 15.2125 27.3823C15.2085 27.4043 15.2035 27.4273 15.1845 27.4773C15.0485 27.9593 14.9275 28.4133 14.8065 28.8673C14.8005 28.9053 14.7945 28.9433 14.7745 29.0113C14.6015 29.5963 14.4245 30.1463 14.2945 30.7083C14.2475 30.9093 14.1705 31.1683 14.4185 31.3353C14.4605 31.3793 14.5025 31.4243 14.5635 31.4953C14.5925 31.5173 14.6205 31.5363 14.6475 31.5523C14.6245 31.5383 14.6015 31.5223 14.5765 31.5033C14.7355 31.4673 14.9005 31.4493 15.0845 31.4313C15.0315 31.5313 14.9725 31.5923 14.9025 31.6143C14.9775 31.5943 15.0425 31.5333 15.1045 31.4313C15.1335 31.4063 15.1615 31.3823 15.1995 31.3473C15.5235 31.0163 15.8475 30.7063 16.1485 30.3743C15.8475 30.7063 15.5235 31.0163 15.2065 31.3183C15.2025 31.2733 15.2015 31.2483 15.2005 31.2233C15.2445 31.1613 15.2885 31.0993 15.3615 31.0243C15.3665 31.0203 15.3715 31.0163 15.3765 31.0113C15.3825 30.9823 15.4025 30.9493 15.4385 30.9163C15.4355 30.9343 15.4275 30.9533 15.4135 30.9723C15.4305 30.9523 15.4425 30.9333 15.4555 30.9153C15.9185 30.3683 16.3785 29.8183 16.8485 29.2783C16.9745 29.1343 17.1345 29.0203 17.3035 28.8723C17.4035 28.7543 17.4785 28.6573 17.5545 28.5613C17.6055 28.5033 17.6565 28.4463 17.7295 28.3703C17.7875 28.3013 17.8245 28.2503 17.8605 28.2003C18.2285 27.7593 18.5935 27.3143 18.9655 26.8763C19.5805 26.1523 20.2045 25.4343 20.8175 24.7093C21.3985 24.0223 21.9675 23.3243 22.5495 22.6383C22.8635 22.2693 23.1975 21.9173 23.5145 21.5503C24.0615 20.9153 24.5975 20.2693 25.1485 19.6353C25.7285 18.9683 26.3375 18.3263 26.8975 17.6433C27.1165 17.3763 27.2515 17.0353 27.4005 16.7163C27.6035 16.2803 27.6365 15.8143 27.5435 15.3493C27.4225 14.7493 27.1985 14.2213 26.6585 13.8363C26.0775 13.4213 25.4295 13.3103 24.7655 13.3013C22.8075 13.2753 20.8485 13.2933 18.8905 13.2883C18.4915 13.2873 18.0895 13.2823 17.6935 13.2363C17.0655 13.1643 16.8195 12.6023 16.9865 12.0193C17.0915 11.6553 17.2025 11.2933 17.3195 10.9333C17.4375 10.5733 17.5745 10.2193 17.6865 9.8573C17.7915 9.5173 17.8675 9.1693 17.9725 8.8293C18.0795 8.4843 18.2085 8.1473 18.3225 7.8043C18.4255 7.4933 18.5215 7.1793 18.6205 6.8673C18.7505 6.4533 18.8825 6.0403 19.0115 5.6263C19.0325 5.5563 19.0375 5.4813 19.0675 5.3863C19.1175 5.2933 19.1505 5.2243 19.1825 5.1543C19.1895 5.0843 19.1965 5.0143 19.2205 4.9273C19.2665 4.9063 19.2975 4.9033 19.3315 4.9193C19.2235 5.3303 19.1195 5.7243 18.9995 6.1143C19.1195 5.7243 19.2235 5.3303 19.3365 4.9033C19.3405 4.8463 19.3435 4.8253 19.3605 4.7933C19.3875 4.7173 19.4095 4.6453 19.4295 4.5713C19.4085 4.6423 19.3825 4.7133 19.3465 4.7833C19.3105 4.7393 19.3025 4.6953 19.2945 4.6513C19.2975 4.6303 19.2995 4.6083 19.3205 4.5663C19.3795 4.5123 19.4205 4.4773 19.4615 4.4433C19.4635 4.4373 19.4645 4.4323 19.4655 4.4263C19.4675 4.3943 19.4685 4.3763 19.4865 4.3503C19.5855 4.1203 19.6735 3.9003 19.7535 3.6773C19.6735 3.9003 19.5855 4.1203 19.4775 4.3333C19.4495 4.3113 19.4465 4.2993 19.4425 4.2873C19.5785 3.8653 19.6895 3.4333 19.8585 3.0243C20.0335 2.5973 20.2555 2.1883 20.4755 1.7803C20.5485 1.6453 20.6785 1.5393 20.7985 1.4183C20.7875 1.4923 20.7755 1.5803 20.7285 1.6433C20.7755 1.5803 20.7875 1.4923 20.8165 1.4163C20.8165 1.4163 20.8185 1.4133 20.8375 1.4173C21.0325 1.2773 21.1955 1.1123 21.3875 0.994298C21.7905 0.748298 22.2085 0.5273 22.6365 0.2963C22.6755 0.2903 22.6965 0.286298 22.7395 0.286298C23.3285 0.178298 23.8985 0.145298 24.4915 0.278298C24.6125 0.292298 24.7125 0.300302 24.8135 0.307302C24.8135 0.307302 24.8105 0.3123 24.8165 0.3313C24.8175 0.3313 24.8185 0.332299 24.8185 0.332299C24.8705 0.303299 24.9395 0.2633 24.9815 0.2823C25.6365 0.5813 26.2985 0.8713 26.8555 1.3663C26.7375 1.3283 26.6155 1.2753 26.4975 1.2163C26.6155 1.2753 26.7375 1.3283 26.8575 1.3843C26.8575 1.3843 26.8605 1.3833 26.8635 1.4023C26.8645 1.4033 26.8665 1.4043 26.8675 1.4053C27.0285 1.4683 27.2035 1.5313 27.3515 1.6333C27.5075 1.7403 27.6355 1.8853 27.7775 2.0313C27.6605 1.9773 27.5385 1.9123 27.4255 1.8333C27.5385 1.9123 27.6605 1.9773 27.7785 2.0493C27.7785 2.0493 27.7815 2.0493 27.7835 2.0683C27.7855 2.0693 27.7875 2.0713 27.7895 2.0723C28.0075 2.1943 28.2335 2.3223 28.4425 2.4763C28.5375 2.5453 28.5955 2.6653 28.6685 2.7813C28.4655 2.6303 28.2625 2.4703 28.0595 2.3023C28.2625 2.4723 28.4655 2.6353 28.6685 2.7993C28.6925 2.8223 28.7165 2.8453 28.7545 2.8873C28.8185 2.9583 28.8685 3.0093 28.9235 3.0773C29.0235 3.1743 29.1175 3.2543 29.2175 3.3503C29.2895 3.4363 29.3565 3.5073 29.4255 3.5953C29.4575 3.6543 29.4815 3.6993 29.5165 3.7353C29.4815 3.6993 29.4575 3.6543 29.4425 3.5913C29.4695 3.5663 29.4805 3.5623 29.4915 3.5593C29.7995 3.8733 30.1295 4.1673 30.4075 4.5053C30.7345 4.9023 31.0235 5.3333 31.3145 5.7593C31.6015 6.1803 31.8965 6.5993 32.1425 7.0443C32.4285 7.5623 32.6865 8.0973 32.9175 8.6413C33.4335 9.8613 33.7865 11.1263 33.9955 12.4403C34.0975 13.0843 34.1335 13.7233 34.1355 14.3693C34.1385 15.1173 34.1715 15.8683 34.1145 16.6113C34.0685 17.2173 33.9215 17.8163 33.7945 18.4133C33.7025 18.8503 33.5705 19.2793 33.4395 19.7323C33.4035 19.7853 33.3865 19.8173 33.3685 19.8483C33.3635 19.8863 33.3595 19.9253 33.3385 19.9853C33.3145 20.0403 33.3075 20.0733 33.3015 20.1053C33.3015 20.1273 33.3015 20.1503 33.2825 20.1953C33.1975 20.3703 33.1315 20.5223 33.0655 20.6743C33.0265 20.8123 32.9885 20.9503 32.9295 21.1133C32.8755 21.2053 32.8425 21.2723 32.8085 21.3393C32.8045 21.3923 32.8005 21.4443 32.7745 21.5173C32.7205 21.5383 32.6865 21.5393 32.6535 21.5403C32.6515 21.5453 32.6505 21.5503 32.6485 21.5553C32.6425 21.5903 32.6395 21.6113 32.6195 21.6393C32.5845 21.7133 32.5635 21.7793 32.5405 21.8553C32.5375 21.8653 32.5345 21.8873 32.5195 21.8943C32.4815 21.9483 32.4595 21.9963 32.4255 22.0573C32.4035 22.1123 32.3915 22.1553 32.3635 22.2043C32.2935 22.2843 32.2285 22.3533 32.1865 22.4343C32.2285 22.3533 32.2935 22.2843 32.3695 22.2193C32.3935 22.2393 32.3965 22.2493 32.3985 22.2603C32.3945 22.2973 32.3905 22.3343 32.3655 22.3933C32.2425 22.6163 32.1385 22.8183 32.0355 23.0193C32.0315 23.0423 32.0285 23.0663 32.0055 23.1123C31.9515 23.1983 31.9165 23.2623 31.8825 23.3263C31.8795 23.3353 31.8775 23.3443 31.8585 23.3703C31.8205 23.4193 31.8005 23.4503 31.7805 23.4813C31.7095 23.6223 31.6395 23.7643 31.5495 23.9283C31.5115 23.9813 31.4925 24.0123 31.4725 24.0433C31.4705 24.0523 31.4685 24.0613 31.4495 24.0873C31.4115 24.1353 31.3905 24.1653 31.3705 24.1963C31.3605 24.2263 31.3505 24.2563 31.3165 24.3023C31.2645 24.3273 31.2385 24.3373 31.2125 24.3473C31.3585 24.0643 31.5075 23.7813 31.6515 23.4973C31.5075 23.7813 31.3585 24.0643 31.2115 24.3483C31.2385 24.3373 31.2645 24.3273 31.3035 24.3113C31.2965 24.3553 31.2765 24.4053 31.2395 24.4593C31.2225 24.4623 31.2175 24.4583 31.2165 24.4403C31.2145 24.3983 31.2115 24.3753 31.2095 24.3533C31.2095 24.3533 31.2105 24.3503 31.2115 24.3483C31.2105 24.3503 31.2095 24.3533 31.1935 24.3573C31.1545 24.4093 31.1325 24.4573 31.1035 24.5173C31.0825 24.5543 31.0675 24.5783 31.0375 24.6083C30.9885 24.6683 30.9545 24.7233 30.9215 24.7773C30.9215 24.7773 30.9165 24.7983 30.8955 24.8093C30.8505 24.8683 30.8275 24.9153 30.8025 24.9633C30.8005 24.9633 30.7965 24.9653 30.7795 24.9693C30.7245 25.0383 30.6875 25.1033 30.6465 25.1853C30.6105 25.2423 30.5785 25.2833 30.5295 25.3283C30.4895 25.3803 30.4655 25.4273 30.4305 25.4853C30.4095 25.5223 30.3985 25.5503 30.3705 25.5823C30.2815 25.7033 30.2085 25.8203 30.1275 25.9503C30.0715 26.0213 30.0255 26.0803 29.9635 26.1443C29.9105 26.2003 29.8725 26.2503 29.8325 26.3113C29.8295 26.3223 29.8265 26.3433 29.8115 26.3493C29.7745 26.3863 29.7525 26.4193 29.7165 26.4623C29.6255 26.5673 29.5475 26.6613 29.4535 26.7603C29.4155 26.8133 29.3935 26.8613 29.3695 26.9093C29.3685 26.9103 29.3665 26.9123 29.3515 26.9163C29.3145 26.9523 29.2935 26.9853 29.2615 27.0243C29.2375 27.0413 29.2275 27.0543 29.2065 27.0783C29.1705 27.1343 29.1495 27.1833 29.1275 27.2323C29.1275 27.2323 29.1245 27.2533 29.1055 27.2643C29.0425 27.3233 28.9985 27.3713 28.9395 27.4243C28.8895 27.4833 28.8555 27.5373 28.8205 27.5903C28.8155 27.6113 28.8095 27.6313 28.7815 27.6653C28.6885 27.7463 28.6185 27.8143 28.5315 27.8863C28.4605 27.9573 28.4045 28.0243 28.3345 28.0993C28.2595 28.1863 28.1995 28.2643 28.1225 28.3473C28.1405 28.3653 28.1435 28.3893 28.1455 28.4293C28.0585 28.5193 27.9715 28.5913 27.8675 28.6653C27.9335 28.5653 28.0165 28.4623 28.1145 28.3553C28.0165 28.4623 27.9335 28.5653 27.8505 28.6673C27.8025 28.7243 27.7545 28.7803 27.6815 28.8503C27.5095 29.0143 27.3635 29.1643 27.2015 29.3193C27.1455 29.3723 27.1055 29.4203 27.0545 29.4753C27.0325 29.4943 27.0225 29.5073 26.9965 29.5253C26.8715 29.6443 26.7635 29.7603 26.6395 29.8813C26.6785 29.8783 26.7005 29.8813 26.7405 29.8833C26.7025 29.9243 26.6485 29.9663 26.5785 30.0003C26.5845 29.9583 26.6035 29.9243 26.6375 29.8843C26.6035 29.9243 26.5835 29.9583 26.5645 29.9923C26.5015 30.0533 26.4385 30.1133 26.3445 30.1833C26.2915 30.2063 26.2655 30.2143 26.2475 30.2303C26.2655 30.2143 26.2915 30.2063 26.3305 30.1923C26.2415 30.3373 26.1535 30.5033 26.0255 30.6283C25.8345 30.8163 25.6145 30.9753 25.4075 31.1483C25.2355 31.2933 25.0695 31.4463 24.8935 31.5863C24.7165 31.7263 24.5305 31.8553 24.3305 31.9893C24.3325 31.9443 24.3415 31.8883 24.3745 31.8593C24.3415 31.8883 24.3325 31.9443 24.3115 31.9883C24.3115 31.9883 24.3105 31.9873 24.2965 31.9863C24.2575 31.9983 24.2325 32.0123 24.2075 32.0253C23.5405 32.5343 22.8775 33.0483 22.2045 33.5503C22.8775 33.0483 23.5405 32.5343 24.2125 32.0383C24.2325 32.0123 24.2575 31.9973 24.2965 31.9863C24.3025 32.0153 24.2925 32.0443 24.2705 32.0803C24.2445 32.0753 24.2305 32.0643 24.2135 32.0403ZM10.0835 9.3733C10.2375 8.8853 10.3995 8.4003 10.5705 7.9183C10.5825 7.9223 10.6055 7.9303 10.6055 7.9303C10.5855 8.0523 10.5665 8.1743 10.5275 8.3263C10.4025 8.6953 10.2965 9.0323 10.1905 9.3703C10.1885 9.3913 10.1855 9.4123 10.1665 9.4583C10.1425 9.5283 10.1365 9.5713 10.1305 9.6153C10.0875 9.8243 10.0485 10.0333 10.0015 10.2413C9.98554 10.3123 9.95154 10.3783 9.91054 10.4783C9.85554 10.6403 9.81655 10.7713 9.77655 10.9023C9.77555 10.9233 9.77454 10.9453 9.75754 10.9943C9.65354 11.2553 9.56654 11.4873 9.47454 11.6983C9.53854 11.3493 9.60855 11.0203 9.68555 10.6753C9.82255 10.2303 9.94854 9.8003 10.0835 9.3733ZM14.2945 30.7083C14.4245 30.1463 14.6015 29.5963 14.7755 29.0303C14.7965 29.0723 14.8205 29.1303 14.8075 29.1783C14.8205 29.1303 14.7965 29.0723 14.7895 29.0003C14.7945 28.9433 14.8005 28.9053 14.8225 28.8623C14.9275 28.4133 15.0485 27.9593 15.1845 27.4943C15.2125 27.5033 15.2425 27.5283 15.2375 27.5433C15.2425 27.5283 15.2125 27.5033 15.1995 27.4663C15.2035 27.4273 15.2085 27.4043 15.2295 27.3763C15.2845 27.0823 15.3565 26.7833 15.4435 26.4713C15.4405 26.6013 15.4345 26.7443 15.4015 26.8813C15.4345 26.7443 15.4405 26.6013 15.4575 26.4433C15.4615 26.4033 15.4655 26.3813 15.4855 26.3533C15.5905 25.9213 15.7125 25.4853 15.8485 25.0363C15.8035 25.3123 15.7535 25.6023 15.6815 25.8853C15.7535 25.6023 15.8035 25.3123 15.8635 25.0083C15.8675 24.9693 15.8715 24.9473 15.8915 24.9203C15.9895 24.7793 16.0705 24.6433 16.1515 24.5073C16.1515 24.5823 16.1685 24.6643 16.1465 24.7323C16.0425 25.0603 15.9105 25.3793 15.8195 25.7103C15.6345 26.3863 15.4765 27.0693 15.2945 27.7463C15.1235 28.3813 14.9255 29.0103 14.7595 29.6473C14.6475 30.0783 14.5675 30.5183 14.4765 30.9543C14.4335 31.1633 14.5345 31.3213 14.7215 31.3703C14.8235 31.3963 14.9555 31.3093 15.0735 31.2703C15.1055 31.2603 15.1335 31.2403 15.1815 31.2243C15.2015 31.2483 15.2025 31.2733 15.1965 31.3283C15.1615 31.3823 15.1335 31.4063 15.0845 31.4313C14.9005 31.4493 14.7355 31.4673 14.5575 31.4773C14.5025 31.4243 14.4605 31.3793 14.4205 31.3123C14.1705 31.1683 14.2475 30.9093 14.2945 30.7083ZM29.8115 26.3493C29.8085 26.3663 29.8005 26.3853 29.7865 26.4053C29.8035 26.3833 29.8145 26.3633 29.8265 26.3433C29.8265 26.3433 29.8295 26.3223 29.8485 26.3113C29.9065 26.2823 29.9445 26.2643 29.9855 26.2483C29.9885 26.2503 29.9925 26.2533 29.9925 26.2533C29.9365 26.5363 29.7335 26.7063 29.4965 26.8643C29.4765 26.8643 29.4715 26.8603 29.4735 26.8433C29.4735 26.8023 29.4715 26.7783 29.4695 26.7553C29.5475 26.6613 29.6255 26.5673 29.7345 26.4623C29.7395 26.4573 29.7435 26.4533 29.7475 26.4493C29.7525 26.4183 29.7755 26.3863 29.8115 26.3493ZM29.4735 26.8433C29.4475 26.8753 29.4235 26.8893 29.3855 26.9063C29.3935 26.8613 29.4155 26.8133 29.4535 26.7603C29.4715 26.7783 29.4735 26.8023 29.4735 26.8433ZM5.19154 3.5623C4.81554 3.9343 4.48254 4.3493 4.11454 4.7493C4.07954 4.7873 4.05854 4.8213 4.02454 4.8653C3.79454 5.1753 3.57854 5.4753 3.34854 5.7773C3.31454 5.8113 3.29655 5.8433 3.26855 5.8893C3.18955 6.0133 3.12054 6.1213 3.03654 6.2343C2.97154 6.3233 2.92255 6.4073 2.86755 6.5063C2.85555 6.5433 2.84954 6.5643 2.82854 6.5903C2.78054 6.6453 2.74854 6.6953 2.71054 6.7583C2.70154 6.7793 2.69854 6.7883 2.68154 6.8003C2.65154 6.8353 2.63554 6.8683 2.61354 6.9173C2.56754 7.0073 2.52854 7.0803 2.47354 7.1583C2.40654 7.2623 2.35554 7.3623 2.29954 7.4743C2.29054 7.4953 2.28755 7.5033 2.27055 7.5153C2.24055 7.5523 2.22654 7.5853 2.20554 7.6353C2.17754 7.7083 2.15554 7.7643 2.11954 7.8233C2.08654 7.8583 2.06855 7.8903 2.04055 7.9383C1.99655 8.0273 1.96254 8.1023 1.91354 8.1813C1.87954 8.2163 1.86055 8.2483 1.83255 8.2963C1.77355 8.4373 1.72254 8.5623 1.65654 8.6913C1.62554 8.7283 1.60854 8.7623 1.58754 8.8153C1.55154 8.9303 1.52354 9.0273 1.49054 9.1213C1.34654 9.5233 1.20155 9.9233 1.04155 10.3293C0.995545 10.4203 0.966545 10.5063 0.931545 10.6113C0.901545 10.7673 0.877543 10.9033 0.837543 11.0443C0.837543 11.0753 0.823544 11.1103 0.793544 11.1503C0.792544 11.1203 0.807544 11.0863 0.835544 11.0473C0.807544 11.0863 0.792544 11.1203 0.772544 11.1743C0.740544 11.3333 0.713545 11.4713 0.674545 11.6113C0.660545 11.6473 0.657545 11.6793 0.652545 11.7283C0.648545 11.7633 0.647546 11.7843 0.629546 11.8113C0.583546 11.9033 0.554545 11.9893 0.520545 12.0953C0.514545 12.1523 0.512546 12.1903 0.497546 12.2383C0.485546 12.2753 0.486544 12.3053 0.481544 12.3553C0.470544 12.4633 0.465545 12.5503 0.445545 12.6503C0.394545 12.9103 0.358546 13.1593 0.317546 13.4283C0.312546 13.5023 0.311543 13.5573 0.295543 13.6223C0.325543 13.6533 0.339545 13.6943 0.354545 13.7673C0.355545 13.8193 0.354545 13.8393 0.346545 13.8713C0.323545 13.8953 0.306546 13.9063 0.290546 13.9173C0.289546 13.8703 0.287544 13.8233 0.287544 13.7753C0.287544 13.8263 0.288546 13.8793 0.290546 13.9373C0.290546 13.9973 0.291545 14.0373 0.278545 14.0903C0.245545 14.1493 0.208545 14.1943 0.208545 14.2393C0.208545 14.1943 0.245544 14.1493 0.293544 14.0883C0.332544 14.0703 0.342546 14.0703 0.352546 14.0933C0.369546 14.0133 0.386546 13.9573 0.421546 13.8803C0.460546 13.8243 0.480544 13.7903 0.501544 13.7563C0.503544 13.5693 0.505546 13.3823 0.525546 13.1683C0.563546 13.0893 0.582546 13.0383 0.602546 12.9863C0.582546 12.9393 0.561546 12.8933 0.525546 12.8433C0.509546 12.8193 0.509543 12.7983 0.510543 12.7613C0.575543 12.5473 0.648545 12.3503 0.701545 12.1493C0.648545 12.3503 0.575544 12.5473 0.508544 12.7303C0.490544 12.6893 0.476543 12.6633 0.461543 12.6383C0.465543 12.5503 0.470545 12.4633 0.492545 12.3503C0.494545 12.3433 0.496546 12.3353 0.498546 12.3293C0.486546 12.3043 0.485546 12.2753 0.497546 12.2383C0.505546 12.2523 0.508545 12.2693 0.506545 12.2893C0.510545 12.2663 0.510546 12.2473 0.511546 12.2293C0.512546 12.1903 0.514544 12.1523 0.536544 12.0903C0.586544 11.9793 0.615545 11.8913 0.645545 11.8043C0.647545 11.7843 0.648544 11.7633 0.668544 11.7283C0.708544 11.7113 0.730546 11.7093 0.754546 11.7293C0.752546 11.6873 0.753543 11.6663 0.753543 11.6303C0.889543 11.2683 1.02554 10.9213 1.18454 10.5593C1.28654 10.6433 1.36255 10.7293 1.52055 10.6763C1.36255 10.7293 1.28655 10.6433 1.18755 10.5403C1.30055 10.1403 1.42854 9.7413 1.56554 9.3463C1.42854 9.7413 1.30055 10.1403 1.16555 10.5553C1.02555 10.9213 0.889545 11.2683 0.736545 11.6133C0.709545 11.6113 0.698545 11.6103 0.687545 11.6093C0.713545 11.4713 0.740544 11.3333 0.787544 11.1713C0.823544 11.1103 0.837546 11.0753 0.852546 11.0393C0.877546 10.9033 0.901544 10.7673 0.946544 10.6063C0.997544 10.4953 1.02754 10.4093 1.05754 10.3243C1.20154 9.9233 1.34654 9.5233 1.49054 9.1213C1.52354 9.0273 1.55155 8.9303 1.60255 8.8123C1.63955 8.7563 1.65555 8.7223 1.67255 8.6873C1.72255 8.5623 1.77354 8.4373 1.84854 8.2953C1.89154 8.2443 1.90954 8.2113 1.92754 8.1773C1.96254 8.1023 1.99655 8.0273 2.05555 7.9363C2.09855 7.8873 2.11654 7.8543 2.13454 7.8213C2.15554 7.7643 2.17754 7.7083 2.21954 7.6323C2.25554 7.5783 2.27054 7.5453 2.28554 7.5123C2.28754 7.5033 2.29054 7.4953 2.31554 7.4723C2.38854 7.3563 2.43854 7.2553 2.48954 7.1543C2.52854 7.0803 2.56754 7.0073 2.62854 6.9153C2.66454 6.8623 2.68054 6.8293 2.69554 6.7973C2.69854 6.7883 2.70154 6.7793 2.72654 6.7573C2.78054 6.6903 2.81254 6.6373 2.84354 6.5853C2.84954 6.5643 2.85554 6.5433 2.88354 6.5043C2.95454 6.4013 3.00354 6.3153 3.05154 6.2293C3.12054 6.1213 3.18955 6.0133 3.28355 5.8883C3.32655 5.8393 3.34454 5.8073 3.36354 5.7753C3.57854 5.4753 3.79455 5.1753 4.04055 4.8623C4.04655 4.8573 4.05155 4.8523 4.05555 4.8473C4.06155 4.8173 4.08054 4.7853 4.11454 4.7493C4.11254 4.7663 4.10554 4.7843 4.09354 4.8033C4.10854 4.7823 4.11955 4.7643 4.12955 4.7453C4.48255 4.3493 4.81554 3.9343 5.19154 3.5623ZM0.211543 17.3423C0.213543 17.5123 0.276543 17.6823 0.309543 17.8703C0.310543 17.9113 0.314545 17.9343 0.313545 17.9793C0.361545 18.2763 0.414544 18.5513 0.466544 18.8433C0.467544 18.8833 0.471543 18.9063 0.469543 18.9503C0.469543 19.0393 0.462544 19.1103 0.480544 19.1743C0.462544 19.1103 0.469545 19.0393 0.486545 18.9573C0.534545 19.0303 0.553546 19.1193 0.588546 19.2033C0.637546 19.3213 0.697543 19.4353 0.753543 19.5673C0.755543 19.6063 0.754544 19.6283 0.744544 19.6583C0.742544 19.6953 0.751546 19.7233 0.761546 19.7683C0.763546 19.8063 0.764545 19.8283 0.763545 19.8703C0.843545 20.0843 0.925545 20.2793 1.00754 20.4893C1.00954 20.5273 1.01054 20.5483 1.01054 20.5703C1.11854 20.9353 1.21254 21.3043 1.33654 21.6643C1.21254 21.3043 1.11855 20.9353 1.02555 20.5793C1.10055 20.7033 1.16155 20.8163 1.22155 20.9493C1.48555 21.6363 1.75054 22.3033 2.01454 22.9703C1.75054 22.3033 1.48555 21.6363 1.24155 20.9493C1.47555 20.8563 1.58055 20.9223 1.62255 21.1553C1.58055 20.9223 1.47555 20.8563 1.24255 20.9293C1.16155 20.8163 1.10055 20.7033 1.02555 20.5793C1.01055 20.5483 1.00955 20.5273 1.01155 20.4683C1.00555 20.4523 0.999544 20.4353 0.994544 20.4203C0.915544 20.2553 0.838545 20.0713 0.763545 19.8703C0.810545 19.9663 0.856546 20.0683 0.901546 20.1773C0.856546 20.0633 0.810544 19.9563 0.765544 19.8493C0.764544 19.8283 0.763544 19.8063 0.772544 19.7603C0.773544 19.7503 0.772544 19.7413 0.772544 19.7323C0.772544 19.7363 0.772544 19.7403 0.772544 19.7443C0.751544 19.7233 0.742544 19.6953 0.744544 19.6583C0.757544 19.6713 0.766545 19.6883 0.770545 19.7093C0.766545 19.6853 0.760546 19.6673 0.754546 19.6503C0.754546 19.6283 0.755543 19.6063 0.753543 19.5673C0.752543 19.5613 0.751545 19.5543 0.750545 19.5483C0.695545 19.4333 0.636546 19.3203 0.588546 19.2033C0.553546 19.1193 0.534546 19.0303 0.491546 18.9363C0.471546 18.9063 0.467543 18.8833 0.476543 18.8323C0.507543 18.7433 0.524543 18.6833 0.558543 18.6343C0.545543 18.6023 0.547543 18.5803 0.551543 18.5413C0.660543 18.5563 0.725545 18.5803 0.749545 18.6263C0.726545 18.5763 0.661543 18.5473 0.552543 18.5253C0.552543 18.5253 0.546544 18.5273 0.543544 18.5273C0.492544 18.2713 0.443544 18.0163 0.377544 17.7543C0.357544 17.6623 0.354544 17.5773 0.363544 17.4693C0.375544 17.4483 0.400544 17.4473 0.419544 17.4513C0.514544 17.7143 0.590544 17.9723 0.655544 18.1943C0.590544 17.9723 0.514544 17.7143 0.418544 17.4363C0.380544 17.3933 0.363546 17.3693 0.345546 17.3463C0.345546 17.0733 0.344546 16.8003 0.345546 16.4793C0.364546 16.0033 0.381544 15.5743 0.397544 15.1463C0.485544 15.0563 0.573544 14.9663 0.710544 14.8283C0.573544 14.9663 0.485544 15.0563 0.397544 15.1283C0.376544 15.0703 0.356544 15.0303 0.335544 14.9903C0.341544 14.7023 0.346546 14.4143 0.352546 14.1033C0.346546 14.4143 0.340546 14.7023 0.317546 14.9963C0.356546 15.0303 0.376544 15.0703 0.397544 15.1283C0.381544 15.5743 0.364543 16.0033 0.343543 16.4563C0.309543 16.4363 0.254546 16.3923 0.254546 16.3473C0.254546 16.3923 0.309544 16.4363 0.341544 16.5033C0.344544 16.8003 0.345544 17.0733 0.335544 17.3543C0.333544 17.3913 0.341543 17.4193 0.350543 17.4703C0.354543 17.5773 0.357543 17.6623 0.357543 17.7623C0.339543 17.8023 0.325546 17.8273 0.311546 17.8533C0.276546 17.6823 0.213543 17.5123 0.211543 17.3423ZM2.60955 24.7143C2.64355 24.7743 2.70755 24.8183 2.76855 24.8823C2.79655 24.9363 2.81255 24.9783 2.82555 25.0363C2.84955 25.0803 2.87754 25.1083 2.90654 25.1533C2.93054 25.2053 2.95354 25.2403 2.97454 25.2943C3.13954 25.5053 3.31055 25.7293 3.46455 25.9643C3.31055 25.7293 3.13954 25.5053 2.97654 25.2753C2.95354 25.2403 2.93055 25.2053 2.90755 25.1363C2.90455 25.1293 2.90154 25.1223 2.89754 25.1163C2.87154 25.1023 2.84655 25.0753 2.82555 25.0363C2.84055 25.0423 2.85554 25.0533 2.86954 25.0683C2.85654 25.0493 2.84254 25.0343 2.82854 25.0203C2.81254 24.9783 2.79654 24.9363 2.76754 24.8633C2.59854 24.5073 2.44455 24.1813 2.28455 23.8583C2.44455 24.1813 2.59855 24.5073 2.75655 24.8513C2.70755 24.8183 2.64355 24.7743 2.60955 24.7143ZM3.95354 26.9363C4.13754 27.2143 4.34754 27.4753 4.55654 27.7583C4.63454 27.8953 4.70154 28.0193 4.76654 28.1603C4.79454 28.2013 4.82554 28.2253 4.85854 28.2623C4.86054 28.2743 4.86855 28.2973 4.86655 28.3143C4.91055 28.3763 4.95655 28.4213 5.00455 28.4823C5.02755 28.5343 5.04955 28.5693 5.06955 28.6213C5.11655 28.6813 5.16355 28.7243 5.21355 28.7833C5.23455 28.8373 5.25454 28.8753 5.27254 28.9303C5.31854 28.9913 5.36554 29.0363 5.41354 29.0953C5.41854 29.1293 5.42354 29.1493 5.42654 29.1873C5.49154 29.2803 5.55755 29.3543 5.62555 29.4473C5.64955 29.5183 5.67154 29.5733 5.69054 29.6453C5.76854 29.7723 5.84954 29.8813 5.93354 30.0083C5.98854 30.1323 6.04254 30.2393 6.09354 30.3633C6.15854 30.4553 6.22455 30.5293 6.29254 30.6163C6.29554 30.6283 6.30354 30.6523 6.30154 30.6703C6.39754 30.8313 6.49754 30.9753 6.59854 31.1303C6.59954 31.1423 6.60754 31.1653 6.60654 31.1813C6.63554 31.2233 6.66654 31.2483 6.70254 31.2883C6.72454 31.3433 6.74055 31.3823 6.75655 31.4383C6.78755 31.4803 6.81954 31.5043 6.85754 31.5463C6.88354 31.6173 6.90354 31.6713 6.91954 31.7423C6.94554 31.7843 6.97554 31.8103 7.00754 31.8473C7.00854 31.8593 7.01654 31.8813 7.01454 31.8983C7.04354 31.9413 7.07354 31.9683 7.10455 32.0133C7.12855 32.1013 7.15255 32.1703 7.17355 32.2563C7.24955 32.3883 7.32755 32.5013 7.40755 32.6303C7.41455 32.6633 7.41955 32.6823 7.42355 32.7203C7.50555 32.8643 7.58755 32.9903 7.67255 33.1273C7.67455 33.1393 7.68155 33.1613 7.68055 33.1783C7.70855 33.2223 7.73855 33.2493 7.76855 33.2953C7.79355 33.3823 7.81755 33.4503 7.83855 33.5373C7.93455 33.7333 8.03254 33.9113 8.13254 34.1083C8.15854 34.2143 8.18454 34.3013 8.20454 34.4063C8.27454 34.5513 8.35054 34.6793 8.42754 34.8243C8.43154 34.8613 8.43454 34.8833 8.42654 34.9163C8.47754 35.1073 8.54055 35.2863 8.60255 35.4823C8.60555 35.5223 8.61055 35.5443 8.60955 35.5863C8.69555 36.0373 8.79054 36.4673 8.87554 36.8983C8.79054 36.4673 8.69554 36.0373 8.62554 35.5923C8.68054 35.6603 8.71055 35.7443 8.74955 35.8233C8.79354 35.9123 8.84654 35.9983 8.89754 36.1053C8.89554 36.0963 8.89354 36.0873 8.89254 36.0783C8.84354 35.9933 8.79255 35.9103 8.74955 35.8233C8.71055 35.7443 8.68055 35.6603 8.63055 35.5723C8.61055 35.5443 8.60554 35.5223 8.61354 35.4703C8.61054 35.4543 8.60655 35.4393 8.60255 35.4243C8.53355 35.2653 8.47454 35.0963 8.42654 34.9163C8.46854 35.0113 8.50754 35.1103 8.54254 35.2133C8.50954 35.1073 8.47354 35.0063 8.43854 34.9043C8.43454 34.8833 8.43155 34.8613 8.43555 34.8223C8.44155 34.8043 8.45654 34.7983 8.47354 34.8033C8.45354 34.7763 8.45054 34.7543 8.44854 34.7153C8.46254 34.6603 8.49655 34.6123 8.48455 34.5843C8.49655 34.6123 8.46254 34.6603 8.43454 34.6903C8.34954 34.5833 8.27954 34.4853 8.20954 34.3883C8.18454 34.3013 8.15855 34.2143 8.13155 34.0893C8.12055 34.0643 8.10954 34.0403 8.09854 34.0163C8.01154 33.8723 7.92355 33.7123 7.83855 33.5373C7.89055 33.6213 7.94155 33.7093 7.99255 33.8033C7.94255 33.7053 7.89154 33.6113 7.84154 33.5183C7.81754 33.4503 7.79355 33.3823 7.76955 33.2783C7.76655 33.2703 7.76254 33.2623 7.75854 33.2553C7.73154 33.2433 7.70555 33.2173 7.68055 33.1783C7.69555 33.1833 7.71054 33.1933 7.72554 33.2063C7.71154 33.1883 7.69654 33.1753 7.68154 33.1613C7.68154 33.1613 7.67455 33.1393 7.67155 33.1083C7.66555 33.0973 7.65954 33.0853 7.65354 33.0743C7.57654 32.9723 7.49955 32.8543 7.42355 32.7203C7.46955 32.7803 7.51655 32.8473 7.56255 32.9193C7.51655 32.8433 7.47055 32.7723 7.42355 32.7013C7.41955 32.6823 7.41454 32.6633 7.41154 32.6103C7.41554 32.5503 7.41755 32.5233 7.43655 32.5003C7.41755 32.4753 7.41654 32.4533 7.41354 32.4153C7.33854 32.2143 7.28355 32.0193 7.18755 31.8473C7.28355 32.0193 7.33854 32.2143 7.39654 32.3953C7.31154 32.3413 7.24454 32.2893 7.17654 32.2383C7.15254 32.1703 7.12854 32.1013 7.10554 31.9973C7.10154 31.9883 7.09754 31.9813 7.09354 31.9743C7.06654 31.9613 7.04054 31.9363 7.01454 31.8983C7.03054 31.9033 7.04555 31.9123 7.06055 31.9263C7.04555 31.9083 7.03154 31.8953 7.01654 31.8813C7.01654 31.8813 7.00855 31.8593 7.00655 31.8323C7.00455 31.8273 7.00155 31.8223 6.99855 31.8173C6.97155 31.8063 6.94454 31.7813 6.91954 31.7423C6.93754 31.7483 6.95354 31.7583 6.96854 31.7743C6.95354 31.7553 6.93855 31.7413 6.92355 31.7263C6.90355 31.6713 6.88354 31.6173 6.85654 31.5293C6.85254 31.5233 6.84854 31.5173 6.84454 31.5113C6.81554 31.5013 6.78555 31.4773 6.75655 31.4383C6.77355 31.4433 6.79154 31.4523 6.80854 31.4673C6.79054 31.4483 6.77354 31.4353 6.75754 31.4213C6.74054 31.3823 6.72454 31.3433 6.70254 31.2723C6.69854 31.2663 6.69554 31.2603 6.69154 31.2553C6.66254 31.2453 6.63354 31.2203 6.60654 31.1813C6.62354 31.1863 6.64055 31.1963 6.65755 31.2113C6.64055 31.1923 6.62354 31.1783 6.60754 31.1653C6.60754 31.1653 6.59955 31.1423 6.59755 31.1113C6.59055 31.0993 6.58255 31.0863 6.57555 31.0743C6.48355 30.9553 6.39154 30.8213 6.30154 30.6703C6.35854 30.7413 6.41455 30.8193 6.47055 30.9023C6.41455 30.8153 6.35855 30.7333 6.30355 30.6523C6.30355 30.6523 6.29555 30.6283 6.29155 30.5983C6.28655 30.5903 6.28055 30.5813 6.27555 30.5733C6.21455 30.5193 6.15354 30.4493 6.09354 30.3633C6.13154 30.3953 6.16754 30.4323 6.20454 30.4753C6.16754 30.4293 6.13155 30.3873 6.09555 30.3453C6.04255 30.2393 5.98854 30.1323 5.93254 29.9903C5.92354 29.9753 5.91554 29.9603 5.90654 29.9453C5.83354 29.8603 5.76054 29.7603 5.69054 29.6453C5.73454 29.6943 5.77754 29.7493 5.82054 29.8083C5.77754 29.7443 5.73555 29.6863 5.69355 29.6273C5.67155 29.5733 5.64955 29.5183 5.62455 29.4293C5.61755 29.4163 5.60955 29.4043 5.60255 29.3933C5.54355 29.3393 5.48454 29.2703 5.42654 29.1873C5.46154 29.2163 5.49554 29.2513 5.52954 29.2913C5.49554 29.2473 5.46154 29.2083 5.42754 29.1693C5.42354 29.1493 5.41855 29.1293 5.41455 29.0773C5.40955 29.0693 5.40555 29.0613 5.40055 29.0543C5.35655 29.0273 5.31454 28.9863 5.27254 28.9303C5.29754 28.9443 5.32255 28.9623 5.34755 28.9853C5.32255 28.9583 5.29854 28.9353 5.27354 28.9133C5.25454 28.8753 5.23455 28.8373 5.21355 28.7653C5.20855 28.7573 5.20354 28.7493 5.19854 28.7423C5.15454 28.7163 5.11155 28.6763 5.06955 28.6213C5.09555 28.6343 5.12055 28.6533 5.14555 28.6763C5.12055 28.6483 5.09554 28.6263 5.07154 28.6043C5.04954 28.5693 5.02755 28.5343 5.00555 28.4643C5.00055 28.4553 4.99554 28.4473 4.99054 28.4393C4.94754 28.4123 4.90555 28.3703 4.86655 28.3143C4.89155 28.3283 4.91554 28.3473 4.93954 28.3713C4.91654 28.3433 4.89255 28.3203 4.86855 28.2973C4.86855 28.2973 4.86054 28.2743 4.85754 28.2463C4.85454 28.2413 4.85154 28.2373 4.84854 28.2323C4.82054 28.2223 4.79254 28.1983 4.76654 28.1603C4.78354 28.1643 4.80054 28.1743 4.81654 28.1903C4.80054 28.1713 4.78455 28.1573 4.76855 28.1433C4.70155 28.0193 4.63454 27.8953 4.55854 27.7383C4.54554 27.6803 4.55155 27.6493 4.53955 27.6303C4.55155 27.6493 4.54555 27.6803 4.54655 27.7253C4.34755 27.4753 4.13754 27.2143 3.95354 26.9363ZM11.0465 5.3123C11.0475 5.3053 11.0495 5.2993 11.0515 5.2923C10.9815 5.2783 10.8855 5.2593 10.8475 5.2013C10.8845 5.2573 10.9765 5.2773 11.0465 5.3123ZM4.19054 4.9173C4.09154 5.0233 4.04455 5.1783 3.95854 5.3193C3.87954 5.4023 3.80954 5.4733 3.75354 5.5543C3.80954 5.4733 3.87955 5.4023 3.97755 5.3193C4.02855 5.3063 4.04855 5.3073 4.06055 5.2973C4.04855 5.3073 4.02855 5.3063 3.99255 5.3113C4.04455 5.1783 4.09154 5.0233 4.19054 4.9173ZM2.59555 7.3253C2.53955 7.4283 2.52254 7.5513 2.47954 7.6703C2.45754 7.6843 2.45055 7.6953 2.42955 7.7143C2.39055 7.7543 2.36754 7.7893 2.34054 7.8413C2.16054 8.1523 1.97355 8.4403 1.81255 8.7423C1.97355 8.4403 2.16054 8.1523 2.35854 7.8383C2.40154 7.7823 2.42454 7.7463 2.44654 7.7103C2.45054 7.6953 2.45755 7.6843 2.49955 7.6713C2.58355 7.6473 2.66755 7.6413 2.68555 7.6033C2.66755 7.6413 2.58354 7.6473 2.50954 7.6663C2.52254 7.5513 2.53955 7.4283 2.59555 7.3253ZM8.72954 13.6593C8.82754 13.2483 8.94854 12.8433 9.07154 12.4263C9.10854 12.3873 9.13255 12.3563 9.16555 12.3233C9.16855 12.3073 9.16355 12.2943 9.15755 12.2643C9.15755 12.2663 9.15654 12.2693 9.15654 12.2713C9.15654 12.2783 9.15654 12.2853 9.15654 12.2913C9.16254 12.2933 9.16855 12.3063 9.16555 12.3233C9.15855 12.3253 9.15754 12.3123 9.15654 12.3003C9.15654 12.3163 9.15654 12.3263 9.15654 12.3263C9.13254 12.3563 9.10854 12.3873 9.07154 12.4263C8.94354 12.3003 8.92054 11.7893 8.99054 11.6193C8.92054 11.7893 8.94354 12.3003 9.05954 12.4353C8.94854 12.8433 8.82754 13.2483 8.72954 13.6593ZM15.5295 19.2463C15.6245 19.2463 15.7195 19.3033 15.7905 19.3383C15.8685 19.3363 15.9225 19.3393 15.9965 19.3393C16.1905 19.3543 16.3635 19.3813 16.5375 19.3863C16.3695 19.3813 16.2015 19.3563 16.0345 19.3393C16.0215 19.3393 16.0095 19.3393 15.9965 19.3393C15.9225 19.3393 15.8685 19.3363 15.8145 19.3343C15.7195 19.3033 15.6245 19.2463 15.5295 19.2463ZM26.2055 13.3383C26.3005 13.3383 26.4015 13.3483 26.4995 13.3723C26.5925 13.3953 26.6815 13.4323 26.7955 13.4823C26.8715 13.5633 26.9155 13.6423 26.9815 13.6873C27.2925 13.8983 27.4825 14.2003 27.6385 14.5483C27.6715 14.5893 27.7035 14.6143 27.7355 14.6593C27.7525 14.7843 27.7705 14.8893 27.7875 15.0143C27.8215 15.2493 27.8935 15.4643 27.8835 15.6763C27.8935 15.4643 27.8215 15.2493 27.8085 15.0133C27.9785 14.9793 28.0375 15.0453 28.0555 15.1973C28.0375 15.0453 27.9785 14.9793 27.8085 14.9923C27.7705 14.8893 27.7525 14.7843 27.7345 14.6423C27.7305 14.6333 27.7255 14.6253 27.7205 14.6173C27.6935 14.6063 27.6665 14.5833 27.6385 14.5483C27.6525 14.5513 27.6675 14.5593 27.6825 14.5703C27.6675 14.5543 27.6515 14.5433 27.6365 14.5313C27.4825 14.2003 27.2925 13.8983 26.9815 13.6873C26.9155 13.6423 26.8715 13.5633 26.8155 13.4833C26.9865 13.2503 27.0665 13.2533 27.2535 13.4403C27.0665 13.2533 26.9865 13.2503 26.7925 13.4653C26.6815 13.4323 26.5925 13.3953 26.4995 13.3723C26.4015 13.3483 26.3005 13.3383 26.2015 13.3223C26.1925 13.3203 26.1835 13.3173 26.1635 13.2913C26.0665 13.0533 25.8805 13.0473 25.6895 13.0273C25.5115 12.7993 25.2765 12.9233 25.0695 12.8963C24.9345 12.8963 24.8005 12.8973 24.6285 12.8813C24.3775 12.8753 24.1635 12.8853 23.9495 12.8953C23.9125 12.8953 23.8745 12.8953 23.8145 12.8763C23.7775 12.8393 23.7625 12.8043 23.7465 12.8033C23.7625 12.8043 23.7775 12.8393 23.7955 12.8763C23.1475 12.8943 22.4975 12.8943 21.8245 12.8943C21.8495 12.8593 21.8975 12.7943 21.9465 12.7943C21.8975 12.7943 21.8495 12.8593 21.8015 12.8943C21.7795 12.8943 21.7565 12.8953 21.7075 12.8783C21.5965 12.8363 21.5115 12.7953 21.4255 12.7923C21.5115 12.7953 21.5965 12.8363 21.6915 12.8773C21.3035 12.9023 20.9065 12.9093 20.5095 12.9133C20.9065 12.9093 21.3035 12.9023 21.7175 12.8953C21.7565 12.8953 21.7795 12.8943 21.8245 12.8943C22.4975 12.8943 23.1475 12.8943 23.8175 12.8943C23.8745 12.8953 23.9125 12.8953 23.9655 12.9093C24.1945 12.9143 24.4075 12.9063 24.6425 12.8973C24.8005 12.8973 24.9345 12.8963 25.0755 12.9143C25.1835 12.9743 25.2855 13.0163 25.3875 13.0743C25.3865 13.1093 25.3855 13.1293 25.3855 13.1503C25.2825 13.1463 25.1795 13.1433 25.0505 13.1223C24.9855 13.0913 24.9475 13.0783 24.9095 13.0653C24.3355 13.0753 23.7625 13.0933 23.1895 13.0913C23.7625 13.0933 24.3355 13.0753 24.9165 13.0803C24.9605 13.1073 24.9965 13.1213 25.0555 13.1373C25.1795 13.1433 25.2825 13.1463 25.3945 13.1623C25.3855 13.1293 25.3865 13.1093 25.4025 13.0713C25.4395 13.0553 25.4605 13.0573 25.4815 13.0593C25.4845 13.0913 25.4875 13.1223 25.4925 13.1703C25.4655 13.1813 25.4355 13.1783 25.3975 13.1633C25.4355 13.1783 25.4655 13.1823 25.5165 13.1883C25.7405 13.2293 25.9445 13.2683 26.1615 13.3113C26.1835 13.3173 26.1925 13.3203 26.2055 13.3383ZM25.0355 20.2803C25.0035 20.3173 24.9905 20.3693 24.9535 20.4223C24.3705 21.0913 23.8025 21.7523 23.2345 22.4133C23.2355 22.4133 23.2405 22.4133 23.2535 22.4133C23.3485 22.3653 23.4345 22.3283 23.4995 22.2693C23.4345 22.3283 23.3495 22.3653 23.2535 22.4133C23.8035 21.7523 24.3705 21.0913 24.9725 20.4223C24.9775 20.4173 24.9825 20.4133 24.9875 20.4083C24.9915 20.3653 25.0045 20.3153 25.0355 20.2803ZM23.2335 22.4143C23.2315 22.4143 23.2275 22.4163 23.2185 22.4203C23.1275 22.5433 23.0525 22.6583 22.9705 22.7873C22.9165 22.8583 22.8705 22.9153 22.8075 22.9763C22.7735 23.0253 22.7345 23.0763 22.6885 23.1263C22.7385 23.0743 22.7815 23.0233 22.8245 22.9733C22.8705 22.9153 22.9165 22.8583 22.9885 22.7843C23.0875 22.6503 23.1605 22.5323 23.2335 22.4143ZM22.8015 22.9813C22.7125 23.0663 22.6395 23.1493 22.5525 23.2413C22.1435 23.6903 21.7465 24.1273 21.3565 24.5713C21.2665 24.6743 21.2065 24.8043 21.1145 24.9233C21.0595 24.9563 21.0155 24.9833 20.9845 25.0203C21.0155 24.9833 21.0595 24.9563 21.1345 24.9233C21.1405 24.9223 21.1465 24.9213 21.1525 24.9203C21.2065 24.8033 21.2665 24.6743 21.3565 24.5713C21.7465 24.1273 22.1435 23.6903 22.5715 23.2423C22.5785 23.2363 22.5845 23.2303 22.5905 23.2253C22.6445 23.1443 22.7155 23.0643 22.8015 22.9813ZM17.9765 28.5423C17.1225 29.5063 16.2605 30.4633 15.3865 31.4313C15.2715 31.5183 15.1785 31.6093 15.0705 31.6743C15.1785 31.6093 15.2715 31.5183 15.3975 31.4443C15.4745 31.4203 15.5475 31.4033 15.6055 31.3733C15.5485 31.4023 15.4785 31.4183 15.4125 31.4363C16.2605 30.4633 17.1225 29.5063 17.9765 28.5423ZM15.2995 26.3553C15.3015 26.3483 15.3025 26.3423 15.3035 26.3353C15.2725 26.3403 15.2175 26.3243 15.2185 26.3103C15.2175 26.3243 15.2705 26.3403 15.2995 26.3553ZM15.3045 26.3293C15.3225 26.1893 15.3375 26.0693 15.3705 25.9463C15.4095 25.8923 15.4315 25.8423 15.4625 25.7763C15.4975 25.7163 15.5355 25.6763 15.5485 25.6293C15.5355 25.6763 15.4975 25.7163 15.4445 25.7793C15.3965 25.8493 15.3745 25.8993 15.3525 25.9493C15.3375 26.0693 15.3225 26.1893 15.3045 26.3293ZM15.9865 23.8543C16.0985 23.3923 16.2125 22.9313 16.3405 22.4543C16.2915 22.3603 16.2395 22.2523 16.2245 22.1403C16.2395 22.2523 16.2915 22.3603 16.3265 22.4703C16.2125 22.9313 16.0985 23.3923 15.9865 23.8543ZM10.2825 19.4143C9.80555 19.3353 9.40454 19.0813 9.00354 18.8103C8.86454 18.9373 8.66854 18.8923 8.57154 18.7363C8.66854 18.8923 8.86455 18.9373 9.00555 18.8273C9.40455 19.0813 9.80555 19.3353 10.2825 19.4143ZM17.2655 12.7993C17.3805 12.9213 17.5635 13.0033 17.8195 13.0623C17.8765 13.0783 17.9225 13.0823 17.9895 13.0863C18.1885 13.0803 18.3655 13.0643 18.5435 13.0653C18.3655 13.0643 18.1885 13.0803 17.9845 13.0713C17.9085 13.0533 17.8575 13.0513 17.8075 13.0503C17.5575 12.9963 17.3795 12.9183 17.2655 12.7993ZM33.5905 11.2153C33.7495 11.8993 33.8185 12.6043 33.9155 13.3123C33.9315 13.3453 33.9425 13.3853 33.9475 13.4293C33.9425 13.3803 33.9355 13.3403 33.9275 13.3003C33.8185 12.6043 33.7495 11.8993 33.5905 11.2153ZM33.9155 13.3183C33.9165 13.3883 33.9275 13.4483 33.9385 13.5263C33.9535 13.6343 33.9675 13.7233 33.9675 13.8123C33.9436 13.8133 33.9345 13.8133 33.9095 13.8143C33.8725 13.8143 33.8515 13.8143 33.8305 13.7913C33.8285 13.6653 33.8265 13.5623 33.8275 13.4413C33.8135 13.3833 33.7985 13.3423 33.7825 13.2783C33.7475 13.0093 33.7435 12.7533 33.6715 12.5183C33.5205 12.0183 33.6085 11.4643 33.3225 10.9743C33.2935 11.0713 33.2635 11.1473 33.2085 11.2883C33.2635 11.1473 33.2935 11.0713 33.3225 10.9963C33.6085 11.4643 33.5205 12.0183 33.6715 12.5183C33.7435 12.7533 33.7475 13.0093 33.7695 13.2883C33.7705 13.2973 33.7725 13.3063 33.7735 13.3153C33.7995 13.3463 33.8145 13.3853 33.8275 13.4413C33.8145 13.4273 33.8025 13.4083 33.7925 13.3853C33.8015 13.4123 33.8135 13.4353 33.8245 13.4593C33.8265 13.5623 33.8285 13.6653 33.8165 13.8063C33.7945 14.0723 33.7875 14.3013 33.7625 14.5323C33.5925 14.6023 33.5925 14.5153 33.5725 14.3953C33.5925 14.5153 33.5925 14.6023 33.7625 14.5513C33.7815 14.6063 33.7815 14.6453 33.7605 14.6843C33.7815 14.7713 33.7815 14.8593 33.7815 14.9683C33.7305 14.9503 33.6375 14.9093 33.6385 14.8703C33.6375 14.9093 33.7305 14.9503 33.7955 15.0043C33.8045 15.0763 33.8025 15.1403 33.8025 15.2023C33.8025 15.1393 33.8045 15.0713 33.7955 14.9823C33.7815 14.8593 33.7815 14.7713 33.7805 14.6833C33.7815 14.6453 33.7815 14.6063 33.7815 14.5493C33.7875 14.3013 33.7945 14.0723 33.8155 13.8283C33.8515 13.8143 33.8725 13.8143 33.9115 13.8333C33.9305 13.8903 33.9305 13.9283 33.9165 13.9683C33.9325 14.0243 33.9625 14.0773 33.9915 14.1303C33.9975 14.1803 34.0035 14.2293 33.9875 14.3013C33.8415 14.3993 33.8295 14.4693 33.9795 14.5293C33.9715 14.8203 33.9636 15.1103 33.9385 15.4333C33.8715 15.5713 33.8345 15.6733 33.9955 15.7173C33.9995 15.7523 34.0045 15.7863 33.9995 15.8363C33.9495 15.8553 33.9085 15.8593 33.8515 15.8623C33.8245 15.6613 33.8115 15.4603 33.8035 15.2593C33.8115 15.4603 33.8245 15.6613 33.8355 15.8853C33.8175 16.1833 33.8015 16.4583 33.7845 16.7333C33.7825 16.7713 33.7805 16.8093 33.7755 16.8663C33.7245 16.9903 33.6765 17.0953 33.5945 17.2753C33.6765 17.0963 33.7245 16.9913 33.7715 16.8863C33.7725 16.8793 33.7745 16.8733 33.7755 16.8663C33.7805 16.8093 33.7825 16.7713 33.8015 16.7323C33.8535 16.7293 33.8875 16.7263 33.9225 16.7453C33.9105 16.8583 33.9015 16.9513 33.8815 17.0423C33.9015 16.9513 33.9105 16.8583 33.9255 16.7273C33.9285 16.6513 33.9295 16.6143 33.9445 16.5663C33.9535 16.4773 33.9495 16.3983 33.9445 16.3023C33.9455 16.2503 33.9475 16.2153 33.9645 16.1733C33.9925 16.1123 34.0045 16.0593 34.0195 15.9863C34.0115 15.9283 34.0005 15.8903 33.9995 15.8363C34.0045 15.7863 33.9995 15.7523 34.0065 15.7003C33.9975 15.6053 33.9775 15.5263 33.9565 15.4243C33.9635 15.1103 33.9715 14.8203 33.9945 14.5173C34.0056 14.4413 34.0005 14.3783 34.0025 14.2973C34.0035 14.2293 33.9975 14.1803 34.0035 14.1133C33.9625 14.0773 33.9325 14.0243 33.9165 13.9683C33.9495 13.9683 33.9685 13.9693 34.0005 13.9733C34.0145 14.0153 34.0145 14.0543 34.0045 14.1093C34.0145 14.0543 34.0145 14.0143 34.0195 13.9583C34.0095 13.8983 33.9955 13.8553 33.9815 13.8123C33.9675 13.7233 33.9535 13.6343 33.9505 13.5153C33.9505 13.5063 33.9505 13.4973 33.9505 13.4883C33.9505 13.4913 33.9505 13.4933 33.9505 13.4963C33.9275 13.4473 33.9165 13.3883 33.9155 13.3183ZM31.4935 6.5783C31.2995 6.2493 31.0755 5.9373 30.8575 5.6023C30.8755 5.6993 30.8845 5.7813 30.8945 5.8633L30.8655 5.6173C31.0755 5.9373 31.2995 6.2493 31.4935 6.5783ZM19.7325 4.2733C19.6155 4.7223 19.3485 5.1343 19.3875 5.6323C19.3865 5.6403 19.3905 5.6573 19.3705 5.6633C19.3125 5.8253 19.2735 5.9813 19.2225 6.1503C19.1365 6.3113 19.0425 6.4533 18.9935 6.6093C19.0425 6.4533 19.1365 6.3113 19.2425 6.1463C19.2475 6.1333 19.2525 6.1203 19.2575 6.1073C19.2775 5.9633 19.3155 5.8163 19.3705 5.6633C19.3595 5.7483 19.3425 5.8363 19.3195 5.9253C19.3465 5.8333 19.3685 5.7453 19.3905 5.6573C19.3905 5.6573 19.3865 5.6403 19.4075 5.6313C19.6455 5.4613 19.8435 5.4713 20.0305 5.6783C19.8435 5.4713 19.6455 5.4613 19.4085 5.6233C19.3485 5.1343 19.6155 4.7223 19.7325 4.2733ZM18.1645 9.3043C18.1165 9.4553 18.0945 9.6143 18.0595 9.7793C18.0585 9.7903 18.0605 9.8103 18.0425 9.8163C17.9845 9.9583 17.9455 10.0943 17.8985 10.2473C17.7585 10.7273 17.6275 11.1913 17.4775 11.6613C17.5615 11.8703 17.5975 12.1013 17.7025 12.2943C17.5975 12.1013 17.5615 11.8703 17.4965 11.6553C17.6275 11.1913 17.7585 10.7273 17.9175 10.2433C17.9205 10.2363 17.9235 10.2293 17.9265 10.2223C17.9465 10.0913 17.9855 9.9563 18.0425 9.8163C18.0295 9.9033 18.0075 9.9923 17.9785 10.0843C18.0105 9.9893 18.0355 9.8993 18.0605 9.8103C18.0605 9.8103 18.0585 9.7903 18.0795 9.7793C18.1725 9.6883 18.3075 9.6063 18.3055 9.5273C18.3075 9.6063 18.1725 9.6883 18.0805 9.7693C18.0945 9.6143 18.1165 9.4553 18.1645 9.3043ZM17.8925 12.8933C18.3085 12.8943 18.7245 12.8943 19.1625 12.8943C19.2885 12.8953 19.3925 12.8953 19.5065 12.9073C19.5615 12.9113 19.6075 12.9033 19.6765 12.8953C19.9055 12.8943 20.1115 12.8943 20.3385 12.8943C20.4375 12.8623 20.5565 12.8103 20.6785 12.8023C20.5565 12.8103 20.4375 12.8623 20.3165 12.8933C20.1115 12.8943 19.9055 12.8943 19.6675 12.8823C19.6515 12.8813 19.6365 12.8803 19.6235 12.8803C19.6295 12.8803 19.6365 12.8813 19.6435 12.8813C19.6075 12.9033 19.5615 12.9113 19.5065 12.9073C19.5305 12.8933 19.5595 12.8843 19.5925 12.8813C19.5545 12.8833 19.5255 12.8893 19.4965 12.8943C19.3925 12.8953 19.2885 12.8953 19.1575 12.8743C18.9695 12.8313 18.8095 12.7973 18.6475 12.7923C18.8095 12.7973 18.9695 12.8313 19.1355 12.8733C18.7245 12.8943 18.3085 12.8943 17.8925 12.8933ZM26.2785 29.9873C26.7345 29.5663 27.1515 29.1043 27.6025 28.6523C27.7275 28.4973 27.8375 28.3503 27.9465 28.2013C27.9445 28.2003 27.9395 28.1993 27.9285 28.2013C27.7375 28.3083 27.5685 28.4173 27.5865 28.6603C27.1515 29.1043 26.7345 29.5663 26.2785 29.9873ZM27.9485 28.2003C27.9505 28.2013 27.9555 28.2013 27.9655 28.2003C28.0195 28.0503 28.0825 27.8923 28.1665 27.7463C28.0825 27.8913 28.0205 28.0483 27.9485 28.2003ZM30.4905 25.0663C30.7235 24.7153 30.9485 24.3583 31.1905 23.9923C31.5365 23.3403 31.8695 22.6993 32.2135 22.0503C32.2345 22.0123 32.2435 21.9843 32.2645 21.9453C32.3205 21.8383 32.3625 21.7433 32.4175 21.6363C31.9905 21.7863 31.8365 21.5033 31.7055 21.1433C31.8365 21.5033 31.9905 21.7863 32.4045 21.6473C32.3625 21.7433 32.3205 21.8383 32.2505 21.9363C32.1845 21.9253 32.1465 21.9123 32.1085 21.8993L32.2025 22.0593C31.8695 22.6993 31.5365 23.3403 31.1905 23.9923C31.0625 23.9033 30.9485 23.8033 30.7915 23.6643L31.1765 24.0033C30.9485 24.3583 30.7235 24.7153 30.4905 25.0663ZM32.7945 20.7013C32.9085 20.3883 33.0075 20.0683 33.1225 19.7343C33.0585 19.7953 33.0035 19.8393 32.8955 19.9243C33.0035 19.8393 33.0585 19.7953 33.1135 19.7523C33.0075 20.0683 32.9085 20.3883 32.7945 20.7013ZM3.34854 5.7773C3.34454 5.8073 3.32654 5.8393 3.29254 5.8733C3.29654 5.8433 3.31454 5.8113 3.34854 5.7773ZM3.03654 6.2343C3.00354 6.3153 2.95454 6.4013 2.88954 6.4893C2.92254 6.4073 2.97154 6.3233 3.03654 6.2343ZM2.82854 6.5903C2.81254 6.6373 2.78054 6.6903 2.73254 6.7443C2.74854 6.6953 2.78054 6.6453 2.82854 6.5903ZM2.68154 6.8003C2.68054 6.8293 2.66454 6.8623 2.63554 6.8983C2.63554 6.8683 2.65154 6.8353 2.68154 6.8003ZM2.47354 7.1583C2.43854 7.2553 2.38854 7.3563 2.32154 7.4593C2.35554 7.3623 2.40654 7.2623 2.47354 7.1583ZM2.27055 7.5153C2.27055 7.5453 2.25554 7.5783 2.22554 7.6153C2.22654 7.5853 2.24055 7.5523 2.27055 7.5153ZM2.11954 7.8233C2.11654 7.8543 2.09854 7.8873 2.06554 7.9213C2.06854 7.8903 2.08654 7.8583 2.11954 7.8233ZM1.91354 8.1813C1.90954 8.2113 1.89154 8.2443 1.85754 8.2793C1.86054 8.2483 1.87954 8.2163 1.91354 8.1813ZM1.65654 8.6913C1.65554 8.7223 1.63954 8.7563 1.60754 8.7933C1.60854 8.7623 1.62554 8.7283 1.65654 8.6913ZM1.04155 10.3293C1.02755 10.4093 0.997544 10.4953 0.952544 10.5863C0.966544 10.5063 0.995545 10.4203 1.04155 10.3293ZM0.674545 11.6113C0.698545 11.6103 0.709544 11.6113 0.737544 11.6293C0.753544 11.6663 0.752544 11.6873 0.751544 11.7073C0.730544 11.7093 0.708546 11.7113 0.671546 11.7133C0.657546 11.6793 0.660545 11.6473 0.674545 11.6113ZM0.629546 11.8113C0.615546 11.8913 0.586546 11.9793 0.540546 12.0713C0.554546 11.9893 0.583546 11.9033 0.629546 11.8113ZM0.445545 12.6503C0.476544 12.6633 0.490545 12.6893 0.507545 12.7463C0.509545 12.7983 0.509544 12.8193 0.509544 12.8403C0.458544 13.0243 0.406546 13.2093 0.338546 13.4003C0.358546 13.1593 0.394545 12.9103 0.445545 12.6503ZM0.290546 13.9373C0.306546 13.9063 0.323545 13.8953 0.360545 13.8733C0.389545 13.8623 0.398544 13.8633 0.405544 13.8823C0.386544 13.9573 0.369546 14.0133 0.352546 14.0693C0.342546 14.0703 0.332545 14.0703 0.306545 14.0743C0.291545 14.0373 0.290546 13.9973 0.290546 13.9373ZM0.525546 12.8433C0.561546 12.8933 0.582544 12.9393 0.585544 12.9913C0.548544 13.0473 0.529544 13.0983 0.508544 13.1723C0.505544 13.3823 0.503543 13.5693 0.483543 13.7573C0.429543 13.7623 0.393544 13.7663 0.355544 13.7533C0.339544 13.6943 0.325546 13.6533 0.310546 13.6123C0.311546 13.5573 0.312545 13.5023 0.333545 13.4203C0.406545 13.2093 0.458546 13.0243 0.525546 12.8433ZM0.585544 12.9913C0.582544 13.0383 0.563545 13.0893 0.527545 13.1453C0.529545 13.0983 0.548544 13.0473 0.585544 12.9913ZM0.483543 13.7573C0.480543 13.7903 0.460545 13.8243 0.423545 13.8613C0.398545 13.8633 0.389545 13.8623 0.367545 13.8603C0.354545 13.8393 0.355544 13.8193 0.356544 13.7853C0.393544 13.7663 0.429543 13.7623 0.483543 13.7573ZM0.309543 17.8703C0.325543 17.8273 0.339545 17.8023 0.374545 17.7693C0.442545 18.0113 0.490544 18.2613 0.537544 18.5123C0.539544 18.5173 0.541544 18.5223 0.543544 18.5273C0.546544 18.5273 0.552543 18.5253 0.551543 18.5413C0.547543 18.5803 0.545545 18.6023 0.542545 18.6243C0.524545 18.6833 0.507545 18.7433 0.478545 18.8143C0.414545 18.5513 0.361543 18.2763 0.330543 17.9853C0.369543 18.0313 0.383544 18.0923 0.404544 18.1523C0.383544 18.0923 0.369544 18.0313 0.335544 17.9633C0.314544 17.9343 0.310543 17.9113 0.309543 17.8703ZM0.335544 17.3543C0.363544 17.3693 0.380543 17.3933 0.399543 17.4323C0.400543 17.4473 0.375544 17.4483 0.362544 17.4483C0.341544 17.4193 0.333544 17.3913 0.335544 17.3543ZM7.17355 32.2563C7.24455 32.2893 7.31154 32.3413 7.39754 32.4123C7.41654 32.4533 7.41754 32.4753 7.41854 32.4973C7.41754 32.5233 7.41554 32.5503 7.41054 32.5953C7.32754 32.5013 7.24955 32.3883 7.17355 32.2563ZM8.20454 34.4063C8.27954 34.4853 8.34954 34.5833 8.43354 34.7063C8.45054 34.7543 8.45355 34.7763 8.45655 34.7983C8.45655 34.7983 8.44154 34.8043 8.43354 34.8053C8.35054 34.6793 8.27454 34.5513 8.20454 34.4063ZM9.22755 11.9123C9.18655 11.8253 8.96855 11.6873 9.29055 11.6633C9.28555 11.7433 9.26255 11.8233 9.22755 11.9123ZM2.42955 7.7143C2.42455 7.7463 2.40154 7.7823 2.36254 7.8223C2.36754 7.7893 2.39055 7.7543 2.42955 7.7143ZM8.30954 15.2983C8.31154 15.2023 8.33154 15.1003 8.37154 14.9953C8.37054 15.0923 8.34954 15.1923 8.30954 15.2983ZM8.57854 14.8113C8.52454 14.8493 8.47554 14.8703 8.40954 14.8743C8.43954 14.8013 8.48655 14.7433 8.53255 14.6853C8.54155 14.6853 8.55054 14.6853 8.57254 14.6843C8.58554 14.7203 8.58454 14.7573 8.57854 14.8113ZM25.6895 13.0273C25.6365 13.0483 25.5795 13.0493 25.5025 13.0553C25.4605 13.0573 25.4395 13.0553 25.4035 13.0563C25.2855 13.0163 25.1835 12.9743 25.0755 12.9143C25.2765 12.9233 25.5115 12.7993 25.6895 13.0273ZM25.5025 13.0553C25.5795 13.0493 25.6365 13.0483 25.6925 13.0463C25.8805 13.0473 26.0665 13.0533 26.1505 13.2873C25.9445 13.2683 25.7405 13.2293 25.5145 13.1723C25.4875 13.1223 25.4845 13.0913 25.5025 13.0553ZM24.9165 13.0803C24.9475 13.0783 24.9855 13.0913 25.0285 13.1193C24.9965 13.1213 24.9605 13.1073 24.9165 13.0803ZM23.2185 22.4203C23.1605 22.5313 23.0875 22.6503 22.9955 22.7713C23.0525 22.6583 23.1275 22.5433 23.2185 22.4203ZM4.21555 26.8563C4.07455 26.5373 3.95955 26.2073 3.85355 25.8633C4.16755 25.8253 4.33455 25.6513 4.34555 25.3663C4.33455 25.6513 4.16754 25.8253 3.85054 25.8443C3.76854 25.7693 3.70754 25.6933 3.63454 25.5853C3.63154 25.5813 3.62755 25.5763 3.62455 25.5723C3.49455 25.5903 3.43455 25.5343 3.40155 25.4423C3.43555 25.5373 3.49855 25.6003 3.63655 25.6043C3.70755 25.6933 3.76855 25.7693 3.83255 25.8633C3.95955 26.2073 4.07455 26.5373 4.21555 26.8563ZM3.54254 25.4733C3.48354 25.4023 3.42654 25.3423 3.37054 25.2813C3.36454 25.2653 3.35454 25.2523 3.33054 25.2163C3.28154 25.0783 3.31254 24.9113 3.11354 24.9233C2.97654 24.7583 2.81954 24.6243 2.73054 24.4023C2.81954 24.6243 2.97654 24.7583 3.11354 24.9423C3.18354 25.0513 3.25154 25.1413 3.33054 25.2363C3.35454 25.2523 3.36454 25.2653 3.37054 25.3003C3.42754 25.3493 3.48454 25.4063 3.54254 25.4733ZM15.3705 25.9463C15.3745 25.8993 15.3965 25.8493 15.4355 25.7953C15.4315 25.8423 15.4095 25.8923 15.3705 25.9463ZM0.722545 19.3813C0.696545 19.2213 0.675545 19.0633 0.666545 18.8953C0.703545 18.8363 0.728545 18.7863 0.743545 18.7443C0.729545 18.7823 0.705546 18.8273 0.672546 18.8803C0.627546 18.8053 0.601543 18.7263 0.559543 18.6363C0.601543 18.7263 0.626544 18.8053 0.647544 18.9003C0.670544 19.0673 0.695545 19.2253 0.722545 19.3813ZM17.8195 13.0623C17.8575 13.0513 17.9085 13.0533 17.9635 13.0703C17.9225 13.0823 17.8765 13.0783 17.8195 13.0623ZM33.9675 13.8123C33.9955 13.8553 34.0095 13.8983 34.0055 13.9563C33.9685 13.9693 33.9495 13.9683 33.9305 13.9663C33.9305 13.9283 33.9305 13.8903 33.9275 13.8333C33.9345 13.8133 33.9436 13.8133 33.9675 13.8123ZM23.9655 12.9093C24.1635 12.8853 24.3775 12.8753 24.6055 12.8813C24.4075 12.9063 24.1945 12.9143 23.9655 12.9093ZM33.9445 16.5663C33.9245 16.4993 33.9195 16.4203 33.9295 16.3303C33.9495 16.3983 33.9535 16.4773 33.9445 16.5663ZM33.9645 16.1733C33.9615 16.1273 33.9735 16.0733 34.0015 16.0133C34.0045 16.0593 33.9925 16.1123 33.9645 16.1733ZM33.8015 16.7323C33.8015 16.4583 33.8175 16.1833 33.8515 15.8853C33.9085 15.8593 33.9495 15.8553 33.9905 15.8523C34.0005 15.8903 34.0115 15.9283 34.0035 15.9933C33.9735 16.0733 33.9615 16.1273 33.9485 16.1803C33.9475 16.2153 33.9455 16.2503 33.9295 16.3133C33.9195 16.4203 33.9245 16.4993 33.9295 16.5783C33.9295 16.6143 33.9285 16.6513 33.9245 16.7053C33.8875 16.7263 33.8535 16.7293 33.8015 16.7323ZM34.0065 15.7003C33.8345 15.6733 33.8715 15.5713 33.9395 15.4563C33.9775 15.5263 33.9975 15.6053 34.0065 15.7003ZM33.9945 14.5173C33.8295 14.4693 33.8415 14.3993 33.9815 14.3193C34.0005 14.3783 34.0056 14.4413 33.9945 14.5173ZM27.6025 28.6523C27.5685 28.4173 27.7375 28.3083 27.9305 28.2023C27.8385 28.3493 27.7285 28.4973 27.6025 28.6523ZM32.2135 22.0503C32.1705 22.0053 32.1395 21.9523 32.1085 21.8993C32.1465 21.9123 32.1845 21.9253 32.2375 21.9473C32.2435 21.9843 32.2345 22.0123 32.2135 22.0503ZM3.11354 24.9423C3.31254 24.9113 3.28154 25.0783 3.31955 25.2113C3.25154 25.1413 3.18354 25.0513 3.11354 24.9423ZM7.24454 1.7823C7.12854 1.8643 7.02555 1.9363 6.90354 2.0003C6.87154 1.9883 6.85955 1.9833 6.84655 1.9783C6.99155 1.8473 7.13755 1.7163 7.29855 1.6023C7.29555 1.6693 7.27654 1.7203 7.24454 1.7823ZM29.2065 27.0783C29.2215 27.1063 29.2215 27.1433 29.2205 27.1983C29.1995 27.2223 29.1795 27.2273 29.1435 27.2323C29.1495 27.1833 29.1705 27.1343 29.2065 27.0783ZM24.4915 0.278298C24.4805 0.275298 24.4695 0.2723 24.4585 0.2693C23.8905 0.1453 23.3245 0.1783 22.7455 0.2693C22.8985 0.1943 23.0665 0.1413 23.2345 0.0882998C23.2715 0.0872998 23.3085 0.0862998 23.3875 0.0882998C23.5565 0.0912998 23.6875 0.0732987 23.8095 0.0972987C23.6875 0.0732987 23.5565 0.0913004 23.4055 0.0873004C23.4265 0.0543004 23.4755 -0.00470144 23.5155 0.000298559C23.9215 0.0542986 24.3265 0.1173 24.7305 0.1843C24.7615 0.1893 24.7855 0.239301 24.8135 0.288301C24.7125 0.300301 24.6125 0.292298 24.4915 0.278298ZM22.6365 0.2963C22.6095 0.2823 22.5985 0.2683 22.5765 0.2473C22.7795 0.1803 22.9925 0.1213 23.2205 0.0742999C23.0665 0.1413 22.8985 0.194299 22.7245 0.264298C22.6965 0.286299 22.6755 0.2903 22.6365 0.2963ZM10.5665 7.7583C10.6885 7.2933 10.8205 6.8413 10.9675 6.3903C10.9925 6.3903 11.0025 6.3913 11.0125 6.3913C11.0095 6.4303 11.0055 6.4683 10.9875 6.5353C10.9675 6.5943 10.9625 6.6253 10.9585 6.6563C10.9565 6.6773 10.9545 6.6973 10.9355 6.7443C10.8975 6.8513 10.8755 6.9323 10.8535 7.0123C10.8515 7.0333 10.8505 7.0553 10.8335 7.1013C10.8135 7.1573 10.8085 7.1873 10.8035 7.2183C10.8015 7.2393 10.7995 7.2593 10.7825 7.3083C10.7035 7.4813 10.6405 7.6273 10.5665 7.7583ZM28.9395 27.4243C28.9585 27.4423 28.9615 27.4663 28.9645 27.5073C28.9275 27.5463 28.8905 27.5683 28.8365 27.5903C28.8555 27.5373 28.8895 27.4833 28.9395 27.4243ZM19.4655 4.4263C19.4235 4.4753 19.3815 4.5103 19.3235 4.5503C19.3405 4.4683 19.3735 4.3823 19.4245 4.2913C19.4465 4.2993 19.4495 4.3113 19.4625 4.3413C19.4685 4.3763 19.4675 4.3943 19.4655 4.4263ZM32.5195 21.8943C32.5385 21.9113 32.5415 21.9353 32.5445 21.9783C32.5175 22.0123 32.4915 22.0273 32.4515 22.0433C32.4595 21.9963 32.4815 21.9483 32.5195 21.8943ZM29.9635 26.1443C29.9815 26.1623 29.9845 26.1863 29.9855 26.2283C29.9445 26.2643 29.9065 26.2823 29.8515 26.3003C29.8725 26.2503 29.9105 26.2003 29.9635 26.1443ZM29.3515 26.9163C29.3685 26.9343 29.3705 26.9573 29.3705 26.9953C29.3475 27.0143 29.3265 27.0163 29.2885 27.0183C29.2935 26.9853 29.3145 26.9523 29.3515 26.9163ZM7.72755 1.4473C7.56955 1.5673 7.41354 1.6693 7.25854 1.7713C7.27654 1.7203 7.29554 1.6693 7.31654 1.6023C7.31954 1.5873 7.34154 1.5803 7.37054 1.5773C7.37654 1.5753 7.38155 1.5733 7.38755 1.5713C7.49155 1.4883 7.61455 1.4043 7.75455 1.3213C7.77555 1.3323 7.77655 1.3433 7.77055 1.3753C7.74955 1.4043 7.73854 1.4163 7.73154 1.4303C7.65854 1.4623 7.58654 1.4933 7.50954 1.5253C7.58854 1.4943 7.65855 1.4673 7.72755 1.4473ZM31.0375 24.6083C31.0565 24.6253 31.0595 24.6493 31.0635 24.6903C31.0265 24.7303 30.9905 24.7523 30.9375 24.7753C30.9545 24.7233 30.9885 24.6683 31.0375 24.6083ZM11.3225 1.4363C11.0285 1.1943 10.7485 0.960299 10.4875 0.722299C10.5675 0.732299 10.6285 0.745301 10.6905 0.759301C10.9125 0.966301 11.1355 1.1743 11.3545 1.4063C11.3515 1.4303 11.3375 1.4443 11.3225 1.4363ZM21.3875 0.994298C21.1955 1.1123 21.0325 1.2773 20.8385 1.4163C20.9065 1.2963 20.9775 1.1643 21.0815 1.0703C21.2235 0.941298 21.3815 0.821301 21.5505 0.731301C21.8705 0.561301 22.2045 0.414299 22.5605 0.256299C22.5985 0.268299 22.6095 0.2823 22.6205 0.2963C22.2085 0.5273 21.7905 0.748298 21.3875 0.994298ZM32.6485 21.5553C32.6845 21.5393 32.7185 21.5383 32.7695 21.5363C32.7535 21.5873 32.7215 21.6393 32.6675 21.6773C32.6435 21.6523 32.6395 21.6413 32.6355 21.6313C32.6395 21.6113 32.6425 21.5903 32.6485 21.5553ZM31.1935 24.3573C31.2115 24.3753 31.2145 24.3983 31.2145 24.4383C31.1875 24.4693 31.1635 24.4843 31.1245 24.5023C31.1325 24.4573 31.1545 24.4093 31.1935 24.3573ZM30.5295 25.3283C30.5475 25.3473 30.5485 25.3703 30.5475 25.4093C30.5205 25.4413 30.4955 25.4563 30.4555 25.4733C30.4655 25.4273 30.4895 25.3803 30.5295 25.3283ZM28.9235 3.0773C28.9555 3.0623 28.9915 3.0633 29.0475 3.0653C29.1085 3.1123 29.1515 3.1583 29.2085 3.2133C29.2205 3.2473 29.2205 3.2723 29.2155 3.3163C29.1175 3.2543 29.0235 3.1743 28.9235 3.0773ZM32.6195 21.6393C32.6395 21.6413 32.6435 21.6523 32.6505 21.6793C32.6535 21.7043 32.6535 21.7133 32.6505 21.7343C32.6225 21.7763 32.5965 21.8053 32.5575 21.8393C32.5635 21.7793 32.5845 21.7133 32.6195 21.6393ZM28.5315 27.8863C28.5505 27.9043 28.5525 27.9283 28.5545 27.9683C28.5535 27.9953 28.5515 28.0043 28.5425 28.0263C28.4845 28.0563 28.4335 28.0733 28.3655 28.0913C28.4045 28.0243 28.4605 27.9573 28.5315 27.8863ZM27.2015 29.3193C27.2195 29.3383 27.2215 29.3613 27.2235 29.4013C27.2105 29.4303 27.1975 29.4423 27.1765 29.4643C27.1445 29.4743 27.1225 29.4743 27.0825 29.4713C27.1055 29.4203 27.1455 29.3723 27.2015 29.3193ZM13.3695 24.8803C13.3755 24.8793 13.3825 24.8793 13.3885 24.8783C13.3475 24.8393 13.3055 24.8013 13.2645 24.7623C13.3025 24.7983 13.3415 24.8343 13.3695 24.8803ZM25.4075 27.4263C25.4045 27.4283 25.4015 27.4313 25.3985 27.4333C25.5775 27.6003 25.6605 27.4893 25.7395 27.3683C25.6615 27.4873 25.5805 27.5963 25.4075 27.4263ZM25.8795 27.1463C25.8745 27.1463 25.8695 27.1463 25.8655 27.1473L25.8335 27.2513C25.8435 27.2183 25.8535 27.1853 25.8795 27.1463ZM30.8415 24.9513C30.8685 24.9403 30.8875 24.9303 30.9075 24.9203C30.8855 24.9693 30.8645 25.0183 30.8255 25.0683C30.8065 25.0453 30.8055 25.0223 30.8005 24.9823C30.7965 24.9653 30.8005 24.9633 30.8165 24.9613C30.8175 24.9613 30.8175 24.9603 30.8185 24.9603C30.8275 24.9153 30.8505 24.8683 30.8905 24.8193C30.9095 24.8403 30.9115 24.8633 30.9105 24.9033C30.8885 24.9263 30.8685 24.9393 30.8415 24.9513ZM10.0675 19.0343C9.63255 18.9803 9.29654 18.7363 9.00954 18.3873C9.03554 18.3743 9.07654 18.3653 9.10154 18.3823C9.42354 18.5913 9.74255 18.8043 10.0675 19.0343ZM27.2175 29.3153C27.3635 29.1643 27.5095 29.0143 27.6745 28.8643C27.7095 28.9033 27.7495 28.9653 27.7385 28.9763C27.5825 29.1283 27.4205 29.2723 27.2415 29.4013C27.2215 29.3613 27.2195 29.3383 27.2175 29.3153ZM8.46754 15.9683C8.52254 15.6383 8.59554 15.3013 8.68354 14.9523C8.73154 15.3013 8.66354 15.6433 8.46754 15.9683ZM16.9945 21.3263C16.9775 21.2413 16.9775 21.1453 16.9745 21.0173C16.9715 20.9653 16.9715 20.9473 16.9715 20.9283C17.0465 20.7603 17.1205 20.5923 17.2115 20.4183C17.1555 20.7133 17.0835 21.0153 16.9945 21.3263ZM16.5315 22.9583C16.4665 23.1233 16.4025 23.2713 16.3125 23.4133C16.3675 23.1103 16.4485 22.8133 16.5415 22.5233C16.5645 22.5443 16.5745 22.5583 16.5855 22.5733C16.5845 22.5953 16.5835 22.6163 16.5665 22.6653C16.5475 22.7403 16.5425 22.7873 16.5385 22.8353C16.5365 22.8703 16.5355 22.9053 16.5315 22.9583ZM10.2075 9.3633C10.2965 9.0323 10.4025 8.6953 10.5235 8.3463C10.4335 8.6763 10.3285 9.0163 10.2075 9.3633ZM9.47855 11.7183C9.56655 11.4873 9.65355 11.2553 9.75555 11.0103C9.70255 11.2693 9.63454 11.5403 9.55054 11.8153C9.52354 11.8193 9.51355 11.8183 9.48555 11.8003C9.47155 11.7613 9.47554 11.7403 9.47855 11.7183ZM11.0295 6.3863C11.0025 6.3913 10.9925 6.3903 10.9665 6.3693C10.9575 6.2953 10.9645 6.2423 10.9715 6.1883C11.0495 6.0353 11.1275 5.8833 11.2215 5.7243C11.1735 5.9393 11.1105 6.1603 11.0295 6.3863ZM28.1385 28.3423C28.1995 28.2643 28.2595 28.1863 28.3515 28.1003C28.4335 28.0733 28.4845 28.0563 28.5355 28.0383C28.4175 28.1743 28.2995 28.3113 28.1635 28.4293C28.1435 28.3893 28.1405 28.3653 28.1385 28.3423ZM16.6035 22.5693C16.5745 22.5583 16.5645 22.5443 16.5415 22.5063C16.5325 22.4613 16.5365 22.4393 16.5405 22.4173C16.6225 22.2813 16.7035 22.1453 16.8015 22.0043C16.7515 22.1873 16.6865 22.3753 16.6035 22.5693ZM17.2485 20.3013C17.2205 20.0883 17.2085 19.8643 17.1955 19.6203C17.3865 19.7453 17.4055 19.9263 17.2485 20.3013ZM11.6315 3.8343C11.7105 3.6483 11.7895 3.4623 11.8845 3.2683C11.9585 3.5173 11.8515 3.7263 11.6955 3.9303C11.6685 3.9343 11.6575 3.9333 11.6315 3.9163C11.6205 3.8773 11.6255 3.8563 11.6315 3.8343ZM10.6875 0.7413C10.6285 0.7453 10.5675 0.732299 10.4745 0.715299C10.4065 0.701299 10.3695 0.6893 10.3335 0.6783C10.2385 0.6283 10.1445 0.578299 10.0385 0.513299C10.2985 0.420299 10.4865 0.5873 10.6875 0.7413ZM11.9055 2.4843C11.8275 2.3553 11.7555 2.2063 11.6665 2.0333C11.6475 1.9933 11.6445 1.9753 11.6495 1.9393C11.6605 1.9073 11.6645 1.8943 11.6695 1.8813C11.7505 2.0753 11.8315 2.2693 11.9055 2.4843ZM10.5775 7.7723C10.6405 7.6273 10.7035 7.4813 10.7805 7.3243C10.8805 7.5503 10.7335 7.7283 10.6215 7.9253C10.6055 7.9303 10.5825 7.9223 10.5755 7.9003C10.5715 7.8433 10.5745 7.8083 10.5775 7.7723ZM32.0535 23.0193C32.1385 22.8183 32.2425 22.6163 32.3615 22.4113C32.2755 22.6103 32.1735 22.8143 32.0535 23.0193ZM28.5485 27.8813C28.6185 27.8143 28.6885 27.7463 28.7755 27.6803C28.8745 27.8823 28.6895 27.9053 28.5725 27.9683C28.5525 27.9283 28.5505 27.9043 28.5485 27.8813ZM29.4895 3.5413C29.4805 3.5623 29.4695 3.5663 29.4405 3.5733C29.3565 3.5073 29.2895 3.4363 29.2215 3.3313C29.2205 3.2723 29.2205 3.2473 29.2215 3.2223C29.3095 3.3233 29.3985 3.4233 29.4895 3.5413ZM28.9185 3.0613C28.8685 3.0093 28.8185 2.9583 28.7675 2.8863C28.9135 2.8023 28.9295 2.8103 29.0465 3.0473C28.9915 3.0633 28.9555 3.0623 28.9185 3.0613ZM8.72155 14.8403C8.74055 14.6823 8.77654 14.5183 8.82654 14.3413C8.92155 14.5193 8.87755 14.6863 8.72155 14.8403ZM16.8385 21.8893C16.8605 21.7483 16.8995 21.5973 16.9555 21.4403C16.9325 21.5833 16.8935 21.7323 16.8385 21.8893ZM11.6625 1.8663C11.6645 1.8943 11.6605 1.9073 11.6355 1.9293C11.5225 1.7733 11.4295 1.6083 11.3375 1.4443C11.3375 1.4443 11.3515 1.4303 11.3585 1.4243C11.4215 1.4833 11.4775 1.5493 11.5475 1.6393C11.5775 1.6853 11.5925 1.7073 11.6075 1.7303C11.6235 1.7703 11.6395 1.8113 11.6625 1.8663ZM26.6555 29.8753C26.7635 29.7603 26.8715 29.6443 26.9995 29.5423C27.0185 29.5783 27.0185 29.6013 27.0195 29.6243C26.9385 29.7013 26.8585 29.7793 26.7515 29.8703C26.7005 29.8813 26.6785 29.8783 26.6555 29.8753ZM9.39954 0.486299C9.27154 0.551299 9.13054 0.603298 8.96954 0.654298C9.09554 0.593298 9.24154 0.533299 9.39954 0.486299ZM29.9795 26.1383C30.0255 26.0803 30.0715 26.0213 30.1415 25.9473C30.1915 25.9193 30.2175 25.9063 30.2435 25.8933C30.1715 26.0113 30.0995 26.1293 30.0105 26.2503C29.9925 26.2533 29.9885 26.2503 29.9875 26.2303C29.9845 26.1863 29.9815 26.1623 29.9795 26.1383ZM33.0825 20.6713C33.1315 20.5223 33.1975 20.3703 33.2785 20.2113C33.2295 20.3593 33.1645 20.5133 33.0825 20.6713ZM6.83255 1.9873C6.85955 1.9833 6.87154 1.9883 6.89654 2.0153C6.79154 2.1283 6.67454 2.2183 6.55754 2.3083C6.56654 2.2793 6.57655 2.2503 6.59055 2.2073C6.66955 2.1263 6.74355 2.0613 6.83255 1.9873ZM9.79454 10.8973C9.81654 10.7713 9.85555 10.6403 9.90855 10.4983C9.88555 10.6213 9.84854 10.7573 9.79454 10.8973ZM30.2565 25.8833C30.2175 25.9063 30.1915 25.9193 30.1515 25.9343C30.2085 25.8203 30.2815 25.7033 30.3745 25.5993C30.3955 25.6343 30.3965 25.6573 30.3975 25.6803C30.3545 25.7443 30.3125 25.8083 30.2565 25.8833ZM17.5365 28.5613C17.4785 28.6573 17.4035 28.7543 17.3125 28.8573C17.3705 28.7633 17.4445 28.6623 17.5365 28.5613ZM28.9555 27.4193C28.9985 27.3713 29.0425 27.3233 29.1035 27.2753C29.0805 27.3583 29.0415 27.4413 28.9835 27.5073C28.9615 27.4663 28.9585 27.4423 28.9555 27.4193ZM19.2755 4.6553C19.3025 4.6953 19.3105 4.7393 19.3325 4.7933C19.3435 4.8253 19.3405 4.8463 19.3325 4.8833C19.2975 4.9033 19.2665 4.9063 19.2215 4.9123C19.2235 4.8293 19.2395 4.7433 19.2755 4.6553ZM32.4175 22.2573C32.3965 22.2493 32.3935 22.2393 32.3855 22.2133C32.3915 22.1553 32.4035 22.1123 32.4405 22.0553C32.4915 22.0273 32.5175 22.0123 32.5445 21.9983C32.5475 22.0003 32.5525 22.0043 32.5525 22.0043C32.5135 22.0873 32.4745 22.1713 32.4175 22.2573ZM9.92354 0.478299C9.83854 0.497299 9.74754 0.4993 9.63354 0.4973C9.71254 0.4823 9.81555 0.471299 9.92354 0.478299ZM30.4165 25.6813C30.3965 25.6573 30.3955 25.6343 30.3915 25.5943C30.3985 25.5503 30.4095 25.5223 30.4455 25.4833C30.4955 25.4563 30.5205 25.4413 30.5485 25.4283C30.5505 25.4303 30.5545 25.4333 30.5545 25.4333C30.5145 25.5163 30.4745 25.5993 30.4165 25.6813ZM29.2215 27.0703C29.2275 27.0543 29.2375 27.0413 29.2785 27.0253C29.3265 27.0163 29.3475 27.0143 29.3715 27.0143C29.3745 27.0173 29.3795 27.0223 29.3795 27.0223C29.3385 27.0873 29.2975 27.1513 29.2385 27.1983C29.2215 27.1433 29.2215 27.1063 29.2215 27.0703ZM10.8695 7.0073C10.8755 6.9323 10.8975 6.8513 10.9335 6.7603C10.9265 6.8333 10.9065 6.9173 10.8695 7.0073ZM31.0535 24.6023C31.0675 24.5783 31.0825 24.5543 31.1185 24.5153C31.1635 24.4843 31.1875 24.4693 31.2145 24.4563C31.2175 24.4583 31.2225 24.4623 31.2225 24.4623C31.1815 24.5443 31.1405 24.6253 31.0815 24.6903C31.0595 24.6493 31.0565 24.6253 31.0535 24.6023ZM30.5465 25.3243C30.5785 25.2833 30.6105 25.2423 30.6615 25.1873C30.6885 25.1753 30.6975 25.1763 30.7075 25.1773C30.6685 25.2603 30.6305 25.3443 30.5735 25.4303C30.5545 25.4333 30.5505 25.4303 30.5505 25.4113C30.5485 25.3703 30.5475 25.3473 30.5465 25.3243ZM19.1655 5.1593C19.1505 5.2243 19.1175 5.2933 19.0695 5.3693C19.0855 5.3043 19.1165 5.2333 19.1655 5.1593ZM32.5345 21.8873C32.5345 21.8873 32.5375 21.8653 32.5545 21.8493C32.5965 21.8053 32.6225 21.7763 32.6475 21.7473C32.6285 21.8303 32.6085 21.9123 32.5705 21.9993C32.5525 22.0043 32.5475 22.0003 32.5465 21.9803C32.5415 21.9353 32.5385 21.9113 32.5345 21.8873ZM32.8265 21.3363C32.8425 21.2723 32.8755 21.2053 32.9235 21.1323C32.9065 21.1953 32.8745 21.2643 32.8265 21.3363ZM31.8995 23.3263C31.9165 23.2623 31.9515 23.1983 31.9995 23.1293C31.9815 23.1913 31.9495 23.2583 31.8995 23.3263ZM30.7155 25.1643C30.6975 25.1763 30.6885 25.1753 30.6645 25.1713C30.6875 25.1033 30.7245 25.0383 30.7835 24.9863C30.8055 25.0223 30.8065 25.0453 30.8075 25.0683C30.7795 25.0963 30.7515 25.1243 30.7155 25.1643ZM27.0365 29.6253C27.0185 29.6013 27.0185 29.5783 27.0165 29.5383C27.0225 29.5073 27.0325 29.4943 27.0715 29.4783C27.1225 29.4743 27.1445 29.4743 27.1675 29.4743C27.1295 29.5243 27.0925 29.5753 27.0365 29.6253ZM17.8435 28.2013C17.8245 28.2503 17.7875 28.3013 17.7345 28.3543C17.7545 28.3063 17.7895 28.2543 17.8435 28.2013ZM16.5535 22.8293C16.5425 22.7873 16.5475 22.7403 16.5655 22.6813C16.5755 22.7213 16.5715 22.7723 16.5535 22.8293ZM10.1465 9.6123C10.1365 9.5713 10.1425 9.5283 10.1625 9.4733C10.1705 9.5113 10.1665 9.5603 10.1465 9.6123ZM9.48154 12.1213C9.47054 12.0823 9.47654 12.0383 9.49354 11.9833C9.50354 12.0203 9.50054 12.0693 9.48154 12.1213ZM8.89954 18.2503C8.86554 18.2293 8.83155 18.1893 8.79655 18.1343C8.83055 18.1563 8.86454 18.1943 8.89954 18.2503ZM29.4795 26.8663C29.4585 26.9173 29.4365 26.9663 29.3965 27.0183C29.3795 27.0223 29.3745 27.0173 29.3735 26.9983C29.3705 26.9573 29.3685 26.9343 29.3665 26.9123C29.3665 26.9123 29.3685 26.9103 29.3835 26.9073C29.4235 26.8893 29.4475 26.8753 29.4715 26.8603C29.4715 26.8603 29.4765 26.8643 29.4795 26.8663ZM33.3165 20.0993C33.3075 20.0733 33.3145 20.0403 33.3325 20.0043C33.3405 20.0313 33.3365 20.0623 33.3165 20.0993ZM11.6205 1.7223C11.5925 1.7073 11.5775 1.6853 11.5615 1.6493C11.5845 1.6613 11.6085 1.6883 11.6205 1.7223ZM33.3855 19.8483C33.3865 19.8173 33.4035 19.7853 33.4345 19.7493C33.4325 19.7783 33.4175 19.8133 33.3855 19.8483ZM31.3865 24.1963C31.3905 24.1653 31.4115 24.1353 31.4455 24.1003C31.4405 24.1303 31.4225 24.1633 31.3865 24.1963ZM31.4895 24.0433C31.4925 24.0123 31.5115 23.9813 31.5445 23.9473C31.5405 23.9763 31.5235 24.0093 31.4895 24.0433ZM31.7975 23.4813C31.8005 23.4503 31.8205 23.4193 31.8545 23.3843C31.8505 23.4133 31.8325 23.4473 31.7975 23.4813ZM10.8165 7.2143C10.8085 7.1873 10.8135 7.1573 10.8315 7.1173C10.8395 7.1413 10.8345 7.1753 10.8165 7.2143ZM10.9715 6.6523C10.9625 6.6253 10.9675 6.5943 10.9855 6.5543C10.9935 6.5783 10.9895 6.6133 10.9715 6.6523Z" fill="url(#paint0_linear_2494_3353)"/>
<defs>
<linearGradient id="paint0_linear_2494_3353" x1="15.7529" y1="4.2963" x2="15.7529" y2="34.3698" gradientUnits="userSpaceOnUse">
<stop stop-color="#397E00"/>
<stop offset="1" stop-color="#81C713"/>
</linearGradient>
</defs>
</svg>
