<svg width="17" height="20" viewBox="0 0 17 20" fill="none" xmlns="http://www.w3.org/2000/svg">
<path d="M11.2151 18.9601H1.56299C1.18062 18.9601 0.868245 18.6477 0.868245 18.2638V1.56466C0.868245 1.18077 1.18062 0.868431 1.56299 0.868431H14.7539C15.1378 0.868431 15.4501 1.18077 15.4501 1.56466V14.9658H13.4225C12.2053 14.9658 11.2151 15.9575 11.2151 17.1747V18.9601ZM12.2967 18.5V17.0635C12.2967 16.4724 12.7781 15.991 13.3707 15.991H14.958L12.2967 18.5ZM11.925 19.7247L11.9265 19.7264C12.0194 19.7264 12.1108 19.6913 12.1809 19.6258L16.1432 15.8904C16.2164 15.8188 16.2544 15.7228 16.2559 15.6238C16.294 15.5583 16.3184 15.4821 16.3184 15.4014V1.56466C16.3184 0.70243 15.6162 0 14.7539 0H1.56299C0.70228 0 0 0.70243 0 1.56466V18.2638C0 19.1261 0.70228 19.8283 1.56299 19.8283H11.6478C11.7544 19.8283 11.8504 19.7887 11.925 19.7247Z" fill="#6B9D1C"/>
<path d="M6.45708 8.67726H7.82361C7.98813 8.67726 8.15418 8.76102 8.23644 8.88442C8.3187 9.00933 8.31867 9.21644 8.27754 9.33983L7.69864 10.6226L10.5139 7.64295L8.98139 7.47689C8.81534 7.43576 8.69189 7.35336 8.65076 7.22845C8.56697 7.10505 8.567 6.93904 8.60966 6.81413L9.18855 5.44918H7.82361L6.45708 8.67726ZM6.04277 13.5628C5.9605 13.5628 5.83555 13.5216 5.79442 13.4789C5.58724 13.3555 5.54609 13.1072 5.62835 12.9L7.11826 9.67047H5.75332C5.58727 9.67047 5.42126 9.58819 5.339 9.4648C5.25674 9.33988 5.21555 9.17391 5.29781 9.00938L7.11826 4.78661C7.20205 4.62056 7.36659 4.49707 7.57377 4.49707H9.9746C10.1407 4.49707 10.3067 4.57931 10.3889 4.70423C10.4712 4.82762 10.5139 4.99378 10.4301 5.15983L9.81012 6.64955L11.6305 6.89799C11.7965 6.93913 11.9627 7.06392 12.0038 7.22845C12.0449 7.39449 12.0037 7.60171 11.8788 7.72663L6.37331 13.3967C6.29105 13.5216 6.16768 13.5628 6.04277 13.5628Z" fill="#6B9D1C"/>
</svg>
