<svg width="18" height="19" viewBox="0 0 18 19" fill="none" xmlns="http://www.w3.org/2000/svg">
<path d="M1.00002 18.5833C1.00373 18.8166 1.23997 19.0027 1.52939 19L17.4842 18.8434C17.7712 18.8407 18.0025 18.6491 18 18.4158C17.995 18.1834 17.7588 17.9973 17.4707 18L1.51576 18.1566C1.22758 18.1593 0.997546 18.3509 1.00002 18.5833Z" fill="#6B9D1C"/>
<path d="M7.05114 4.91936L9.85644 4.87215C9.88964 4.87608 10.0153 5.002 10.0181 5.25242L10.1105 15.6902C10.1134 15.9498 9.98205 16.081 9.95029 16.0823L7.14499 16.1281C7.11322 16.1254 6.98473 16.001 6.98328 15.7492L6.88943 5.31004C6.88655 5.05175 7.01937 4.91936 7.05114 4.91936ZM7.14499 17H7.15944L9.96474 16.9541C10.5524 16.9436 11.0071 16.3851 10.9999 15.6823L10.9075 5.24442C10.9046 4.86157 10.7617 4.50758 10.5163 4.2742C10.3271 4.09327 10.086 3.99496 9.84057 4.0002L7.03669 4.04613C6.44906 4.05662 5.99428 4.61512 6.00005 5.31788L6.09391 15.7571C6.09679 16.1386 6.23972 16.4913 6.48517 16.726C6.66998 16.903 6.90387 17 7.14499 17Z" fill="#6B9D1C"/>
<path d="M13.8672 0.910052L16.0589 0.848829C16.1074 0.903704 16.2113 1.12572 16.2136 1.50857L16.2887 15.4099C16.291 15.7877 16.1859 16.0314 16.1328 16.0888L13.9411 16.1501C13.8926 16.0952 13.7887 15.8744 13.7864 15.4916L13.7113 1.59035C13.709 1.21261 13.813 0.967479 13.8672 0.910052ZM13.9157 17H13.9296L16.1732 16.9375C16.6489 16.9248 17.0046 16.265 17 15.4035L16.9249 1.50218C16.9226 0.978951 16.7829 0.505476 16.5531 0.240033C16.4134 0.0779598 16.2506 -0.00369985 16.0704 0.000128649L13.8268 0.0615068C13.3511 0.0742684 12.9954 0.733924 13 1.59534L13.0751 15.4979C13.0774 16.0212 13.2171 16.4921 13.4457 16.7588C13.582 16.9171 13.7437 17 13.9157 17Z" fill="#6B9D1C"/>
<path d="M3.15418 16.1452L0.896917 16.189C0.871358 16.1853 0.769098 16.0694 0.767936 15.8349L0.715677 9.21919C0.714515 8.9786 0.821396 8.85513 0.845792 8.85513L3.10306 8.8113C3.13327 8.81619 3.23201 8.93577 3.23317 9.16537L3.2843 15.7811C3.28662 16.0217 3.17974 16.1439 3.15418 16.1452ZM3.63398 8.25432C3.48179 8.08579 3.29009 7.99418 3.09143 8.00029L0.834163 8.04307C0.361332 8.05162 -0.00460322 8.57189 4.37691e-05 9.2265L0.0511326 15.8422C0.0546178 16.1976 0.168473 16.5261 0.367132 16.746C0.515835 16.9096 0.704039 17 0.898051 17H0.90968L3.16695 16.9572C3.63862 16.9474 4.00574 16.4284 3.99993 15.7738L3.94881 9.15807C3.94648 8.80145 3.83148 8.47294 3.63398 8.25432Z" fill="#6B9D1C"/>
</svg>
