<svg width="21" height="15" viewBox="0 0 21 15" fill="none" xmlns="http://www.w3.org/2000/svg">
<path d="M14.741 2.43084C14.741 2.43084 12.828 0.0108356 11.056 2.57184" stroke="#6B9D1C" stroke-width="0.8" stroke-miterlimit="1.5" stroke-linecap="round" stroke-linejoin="round"/>
<mask id="path-2-inside-1_2587_3748" fill="white">
<path d="M10.4548 3.83069L11.3348 4.20764V3.02661H10.4548V3.83069ZM11.6358 4.93567C11.5858 4.93567 11.5608 4.93564 11.5098 4.91064L10.0528 4.28259C9.95183 4.23259 9.87683 4.13162 9.87683 4.00562V2.69958C9.87683 2.54858 10.0018 2.39771 10.1778 2.39771H11.6358C11.7868 2.39771 11.9368 2.52358 11.9368 2.69958V4.60962C11.9368 4.70962 11.8868 4.8106 11.8118 4.8606C11.7358 4.9106 11.6858 4.93567 11.6358 4.93567Z"/>
</mask>
<path d="M10.4548 3.83069L11.3348 4.20764V3.02661H10.4548V3.83069ZM11.6358 4.93567C11.5858 4.93567 11.5608 4.93564 11.5098 4.91064L10.0528 4.28259C9.95183 4.23259 9.87683 4.13162 9.87683 4.00562V2.69958C9.87683 2.54858 10.0018 2.39771 10.1778 2.39771H11.6358C11.7868 2.39771 11.9368 2.52358 11.9368 2.69958V4.60962C11.9368 4.70962 11.8868 4.8106 11.8118 4.8606C11.7358 4.9106 11.6858 4.93567 11.6358 4.93567Z" fill="white"/>
<path d="M10.4548 3.83069H9.4548V4.49022L10.0611 4.74991L10.4548 3.83069ZM11.3348 4.20764L10.9411 5.12686L12.3348 5.72388V4.20764H11.3348ZM11.3348 3.02661H12.3348V2.02661H11.3348V3.02661ZM10.4548 3.02661V2.02661H9.4548V3.02661H10.4548ZM11.5098 4.91064L11.95 4.01272L11.9281 4.00199L11.9057 3.99233L11.5098 4.91064ZM10.0528 4.28259L9.60917 5.17879L9.63278 5.19048L9.65698 5.20091L10.0528 4.28259ZM11.8118 4.8606L12.3615 5.69603L12.3665 5.69265L11.8118 4.8606ZM10.4548 3.83069L10.0611 4.74991L10.9411 5.12686L11.3348 4.20764L11.7286 3.28842L10.8486 2.91147L10.4548 3.83069ZM11.3348 4.20764H12.3348V3.02661H11.3348H10.3348V4.20764H11.3348ZM11.3348 3.02661V2.02661H10.4548V3.02661V4.02661H11.3348V3.02661ZM10.4548 3.02661H9.4548V3.83069H10.4548H11.4548V3.02661H10.4548ZM11.6358 4.93567V3.93567C11.6185 3.93567 11.628 3.93552 11.6408 3.93602C11.6582 3.93669 11.6928 3.93871 11.7369 3.94602C11.8378 3.96277 11.9128 3.99452 11.95 4.01272L11.5098 4.91064L11.0697 5.80857C11.1578 5.85177 11.2708 5.89603 11.4095 5.91904C11.5248 5.93817 11.6297 5.93567 11.6358 5.93567V4.93567ZM11.5098 4.91064L11.9057 3.99233L10.4487 3.36428L10.0528 4.28259L9.65698 5.20091L11.114 5.82896L11.5098 4.91064ZM10.0528 4.28259L10.4965 3.3864C10.6921 3.48322 10.8768 3.70451 10.8768 4.00562H9.87683H8.87683C8.87683 4.55872 9.21159 4.98197 9.60917 5.17879L10.0528 4.28259ZM9.87683 4.00562H10.8768V2.69958H9.87683H8.87683V4.00562H9.87683ZM9.87683 2.69958H10.8768C10.8768 3.04258 10.6107 3.39771 10.1778 3.39771V2.39771V1.39771C9.393 1.39771 8.87683 2.05459 8.87683 2.69958H9.87683ZM10.1778 2.39771V3.39771H11.6358V2.39771V1.39771H10.1778V2.39771ZM11.6358 2.39771V3.39771C11.2851 3.39771 10.9368 3.12516 10.9368 2.69958H11.9368H12.9368C12.9368 1.92201 12.2885 1.39771 11.6358 1.39771V2.39771ZM11.9368 2.69958H10.9368V4.60962H11.9368H12.9368V2.69958H11.9368ZM11.9368 4.60962H10.9368C10.9368 4.49728 10.9637 4.39577 11.007 4.30863C11.0493 4.22361 11.1256 4.11621 11.2571 4.02855L11.8118 4.8606L12.3665 5.69265C12.7564 5.43275 12.9368 4.99739 12.9368 4.60962H11.9368ZM11.8118 4.8606L11.2622 4.02518C11.2357 4.04263 11.2597 4.02443 11.309 4.00259C11.369 3.97601 11.4839 3.93567 11.6358 3.93567V4.93567V5.93567C12.0193 5.93567 12.2993 5.7369 12.3614 5.69601L11.8118 4.8606Z" fill="#6B9D1C" mask="url(#path-2-inside-1_2587_3748)"/>
<mask id="path-4-inside-2_2587_3748" fill="white">
<path d="M0.553009 5.81074V6.66572L7.01199 4.47871C7.06199 4.45371 7.13699 4.45371 7.18799 4.47871L13.672 6.66572V5.81074L7.11301 3.02168L0.553009 5.81074ZM13.948 7.36873C13.923 7.36873 13.873 7.3687 13.848 7.3437L7.11301 5.05671L0.377014 7.3437C0.277014 7.3687 0.202007 7.36877 0.126007 7.29377C0.0510071 7.24377 0 7.1427 0 7.0677V5.60969C0 5.48369 0.0759949 5.38371 0.175995 5.33271L6.987 2.4427C7.062 2.4177 7.13701 2.4177 7.21301 2.4427L14.049 5.35872C14.149 5.40872 14.224 5.50872 14.224 5.63472V7.09272C14.224 7.19272 14.174 7.26768 14.099 7.31868C14.074 7.34368 14.023 7.36873 13.948 7.36873Z"/>
</mask>
<path d="M0.553009 5.81074V6.66572L7.01199 4.47871C7.06199 4.45371 7.13699 4.45371 7.18799 4.47871L13.672 6.66572V5.81074L7.11301 3.02168L0.553009 5.81074ZM13.948 7.36873C13.923 7.36873 13.873 7.3687 13.848 7.3437L7.11301 5.05671L0.377014 7.3437C0.277014 7.3687 0.202007 7.36877 0.126007 7.29377C0.0510071 7.24377 0 7.1427 0 7.0677V5.60969C0 5.48369 0.0759949 5.38371 0.175995 5.33271L6.987 2.4427C7.062 2.4177 7.13701 2.4177 7.21301 2.4427L14.049 5.35872C14.149 5.40872 14.224 5.50872 14.224 5.63472V7.09272C14.224 7.19272 14.174 7.26768 14.099 7.31868C14.074 7.34368 14.023 7.36873 13.948 7.36873Z" fill="white"/>
<path d="M0.553009 5.81074L0.161742 4.89047L-0.446991 5.14928V5.81074H0.553009ZM0.553009 6.66572H-0.446991V8.06009L0.873723 7.6129L0.553009 6.66572ZM7.01199 4.47871L7.33271 5.42589L7.39777 5.40386L7.45921 5.37314L7.01199 4.47871ZM7.18799 4.47871L6.74783 5.37663L6.80649 5.40538L6.86839 5.42626L7.18799 4.47871ZM13.672 6.66572L13.3524 7.61327L14.672 8.05837V6.66572H13.672ZM13.672 5.81074H14.672V5.14931L14.0633 4.89049L13.672 5.81074ZM7.11301 3.02168L7.50432 2.10142L7.11304 1.93504L6.72174 2.1014L7.11301 3.02168ZM13.848 7.3437L14.5551 6.63659L14.3903 6.47176L14.1695 6.3968L13.848 7.3437ZM7.11301 5.05671L7.43454 4.10982L7.11303 4.00064L6.79151 4.1098L7.11301 5.05671ZM0.377014 7.3437L0.61955 8.31384L0.659507 8.30385L0.698507 8.29061L0.377014 7.3437ZM0.126007 7.29377L0.828416 6.582L0.760315 6.5148L0.680707 6.46172L0.126007 7.29377ZM0.175995 5.33271L-0.214612 4.41216L-0.246994 4.4259L-0.278331 4.44188L0.175995 5.33271ZM6.987 2.4427L6.67077 1.49402L6.63302 1.5066L6.59639 1.52214L6.987 2.4427ZM7.21301 2.4427L7.60537 1.52289L7.56607 1.50613L7.52549 1.49277L7.21301 2.4427ZM14.049 5.35872L14.4962 4.46429L14.4692 4.45077L14.4414 4.4389L14.049 5.35872ZM14.099 7.31868L13.5367 6.49175L13.4586 6.54483L13.3919 6.61157L14.099 7.31868ZM0.553009 5.81074H-0.446991V6.66572H0.553009H1.55301V5.81074H0.553009ZM0.553009 6.66572L0.873723 7.6129L7.33271 5.42589L7.01199 4.47871L6.69128 3.53153L0.232295 5.71855L0.553009 6.66572ZM7.01199 4.47871L7.45921 5.37314C7.31685 5.44431 7.18813 5.45996 7.09962 5.45996C7.01036 5.45996 6.8854 5.44407 6.74783 5.37663L7.18799 4.47871L7.62815 3.58079C7.30229 3.42105 6.89905 3.41715 6.56478 3.58428L7.01199 4.47871ZM7.18799 4.47871L6.86839 5.42626L13.3524 7.61327L13.672 6.66572L13.9916 5.71817L7.50759 3.53116L7.18799 4.47871ZM13.672 6.66572H14.672V5.81074H13.672H12.672V6.66572H13.672ZM13.672 5.81074L14.0633 4.89049L7.50432 2.10142L7.11301 3.02168L6.72169 3.94194L13.2807 6.731L13.672 5.81074ZM7.11301 3.02168L6.72174 2.1014L0.161742 4.89047L0.553009 5.81074L0.944276 6.73102L7.50427 3.94196L7.11301 3.02168ZM13.948 7.36873V6.36873C13.9301 6.36873 13.9891 6.36695 14.0627 6.37924C14.1029 6.38595 14.1699 6.40012 14.2495 6.43269C14.3289 6.46522 14.4441 6.52565 14.5551 6.63659L13.848 7.3437L13.1409 8.05081C13.3749 8.28487 13.6452 8.33722 13.7333 8.35193C13.8444 8.37049 13.9409 8.36873 13.948 8.36873V7.36873ZM13.848 7.3437L14.1695 6.3968L7.43454 4.10982L7.11301 5.05671L6.79147 6.00361L13.5265 8.2906L13.848 7.3437ZM7.11301 5.05671L6.79151 4.1098L0.055521 6.39679L0.377014 7.3437L0.698507 8.29061L7.4345 6.00363L7.11301 5.05671ZM0.377014 7.3437L0.134479 6.37356C0.135242 6.37337 0.160858 6.36679 0.201382 6.36251C0.243854 6.35803 0.311085 6.3551 0.393672 6.36773C0.587129 6.39731 0.736201 6.491 0.828416 6.582L0.126007 7.29377L-0.576401 8.00555C-0.408186 8.17155 -0.183612 8.3027 0.0913495 8.34475C0.330401 8.3813 0.529184 8.33644 0.61955 8.31384L0.377014 7.3437ZM0.126007 7.29377L0.680707 6.46172C0.806097 6.54532 0.876115 6.6435 0.914386 6.71423C0.949993 6.78003 1 6.8993 1 7.0677H0H-1C-1 7.3111 -0.924489 7.5184 -0.844629 7.666C-0.762104 7.81852 -0.629083 7.99223 -0.428693 8.12582L0.126007 7.29377ZM0 7.0677H1V5.60969H0H-1V7.0677H0ZM0 5.60969H1C1 5.9196 0.808155 6.13285 0.630321 6.22355L0.175995 5.33271L-0.278331 4.44188C-0.656166 4.63457 -1 5.04778 -1 5.60969H0ZM0.175995 5.33271L0.566602 6.25327L7.37761 3.36326L6.987 2.4427L6.59639 1.52214L-0.214612 4.41216L0.175995 5.33271ZM6.987 2.4427L7.30323 3.39138C7.24412 3.41109 7.17499 3.42395 7.09963 3.42395C7.02442 3.42395 6.95682 3.41114 6.90054 3.39263L7.21301 2.4427L7.52549 1.49277C7.24788 1.40146 6.95238 1.40015 6.67077 1.49402L6.987 2.4427ZM7.21301 2.4427L6.82065 3.36251L13.6566 6.27853L14.049 5.35872L14.4414 4.4389L7.60537 1.52289L7.21301 2.4427ZM14.049 5.35872L13.6018 6.25314C13.4107 6.15761 13.224 5.93805 13.224 5.63472H14.224H15.224C15.224 5.07938 14.8873 4.65982 14.4962 4.46429L14.049 5.35872ZM14.224 5.63472H13.224V7.09272H14.224H15.224V5.63472H14.224ZM14.224 7.09272H13.224C13.224 6.9686 13.257 6.83853 13.3252 6.72134C13.3905 6.60899 13.4719 6.53579 13.5367 6.49175L14.099 7.31868L14.6613 8.1456C14.9584 7.94358 15.224 7.58182 15.224 7.09272H14.224ZM14.099 7.31868L13.3919 6.61157C13.5903 6.41319 13.8132 6.36873 13.948 6.36873V7.36873V8.36873C14.2328 8.36873 14.5577 8.27417 14.8061 8.02578L14.099 7.31868Z" fill="#6B9D1C" mask="url(#path-4-inside-2_2587_3748)"/>
<mask id="path-6-inside-3_2587_3748" fill="white">
<path d="M2.58899 14.0806H11.611V6.59163L7.11301 5.05854L2.58899 6.6916V14.0806ZM11.913 14.6586L2.31299 14.6336C2.16199 14.6336 2.01099 14.5076 2.01099 14.3326V6.49165C2.01099 6.36565 2.08601 6.26455 2.21201 6.21455L7.01199 4.48054C7.06199 4.45554 7.13701 4.45554 7.21301 4.48054L12.013 6.11458C12.139 6.16458 12.214 6.26458 12.214 6.39058V14.3566C12.214 14.5326 12.089 14.6586 11.913 14.6586Z"/>
</mask>
<path d="M2.58899 14.0806H11.611V6.59163L7.11301 5.05854L2.58899 6.6916V14.0806ZM11.913 14.6586L2.31299 14.6336C2.16199 14.6336 2.01099 14.5076 2.01099 14.3326V6.49165C2.01099 6.36565 2.08601 6.26455 2.21201 6.21455L7.01199 4.48054C7.06199 4.45554 7.13701 4.45554 7.21301 4.48054L12.013 6.11458C12.139 6.16458 12.214 6.26458 12.214 6.39058V14.3566C12.214 14.5326 12.089 14.6586 11.913 14.6586Z" fill="white"/>
<path d="M2.58899 14.0806H1.58899V15.0806H2.58899V14.0806ZM11.611 14.0806V15.0806H12.611V14.0806H11.611ZM11.611 6.59163H12.611V5.87597L11.9336 5.64509L11.611 6.59163ZM7.11301 5.05854L7.43562 4.11201L7.10351 3.99882L6.77348 4.11795L7.11301 5.05854ZM2.58899 6.6916L2.24946 5.75101L1.58899 5.98942V6.6916H2.58899ZM11.913 14.6586L11.9104 15.6586H11.913V14.6586ZM2.31299 14.6336L2.3156 13.6336H2.31299V14.6336ZM2.21201 6.21455L1.87224 5.27404L1.85762 5.27932L1.84316 5.28506L2.21201 6.21455ZM7.01199 4.48054L7.35176 5.42105L7.40683 5.40116L7.45921 5.37497L7.01199 4.48054ZM7.21301 4.48054L7.53529 3.53384L7.52549 3.53062L7.21301 4.48054ZM12.013 6.11458L12.3818 5.18508L12.3588 5.17593L12.3353 5.16792L12.013 6.11458ZM2.58899 14.0806V15.0806H11.611V14.0806V13.0806H2.58899V14.0806ZM11.611 14.0806H12.611V6.59163H11.611H10.611V14.0806H11.611ZM11.611 6.59163L11.9336 5.64509L7.43562 4.11201L7.11301 5.05854L6.79039 6.00508L11.2884 7.53816L11.611 6.59163ZM7.11301 5.05854L6.77348 4.11795L2.24946 5.75101L2.58899 6.6916L2.92852 7.6322L7.45254 5.99914L7.11301 5.05854ZM2.58899 6.6916H1.58899V14.0806H2.58899H3.58899V6.6916H2.58899ZM11.913 14.6586L11.9156 13.6586L2.31559 13.6336L2.31299 14.6336L2.31038 15.6336L11.9104 15.6586L11.913 14.6586ZM2.31299 14.6336V13.6336C2.50957 13.6336 2.67519 13.7116 2.79132 13.8211C2.91542 13.9381 3.01099 14.1187 3.01099 14.3326H2.01099H1.01099C1.01099 15.1146 1.66611 15.6336 2.31299 15.6336V14.6336ZM2.01099 14.3326H3.01099V6.49165H2.01099H1.01099V14.3326H2.01099ZM2.01099 6.49165H3.01099C3.01099 6.63498 2.96567 6.78578 2.87198 6.91415C2.78113 7.03863 2.66969 7.10879 2.58085 7.14404L2.21201 6.21455L1.84316 5.28506C1.38833 5.46555 1.01099 5.90236 1.01099 6.49165H2.01099ZM2.21201 6.21455L2.55177 7.15506L7.35176 5.42105L7.01199 4.48054L6.67223 3.54003L1.87224 5.27404L2.21201 6.21455ZM7.01199 4.48054L7.45921 5.37497C7.31122 5.44896 7.18021 5.46179 7.10275 5.46179C7.02003 5.46179 6.95229 5.44749 6.90054 5.43047L7.21301 4.48054L7.52549 3.53062C7.3075 3.45891 6.93642 3.40029 6.56478 3.58611L7.01199 4.48054ZM7.21301 4.48054L6.89075 5.42719L11.6907 7.06123L12.013 6.11458L12.3353 5.16792L7.53528 3.53389L7.21301 4.48054ZM12.013 6.11458L11.6442 7.04407C11.5579 7.00984 11.4464 6.9408 11.3546 6.81578C11.2596 6.68635 11.214 6.53432 11.214 6.39058H12.214H13.214C13.214 5.79721 12.8325 5.3639 12.3818 5.18508L12.013 6.11458ZM12.214 6.39058H11.214V14.3566H12.214H13.214V6.39058H12.214ZM12.214 14.3566H11.214C11.214 14.2018 11.2727 14.0169 11.4207 13.8682C11.5691 13.7191 11.7554 13.6586 11.913 13.6586V14.6586V15.6586C12.6457 15.6586 13.214 15.0805 13.214 14.3566H12.214Z" fill="#6B9D1C" mask="url(#path-6-inside-3_2587_3748)"/>
<path d="M2.31296 14.6608H0.85498C0.70398 14.6608 0.552979 14.5348 0.552979 14.3588C0.552979 14.2088 0.67898 14.0577 0.85498 14.0577H2.31296C2.46296 14.0577 2.61398 14.1828 2.61398 14.3588C2.58898 14.5348 2.46296 14.6608 2.31296 14.6608Z" fill="#6B9D1C"/>
<path d="M13.3701 14.6608H11.9131C11.7621 14.6608 11.6111 14.5348 11.6111 14.3588C11.6111 14.2088 11.7361 14.0577 11.9131 14.0577H13.3701C13.5211 14.0577 13.6721 14.1828 13.6721 14.3588C13.6721 14.5348 13.5211 14.6608 13.3701 14.6608Z" fill="#6B9D1C"/>
<mask id="path-10-inside-4_2587_3748" fill="white">
<path d="M7.26303 6.49072C6.78603 6.49072 6.38403 6.89275 6.38403 7.36975C6.38403 7.84775 6.78603 8.24976 7.26303 8.24976C7.74103 8.24976 8.14304 7.84775 8.14304 7.36975C8.14304 6.89275 7.74103 6.49072 7.26303 6.49072ZM7.26303 8.82776C6.45903 8.82776 5.80603 8.17375 5.80603 7.36975C5.80603 6.56575 6.45903 5.91272 7.26303 5.91272C8.06703 5.91272 8.72104 6.56575 8.72104 7.36975C8.72104 8.17375 8.06703 8.82776 7.26303 8.82776Z"/>
</mask>
<path d="M7.26303 6.49072C6.78603 6.49072 6.38403 6.89275 6.38403 7.36975C6.38403 7.84775 6.78603 8.24976 7.26303 8.24976C7.74103 8.24976 8.14304 7.84775 8.14304 7.36975C8.14304 6.89275 7.74103 6.49072 7.26303 6.49072ZM7.26303 8.82776C6.45903 8.82776 5.80603 8.17375 5.80603 7.36975C5.80603 6.56575 6.45903 5.91272 7.26303 5.91272C8.06703 5.91272 8.72104 6.56575 8.72104 7.36975C8.72104 8.17375 8.06703 8.82776 7.26303 8.82776Z" fill="white"/>
<path d="M7.26303 6.49072V5.49072C6.2337 5.49072 5.38403 6.34051 5.38403 7.36975H6.38403H7.38403C7.38403 7.41651 7.36451 7.44572 7.35178 7.45845C7.33905 7.47118 7.30982 7.49072 7.26303 7.49072V6.49072ZM6.38403 7.36975H5.38403C5.38403 8.39929 6.233 9.24976 7.26303 9.24976V8.24976V7.24976C7.30984 7.24976 7.3392 7.26933 7.35204 7.28218C7.36493 7.29507 7.38403 7.32403 7.38403 7.36975H6.38403ZM7.26303 8.24976V9.24976C8.29332 9.24976 9.14304 8.40004 9.14304 7.36975H8.14304H7.14304C7.14304 7.32398 7.16218 7.29489 7.17518 7.2819C7.18817 7.2689 7.21726 7.24976 7.26303 7.24976V8.24976ZM8.14304 7.36975H9.14304C9.14304 6.33977 8.29261 5.49072 7.26303 5.49072V6.49072V7.49072C7.21729 7.49072 7.18833 7.47161 7.17544 7.45873C7.1626 7.4459 7.14304 7.41656 7.14304 7.36975H8.14304ZM7.26303 8.82776V7.82776C7.01222 7.82776 6.80603 7.62237 6.80603 7.36975H5.80603H4.80603C4.80603 8.72514 5.90585 9.82776 7.26303 9.82776V8.82776ZM5.80603 7.36975H6.80603C6.80603 7.11801 7.01134 6.91272 7.26303 6.91272V5.91272V4.91272C5.90672 4.91272 4.80603 6.01349 4.80603 7.36975H5.80603ZM7.26303 5.91272V6.91272C7.51562 6.91272 7.72104 7.11891 7.72104 7.36975H8.72104H9.72104C9.72104 6.01259 8.61844 4.91272 7.26303 4.91272V5.91272ZM8.72104 7.36975H7.72104C7.72104 7.62147 7.51475 7.82776 7.26303 7.82776V8.82776V9.82776C8.61932 9.82776 9.72104 8.72604 9.72104 7.36975H8.72104Z" fill="#6B9D1C" mask="url(#path-10-inside-4_2587_3748)"/>
<path fill-rule="evenodd" clip-rule="evenodd" d="M16.766 1.12077C15.805 0.159774 14.248 0.159774 13.287 1.12077C12.326 2.08077 12.326 3.63878 13.287 4.59978C14.907 6.21878 17.073 8.38481 17.073 8.38481L20.552 4.90679C20.552 4.90679 18.385 2.73977 16.766 1.12077Z" stroke="#6B9D1C" stroke-width="0.8" stroke-miterlimit="1.5" stroke-linecap="round" stroke-linejoin="round"/>
<path fill-rule="evenodd" clip-rule="evenodd" d="M14.4621 2.27058C14.6701 2.11158 14.9681 2.15157 15.1271 2.35957C15.2861 2.56657 15.2461 2.86463 15.0381 3.02363C14.8301 3.18263 14.5331 3.14362 14.3741 2.93562C14.2151 2.72762 14.2541 2.42958 14.4621 2.27058Z" stroke="#6B9D1C" stroke-width="0.8" stroke-miterlimit="1.5" stroke-linecap="round" stroke-linejoin="round"/>
</svg>
