<svg width="19" height="18" viewBox="0 0 19 18" fill="none" xmlns="http://www.w3.org/2000/svg">
<path d="M12.5136 1.71398L13.5657 2.16516V0.75172H12.5136V1.71398ZM13.9271 3.03771C13.8661 3.03771 13.8362 3.03783 13.7763 3.0079L12.0313 2.25618C11.9116 2.19634 11.8218 2.07548 11.8218 1.92467V0.361469C11.8218 0.180736 11.9714 0 12.182 0H13.9271C14.1079 0 14.2874 0.150813 14.2874 0.361469V2.64644C14.2874 2.76732 14.2276 2.88815 14.1378 2.948C14.0468 3.00785 13.987 3.03771 13.9271 3.03771Z" fill="#6B9D1C"/>
<path d="M0.661865 4.09589V5.11806L8.39271 2.50157C8.45256 2.47165 8.54231 2.47165 8.60216 2.50157L16.3629 5.11806V4.09589L8.51241 0.756471L0.661865 4.09589ZM16.6945 5.96066C16.6646 5.96066 16.6035 5.96063 16.5736 5.9307L8.51241 3.19339L0.451215 5.9307C0.330327 5.96063 0.240551 5.96074 0.150782 5.86978C0.0598174 5.80993 0 5.69015 0 5.59919V3.8554C0 3.70459 0.089762 3.58478 0.21065 3.52374L8.3628 0.0648004C8.45257 0.0348777 8.54231 0.0348777 8.63328 0.0648004L16.8141 3.55369C16.935 3.61473 17.0248 3.7344 17.0248 3.88521V5.63031C17.0248 5.75 16.965 5.83986 16.874 5.9009C16.8441 5.93082 16.7842 5.96066 16.6945 5.96066Z" fill="#6B9D1C"/>
<path d="M9.64589 14.6645L2.76725 14.6466C2.58651 14.6466 2.40698 14.4958 2.40698 14.2851V4.90007C2.40698 4.75046 2.49674 4.62957 2.64755 4.56972L8.39273 2.49427C8.45258 2.46435 8.54233 2.46435 8.63329 2.49427L14.3785 4.44889C14.5281 4.50994 14.619 4.6296 14.619 4.78041V10.3078L13.8973 10.3509V5.02105L8.51243 3.18609L3.0988 5.14071V13.9846H9.60279L9.64589 14.6645Z" fill="#6B9D1C"/>
<path d="M2.76723 14.6766H1.02333C0.842601 14.6766 0.661865 14.5258 0.661865 14.3151C0.661865 14.1344 0.812678 13.955 1.02333 13.955H2.76723C2.94796 13.955 3.1287 14.1045 3.1287 14.3151C3.09878 14.5258 2.94796 14.6766 2.76723 14.6766Z" fill="#6B9D1C"/>
<path d="M8.69322 4.89793C8.1211 4.89793 7.63994 5.3791 7.63994 5.95122C7.63994 6.52214 8.1211 7.00333 8.69322 7.00333C9.26415 7.00333 9.7453 6.52214 9.7453 5.95122C9.7453 5.3791 9.26415 4.89793 8.69322 4.89793ZM8.69322 7.69515C7.73091 7.69515 6.94812 6.91353 6.94812 5.95122C6.94812 4.9889 7.73091 4.20612 8.69322 4.20612C9.65554 4.20612 10.4371 4.9889 10.4371 5.95122C10.4371 6.91353 9.65554 7.69515 8.69322 7.69515Z" fill="#6B9D1C"/>
<path d="M14.5914 10.4994H17.774V15.7635H14.5914V10.4994ZM14.3221 16.6121C14.1833 16.4972 14.0432 16.3835 13.9044 16.2686C13.8697 16.241 13.8027 16.241 13.7692 16.2686C13.6279 16.3835 13.4867 16.4983 13.3467 16.6132V10.4994H14.3221V16.6121ZM13.0773 15.7635H9.84568V10.4994H13.0773V15.7635ZM17.908 10.205H9.71163C9.63862 10.205 9.57758 10.2721 9.57758 10.3523V15.9106C9.57758 15.9908 9.63862 16.0579 9.71163 16.0579H13.0773V16.9041C13.0773 17.0071 13.1959 17.1004 13.2796 17.0321C13.3754 16.9543 13.4699 16.8766 13.5645 16.8C13.6351 16.7425 13.7045 16.6863 13.774 16.6289C13.7919 16.6145 13.8182 16.5976 13.8398 16.5833C13.8541 16.5917 13.8673 16.6013 13.8769 16.6121C13.9379 16.6731 14.0121 16.7233 14.0792 16.7772C14.1821 16.8622 14.285 16.9471 14.3891 17.0321C14.4466 17.0788 14.5028 17.0621 14.54 17.0178C14.5699 16.9951 14.5914 16.9568 14.5914 16.9041V16.0579H17.908C17.9475 16.0579 17.9775 16.0424 17.999 16.0184C18.0014 16.0172 18.0026 16.0148 18.0038 16.0136C18.005 16.0124 18.0062 16.0125 18.0062 16.0113C18.0277 15.9873 18.0433 15.9537 18.0433 15.9106V10.3523C18.0433 10.2733 17.9811 10.205 17.908 10.205Z" fill="#6B9D1C"/>
<path d="M10.4576 11.8759H12.3559C12.4708 11.8759 12.4708 11.6797 12.3559 11.6797H10.4576C10.3415 11.6797 10.3415 11.8759 10.4576 11.8759Z" fill="#6B9D1C"/>
<path d="M10.4576 12.7018H12.3559C12.4708 12.7018 12.4708 12.5054 12.3559 12.5054H10.4576C10.3415 12.5054 10.3415 12.7018 10.4576 12.7018Z" fill="#6B9D1C"/>
<path d="M10.4576 13.5275H12.3559C12.4708 13.5275 12.4708 13.3324 12.3559 13.3324H10.4576C10.3415 13.3324 10.3415 13.5275 10.4576 13.5275Z" fill="#6B9D1C"/>
<path d="M10.4576 14.3534H12.3559C12.4708 14.3534 12.4708 14.1582 12.3559 14.1582H10.4576C10.3415 14.1582 10.3415 14.3534 10.4576 14.3534Z" fill="#6B9D1C"/>
<path d="M17.173 11.6843H15.2747C15.1598 11.6843 15.1598 11.8807 15.2747 11.8807H17.173C17.2891 11.8807 17.2891 11.6843 17.173 11.6843Z" fill="#6B9D1C"/>
<path d="M17.173 12.5101H15.2747C15.1598 12.5101 15.1598 12.7064 15.2747 12.7064H17.173C17.2891 12.7064 17.2891 12.5101 17.173 12.5101Z" fill="#6B9D1C"/>
<path d="M17.173 13.3242H15.2747C15.1598 13.3242 15.1598 13.5194 15.2747 13.5194H17.173C17.2891 13.5194 17.2891 13.3242 17.173 13.3242Z" fill="#6B9D1C"/>
<path d="M17.173 14.15H15.2747C15.1598 14.15 15.1598 14.3451 15.2747 14.3451H17.173C17.2891 14.3451 17.2891 14.15 17.173 14.15Z" fill="#6B9D1C"/>
</svg>
