<svg width="19" height="22" viewBox="0 0 19 22" fill="none" xmlns="http://www.w3.org/2000/svg">
<mask id="path-1-inside-1_2587_3708" fill="white">
<path d="M9.43205 8.66932C9.27342 8.90668 9.07542 9.14526 8.91678 9.38261C8.32279 10.2152 7.68824 11.0465 7.68824 11.7204C7.68824 12.8308 8.48023 13.7027 9.43205 13.7027C10.3839 13.7027 11.1759 12.8308 11.1759 11.7204C11.1759 11.0465 10.5425 10.2151 9.98668 9.42193C9.78868 9.14521 9.59069 8.90668 9.43205 8.66932ZM9.43205 14.614C7.96615 14.614 6.77698 13.3067 6.77698 11.7204C6.77698 10.7697 7.49024 9.7786 8.16415 8.86734C8.48023 8.43079 8.79751 7.9953 9.03606 7.5993C9.11478 7.44067 9.27342 7.36081 9.43205 7.36081C9.59069 7.36081 9.74933 7.44067 9.82924 7.5993C10.0666 8.03466 10.3839 8.47134 10.7012 8.86734C11.3739 9.7786 12.0871 10.7304 12.0871 11.7204C12.0871 13.3067 10.8991 14.614 9.43205 14.614Z"/>
</mask>
<path d="M9.43205 8.66932C9.27342 8.90668 9.07542 9.14526 8.91678 9.38261C8.32279 10.2152 7.68824 11.0465 7.68824 11.7204C7.68824 12.8308 8.48023 13.7027 9.43205 13.7027C10.3839 13.7027 11.1759 12.8308 11.1759 11.7204C11.1759 11.0465 10.5425 10.2151 9.98668 9.42193C9.78868 9.14521 9.59069 8.90668 9.43205 8.66932ZM9.43205 14.614C7.96615 14.614 6.77698 13.3067 6.77698 11.7204C6.77698 10.7697 7.49024 9.7786 8.16415 8.86734C8.48023 8.43079 8.79751 7.9953 9.03606 7.5993C9.11478 7.44067 9.27342 7.36081 9.43205 7.36081C9.59069 7.36081 9.74933 7.44067 9.82924 7.5993C10.0666 8.03466 10.3839 8.47134 10.7012 8.86734C11.3739 9.7786 12.0871 10.7304 12.0871 11.7204C12.0871 13.3067 10.8991 14.614 9.43205 14.614Z" fill="#81C713"/>
<path d="M9.43205 8.66932L10.2635 8.11365L9.43205 6.86967L8.60065 8.11365L9.43205 8.66932ZM8.91678 9.38261L9.73083 9.96341L9.7397 9.95098L9.74819 9.93828L8.91678 9.38261ZM9.98668 9.42193L10.8057 8.84802L10.7999 8.84003L9.98668 9.42193ZM8.16415 8.86734L8.96821 9.46196L8.97413 9.45379L8.16415 8.86734ZM9.03606 7.5993L9.89264 8.11532L9.91369 8.08037L9.93183 8.04382L9.03606 7.5993ZM9.82924 7.5993L8.93616 8.0492L8.94347 8.06372L8.95125 8.07799L9.82924 7.5993ZM10.7012 8.86734L11.5057 8.27342L11.4939 8.2575L11.4816 8.24207L10.7012 8.86734ZM9.43205 8.66932L8.60065 8.11365C8.53896 8.20596 8.46651 8.30307 8.37416 8.42631C8.28819 8.54104 8.18232 8.6819 8.08538 8.82695L8.91678 9.38261L9.74819 9.93828C9.80988 9.84597 9.88233 9.74887 9.97468 9.62562C10.0606 9.5109 10.1665 9.37004 10.2635 9.22498L9.43205 8.66932ZM8.91678 9.38261L8.10273 8.80182C7.82287 9.19407 7.47935 9.65912 7.2177 10.1042C6.96685 10.5309 6.68824 11.1026 6.68824 11.7204H7.68824H8.68824C8.68824 11.6643 8.72691 11.4834 8.94183 11.1178C9.14595 10.7706 9.4167 10.4037 9.73083 9.96341L8.91678 9.38261ZM7.68824 11.7204H6.68824C6.68824 13.2686 7.82002 14.7027 9.43205 14.7027V13.7027V12.7027C9.14044 12.7027 8.68824 12.393 8.68824 11.7204H7.68824ZM9.43205 13.7027V14.7027C11.0441 14.7027 12.1759 13.2686 12.1759 11.7204H11.1759H10.1759C10.1759 12.393 9.72366 12.7027 9.43205 12.7027V13.7027ZM11.1759 11.7204H12.1759C12.1759 11.1044 11.899 10.5336 11.6539 10.1127C11.3985 9.67414 11.0642 9.21708 10.8056 8.84805L9.98668 9.42193L9.16774 9.9958C9.46497 10.42 9.72527 10.7752 9.92554 11.1191C10.1361 11.4806 10.1759 11.6624 10.1759 11.7204H11.1759ZM9.98668 9.42193L10.7999 8.84003C10.6905 8.68705 10.5804 8.54377 10.491 8.42611C10.3969 8.30214 10.3242 8.20461 10.2635 8.11365L9.43205 8.66932L8.60065 9.22498C8.69849 9.37139 8.80418 9.5118 8.8982 9.63562C8.997 9.76574 9.08488 9.88008 9.17342 10.0038L9.98668 9.42193ZM9.43205 14.614V13.614C8.60011 13.614 7.77698 12.8398 7.77698 11.7204H6.77698H5.77698C5.77698 13.7737 7.3322 15.614 9.43205 15.614V14.614ZM6.77698 11.7204H7.77698C7.77698 11.4864 7.86823 11.1743 8.0954 10.7586C8.3203 10.347 8.62665 9.92374 8.96817 9.46193L8.16415 8.86734L7.36012 8.27274C7.02774 8.72219 6.64051 9.25017 6.3403 9.79961C6.04235 10.3449 5.77698 11.0037 5.77698 11.7204H6.77698ZM8.16415 8.86734L8.97413 9.45379C9.28138 9.02944 9.62743 8.55556 9.89264 8.11532L9.03606 7.5993L8.17948 7.08329C7.96758 7.43503 7.67908 7.83213 7.35417 8.28088L8.16415 8.86734ZM9.03606 7.5993L9.93183 8.04382C9.81863 8.27193 9.59846 8.36081 9.43205 8.36081V7.36081V6.36081C8.94837 6.36081 8.41093 6.6094 8.14029 7.15479L9.03606 7.5993ZM9.43205 7.36081V8.36081C9.26429 8.36081 9.04808 8.27136 8.93616 8.0492L9.82924 7.5993L10.7223 7.14941C10.4506 6.60997 9.91709 6.36081 9.43205 6.36081V7.36081ZM9.82924 7.5993L8.95125 8.07799C9.229 8.58743 9.58718 9.07628 9.92074 9.4926L10.7012 8.86734L11.4816 8.24207C11.1806 7.8664 10.9042 7.48189 10.7072 7.12062L9.82924 7.5993ZM10.7012 8.86734L9.89662 9.46125C10.2436 9.93126 10.5466 10.341 10.7708 10.7474C10.9934 11.1507 11.0871 11.4636 11.0871 11.7204H12.0871H13.0871C13.0871 10.9871 12.8243 10.3291 12.522 9.78125C12.2214 9.23642 11.8314 8.71468 11.5057 8.27342L10.7012 8.86734ZM12.0871 11.7204H11.0871C11.0871 12.8401 10.2649 13.614 9.43205 13.614V14.614V15.614C11.5334 15.614 13.0871 13.7733 13.0871 11.7204H12.0871Z" fill="#6B9D1C" mask="url(#path-1-inside-1_2587_3708)"/>
<mask id="path-3-inside-2_2587_3708" fill="white">
<path d="M9.47163 3.28969C9.23427 3.28969 8.99692 3.09164 8.99692 2.81372V0.475967C8.99692 0.238609 9.19491 0 9.47163 0C9.71018 0 9.94754 0.199248 9.94754 0.475967V2.81372C9.94754 3.09164 9.71018 3.28969 9.47163 3.28969Z"/>
</mask>
<path d="M9.47163 3.28969C9.23427 3.28969 8.99692 3.09164 8.99692 2.81372V0.475967C8.99692 0.238609 9.19491 0 9.47163 0C9.71018 0 9.94754 0.199248 9.94754 0.475967V2.81372C9.94754 3.09164 9.71018 3.28969 9.47163 3.28969Z" fill="#81C713"/>
<path d="M9.47163 3.28969V2.28969C9.62519 2.28969 9.74835 2.34984 9.8327 2.42969C9.92527 2.51731 9.99692 2.65417 9.99692 2.81372H8.99692H7.99692C7.99692 3.69494 8.73443 4.28969 9.47163 4.28969V3.28969ZM8.99692 2.81372H9.99692V0.475967H8.99692H7.99692V2.81372H8.99692ZM8.99692 0.475967H9.99692C9.99692 0.628914 9.93727 0.750884 9.85862 0.834426C9.7722 0.926225 9.63478 1 9.47163 1V0V-1C8.58659 -1 7.99692 -0.25593 7.99692 0.475967H8.99692ZM9.47163 0V1C9.31817 1 9.19541 0.939792 9.11158 0.86043C9.0199 0.773642 8.94754 0.637027 8.94754 0.475967H9.94754H10.9475C10.9475 -0.403995 10.2101 -1 9.47163 -1V0ZM9.94754 0.475967H8.94754V2.81372H9.94754H10.9475V0.475967H9.94754ZM9.94754 2.81372H8.94754C8.94754 2.65407 9.01928 2.51692 9.11222 2.4291C9.19704 2.34895 9.31986 2.28969 9.47163 2.28969V3.28969V4.28969C10.2084 4.28969 10.9475 3.6965 10.9475 2.81372H9.94754Z" fill="#6B9D1C" mask="url(#path-3-inside-2_2587_3708)"/>
<mask id="path-5-inside-3_2587_3708" fill="white">
<path d="M16.3282 7.29755C16.1696 7.29755 16.0109 7.21769 15.9322 7.05905C15.8129 6.82169 15.8929 6.54366 16.0909 6.42438L18.1519 5.23526C18.3893 5.11718 18.6672 5.19594 18.7853 5.39513C18.9046 5.59313 18.8259 5.90922 18.6267 6.02849L16.5656 7.21761C16.4869 7.25697 16.4081 7.29755 16.3282 7.29755Z"/>
</mask>
<path d="M16.3282 7.29755C16.1696 7.29755 16.0109 7.21769 15.9322 7.05905C15.8129 6.82169 15.8929 6.54366 16.0909 6.42438L18.1519 5.23526C18.3893 5.11718 18.6672 5.19594 18.7853 5.39513C18.9046 5.59313 18.8259 5.90922 18.6267 6.02849L16.5656 7.21761C16.4869 7.25697 16.4081 7.29755 16.3282 7.29755Z" fill="#81C713"/>
<path d="M15.9322 7.05905L16.828 6.61453L16.8257 6.61004L15.9322 7.05905ZM16.0909 6.42438L15.5911 5.5582L15.5829 5.56292L15.5748 5.5678L16.0909 6.42438ZM18.1519 5.23526L17.7065 4.33994L17.6789 4.35367L17.6522 4.36908L18.1519 5.23526ZM18.7853 5.39513L17.9251 5.90509L17.9287 5.91115L18.7853 5.39513ZM18.6267 6.02849L19.1264 6.89467L19.1334 6.89061L19.1404 6.88644L18.6267 6.02849ZM16.5656 7.21761L17.0128 8.11204L17.0395 8.0987L17.0653 8.08379L16.5656 7.21761ZM16.3282 7.29755V6.29755C16.4946 6.29755 16.7148 6.38643 16.828 6.61453L15.9322 7.05905L15.0365 7.50357C15.3071 8.04895 15.8445 8.29755 16.3282 8.29755V7.29755ZM15.9322 7.05905L16.8257 6.61004C16.9198 6.79716 16.8962 7.10668 16.6069 7.28096L16.0909 6.42438L15.5748 5.5678C14.8895 5.98063 14.7061 6.84623 15.0387 7.50806L15.9322 7.05905ZM16.0909 6.42438L16.5906 7.29056L18.6517 6.10144L18.1519 5.23526L17.6522 4.36908L15.5911 5.5582L16.0909 6.42438ZM18.1519 5.23526L18.5974 6.13059C18.4169 6.22035 18.1023 6.20404 17.9251 5.90508L18.7853 5.39513L19.6455 4.88519C19.2321 4.18784 18.3617 4.01402 17.7065 4.33994L18.1519 5.23526ZM18.7853 5.39513L17.9287 5.91115C17.8207 5.73185 17.8364 5.57443 17.8553 5.49879C17.8743 5.42285 17.9345 5.27739 18.1129 5.17055L18.6267 6.02849L19.1404 6.88644C19.518 6.66032 19.7172 6.29718 19.7955 5.98387C19.8738 5.67087 19.8692 5.25641 19.6419 4.87912L18.7853 5.39513ZM18.6267 6.02849L18.1269 5.16231L16.0658 6.35143L16.5656 7.21761L17.0653 8.08379L19.1264 6.89467L18.6267 6.02849ZM16.5656 7.21761L16.1184 6.32318C16.0942 6.33529 16.086 6.33938 16.0782 6.3431C16.0719 6.34604 16.0778 6.34301 16.0911 6.33794C16.1139 6.32926 16.2014 6.29755 16.3282 6.29755V7.29755V8.29755C16.6934 8.29755 17.0024 8.11722 17.0128 8.11204L16.5656 7.21761Z" fill="#6B9D1C" mask="url(#path-5-inside-3_2587_3708)"/>
<mask id="path-7-inside-4_2587_3708" fill="white">
<path d="M18.3897 16.3744C18.3098 16.3744 18.2311 16.3743 18.1523 16.2956L16.0913 15.1065C15.8527 14.9872 15.8133 14.7093 15.9326 14.472C16.0507 14.2346 16.3286 14.1952 16.566 14.3133L18.6271 15.5025C18.8656 15.6218 18.905 15.8985 18.7857 16.1371C18.707 16.2957 18.5483 16.3744 18.3897 16.3744Z"/>
</mask>
<path d="M18.3897 16.3744C18.3098 16.3744 18.2311 16.3743 18.1523 16.2956L16.0913 15.1065C15.8527 14.9872 15.8133 14.7093 15.9326 14.472C16.0507 14.2346 16.3286 14.1952 16.566 14.3133L18.6271 15.5025C18.8656 15.6218 18.905 15.8985 18.7857 16.1371C18.707 16.2957 18.5483 16.3744 18.3897 16.3744Z" fill="#81C713"/>
<path d="M18.1523 16.2956L18.8594 15.5885L18.7662 15.4953L18.6521 15.4294L18.1523 16.2956ZM16.0913 15.1065L16.591 14.2403L16.5652 14.2254L16.5385 14.2121L16.0913 15.1065ZM15.9326 14.472L16.8262 14.921L16.8279 14.9174L15.9326 14.472ZM16.566 14.3133L17.0658 13.4471L17.039 13.4317L17.0114 13.418L16.566 14.3133ZM18.6271 15.5025L18.1273 16.3687L18.1531 16.3836L18.1798 16.397L18.6271 15.5025ZM18.7857 16.1371L17.8913 15.6898L17.8899 15.6925L18.7857 16.1371ZM18.3897 16.3744V15.3744C18.3309 15.3744 18.4138 15.3696 18.5125 15.3942C18.571 15.4088 18.636 15.4326 18.7014 15.4694C18.7666 15.5061 18.8191 15.5482 18.8594 15.5885L18.1523 16.2956L17.4452 17.0027C17.8353 17.3928 18.2961 17.3744 18.3897 17.3744V16.3744ZM18.1523 16.2956L18.6521 15.4294L16.591 14.2403L16.0913 15.1065L15.5915 15.9727L17.6526 17.1618L18.1523 16.2956ZM16.0913 15.1065L16.5385 14.2121C16.7038 14.2947 16.8188 14.4548 16.855 14.6214C16.8861 14.7648 16.8524 14.8687 16.8261 14.921L15.9326 14.472L15.0391 14.023C14.7669 14.5647 14.7401 15.549 15.644 16.0009L16.0913 15.1065ZM15.9326 14.472L16.8279 14.9174C16.7441 15.086 16.5822 15.2006 16.417 15.2365C16.2751 15.2674 16.1724 15.2344 16.1206 15.2086L16.566 14.3133L17.0114 13.418C16.4745 13.1508 15.4883 13.1201 15.0373 14.0266L15.9326 14.472ZM16.566 14.3133L16.0662 15.1794L18.1273 16.3687L18.6271 15.5025L19.1268 14.6364L17.0658 13.4471L16.566 14.3133ZM18.6271 15.5025L18.1798 16.397C18.0157 16.3149 17.8999 16.1553 17.8634 15.9874C17.832 15.8433 17.8663 15.7398 17.8913 15.6899L18.7857 16.1371L19.6801 16.5843C19.8244 16.2958 19.8986 15.9347 19.8178 15.5627C19.7318 15.167 19.477 14.8095 19.0743 14.6081L18.6271 15.5025ZM18.7857 16.1371L17.8899 15.6925C18.0052 15.4602 18.2285 15.3744 18.3897 15.3744V16.3744V17.3744C18.8681 17.3744 19.4088 17.1312 19.6815 16.5816L18.7857 16.1371Z" fill="#6B9D1C" mask="url(#path-7-inside-4_2587_3708)"/>
<mask id="path-9-inside-5_2587_3708" fill="white">
<path d="M9.47163 21.5273C9.23427 21.5273 8.99692 21.3294 8.99692 21.0515V18.6731C8.99692 18.4357 9.19491 18.1971 9.47163 18.1971C9.71018 18.1971 9.94754 18.3952 9.94754 18.6731V21.0515C9.94754 21.3294 9.71018 21.5273 9.47163 21.5273Z"/>
</mask>
<path d="M9.47163 21.5273C9.23427 21.5273 8.99692 21.3294 8.99692 21.0515V18.6731C8.99692 18.4357 9.19491 18.1971 9.47163 18.1971C9.71018 18.1971 9.94754 18.3952 9.94754 18.6731V21.0515C9.94754 21.3294 9.71018 21.5273 9.47163 21.5273Z" fill="#81C713"/>
<path d="M9.47163 21.5273V20.5273C9.62497 20.5273 9.7481 20.5873 9.83255 20.6672C9.92523 20.7549 9.99692 20.8919 9.99692 21.0515H8.99692H7.99692C7.99692 21.9331 8.73485 22.5273 9.47163 22.5273V21.5273ZM8.99692 21.0515H9.99692V18.6731H8.99692H7.99692V21.0515H8.99692ZM8.99692 18.6731H9.99692C9.99692 18.826 9.93727 18.948 9.85862 19.0315C9.7722 19.1233 9.63478 19.1971 9.47163 19.1971V18.1971V17.1971C8.58659 17.1971 7.99692 17.9412 7.99692 18.6731H8.99692ZM9.47163 18.1971V19.1971C9.31986 19.1971 9.19704 19.1379 9.11222 19.0577C9.01928 18.9699 8.94754 18.8327 8.94754 18.6731H9.94754H10.9475C10.9475 17.7903 10.2084 17.1971 9.47163 17.1971V18.1971ZM9.94754 18.6731H8.94754V21.0515H9.94754H10.9475V18.6731H9.94754ZM9.94754 21.0515H8.94754C8.94754 20.8918 9.01933 20.7545 9.11237 20.6666C9.19728 20.5864 9.32007 20.5273 9.47163 20.5273V21.5273V22.5273C10.208 22.5273 10.9475 21.9346 10.9475 21.0515H9.94754Z" fill="#6B9D1C" mask="url(#path-9-inside-5_2587_3708)"/>
<mask id="path-11-inside-6_2587_3708" fill="white">
<path d="M0.554307 16.3744C0.39567 16.3744 0.237033 16.2958 0.158311 16.1371C0.039035 15.8986 0.117761 15.6219 0.315759 15.5026L2.33748 14.3133C2.57603 14.1952 2.85275 14.274 2.97203 14.472C3.0913 14.7094 3.01138 14.9873 2.81339 15.1066L0.791663 16.2957C0.712941 16.3744 0.633029 16.3744 0.554307 16.3744Z"/>
</mask>
<path d="M0.554307 16.3744C0.39567 16.3744 0.237033 16.2958 0.158311 16.1371C0.039035 15.8986 0.117761 15.6219 0.315759 15.5026L2.33748 14.3133C2.57603 14.1952 2.85275 14.274 2.97203 14.472C3.0913 14.7094 3.01138 14.9873 2.81339 15.1066L0.791663 16.2957C0.712941 16.3744 0.633029 16.3744 0.554307 16.3744Z" fill="#81C713"/>
<path d="M0.158311 16.1371L1.05408 15.6926L1.05274 15.6899L0.158311 16.1371ZM0.315759 15.5026L-0.191293 14.6406L-0.200253 14.646L0.315759 15.5026ZM2.33748 14.3133L1.89386 13.4171L1.86154 13.4331L1.83046 13.4514L2.33748 14.3133ZM2.97203 14.472L3.86555 14.023L3.84836 13.9888L3.82861 13.956L2.97203 14.472ZM2.81339 15.1066L3.32039 15.9686L3.3294 15.9631L2.81339 15.1066ZM0.791663 16.2957L0.284684 15.4337L0.174745 15.4984L0.0845559 15.5886L0.791663 16.2957ZM0.554307 16.3744V15.3744C0.715467 15.3744 0.938806 15.4603 1.05408 15.6926L0.158311 16.1371L-0.737459 16.5816C-0.46474 17.1312 0.075874 17.3744 0.554307 17.3744V16.3744ZM0.158311 16.1371L1.05274 15.6899C1.14303 15.8705 1.12499 16.1825 0.831772 16.3592L0.315759 15.5026L-0.200253 14.646C-0.889467 15.0612 -1.06496 15.9266 -0.736116 16.5843L0.158311 16.1371ZM0.315759 15.5026L0.822784 16.3645L2.84451 15.1753L2.33748 14.3133L1.83046 13.4514L-0.191265 14.6407L0.315759 15.5026ZM2.33748 14.3133L2.78111 15.2095C2.60208 15.2982 2.29183 15.2808 2.11545 14.988L2.97203 14.472L3.82861 13.956C3.41367 13.2672 2.54999 13.0923 1.89386 13.4171L2.33748 14.3133ZM2.97203 14.472L2.0785 14.921C1.98441 14.7338 2.00818 14.4242 2.29737 14.25L2.81339 15.1066L3.3294 15.9631C4.01458 15.5504 4.1982 14.685 3.86555 14.023L2.97203 14.472ZM2.81339 15.1066L2.30641 14.2446L0.284684 15.4337L0.791663 16.2957L1.29864 17.1576L3.32036 15.9685L2.81339 15.1066ZM0.791663 16.2957L0.0845559 15.5886C0.177882 15.4952 0.300975 15.4266 0.431887 15.3941C0.529734 15.3698 0.611618 15.3744 0.554307 15.3744V16.3744V17.3744C0.645007 17.3744 1.10819 17.3934 1.49877 17.0028L0.791663 16.2957Z" fill="#6B9D1C" mask="url(#path-11-inside-6_2587_3708)"/>
<mask id="path-13-inside-7_2587_3708" fill="white">
<path d="M2.61575 7.29778C2.53584 7.29778 2.45711 7.25721 2.37719 7.21785L0.356663 6.02873C0.118111 5.90946 0.0787557 5.63273 0.198031 5.39537C0.316114 5.15682 0.594024 5.11742 0.832576 5.2355L2.85311 6.42462C3.09166 6.54389 3.13101 6.82193 3.01174 7.05929C2.93302 7.21793 2.77439 7.29778 2.61575 7.29778Z"/>
</mask>
<path d="M2.61575 7.29778C2.53584 7.29778 2.45711 7.25721 2.37719 7.21785L0.356663 6.02873C0.118111 5.90946 0.0787557 5.63273 0.198031 5.39537C0.316114 5.15682 0.594024 5.11742 0.832576 5.2355L2.85311 6.42462C3.09166 6.54389 3.13101 6.82193 3.01174 7.05929C2.93302 7.21793 2.77439 7.29778 2.61575 7.29778Z" fill="#81C713"/>
<path d="M2.37719 7.21785L1.86999 8.07968L1.90201 8.09852L1.93534 8.11494L2.37719 7.21785ZM0.356663 6.02873L0.863864 5.1669L0.834427 5.14958L0.803877 5.1343L0.356663 6.02873ZM0.198031 5.39537L1.09157 5.84439L1.09424 5.83899L0.198031 5.39537ZM0.832576 5.2355L1.33978 4.37367L1.30861 4.35533L1.2762 4.33929L0.832576 5.2355ZM2.85311 6.42462L2.34591 7.28645L2.37534 7.30377L2.40589 7.31905L2.85311 6.42462ZM3.01174 7.05929L2.1182 6.61028L2.11597 6.61477L3.01174 7.05929ZM2.61575 7.29778V6.29778C2.7426 6.29778 2.82993 6.32953 2.85154 6.33773C2.86423 6.34256 2.8695 6.3453 2.86235 6.34194C2.85316 6.33762 2.8449 6.33349 2.81904 6.32076L2.37719 7.21785L1.93534 8.11494C1.94107 8.11776 2.25232 8.29778 2.61575 8.29778V7.29778ZM2.37719 7.21785L2.88439 6.35602L0.863864 5.1669L0.356663 6.02873L-0.150538 6.89056L1.86999 8.07968L2.37719 7.21785ZM0.356663 6.02873L0.803877 5.1343C0.967891 5.21631 1.08375 5.37574 1.12031 5.54376C1.15173 5.68822 1.11754 5.79268 1.09156 5.84438L0.198031 5.39537L-0.695496 4.94636C-0.840753 5.23542 -0.914908 5.59692 -0.833983 5.96891C-0.747934 6.36445 -0.493116 6.72188 -0.0905507 6.92316L0.356663 6.02873ZM0.198031 5.39537L1.09424 5.83899C1.01118 6.00679 0.849742 6.12236 0.683488 6.15867C0.5411 6.18977 0.438932 6.15645 0.38895 6.13171L0.832576 5.2355L1.2762 4.33929C0.739805 4.07377 -0.247765 4.04181 -0.698181 4.95174L0.198031 5.39537ZM0.832576 5.2355L0.325375 6.09733L2.34591 7.28645L2.85311 6.42462L3.36031 5.56279L1.33978 4.37367L0.832576 5.2355ZM2.85311 6.42462L2.40589 7.31905C2.24043 7.23631 2.12545 7.07616 2.08934 6.90966C2.05827 6.76646 2.09191 6.66261 2.11821 6.61028L3.01174 7.05929L3.90527 7.5083C4.1774 6.96675 4.20441 5.98224 3.30032 5.53019L2.85311 6.42462ZM3.01174 7.05929L2.11597 6.61477C2.22915 6.38668 2.44932 6.29778 2.61575 6.29778V7.29778V8.29778C3.09945 8.29778 3.63688 8.04917 3.90751 7.50381L3.01174 7.05929Z" fill="#6B9D1C" mask="url(#path-13-inside-7_2587_3708)"/>
<mask id="path-15-inside-8_2587_3708" fill="white">
<path d="M13.2369 4.72119C13.1582 4.72119 13.0783 4.72117 12.9996 4.64126C12.761 4.52317 12.7217 4.24528 12.8409 4.00673L13.5542 2.73884C13.6735 2.50149 13.9502 2.4622 14.1888 2.58029C14.4261 2.69956 14.4655 2.97626 14.3474 3.21481L13.6329 4.4827C13.5542 4.64134 13.3956 4.72119 13.2369 4.72119Z"/>
</mask>
<path d="M13.2369 4.72119C13.1582 4.72119 13.0783 4.72117 12.9996 4.64126C12.761 4.52317 12.7217 4.24528 12.8409 4.00673L13.5542 2.73884C13.6735 2.50149 13.9502 2.4622 14.1888 2.58029C14.4261 2.69956 14.4655 2.97626 14.3474 3.21481L13.6329 4.4827C13.5542 4.64134 13.3956 4.72119 13.2369 4.72119Z" fill="#81C713"/>
<path d="M12.9996 4.64126L13.712 3.93949L13.5939 3.81966L13.4432 3.74505L12.9996 4.64126ZM12.8409 4.00673L11.9694 3.51643L11.9574 3.53769L11.9465 3.55952L12.8409 4.00673ZM13.5542 2.73884L14.4258 3.22915L14.4372 3.20876L14.4477 3.18785L13.5542 2.73884ZM14.1888 2.58029L14.6378 1.68674L14.6324 1.68407L14.1888 2.58029ZM14.3474 3.21481L15.2186 3.70574L15.2317 3.68242L15.2436 3.65844L14.3474 3.21481ZM13.6329 4.4827L12.7617 3.99177L12.7488 4.01465L12.7372 4.03818L13.6329 4.4827ZM13.2369 4.72119V3.72119C13.1793 3.72119 13.2629 3.71639 13.3626 3.74151C13.4959 3.7751 13.6195 3.8456 13.712 3.93949L12.9996 4.64126L12.2872 5.34303C12.678 5.73974 13.1444 5.72119 13.2369 5.72119V4.72119ZM12.9996 4.64126L13.4432 3.74505C13.6109 3.82808 13.727 3.98977 13.7633 4.15711C13.7945 4.30059 13.7606 4.40359 13.7354 4.45395L12.8409 4.00673L11.9465 3.55952C11.8021 3.84843 11.7282 4.20965 11.8088 4.58123C11.8946 4.97668 12.1497 5.33636 12.556 5.53747L12.9996 4.64126ZM12.8409 4.00673L13.7125 4.49704L14.4258 3.22915L13.5542 2.73884L12.6827 2.24854L11.9694 3.51643L12.8409 4.00673ZM13.5542 2.73884L14.4477 3.18785C14.3647 3.3531 14.2047 3.46753 14.0389 3.50351C13.8966 3.5344 13.7946 3.501 13.7451 3.4765L14.1888 2.58029L14.6324 1.68407C14.0942 1.41769 13.1136 1.38844 12.6607 2.28984L13.5542 2.73884ZM14.1888 2.58029L13.7397 3.47381C13.5746 3.39083 13.4602 3.23088 13.4242 3.06516C13.3932 2.92285 13.4266 2.82078 13.4512 2.77119L14.3474 3.21481L15.2436 3.65844C15.5102 3.11996 15.5389 2.13958 14.6378 1.68676L14.1888 2.58029ZM14.3474 3.21481L13.4762 2.72389L12.7617 3.99177L13.6329 4.4827L14.5041 4.97363L15.2186 3.70574L14.3474 3.21481ZM13.6329 4.4827L12.7372 4.03818C12.8504 3.81007 13.0705 3.72119 13.2369 3.72119V4.72119V5.72119C13.7206 5.72119 14.2581 5.4726 14.5287 4.92722L13.6329 4.4827Z" fill="#6B9D1C" mask="url(#path-15-inside-8_2587_3708)"/>
<mask id="path-17-inside-9_2587_3708" fill="white">
<path d="M18.4696 11.2694H17.0419C16.8045 11.2694 16.5659 11.0703 16.5659 10.7936C16.5659 10.5551 16.7651 10.3177 17.0419 10.3177H18.4696C18.7069 10.3177 18.9443 10.5157 18.9443 10.7936C18.9049 11.031 18.7069 11.2694 18.4696 11.2694Z"/>
</mask>
<path d="M18.4696 11.2694H17.0419C16.8045 11.2694 16.5659 11.0703 16.5659 10.7936C16.5659 10.5551 16.7651 10.3177 17.0419 10.3177H18.4696C18.7069 10.3177 18.9443 10.5157 18.9443 10.7936C18.9049 11.031 18.7069 11.2694 18.4696 11.2694Z" fill="#81C713"/>
<path d="M18.9443 10.7936L19.9308 10.9572L19.9443 10.876V10.7936H18.9443ZM18.4696 11.2694V10.2694H17.0419V11.2694V12.2694H18.4696V11.2694ZM17.0419 11.2694V10.2694C17.1965 10.2694 17.3187 10.3301 17.4016 10.4084C17.4926 10.4943 17.5659 10.6309 17.5659 10.7936H16.5659H15.5659C15.5659 11.6755 16.3066 12.2694 17.0419 12.2694V11.2694ZM16.5659 10.7936H17.5659C17.5659 10.947 17.5058 11.0697 17.4265 11.1535C17.3397 11.2452 17.203 11.3177 17.0419 11.3177V10.3177V9.31766C16.1616 9.31766 15.5659 10.0555 15.5659 10.7936H16.5659ZM17.0419 10.3177V11.3177H18.4696V10.3177V9.31766H17.0419V10.3177ZM18.4696 10.3177V11.3177C18.316 11.3177 18.1929 11.2575 18.1085 11.1777C18.0159 11.09 17.9443 10.9532 17.9443 10.7936H18.9443H19.9443C19.9443 9.9124 19.2068 9.31766 18.4696 9.31766V10.3177ZM18.9443 10.7936L17.9578 10.63C17.9712 10.549 18.004 10.4872 18.0532 10.4349C18.1024 10.3827 18.2408 10.2694 18.4696 10.2694V11.2694V12.2694C18.9357 12.2694 19.2918 12.037 19.5092 11.8061C19.7266 11.5753 19.878 11.2756 19.9308 10.9572L18.9443 10.7936Z" fill="#6B9D1C" mask="url(#path-17-inside-9_2587_3708)"/>
<mask id="path-19-inside-10_2587_3708" fill="white">
<path d="M13.9502 19.0343C13.7928 19.0343 13.633 18.9556 13.5542 18.7969L12.841 17.5684C12.7217 17.3298 12.8016 17.0531 12.9996 16.9338C13.237 16.8158 13.5149 16.8945 13.633 17.0925L14.3474 18.3616C14.4655 18.599 14.3868 18.8757 14.1888 18.995C14.1089 19.0343 14.0302 19.0343 13.9502 19.0343Z"/>
</mask>
<path d="M13.9502 19.0343C13.7928 19.0343 13.633 18.9556 13.5542 18.7969L12.841 17.5684C12.7217 17.3298 12.8016 17.0531 12.9996 16.9338C13.237 16.8158 13.5149 16.8945 13.633 17.0925L14.3474 18.3616C14.4655 18.599 14.3868 18.8757 14.1888 18.995C14.1089 19.0343 14.0302 19.0343 13.9502 19.0343Z" fill="#81C713"/>
<path d="M13.5542 18.7969L14.45 18.3524L14.4355 18.3231L14.4191 18.2949L13.5542 18.7969ZM12.841 17.5684L11.9465 18.0156L11.9605 18.0435L11.9762 18.0705L12.841 17.5684ZM12.9996 16.9338L12.5542 16.0385L12.5181 16.0565L12.4836 16.0773L12.9996 16.9338ZM13.633 17.0925L14.5044 16.602L14.4982 16.5911L14.4918 16.5803L13.633 17.0925ZM14.3474 18.3616L15.2428 17.9162L15.2314 17.8933L15.2188 17.871L14.3474 18.3616ZM14.1888 18.995L14.6306 19.892L14.6686 19.8734L14.7048 19.8515L14.1888 18.995ZM13.9502 19.0343V18.0343C14.1111 18.0343 14.3341 18.1189 14.45 18.3524L13.5542 18.7969L12.6585 19.2415C12.9318 19.7923 13.4745 20.0343 13.9502 20.0343V19.0343ZM13.5542 18.7969L14.4191 18.2949L13.7058 17.0663L12.841 17.5684L11.9762 18.0705L12.6894 19.299L13.5542 18.7969ZM12.841 17.5684L13.7354 17.1212C13.8277 17.3058 13.8052 17.616 13.5156 17.7904L12.9996 16.9338L12.4836 16.0773C11.798 16.4902 11.6157 17.3538 11.9465 18.0156L12.841 17.5684ZM12.9996 16.9338L13.445 17.8292C13.2652 17.9186 12.952 17.903 12.7741 17.6048L13.633 17.0925L14.4918 16.5803C14.0778 15.8861 13.2087 15.7129 12.5542 16.0385L12.9996 16.9338ZM13.633 17.0925L12.7616 17.5831L13.476 18.8522L14.3474 18.3616L15.2188 17.871L14.5044 16.602L13.633 17.0925ZM14.3474 18.3616L13.4521 18.807C13.3613 18.6246 13.3811 18.3141 13.6728 18.1384L14.1888 18.995L14.7048 19.8515C15.3925 19.4373 15.5697 18.5733 15.2428 17.9162L14.3474 18.3616ZM14.1888 18.995L13.7469 18.0979C13.8289 18.0575 13.9022 18.0425 13.9467 18.0369C13.9667 18.0345 13.9793 18.0341 13.9793 18.0341C13.9794 18.0341 13.9776 18.0342 13.9726 18.0342C13.9671 18.0343 13.9609 18.0343 13.9502 18.0343V19.0343V20.0343C14.0061 20.0343 14.3131 20.0484 14.6306 19.892L14.1888 18.995Z" fill="#6B9D1C" mask="url(#path-19-inside-10_2587_3708)"/>
<mask id="path-21-inside-11_2587_3708" fill="white">
<path d="M4.99377 19.0342C4.91385 19.0342 4.83513 19.0343 4.75522 18.9555C4.51786 18.8363 4.43794 18.5582 4.59658 18.3209L5.30985 17.053C5.42912 16.8156 5.70703 16.7358 5.94439 16.8944C6.18294 17.0137 6.26167 17.2904 6.10303 17.5278L5.38976 18.7968C5.27049 18.9555 5.15121 19.0342 4.99377 19.0342Z"/>
</mask>
<path d="M4.99377 19.0342C4.91385 19.0342 4.83513 19.0343 4.75522 18.9555C4.51786 18.8363 4.43794 18.5582 4.59658 18.3209L5.30985 17.053C5.42912 16.8156 5.70703 16.7358 5.94439 16.8944C6.18294 17.0137 6.26167 17.2904 6.10303 17.5278L5.38976 18.7968C5.27049 18.9555 5.15121 19.0342 4.99377 19.0342Z" fill="#81C713"/>
<path d="M4.75522 18.9555L5.45699 18.2431L5.34486 18.1327L5.20423 18.062L4.75522 18.9555ZM4.59658 18.3209L5.42798 18.8765L5.44931 18.8446L5.46813 18.8112L4.59658 18.3209ZM5.30985 17.053L6.1814 17.5433L6.19287 17.5229L6.20337 17.502L5.30985 17.053ZM5.94439 16.8944L5.38873 17.7258L5.44097 17.7607L5.49718 17.7888L5.94439 16.8944ZM6.10303 17.5278L5.27162 16.9721L5.25019 17.0042L5.23129 17.0378L6.10303 17.5278ZM5.38976 18.7968L6.18904 19.3978L6.22896 19.3447L6.26151 19.2868L5.38976 18.7968ZM4.99377 19.0342V18.0342C4.93453 18.0342 5.0169 18.0294 5.11475 18.0537C5.17273 18.068 5.23684 18.0914 5.30142 18.1273C5.36562 18.1631 5.41731 18.204 5.45699 18.2431L4.75522 18.9555L4.05345 19.6679C4.44334 20.052 4.89887 20.0342 4.99377 20.0342V19.0342ZM4.75522 18.9555L5.20423 18.062C5.33018 18.1253 5.44862 18.2525 5.4949 18.4296C5.54191 18.6095 5.49724 18.7729 5.42798 18.8765L4.59658 18.3209L3.76517 17.7652C3.27511 18.4985 3.5275 19.4578 4.30621 19.8491L4.75522 18.9555ZM4.59658 18.3209L5.46813 18.8112L6.1814 17.5433L5.30985 17.053L4.43829 16.5627L3.72503 17.8306L4.59658 18.3209ZM5.30985 17.053L6.20337 17.502C6.14012 17.6279 6.01286 17.7464 5.83562 17.7927C5.65558 17.8398 5.49219 17.795 5.38873 17.7258L5.94439 16.8944L6.50005 16.063C5.76697 15.5731 4.80772 15.8251 4.41632 16.604L5.30985 17.053ZM5.94439 16.8944L5.49718 17.7888C5.37249 17.7265 5.25199 17.5992 5.20503 17.4192C5.1575 17.237 5.20377 17.0736 5.27162 16.9721L6.10303 17.5278L6.93444 18.0834C7.42323 17.3521 7.17552 16.392 6.3916 16L5.94439 16.8944ZM6.10303 17.5278L5.23129 17.0378L4.51802 18.3069L5.38976 18.7968L6.26151 19.2868L6.97477 18.0177L6.10303 17.5278ZM5.38976 18.7968L4.59048 18.1959C4.57508 18.2164 4.60364 18.1714 4.68326 18.1225C4.77848 18.0641 4.89067 18.0342 4.99377 18.0342V19.0342V20.0342C5.58387 20.0342 5.96557 19.695 6.18904 19.3978L5.38976 18.7968Z" fill="#6B9D1C" mask="url(#path-21-inside-11_2587_3708)"/>
<mask id="path-23-inside-12_2587_3708" fill="white">
<path d="M1.90244 11.2696H0.474711C0.237353 11.2696 0 11.0705 0 10.7938C0 10.5552 0.197992 10.3178 0.474711 10.3178H1.90244C2.1398 10.3178 2.37716 10.5159 2.37716 10.7938C2.37716 11.0311 2.17916 11.2696 1.90244 11.2696Z"/>
</mask>
<path d="M1.90244 11.2696H0.474711C0.237353 11.2696 0 11.0705 0 10.7938C0 10.5552 0.197992 10.3178 0.474711 10.3178H1.90244C2.1398 10.3178 2.37716 10.5159 2.37716 10.7938C2.37716 11.0311 2.17916 11.2696 1.90244 11.2696Z" fill="#81C713"/>
<path d="M1.90244 11.2696V10.2696H0.474711V11.2696V12.2696H1.90244V11.2696ZM0.474711 11.2696V10.2696C0.629738 10.2696 0.752813 10.3306 0.836272 10.4097C0.9277 10.4963 1 10.6328 1 10.7938H0H-1C-1 11.6726 -0.263782 12.2696 0.474711 12.2696V11.2696ZM0 10.7938H1C1 10.9453 0.940897 11.0678 0.861132 11.1524C0.773794 11.245 0.636279 11.3178 0.474711 11.3178V10.3178V9.31781C-0.408798 9.31781 -1 10.0591 -1 10.7938H0ZM0.474711 10.3178V11.3178H1.90244V10.3178V9.31781H0.474711V10.3178ZM1.90244 10.3178V11.3178C1.74889 11.3178 1.62573 11.2577 1.54138 11.1778C1.44881 11.0902 1.37716 10.9533 1.37716 10.7938H2.37716H3.37716C3.37716 9.91253 2.63962 9.31781 1.90244 9.31781V10.3178ZM2.37716 10.7938H1.37716C1.37716 10.6408 1.43686 10.5187 1.5156 10.4351C1.6021 10.3432 1.73949 10.2696 1.90244 10.2696V11.2696V12.2696C2.78708 12.2696 3.37716 11.5261 3.37716 10.7938H2.37716Z" fill="#6B9D1C" mask="url(#path-23-inside-12_2587_3708)"/>
<mask id="path-25-inside-13_2587_3708" fill="white">
<path d="M5.66646 4.72121C5.50901 4.72121 5.35038 4.64135 5.27046 4.48271L4.55719 3.21483C4.43792 2.97628 4.51783 2.69958 4.71582 2.5803C4.95318 2.46222 5.2311 2.54086 5.35038 2.73886L6.06365 4.00675C6.18292 4.2453 6.103 4.52319 5.90501 4.64127C5.82628 4.68063 5.74637 4.72121 5.66646 4.72121Z"/>
</mask>
<path d="M5.66646 4.72121C5.50901 4.72121 5.35038 4.64135 5.27046 4.48271L4.55719 3.21483C4.43792 2.97628 4.51783 2.69958 4.71582 2.5803C4.95318 2.46222 5.2311 2.54086 5.35038 2.73886L6.06365 4.00675C6.18292 4.2453 6.103 4.52319 5.90501 4.64127C5.82628 4.68063 5.74637 4.72121 5.66646 4.72121Z" fill="#81C713"/>
<path d="M5.27046 4.48271L6.16354 4.03282L6.15324 4.01237L6.14201 3.99241L5.27046 4.48271ZM4.55719 3.21483L3.66277 3.66204L3.67368 3.68387L3.68564 3.70513L4.55719 3.21483ZM4.71582 2.5803L4.27041 1.68498L4.23433 1.70293L4.19981 1.72372L4.71582 2.5803ZM5.35038 2.73886L6.22193 2.24856L6.21464 2.23559L6.20696 2.22285L5.35038 2.73886ZM6.06365 4.00675L6.95807 3.55953L6.94716 3.53771L6.9352 3.51644L6.06365 4.00675ZM5.90501 4.64127L6.35222 5.5357L6.38538 5.51912L6.41722 5.50013L5.90501 4.64127ZM5.66646 4.72121V3.72121C5.83694 3.72121 6.05224 3.81188 6.16354 4.03282L5.27046 4.48271L4.37738 4.93261C4.64851 5.47082 5.18109 5.72121 5.66646 5.72121V4.72121ZM5.27046 4.48271L6.14201 3.99241L5.42874 2.72452L4.55719 3.21483L3.68564 3.70513L4.39891 4.97302L5.27046 4.48271ZM4.55719 3.21483L5.45162 2.76761C5.54395 2.95227 5.52139 3.26245 5.23184 3.43688L4.71582 2.5803L4.19981 1.72372C3.51427 2.1367 3.33189 3.00028 3.66277 3.66204L4.55719 3.21483ZM4.71582 2.5803L5.16124 3.47563C4.98016 3.56571 4.67027 3.54781 4.4938 3.25487L5.35038 2.73886L6.20696 2.22285C5.79194 1.53391 4.92621 1.35873 4.27041 1.68498L4.71582 2.5803ZM5.35038 2.73886L4.47883 3.22916L5.19209 4.49705L6.06365 4.00675L6.9352 3.51644L6.22193 2.24856L5.35038 2.73886ZM6.06365 4.00675L5.16922 4.45396C5.07828 4.27209 5.09658 3.95907 5.39279 3.78241L5.90501 4.64127L6.41722 5.50013C7.10942 5.08731 7.28756 4.21851 6.95807 3.55953L6.06365 4.00675ZM5.90501 4.64127L5.45779 3.74685C5.43489 3.7583 5.4265 3.76247 5.41935 3.76584C5.41349 3.7686 5.41922 3.76566 5.43226 3.76072C5.45391 3.75253 5.54044 3.72121 5.66646 3.72121V4.72121V5.72121C6.0302 5.72121 6.33716 5.54323 6.35222 5.5357L5.90501 4.64127Z" fill="#6B9D1C" mask="url(#path-25-inside-13_2587_3708)"/>
<mask id="path-27-inside-14_2587_3708" fill="white">
<path d="M9.43208 4.99539C6.26173 4.99539 3.68538 7.57174 3.68538 10.7421C3.68538 13.9136 6.26173 16.4901 9.43208 16.4901C12.6036 16.4901 15.18 13.9136 15.18 10.7421C15.18 7.57174 12.6036 4.99539 9.43208 4.99539ZM9.43208 17.4013C5.74646 17.4013 2.77411 14.4289 2.77411 10.7421C2.77411 7.05647 5.74646 4.08423 9.43208 4.08423C13.1189 4.08423 16.0912 7.05647 16.0912 10.7421C16.0912 14.3883 13.0783 17.4013 9.43208 17.4013Z"/>
</mask>
<path d="M9.43208 4.99539C6.26173 4.99539 3.68538 7.57174 3.68538 10.7421C3.68538 13.9136 6.26173 16.4901 9.43208 16.4901C12.6036 16.4901 15.18 13.9136 15.18 10.7421C15.18 7.57174 12.6036 4.99539 9.43208 4.99539ZM9.43208 17.4013C5.74646 17.4013 2.77411 14.4289 2.77411 10.7421C2.77411 7.05647 5.74646 4.08423 9.43208 4.08423C13.1189 4.08423 16.0912 7.05647 16.0912 10.7421C16.0912 14.3883 13.0783 17.4013 9.43208 17.4013Z" fill="#81C713"/>
<path d="M9.43208 4.99539V3.99539C5.70945 3.99539 2.68538 7.01946 2.68538 10.7421H3.68538H4.68538C4.68538 8.12403 6.81401 5.99539 9.43208 5.99539V4.99539ZM3.68538 10.7421H2.68538C2.68538 14.4658 5.70929 17.4901 9.43208 17.4901V16.4901V15.4901C6.81418 15.4901 4.68538 13.3615 4.68538 10.7421H3.68538ZM9.43208 16.4901V17.4901C13.1559 17.4901 16.18 14.4659 16.18 10.7421H15.18H14.18C14.18 13.3614 12.0513 15.4901 9.43208 15.4901V16.4901ZM15.18 10.7421H16.18C16.18 7.01932 13.1558 3.99539 9.43208 3.99539V4.99539V5.99539C12.0515 5.99539 14.18 8.12416 14.18 10.7421H15.18ZM9.43208 17.4013V16.4013C6.29886 16.4013 3.77411 13.8767 3.77411 10.7421H2.77411H1.77411C1.77411 14.9811 5.19406 18.4013 9.43208 18.4013V17.4013ZM2.77411 10.7421H3.77411C3.77411 7.60878 6.29872 5.08423 9.43208 5.08423V4.08423V3.08423C5.1942 3.08423 1.77411 6.50417 1.77411 10.7421H2.77411ZM9.43208 4.08423V5.08423C12.5667 5.08423 15.0912 7.60889 15.0912 10.7421H16.0912H17.0912C17.0912 6.50405 13.671 3.08423 9.43208 3.08423V4.08423ZM16.0912 10.7421H15.0912C15.0912 13.8361 12.5261 16.4013 9.43208 16.4013V17.4013V18.4013C13.6306 18.4013 17.0912 14.9406 17.0912 10.7421H16.0912Z" fill="#6B9D1C" mask="url(#path-27-inside-14_2587_3708)"/>
</svg>
