<svg width="103" height="32" viewBox="0 0 103 32" fill="none" xmlns="http://www.w3.org/2000/svg">
<path d="M0.0104761 30.5262C0.440128 24.93 2.24594 18.7591 2.56499 13.0535L10.2349 16.0937L9.15654 31.7894H0.0104761C0.031746 31.3725 -0.0214288 30.9388 0.0104761 30.5262Z" fill="#C7D318"/>
<path d="M17.875 31.7896L18.4068 18.1045L30.101 11.9967L33.3999 31.7896H17.875Z" fill="#C6D317"/>
<path d="M29.1465 10.1017C26.3304 10.7796 19.7218 15.9905 17.4544 16.3295C16.3548 16.4937 13.8279 14.862 12.5921 14.7062L13.411 0L29.1465 10.1017Z" fill="#363335"/>
<path d="M11.2821 31.7894L12.4605 16.8347L16.1827 18.2474L15.6424 31.7894H11.2821Z" fill="#C7D31A"/>
<path d="M10.4308 13.6829L3.63077 11.0575L11.2794 1.05054L10.4308 13.6829Z" fill="#383537"/>
<path d="M102.096 31.9997H92.3115V13.8933H95.3956L95.7147 14.2091V29.2627H102.096V31.9997Z" fill="#383638"/>
<path d="M76.7866 14.1039L81.3575 23.5803L85.8263 14.1039H89.5486L81.1491 31.7913L72.7453 14.1039H76.7866Z" fill="#373537"/>
<path d="M57.8589 14.1039L62.4298 23.5803C63.0509 22.5255 66.3711 14.1039 66.8986 14.1039H70.6208L62.2235 31.7913L53.8197 14.1039H57.861H57.8589Z" fill="#373536"/>
<path d="M52.1157 14.1039L51.1182 16.8156L46.5877 16.8409V31.9998H43.1845V16.8409L38.0669 16.7483L37.867 14.1039H52.1157Z" fill="#373536"/>
</svg>
