<svg width="70" height="37" viewBox="0 0 70 37" fill="none" xmlns="http://www.w3.org/2000/svg">
<path d="M25.3721 28.24C26.1455 28.24 26.5321 27.9533 26.5321 27.38C26.5321 27.1467 26.4721 26.9633 26.3521 26.83C26.2388 26.6967 26.0255 26.58 25.7121 26.48L24.8921 26.21C23.9121 25.89 23.4221 25.2467 23.4221 24.28C23.4221 23.72 23.5955 23.26 23.9421 22.9C24.2955 22.5333 24.8455 22.35 25.5921 22.35C25.9055 22.35 26.2155 22.3867 26.5221 22.46C26.8288 22.5267 27.1555 22.6367 27.5021 22.79L27.1321 23.82C26.8121 23.6933 26.5388 23.6033 26.3121 23.55C26.0921 23.49 25.8655 23.46 25.6321 23.46C25.3255 23.46 25.0821 23.5167 24.9021 23.63C24.7288 23.7367 24.6421 23.9333 24.6421 24.22C24.6421 24.4333 24.7021 24.61 24.8221 24.75C24.9488 24.8833 25.1555 24.9967 25.4421 25.09L26.2621 25.36C26.7555 25.5267 27.1255 25.77 27.3721 26.09C27.6255 26.4033 27.7521 26.82 27.7521 27.34C27.7521 27.94 27.5621 28.4267 27.1821 28.8C26.8021 29.1667 26.2055 29.35 25.3921 29.35C25.0721 29.35 24.7388 29.3133 24.3921 29.24C24.0521 29.16 23.6788 29.0267 23.2721 28.84L23.6421 27.81C24.0155 27.97 24.3321 28.0833 24.5921 28.15C24.8588 28.21 25.1188 28.24 25.3721 28.24ZM32.1779 29.25L30.4779 26.28C30.3646 26.4067 30.2479 26.5333 30.1279 26.66C30.0146 26.7867 29.8946 26.9167 29.7679 27.05V29.25H28.5679V22.45H29.7679V25.68C30.2746 25.1 30.7079 24.55 31.0679 24.03C31.4279 23.5033 31.7379 22.9767 31.9979 22.45H33.3079C33.0213 23.0233 32.7146 23.5667 32.3879 24.08C32.0679 24.5867 31.7279 25.0567 31.3679 25.49L33.6279 29.25H32.1779ZM38.5347 28.81C38.3681 28.91 38.0914 29.0267 37.7047 29.16C37.3247 29.2867 36.8781 29.35 36.3647 29.35C35.7847 29.35 35.2981 29.23 34.9047 28.99C34.5181 28.75 34.2247 28.42 34.0247 28C33.8247 27.58 33.7247 27.1 33.7247 26.56V25.13C33.7247 24.5767 33.8247 24.0933 34.0247 23.68C34.2247 23.26 34.5214 22.9333 34.9147 22.7C35.3147 22.4667 35.8147 22.35 36.4147 22.35C36.7081 22.35 37.0114 22.3833 37.3247 22.45C37.6381 22.51 37.9814 22.6233 38.3547 22.79L37.9847 23.84C37.6581 23.7133 37.3747 23.6233 37.1347 23.57C36.9014 23.51 36.6681 23.48 36.4347 23.48C35.9147 23.48 35.5381 23.63 35.3047 23.93C35.0714 24.2233 34.9547 24.6233 34.9547 25.13V26.56C34.9547 27.04 35.0714 27.4333 35.3047 27.74C35.5447 28.0467 35.9181 28.2 36.4247 28.2C36.5781 28.2 36.7447 28.1867 36.9247 28.16C37.1047 28.1333 37.2781 28.0967 37.4447 28.05V26.56H36.3447V25.51H38.5347V28.81ZM39.1201 26.6V25.6H42.1601V26.6H39.1201ZM44.3031 29.25H43.1031V22.45H44.3031V29.25ZM49.2893 29.25L47.5893 26.28C47.4759 26.4067 47.3593 26.5333 47.2393 26.66C47.1259 26.7867 47.0059 26.9167 46.8793 27.05V29.25H45.6793V22.45H46.8793V25.68C47.3859 25.1 47.8193 24.55 48.1793 24.03C48.5393 23.5033 48.8493 22.9767 49.1093 22.45H50.4193C50.1326 23.0233 49.8259 23.5667 49.4993 24.08C49.1793 24.5867 48.8393 25.0567 48.4793 25.49L50.7393 29.25H49.2893ZM55.9561 25.13V26.56C55.9561 27.4267 55.7394 28.11 55.3061 28.61C54.8727 29.1033 54.2394 29.35 53.4061 29.35C52.5661 29.35 51.9294 29.1033 51.4961 28.61C51.0694 28.11 50.8561 27.4267 50.8561 26.56V25.13C50.8561 24.2633 51.0694 23.5833 51.4961 23.09C51.9294 22.5967 52.5661 22.35 53.4061 22.35C54.2394 22.35 54.8727 22.5967 55.3061 23.09C55.7394 23.5833 55.9561 24.2633 55.9561 25.13ZM54.7261 25.13C54.7261 24.5833 54.6194 24.1733 54.4061 23.9C54.1927 23.62 53.8594 23.48 53.4061 23.48C52.9527 23.48 52.6194 23.62 52.4061 23.9C52.1927 24.1733 52.0861 24.5833 52.0861 25.13V26.56C52.0861 27.1067 52.1927 27.52 52.4061 27.8C52.6194 28.08 52.9527 28.22 53.4061 28.22C53.8594 28.22 54.1927 28.08 54.4061 27.8C54.6194 27.52 54.7261 27.1067 54.7261 26.56V25.13ZM57.0425 29.25V22.45H59.1125C59.6192 22.45 60.0192 22.5233 60.3125 22.67C60.6125 22.8167 60.8259 23.0233 60.9525 23.29C61.0859 23.5567 61.1525 23.87 61.1525 24.23V24.51C61.1525 25.0367 60.9259 25.44 60.4725 25.72C60.7925 25.8467 61.0359 26.03 61.2025 26.27C61.3692 26.51 61.4525 26.7967 61.4525 27.13V27.41C61.4525 27.7767 61.3859 28.1 61.2525 28.38C61.1192 28.6533 60.8992 28.8667 60.5925 29.02C60.2859 29.1733 59.8759 29.25 59.3625 29.25H57.0425ZM59.1125 23.55H58.2425V25.25H59.1125C59.3792 25.25 59.5792 25.19 59.7125 25.07C59.8525 24.9433 59.9225 24.7733 59.9225 24.56V24.23C59.9225 24.0167 59.8525 23.85 59.7125 23.73C59.5792 23.61 59.3792 23.55 59.1125 23.55ZM59.3625 26.35H58.2425V28.15H59.3625C59.6425 28.15 59.8559 28.0833 60.0025 27.95C60.1492 27.8167 60.2225 27.6367 60.2225 27.41V27.08C60.2225 26.8533 60.1492 26.6767 60.0025 26.55C59.8559 26.4167 59.6425 26.35 59.3625 26.35Z" fill="#14257D"/>
<path d="M24.116 33.033C23.948 33.033 23.804 33.004 23.684 32.946C23.564 32.888 23.465 32.809 23.387 32.709C23.311 32.607 23.255 32.491 23.219 32.361C23.183 32.229 23.165 32.091 23.165 31.947C23.165 31.803 23.183 31.666 23.219 31.536C23.255 31.404 23.311 31.288 23.387 31.188C23.465 31.086 23.564 31.006 23.684 30.948C23.804 30.89 23.948 30.861 24.116 30.861C24.284 30.861 24.428 30.89 24.548 30.948C24.668 31.006 24.766 31.086 24.842 31.188C24.92 31.288 24.977 31.404 25.013 31.536C25.049 31.666 25.067 31.803 25.067 31.947C25.067 32.091 25.049 32.229 25.013 32.361C24.977 32.491 24.92 32.607 24.842 32.709C24.766 32.809 24.668 32.888 24.548 32.946C24.428 33.004 24.284 33.033 24.116 33.033ZM24.116 32.793C24.274 32.793 24.402 32.755 24.5 32.679C24.6 32.603 24.673 32.501 24.719 32.373C24.767 32.243 24.791 32.101 24.791 31.947C24.791 31.791 24.767 31.649 24.719 31.521C24.673 31.393 24.6 31.291 24.5 31.215C24.402 31.139 24.274 31.101 24.116 31.101C23.97 31.101 23.846 31.139 23.744 31.215C23.644 31.291 23.568 31.393 23.516 31.521C23.466 31.649 23.441 31.791 23.441 31.947C23.441 32.101 23.466 32.243 23.516 32.373C23.568 32.501 23.644 32.603 23.744 32.679C23.846 32.755 23.97 32.793 24.116 32.793ZM25.3584 33.69V31.5H25.6014V31.794C25.6234 31.738 25.6554 31.685 25.6974 31.635C25.7394 31.585 25.7924 31.544 25.8564 31.512C25.9204 31.48 25.9964 31.464 26.0844 31.464C26.2164 31.464 26.3334 31.495 26.4354 31.557C26.5374 31.617 26.6174 31.705 26.6754 31.821C26.7334 31.937 26.7624 32.08 26.7624 32.25C26.7624 32.414 26.7344 32.555 26.6784 32.673C26.6224 32.789 26.5444 32.879 26.4444 32.943C26.3464 33.005 26.2314 33.036 26.0994 33.036C26.0314 33.036 25.9634 33.024 25.8954 33C25.8274 32.974 25.7684 32.937 25.7184 32.889C25.6684 32.839 25.6324 32.78 25.6104 32.712V33.69H25.3584ZM26.0634 32.808C26.1654 32.808 26.2494 32.783 26.3154 32.733C26.3814 32.683 26.4304 32.615 26.4624 32.529C26.4944 32.443 26.5104 32.348 26.5104 32.244C26.5104 32.14 26.4944 32.046 26.4624 31.962C26.4304 31.878 26.3814 31.812 26.3154 31.764C26.2514 31.714 26.1704 31.689 26.0724 31.689C25.9244 31.689 25.8104 31.741 25.7304 31.845C25.6524 31.949 25.6134 32.084 25.6134 32.25C25.6134 32.352 25.6304 32.445 25.6644 32.529C25.7004 32.613 25.7514 32.68 25.8174 32.73C25.8854 32.78 25.9674 32.806 26.0634 32.808ZM26.9544 33V30.864H27.2064V33H26.9544ZM28.1808 33.039C28.0548 33.039 27.9378 33.008 27.8298 32.946C27.7218 32.882 27.6348 32.791 27.5688 32.673C27.5028 32.555 27.4698 32.416 27.4698 32.256C27.4698 32.092 27.5028 31.951 27.5688 31.833C27.6348 31.715 27.7218 31.624 27.8298 31.56C27.9378 31.496 28.0548 31.464 28.1808 31.464C28.3088 31.464 28.4238 31.491 28.5258 31.545C28.6298 31.597 28.7118 31.679 28.7718 31.791C28.8338 31.901 28.8648 32.043 28.8648 32.217V32.31H27.7188C27.7268 32.454 27.7688 32.574 27.8448 32.67C27.9208 32.764 28.0308 32.811 28.1748 32.811C28.2648 32.811 28.3468 32.79 28.4208 32.748C28.4948 32.706 28.5528 32.647 28.5948 32.571L28.8168 32.661C28.6928 32.913 28.4808 33.039 28.1808 33.039ZM28.1748 31.692C28.0528 31.692 27.9548 31.73 27.8808 31.806C27.8088 31.88 27.7608 31.974 27.7368 32.088H28.6128C28.6128 32.032 28.5958 31.974 28.5618 31.914C28.5298 31.852 28.4818 31.8 28.4178 31.758C28.3538 31.714 28.2728 31.692 28.1748 31.692ZM29.2588 31.215C29.2108 31.215 29.1688 31.198 29.1328 31.164C29.0988 31.128 29.0818 31.087 29.0818 31.041C29.0818 30.993 29.0988 30.952 29.1328 30.918C29.1688 30.882 29.2108 30.864 29.2588 30.864C29.3048 30.864 29.3448 30.882 29.3788 30.918C29.4128 30.952 29.4298 30.993 29.4298 31.041C29.4298 31.087 29.4128 31.128 29.3788 31.164C29.3448 31.198 29.3048 31.215 29.2588 31.215ZM29.1298 33V31.5H29.3818V33H29.1298ZM30.3351 33.036C30.2051 33.036 30.0881 33.006 29.9841 32.946C29.8821 32.884 29.8021 32.795 29.7441 32.679C29.6861 32.561 29.6571 32.418 29.6571 32.25C29.6571 32.086 29.6851 31.946 29.7411 31.83C29.7971 31.712 29.8751 31.622 29.9751 31.56C30.0751 31.496 30.1901 31.464 30.3201 31.464C30.3901 31.464 30.4581 31.477 30.5241 31.503C30.5921 31.527 30.6511 31.563 30.7011 31.611C30.7531 31.659 30.7891 31.718 30.8091 31.788V30.864H31.0611V32.622C31.0611 32.682 31.0741 32.725 31.1001 32.751C31.1261 32.775 31.1761 32.779 31.2501 32.763V32.967C31.2301 32.979 31.2081 32.988 31.1841 32.994C31.1621 33 31.1321 33.003 31.0941 33.003C31.0161 33.003 30.9511 32.98 30.8991 32.934C30.8471 32.888 30.8211 32.812 30.8211 32.706C30.7991 32.76 30.7671 32.813 30.7251 32.865C30.6831 32.915 30.6291 32.956 30.5631 32.988C30.4991 33.02 30.4231 33.036 30.3351 33.036ZM30.3471 32.811C30.4951 32.811 30.6081 32.759 30.6861 32.655C30.7661 32.549 30.8061 32.414 30.8061 32.25C30.8061 32.148 30.7881 32.055 30.7521 31.971C30.7181 31.885 30.6671 31.817 30.5991 31.767C30.5331 31.717 30.4521 31.692 30.3561 31.692C30.2561 31.692 30.1721 31.718 30.1041 31.77C30.0381 31.82 29.9891 31.888 29.9571 31.974C29.9251 32.058 29.9091 32.152 29.9091 32.256C29.9091 32.36 29.9251 32.454 29.9571 32.538C29.9891 32.622 30.0371 32.689 30.1011 32.739C30.1671 32.787 30.2491 32.811 30.3471 32.811ZM31.619 31.215C31.571 31.215 31.529 31.198 31.493 31.164C31.459 31.128 31.442 31.087 31.442 31.041C31.442 30.993 31.459 30.952 31.493 30.918C31.529 30.882 31.571 30.864 31.619 30.864C31.665 30.864 31.705 30.882 31.739 30.918C31.773 30.952 31.79 30.993 31.79 31.041C31.79 31.087 31.773 31.128 31.739 31.164C31.705 31.198 31.665 31.215 31.619 31.215ZM31.49 33V31.5H31.742V33H31.49ZM32.1313 33V31.5H32.3833V31.782C32.3933 31.746 32.4163 31.703 32.4523 31.653C32.4883 31.603 32.5413 31.559 32.6113 31.521C32.6813 31.483 32.7723 31.464 32.8843 31.464C33.0303 31.464 33.1503 31.511 33.2443 31.605C33.3403 31.699 33.3883 31.836 33.3883 32.016V33H33.1363V32.052C33.1363 31.922 33.1053 31.83 33.0433 31.776C32.9813 31.72 32.9003 31.692 32.8003 31.692C32.6623 31.692 32.5583 31.739 32.4883 31.833C32.4183 31.927 32.3833 32.046 32.3833 32.19V33H32.1313ZM34.3353 33.69C34.2053 33.688 34.0833 33.659 33.9693 33.603C33.8553 33.547 33.7693 33.453 33.7113 33.321L33.9093 33.198C33.9473 33.286 34.0033 33.353 34.0773 33.399C34.1513 33.445 34.2383 33.468 34.3383 33.468C34.5043 33.468 34.6243 33.424 34.6983 33.336C34.7723 33.248 34.8093 33.119 34.8093 32.949V32.712C34.7893 32.78 34.7533 32.839 34.7013 32.889C34.6513 32.937 34.5923 32.974 34.5243 33C34.4583 33.024 34.3903 33.036 34.3203 33.036C34.1903 33.036 34.0753 33.005 33.9753 32.943C33.8753 32.879 33.7973 32.789 33.7413 32.673C33.6853 32.555 33.6573 32.414 33.6573 32.25C33.6573 32.08 33.6863 31.937 33.7443 31.821C33.8023 31.705 33.8823 31.617 33.9843 31.557C34.0883 31.495 34.2053 31.464 34.3353 31.464C34.4233 31.464 34.4993 31.48 34.5633 31.512C34.6273 31.544 34.6803 31.585 34.7223 31.635C34.7663 31.685 34.7983 31.738 34.8183 31.794V31.5H35.0583V32.949C35.0583 33.137 35.0253 33.285 34.9593 33.393C34.8953 33.503 34.8083 33.58 34.6983 33.624C34.5883 33.67 34.4673 33.692 34.3353 33.69ZM34.3563 32.808C34.4523 32.808 34.5333 32.783 34.5993 32.733C34.6673 32.681 34.7183 32.613 34.7523 32.529C34.7883 32.445 34.8063 32.352 34.8063 32.25C34.8063 32.084 34.7663 31.949 34.6863 31.845C34.6083 31.741 34.4953 31.689 34.3473 31.689C34.2493 31.689 34.1673 31.714 34.1013 31.764C34.0373 31.812 33.9893 31.878 33.9573 31.962C33.9253 32.046 33.9093 32.14 33.9093 32.244C33.9093 32.348 33.9253 32.443 33.9573 32.529C33.9893 32.613 34.0383 32.681 34.1043 32.733C34.1723 32.783 34.2563 32.808 34.3563 32.808ZM36.0406 33.039C35.9146 33.039 35.7976 33.008 35.6896 32.946C35.5816 32.882 35.4946 32.791 35.4286 32.673C35.3626 32.555 35.3296 32.416 35.3296 32.256C35.3296 32.092 35.3626 31.951 35.4286 31.833C35.4946 31.715 35.5816 31.624 35.6896 31.56C35.7976 31.496 35.9146 31.464 36.0406 31.464C36.1686 31.464 36.2836 31.491 36.3856 31.545C36.4896 31.597 36.5716 31.679 36.6316 31.791C36.6936 31.901 36.7246 32.043 36.7246 32.217V32.31H35.5786C35.5866 32.454 35.6286 32.574 35.7046 32.67C35.7806 32.764 35.8906 32.811 36.0346 32.811C36.1246 32.811 36.2066 32.79 36.2806 32.748C36.3546 32.706 36.4126 32.647 36.4546 32.571L36.6766 32.661C36.5526 32.913 36.3406 33.039 36.0406 33.039ZM36.0346 31.692C35.9126 31.692 35.8146 31.73 35.7406 31.806C35.6686 31.88 35.6206 31.974 35.5966 32.088H36.4726C36.4726 32.032 36.4556 31.974 36.4216 31.914C36.3896 31.852 36.3416 31.8 36.2776 31.758C36.2136 31.714 36.1326 31.692 36.0346 31.692ZM37.0016 33V31.5H37.2536V31.782C37.2636 31.746 37.2866 31.703 37.3226 31.653C37.3586 31.603 37.4116 31.559 37.4816 31.521C37.5516 31.483 37.6426 31.464 37.7546 31.464C37.9006 31.464 38.0206 31.511 38.1146 31.605C38.2106 31.699 38.2586 31.836 38.2586 32.016V33H38.0066V32.052C38.0066 31.922 37.9756 31.83 37.9136 31.776C37.8516 31.72 37.7706 31.692 37.6706 31.692C37.5326 31.692 37.4286 31.739 37.3586 31.833C37.2886 31.927 37.2536 32.046 37.2536 32.19V33H37.0016Z" fill="#14257D"/>
<path d="M0 14L19.5 10.5V36.5L0 35V14Z" fill="#1F5BA3" fill-opacity="0.77"/>
<path d="M12 4.5L31 0V19.5L12 20.5V4.5Z" fill="#659401" fill-opacity="0.67"/>
<path d="M12 11.8548L19.5 10.5V20.0924L12 20.5V11.8548Z" fill="black" fill-opacity="0.4"/>
</svg>
