<svg width="104" height="20" viewBox="0 0 104 20" fill="none" xmlns="http://www.w3.org/2000/svg">
<path d="M18.4156 0L9.61725 2.1611V19.5669L18.4156 19.5607V0Z" fill="#88BD3A"/>
<path d="M9.61717 6.13232L4.06358 7.27752L4.0451 19.5607H9.61717V6.13232Z" fill="#F8AF00"/>
<path d="M4.0636 10.5345L0 11.181V19.5607H4.0636V10.5345Z" fill="#ED7218"/>
<path d="M9.61725 6.13233L11.5321 5.73828V19.5607H9.61725V6.13233Z" fill="#008C43"/>
<path d="M4.0636 10.5346L5.62131 10.276V19.5607H4.0636V10.5346Z" fill="#DF2212"/>
<mask id="path-6-outside-1_2156_25133" maskUnits="userSpaceOnUse" x="26" y="5" width="68" height="12" fill="black">
<rect fill="white" x="26" y="5" width="68" height="12"/>
<path d="M26.164 14V5.588H29.152C29.976 5.588 30.608 5.768 31.048 6.128C31.488 6.48 31.708 7.004 31.708 7.7C31.708 8.188 31.588 8.568 31.348 8.84C31.116 9.112 30.824 9.304 30.472 9.416C31.04 9.544 31.464 9.776 31.744 10.112C32.032 10.44 32.176 10.912 32.176 11.528C32.176 12.288 31.928 12.892 31.432 13.34C30.936 13.78 30.208 14 29.248 14H26.164ZM27.22 9.02H29.104C29.544 9.02 29.904 8.908 30.184 8.684C30.472 8.452 30.616 8.128 30.616 7.712C30.616 7.312 30.472 7.02 30.184 6.836C29.896 6.644 29.532 6.548 29.092 6.548H27.22V9.02ZM27.22 13.04H29.248C29.8 13.04 30.24 12.908 30.568 12.644C30.904 12.38 31.072 12.008 31.072 11.528C31.072 11.032 30.924 10.652 30.628 10.388C30.34 10.116 29.92 9.98 29.368 9.98H27.22V13.04ZM35.2761 14.144C34.6921 14.144 34.2081 13.956 33.8241 13.58C33.4481 13.204 33.2601 12.656 33.2601 11.936V8H34.2681V11.792C34.2681 12.312 34.3921 12.684 34.6401 12.908C34.8881 13.124 35.2121 13.232 35.6121 13.232C36.1641 13.232 36.5801 13.044 36.8601 12.668C37.1401 12.292 37.2801 11.816 37.2801 11.24V8H38.2881V14H37.2801V12.872C37.2481 13.008 37.1561 13.18 37.0041 13.388C36.8601 13.588 36.6481 13.764 36.3681 13.916C36.0881 14.068 35.7241 14.144 35.2761 14.144ZM40.3603 6.86C40.1683 6.86 40.0003 6.792 39.8563 6.656C39.7203 6.512 39.6523 6.348 39.6523 6.164C39.6523 5.972 39.7203 5.808 39.8563 5.672C40.0003 5.528 40.1683 5.456 40.3603 5.456C40.5443 5.456 40.7043 5.528 40.8403 5.672C40.9763 5.808 41.0443 5.972 41.0443 6.164C41.0443 6.348 40.9763 6.512 40.8403 6.656C40.7043 6.792 40.5443 6.86 40.3603 6.86ZM39.8443 14V8H40.8523V14H39.8443ZM42.3855 14V5.456H43.3935V14H42.3855ZM47.1592 14.144C46.6392 14.144 46.1712 14.024 45.7552 13.784C45.3472 13.536 45.0272 13.18 44.7952 12.716C44.5632 12.244 44.4472 11.672 44.4472 11C44.4472 10.344 44.5592 9.784 44.7832 9.32C45.0072 8.848 45.3192 8.488 45.7192 8.24C46.1192 7.984 46.5792 7.856 47.0992 7.856C47.3792 7.856 47.6512 7.908 47.9152 8.012C48.1872 8.108 48.4232 8.252 48.6232 8.444C48.8312 8.636 48.9752 8.872 49.0552 9.152V5.456H50.0632V12.488C50.0632 12.728 50.1152 12.9 50.2192 13.004C50.3232 13.1 50.5232 13.116 50.8192 13.052V13.868C50.7392 13.916 50.6512 13.952 50.5552 13.976C50.4672 14 50.3472 14.012 50.1952 14.012C49.8832 14.012 49.6232 13.92 49.4152 13.736C49.2072 13.552 49.1032 13.248 49.1032 12.824C49.0152 13.04 48.8872 13.252 48.7192 13.46C48.5512 13.66 48.3352 13.824 48.0712 13.952C47.8152 14.08 47.5112 14.144 47.1592 14.144ZM47.2072 13.244C47.7992 13.244 48.2512 13.036 48.5632 12.62C48.8832 12.196 49.0432 11.656 49.0432 11C49.0432 10.592 48.9712 10.22 48.8272 9.884C48.6912 9.54 48.4872 9.268 48.2152 9.068C47.9512 8.868 47.6272 8.768 47.2432 8.768C46.8432 8.768 46.5072 8.872 46.2352 9.08C45.9712 9.28 45.7752 9.552 45.6472 9.896C45.5192 10.232 45.4552 10.608 45.4552 11.024C45.4552 11.44 45.5192 11.816 45.6472 12.152C45.7752 12.488 45.9672 12.756 46.2232 12.956C46.4872 13.148 46.8152 13.244 47.2072 13.244ZM52.2947 6.86C52.1027 6.86 51.9347 6.792 51.7907 6.656C51.6547 6.512 51.5867 6.348 51.5867 6.164C51.5867 5.972 51.6547 5.808 51.7907 5.672C51.9347 5.528 52.1027 5.456 52.2947 5.456C52.4787 5.456 52.6387 5.528 52.7747 5.672C52.9107 5.808 52.9787 5.972 52.9787 6.164C52.9787 6.348 52.9107 6.512 52.7747 6.656C52.6387 6.792 52.4787 6.86 52.2947 6.86ZM51.7787 14V8H52.7867V14H51.7787ZM54.3438 14V8H55.3518V9.128C55.3918 8.984 55.4838 8.812 55.6278 8.612C55.7718 8.412 55.9838 8.236 56.2638 8.084C56.5438 7.932 56.9078 7.856 57.3558 7.856C57.9398 7.856 58.4198 8.044 58.7958 8.42C59.1798 8.796 59.3718 9.344 59.3718 10.064V14H58.3638V10.208C58.3638 9.688 58.2398 9.32 57.9918 9.104C57.7438 8.88 57.4198 8.768 57.0198 8.768C56.4678 8.768 56.0518 8.956 55.7718 9.332C55.4918 9.708 55.3518 10.184 55.3518 10.76V14H54.3438ZM63.16 16.76C62.64 16.752 62.152 16.636 61.696 16.412C61.24 16.188 60.896 15.812 60.664 15.284L61.456 14.792C61.608 15.144 61.832 15.412 62.128 15.596C62.424 15.78 62.772 15.872 63.172 15.872C63.836 15.872 64.316 15.696 64.612 15.344C64.908 14.992 65.056 14.476 65.056 13.796V12.848C64.976 13.12 64.832 13.356 64.624 13.556C64.424 13.748 64.188 13.896 63.916 14C63.652 14.096 63.38 14.144 63.1 14.144C62.58 14.144 62.12 14.02 61.72 13.772C61.32 13.516 61.008 13.156 60.784 12.692C60.56 12.22 60.448 11.656 60.448 11C60.448 10.32 60.564 9.748 60.796 9.284C61.028 8.82 61.348 8.468 61.756 8.228C62.172 7.98 62.64 7.856 63.16 7.856C63.512 7.856 63.816 7.92 64.072 8.048C64.328 8.176 64.54 8.34 64.708 8.54C64.884 8.74 65.012 8.952 65.092 9.176V8H66.052V13.796C66.052 14.548 65.92 15.14 65.656 15.572C65.4 16.012 65.052 16.32 64.612 16.496C64.172 16.68 63.688 16.768 63.16 16.76ZM63.244 13.232C63.628 13.232 63.952 13.132 64.216 12.932C64.488 12.724 64.692 12.452 64.828 12.116C64.972 11.78 65.044 11.408 65.044 11C65.044 10.336 64.884 9.796 64.564 9.38C64.252 8.964 63.8 8.756 63.208 8.756C62.816 8.756 62.488 8.856 62.224 9.056C61.968 9.248 61.776 9.512 61.648 9.848C61.52 10.184 61.456 10.56 61.456 10.976C61.456 11.392 61.52 11.772 61.648 12.116C61.776 12.452 61.972 12.724 62.236 12.932C62.508 13.132 62.844 13.232 63.244 13.232Z"/>
<path d="M67.6291 14V5.6H68.6851V13.04H72.5611V14H67.6291ZM75.482 14.144C74.962 14.144 74.502 14.02 74.102 13.772C73.702 13.516 73.39 13.156 73.166 12.692C72.942 12.22 72.83 11.656 72.83 11C72.83 10.32 72.946 9.748 73.178 9.284C73.41 8.82 73.73 8.468 74.138 8.228C74.554 7.98 75.022 7.856 75.542 7.856C75.894 7.856 76.198 7.92 76.454 8.048C76.71 8.176 76.922 8.34 77.09 8.54C77.266 8.74 77.394 8.952 77.474 9.176V8H78.434V14H77.438V12.848C77.358 13.12 77.214 13.356 77.006 13.556C76.806 13.748 76.57 13.896 76.298 14C76.034 14.096 75.762 14.144 75.482 14.144ZM75.626 13.232C76.01 13.232 76.334 13.132 76.598 12.932C76.87 12.724 77.074 12.452 77.21 12.116C77.354 11.78 77.426 11.408 77.426 11C77.426 10.336 77.266 9.796 76.946 9.38C76.634 8.964 76.182 8.756 75.59 8.756C75.198 8.756 74.87 8.856 74.606 9.056C74.35 9.248 74.158 9.512 74.03 9.848C73.902 10.184 73.838 10.56 73.838 10.976C73.838 11.392 73.902 11.772 74.03 12.116C74.158 12.452 74.354 12.724 74.618 12.932C74.89 13.132 75.226 13.232 75.626 13.232ZM82.5158 14.144C82.1638 14.144 81.8598 14.08 81.6038 13.952C81.3478 13.824 81.1358 13.66 80.9678 13.46C80.7998 13.252 80.6718 13.04 80.5838 12.824V14H79.6118V5.36H80.6198V9.152C80.7078 8.872 80.8518 8.636 81.0518 8.444C81.2518 8.252 81.4878 8.108 81.7598 8.012C82.0318 7.908 82.3038 7.856 82.5758 7.856C83.1038 7.856 83.5638 7.984 83.9558 8.24C84.3558 8.488 84.6678 8.848 84.8918 9.32C85.1158 9.784 85.2278 10.344 85.2278 11C85.2278 11.672 85.1118 12.244 84.8798 12.716C84.6478 13.18 84.3278 13.536 83.9198 13.784C83.5118 14.024 83.0438 14.144 82.5158 14.144ZM82.4678 13.244C82.8598 13.244 83.1838 13.148 83.4398 12.956C83.7038 12.756 83.8998 12.488 84.0278 12.152C84.1558 11.816 84.2198 11.44 84.2198 11.024C84.2198 10.608 84.1558 10.228 84.0278 9.884C83.8998 9.54 83.7038 9.268 83.4398 9.068C83.1758 8.86 82.8398 8.76 82.4318 8.768C82.0478 8.768 81.7198 8.872 81.4478 9.08C81.1838 9.28 80.9798 9.548 80.8358 9.884C80.6998 10.22 80.6318 10.592 80.6318 11C80.6318 11.656 80.7878 12.196 81.0998 12.62C81.4198 13.036 81.8758 13.244 82.4678 13.244ZM88.7709 14.156C88.2669 14.156 87.7989 14.032 87.3669 13.784C86.9349 13.528 86.5869 13.164 86.3229 12.692C86.0589 12.22 85.9269 11.664 85.9269 11.024C85.9269 10.368 86.0589 9.804 86.3229 9.332C86.5869 8.86 86.9349 8.496 87.3669 8.24C87.7989 7.984 88.2669 7.856 88.7709 7.856C89.2829 7.856 89.7429 7.964 90.1509 8.18C90.5669 8.388 90.8949 8.716 91.1349 9.164C91.3829 9.604 91.5069 10.172 91.5069 10.868V11.24H86.9229C86.9549 11.816 87.1229 12.296 87.4269 12.68C87.7309 13.056 88.1709 13.244 88.7469 13.244C89.1069 13.244 89.4349 13.16 89.7309 12.992C90.0269 12.824 90.2589 12.588 90.4269 12.284L91.3149 12.644C90.8189 13.652 89.9709 14.156 88.7709 14.156ZM88.7469 8.768C88.2589 8.768 87.8669 8.92 87.5709 9.224C87.2829 9.52 87.0909 9.896 86.9949 10.352H90.4989C90.4989 10.128 90.4309 9.896 90.2949 9.656C90.1669 9.408 89.9749 9.2 89.7189 9.032C89.4629 8.856 89.1389 8.768 88.7469 8.768ZM92.5909 14V5.456H93.5989V14H92.5909Z"/>
</mask>
<path d="M26.164 14V5.588H29.152C29.976 5.588 30.608 5.768 31.048 6.128C31.488 6.48 31.708 7.004 31.708 7.7C31.708 8.188 31.588 8.568 31.348 8.84C31.116 9.112 30.824 9.304 30.472 9.416C31.04 9.544 31.464 9.776 31.744 10.112C32.032 10.44 32.176 10.912 32.176 11.528C32.176 12.288 31.928 12.892 31.432 13.34C30.936 13.78 30.208 14 29.248 14H26.164ZM27.22 9.02H29.104C29.544 9.02 29.904 8.908 30.184 8.684C30.472 8.452 30.616 8.128 30.616 7.712C30.616 7.312 30.472 7.02 30.184 6.836C29.896 6.644 29.532 6.548 29.092 6.548H27.22V9.02ZM27.22 13.04H29.248C29.8 13.04 30.24 12.908 30.568 12.644C30.904 12.38 31.072 12.008 31.072 11.528C31.072 11.032 30.924 10.652 30.628 10.388C30.34 10.116 29.92 9.98 29.368 9.98H27.22V13.04ZM35.2761 14.144C34.6921 14.144 34.2081 13.956 33.8241 13.58C33.4481 13.204 33.2601 12.656 33.2601 11.936V8H34.2681V11.792C34.2681 12.312 34.3921 12.684 34.6401 12.908C34.8881 13.124 35.2121 13.232 35.6121 13.232C36.1641 13.232 36.5801 13.044 36.8601 12.668C37.1401 12.292 37.2801 11.816 37.2801 11.24V8H38.2881V14H37.2801V12.872C37.2481 13.008 37.1561 13.18 37.0041 13.388C36.8601 13.588 36.6481 13.764 36.3681 13.916C36.0881 14.068 35.7241 14.144 35.2761 14.144ZM40.3603 6.86C40.1683 6.86 40.0003 6.792 39.8563 6.656C39.7203 6.512 39.6523 6.348 39.6523 6.164C39.6523 5.972 39.7203 5.808 39.8563 5.672C40.0003 5.528 40.1683 5.456 40.3603 5.456C40.5443 5.456 40.7043 5.528 40.8403 5.672C40.9763 5.808 41.0443 5.972 41.0443 6.164C41.0443 6.348 40.9763 6.512 40.8403 6.656C40.7043 6.792 40.5443 6.86 40.3603 6.86ZM39.8443 14V8H40.8523V14H39.8443ZM42.3855 14V5.456H43.3935V14H42.3855ZM47.1592 14.144C46.6392 14.144 46.1712 14.024 45.7552 13.784C45.3472 13.536 45.0272 13.18 44.7952 12.716C44.5632 12.244 44.4472 11.672 44.4472 11C44.4472 10.344 44.5592 9.784 44.7832 9.32C45.0072 8.848 45.3192 8.488 45.7192 8.24C46.1192 7.984 46.5792 7.856 47.0992 7.856C47.3792 7.856 47.6512 7.908 47.9152 8.012C48.1872 8.108 48.4232 8.252 48.6232 8.444C48.8312 8.636 48.9752 8.872 49.0552 9.152V5.456H50.0632V12.488C50.0632 12.728 50.1152 12.9 50.2192 13.004C50.3232 13.1 50.5232 13.116 50.8192 13.052V13.868C50.7392 13.916 50.6512 13.952 50.5552 13.976C50.4672 14 50.3472 14.012 50.1952 14.012C49.8832 14.012 49.6232 13.92 49.4152 13.736C49.2072 13.552 49.1032 13.248 49.1032 12.824C49.0152 13.04 48.8872 13.252 48.7192 13.46C48.5512 13.66 48.3352 13.824 48.0712 13.952C47.8152 14.08 47.5112 14.144 47.1592 14.144ZM47.2072 13.244C47.7992 13.244 48.2512 13.036 48.5632 12.62C48.8832 12.196 49.0432 11.656 49.0432 11C49.0432 10.592 48.9712 10.22 48.8272 9.884C48.6912 9.54 48.4872 9.268 48.2152 9.068C47.9512 8.868 47.6272 8.768 47.2432 8.768C46.8432 8.768 46.5072 8.872 46.2352 9.08C45.9712 9.28 45.7752 9.552 45.6472 9.896C45.5192 10.232 45.4552 10.608 45.4552 11.024C45.4552 11.44 45.5192 11.816 45.6472 12.152C45.7752 12.488 45.9672 12.756 46.2232 12.956C46.4872 13.148 46.8152 13.244 47.2072 13.244ZM52.2947 6.86C52.1027 6.86 51.9347 6.792 51.7907 6.656C51.6547 6.512 51.5867 6.348 51.5867 6.164C51.5867 5.972 51.6547 5.808 51.7907 5.672C51.9347 5.528 52.1027 5.456 52.2947 5.456C52.4787 5.456 52.6387 5.528 52.7747 5.672C52.9107 5.808 52.9787 5.972 52.9787 6.164C52.9787 6.348 52.9107 6.512 52.7747 6.656C52.6387 6.792 52.4787 6.86 52.2947 6.86ZM51.7787 14V8H52.7867V14H51.7787ZM54.3438 14V8H55.3518V9.128C55.3918 8.984 55.4838 8.812 55.6278 8.612C55.7718 8.412 55.9838 8.236 56.2638 8.084C56.5438 7.932 56.9078 7.856 57.3558 7.856C57.9398 7.856 58.4198 8.044 58.7958 8.42C59.1798 8.796 59.3718 9.344 59.3718 10.064V14H58.3638V10.208C58.3638 9.688 58.2398 9.32 57.9918 9.104C57.7438 8.88 57.4198 8.768 57.0198 8.768C56.4678 8.768 56.0518 8.956 55.7718 9.332C55.4918 9.708 55.3518 10.184 55.3518 10.76V14H54.3438ZM63.16 16.76C62.64 16.752 62.152 16.636 61.696 16.412C61.24 16.188 60.896 15.812 60.664 15.284L61.456 14.792C61.608 15.144 61.832 15.412 62.128 15.596C62.424 15.78 62.772 15.872 63.172 15.872C63.836 15.872 64.316 15.696 64.612 15.344C64.908 14.992 65.056 14.476 65.056 13.796V12.848C64.976 13.12 64.832 13.356 64.624 13.556C64.424 13.748 64.188 13.896 63.916 14C63.652 14.096 63.38 14.144 63.1 14.144C62.58 14.144 62.12 14.02 61.72 13.772C61.32 13.516 61.008 13.156 60.784 12.692C60.56 12.22 60.448 11.656 60.448 11C60.448 10.32 60.564 9.748 60.796 9.284C61.028 8.82 61.348 8.468 61.756 8.228C62.172 7.98 62.64 7.856 63.16 7.856C63.512 7.856 63.816 7.92 64.072 8.048C64.328 8.176 64.54 8.34 64.708 8.54C64.884 8.74 65.012 8.952 65.092 9.176V8H66.052V13.796C66.052 14.548 65.92 15.14 65.656 15.572C65.4 16.012 65.052 16.32 64.612 16.496C64.172 16.68 63.688 16.768 63.16 16.76ZM63.244 13.232C63.628 13.232 63.952 13.132 64.216 12.932C64.488 12.724 64.692 12.452 64.828 12.116C64.972 11.78 65.044 11.408 65.044 11C65.044 10.336 64.884 9.796 64.564 9.38C64.252 8.964 63.8 8.756 63.208 8.756C62.816 8.756 62.488 8.856 62.224 9.056C61.968 9.248 61.776 9.512 61.648 9.848C61.52 10.184 61.456 10.56 61.456 10.976C61.456 11.392 61.52 11.772 61.648 12.116C61.776 12.452 61.972 12.724 62.236 12.932C62.508 13.132 62.844 13.232 63.244 13.232Z" fill="black"/>
<path d="M67.6291 14V5.6H68.6851V13.04H72.5611V14H67.6291ZM75.482 14.144C74.962 14.144 74.502 14.02 74.102 13.772C73.702 13.516 73.39 13.156 73.166 12.692C72.942 12.22 72.83 11.656 72.83 11C72.83 10.32 72.946 9.748 73.178 9.284C73.41 8.82 73.73 8.468 74.138 8.228C74.554 7.98 75.022 7.856 75.542 7.856C75.894 7.856 76.198 7.92 76.454 8.048C76.71 8.176 76.922 8.34 77.09 8.54C77.266 8.74 77.394 8.952 77.474 9.176V8H78.434V14H77.438V12.848C77.358 13.12 77.214 13.356 77.006 13.556C76.806 13.748 76.57 13.896 76.298 14C76.034 14.096 75.762 14.144 75.482 14.144ZM75.626 13.232C76.01 13.232 76.334 13.132 76.598 12.932C76.87 12.724 77.074 12.452 77.21 12.116C77.354 11.78 77.426 11.408 77.426 11C77.426 10.336 77.266 9.796 76.946 9.38C76.634 8.964 76.182 8.756 75.59 8.756C75.198 8.756 74.87 8.856 74.606 9.056C74.35 9.248 74.158 9.512 74.03 9.848C73.902 10.184 73.838 10.56 73.838 10.976C73.838 11.392 73.902 11.772 74.03 12.116C74.158 12.452 74.354 12.724 74.618 12.932C74.89 13.132 75.226 13.232 75.626 13.232ZM82.5158 14.144C82.1638 14.144 81.8598 14.08 81.6038 13.952C81.3478 13.824 81.1358 13.66 80.9678 13.46C80.7998 13.252 80.6718 13.04 80.5838 12.824V14H79.6118V5.36H80.6198V9.152C80.7078 8.872 80.8518 8.636 81.0518 8.444C81.2518 8.252 81.4878 8.108 81.7598 8.012C82.0318 7.908 82.3038 7.856 82.5758 7.856C83.1038 7.856 83.5638 7.984 83.9558 8.24C84.3558 8.488 84.6678 8.848 84.8918 9.32C85.1158 9.784 85.2278 10.344 85.2278 11C85.2278 11.672 85.1118 12.244 84.8798 12.716C84.6478 13.18 84.3278 13.536 83.9198 13.784C83.5118 14.024 83.0438 14.144 82.5158 14.144ZM82.4678 13.244C82.8598 13.244 83.1838 13.148 83.4398 12.956C83.7038 12.756 83.8998 12.488 84.0278 12.152C84.1558 11.816 84.2198 11.44 84.2198 11.024C84.2198 10.608 84.1558 10.228 84.0278 9.884C83.8998 9.54 83.7038 9.268 83.4398 9.068C83.1758 8.86 82.8398 8.76 82.4318 8.768C82.0478 8.768 81.7198 8.872 81.4478 9.08C81.1838 9.28 80.9798 9.548 80.8358 9.884C80.6998 10.22 80.6318 10.592 80.6318 11C80.6318 11.656 80.7878 12.196 81.0998 12.62C81.4198 13.036 81.8758 13.244 82.4678 13.244ZM88.7709 14.156C88.2669 14.156 87.7989 14.032 87.3669 13.784C86.9349 13.528 86.5869 13.164 86.3229 12.692C86.0589 12.22 85.9269 11.664 85.9269 11.024C85.9269 10.368 86.0589 9.804 86.3229 9.332C86.5869 8.86 86.9349 8.496 87.3669 8.24C87.7989 7.984 88.2669 7.856 88.7709 7.856C89.2829 7.856 89.7429 7.964 90.1509 8.18C90.5669 8.388 90.8949 8.716 91.1349 9.164C91.3829 9.604 91.5069 10.172 91.5069 10.868V11.24H86.9229C86.9549 11.816 87.1229 12.296 87.4269 12.68C87.7309 13.056 88.1709 13.244 88.7469 13.244C89.1069 13.244 89.4349 13.16 89.7309 12.992C90.0269 12.824 90.2589 12.588 90.4269 12.284L91.3149 12.644C90.8189 13.652 89.9709 14.156 88.7709 14.156ZM88.7469 8.768C88.2589 8.768 87.8669 8.92 87.5709 9.224C87.2829 9.52 87.0909 9.896 86.9949 10.352H90.4989C90.4989 10.128 90.4309 9.896 90.2949 9.656C90.1669 9.408 89.9749 9.2 89.7189 9.032C89.4629 8.856 89.1389 8.768 88.7469 8.768ZM92.5909 14V5.456H93.5989V14H92.5909Z" fill="#767676"/>
<path d="M26.164 14H26.064V14.1H26.164V14ZM26.164 5.588V5.488H26.064V5.588H26.164ZM31.048 6.128L30.9847 6.2054L30.9855 6.20609L31.048 6.128ZM31.348 8.84L31.273 8.77383L31.2719 8.7751L31.348 8.84ZM30.472 9.416L30.4417 9.32071L30.0903 9.4325L30.45 9.51355L30.472 9.416ZM31.744 10.112L31.6672 10.176L31.6689 10.178L31.744 10.112ZM31.432 13.34L31.4984 13.4148L31.499 13.4142L31.432 13.34ZM27.22 9.02H27.12V9.12H27.22V9.02ZM30.184 8.684L30.2465 8.76209L30.2467 8.76188L30.184 8.684ZM30.184 6.836L30.1285 6.91922L30.1302 6.92027L30.184 6.836ZM27.22 6.548V6.448H27.12V6.548H27.22ZM27.22 13.04H27.12V13.14H27.22V13.04ZM30.568 12.644L30.5062 12.5654L30.5053 12.5661L30.568 12.644ZM30.628 10.388L30.5593 10.4607L30.5614 10.4626L30.628 10.388ZM27.22 9.98V9.88H27.12V9.98H27.22ZM26.164 14H26.264V5.588H26.164H26.064V14H26.164ZM26.164 5.588V5.688H29.152V5.588V5.488H26.164V5.588ZM29.152 5.588V5.688C29.963 5.688 30.569 5.86534 30.9847 6.2054L31.048 6.128L31.1113 6.0506C30.647 5.67066 29.989 5.488 29.152 5.488V5.588ZM31.048 6.128L30.9855 6.20609C31.3963 6.53469 31.608 7.02651 31.608 7.7H31.708H31.808C31.808 6.98149 31.5797 6.42531 31.1105 6.04991L31.048 6.128ZM31.708 7.7H31.608C31.608 8.17214 31.492 8.52561 31.273 8.77384L31.348 8.84L31.423 8.90616C31.684 8.61039 31.808 8.20386 31.808 7.7H31.708ZM31.348 8.84L31.2719 8.7751C31.0525 9.03241 30.7765 9.21417 30.4417 9.32071L30.472 9.416L30.5023 9.51129C30.8715 9.39383 31.1795 9.19159 31.4241 8.90489L31.348 8.84ZM30.472 9.416L30.45 9.51355C31.0036 9.63831 31.4053 9.86177 31.6672 10.176L31.744 10.112L31.8208 10.048C31.5227 9.69023 31.0764 9.44969 30.494 9.31845L30.472 9.416ZM31.744 10.112L31.6689 10.178C31.9353 10.4815 32.076 10.9264 32.076 11.528H32.176H32.276C32.276 10.8976 32.1287 10.3985 31.8191 10.046L31.744 10.112ZM32.176 11.528H32.076C32.076 12.264 31.837 12.8394 31.365 13.2658L31.432 13.34L31.499 13.4142C32.019 12.9446 32.276 12.312 32.276 11.528H32.176ZM31.432 13.34L31.3656 13.2652C30.8947 13.683 30.1943 13.9 29.248 13.9V14V14.1C30.2217 14.1 30.9773 13.877 31.4984 13.4148L31.432 13.34ZM29.248 14V13.9H26.164V14V14.1H29.248V14ZM27.22 9.02V9.12H29.104V9.02V8.92H27.22V9.02ZM29.104 9.02V9.12C29.5614 9.12 29.945 9.00327 30.2465 8.76209L30.184 8.684L30.1215 8.60591C29.863 8.81273 29.5266 8.92 29.104 8.92V9.02ZM30.184 8.684L30.2467 8.76188C30.5614 8.50836 30.716 8.15398 30.716 7.712H30.616H30.516C30.516 8.10202 30.3826 8.39564 30.1213 8.60612L30.184 8.684ZM30.616 7.712H30.716C30.716 7.28466 30.5599 6.95748 30.2378 6.75173L30.184 6.836L30.1302 6.92027C30.3841 7.08252 30.516 7.33934 30.516 7.712H30.616ZM30.184 6.836L30.2395 6.75279C29.9311 6.54722 29.5464 6.448 29.092 6.448V6.548V6.648C29.5176 6.648 29.8609 6.74078 30.1285 6.9192L30.184 6.836ZM29.092 6.548V6.448H27.22V6.548V6.648H29.092V6.548ZM27.22 6.548H27.12V9.02H27.22H27.32V6.548H27.22ZM27.22 13.04V13.14H29.248V13.04V12.94H27.22V13.04ZM29.248 13.04V13.14C29.8157 13.14 30.2801 13.0041 30.6307 12.7219L30.568 12.644L30.5053 12.5661C30.1999 12.8119 29.7843 12.94 29.248 12.94V13.04ZM30.568 12.644L30.6298 12.7226C30.9931 12.4372 31.172 12.0344 31.172 11.528H31.072H30.972C30.972 11.9816 30.8149 12.3228 30.5062 12.5654L30.568 12.644ZM31.072 11.528H31.172C31.172 11.0112 31.017 10.6009 30.6946 10.3134L30.628 10.388L30.5614 10.4626C30.831 10.7031 30.972 11.0528 30.972 11.528H31.072ZM30.628 10.388L30.6967 10.3153C30.3839 10.0199 29.9354 9.88 29.368 9.88V9.98V10.08C29.9046 10.08 30.2961 10.2121 30.5593 10.4607L30.628 10.388ZM29.368 9.98V9.88H27.22V9.98V10.08H29.368V9.98ZM27.22 9.98H27.12V13.04H27.22H27.32V9.98H27.22ZM33.8241 13.58L33.7534 13.6507L33.7542 13.6515L33.8241 13.58ZM33.2601 8V7.9H33.1601V8H33.2601ZM34.2681 8H34.3681V7.9H34.2681V8ZM34.6401 12.908L34.5731 12.9822L34.5744 12.9834L34.6401 12.908ZM36.8601 12.668L36.7799 12.6083L36.8601 12.668ZM37.2801 8V7.9H37.1801V8H37.2801ZM38.2881 8H38.3881V7.9H38.2881V8ZM38.2881 14V14.1H38.3881V14H38.2881ZM37.2801 14H37.1801V14.1H37.2801V14ZM37.2801 12.872H37.3801L37.1828 12.8491L37.2801 12.872ZM37.0041 13.388L36.9234 13.329L36.923 13.3296L37.0041 13.388ZM36.3681 13.916L36.4158 14.0039L36.3681 13.916ZM35.2761 14.144V14.044C34.7158 14.044 34.2577 13.8646 33.8941 13.5085L33.8241 13.58L33.7542 13.6515C34.1586 14.0474 34.6685 14.244 35.2761 14.244V14.144ZM33.8241 13.58L33.8948 13.5093C33.5435 13.1579 33.3601 12.6391 33.3601 11.936H33.2601H33.1601C33.1601 12.6729 33.3528 13.2501 33.7534 13.6507L33.8241 13.58ZM33.2601 11.936H33.3601V8H33.2601H33.1601V11.936H33.2601ZM33.2601 8V8.1H34.2681V8V7.9H33.2601V8ZM34.2681 8H34.1681V11.792H34.2681H34.3681V8H34.2681ZM34.2681 11.792H34.1681C34.1681 12.3247 34.2948 12.7309 34.5731 12.9822L34.6401 12.908L34.7072 12.8338C34.4894 12.6371 34.3681 12.2993 34.3681 11.792H34.2681ZM34.6401 12.908L34.5744 12.9834C34.8444 13.2185 35.1934 13.332 35.6121 13.332V13.232V13.132C35.2308 13.132 34.9319 13.0295 34.7058 12.8326L34.6401 12.908ZM35.6121 13.232V13.332C36.1894 13.332 36.638 13.1338 36.9403 12.7277L36.8601 12.668L36.7799 12.6083C36.5223 12.9542 36.1389 13.132 35.6121 13.132V13.232ZM36.8601 12.668L36.9403 12.7277C37.2359 12.3308 37.3801 11.8325 37.3801 11.24H37.2801H37.1801C37.1801 11.7995 37.0444 12.2532 36.7799 12.6083L36.8601 12.668ZM37.2801 11.24H37.3801V8H37.2801H37.1801V11.24H37.2801ZM37.2801 8V8.1H38.2881V8V7.9H37.2801V8ZM38.2881 8H38.1881V14H38.2881H38.3881V8H38.2881ZM38.2881 14V13.9H37.2801V14V14.1H38.2881V14ZM37.2801 14H37.3801V12.872H37.2801H37.1801V14H37.2801ZM37.2801 12.872L37.1828 12.8491C37.1554 12.9653 37.073 13.1242 36.9234 13.329L37.0041 13.388L37.0849 13.447C37.2392 13.2358 37.3408 13.0507 37.3775 12.8949L37.2801 12.872ZM37.0041 13.388L36.923 13.3296C36.7899 13.5143 36.5909 13.6813 36.3204 13.8281L36.3681 13.916L36.4158 14.0039C36.7053 13.8467 36.9303 13.6617 37.0853 13.4464L37.0041 13.388ZM36.3681 13.916L36.3204 13.8281C36.0598 13.9696 35.7138 14.044 35.2761 14.044V14.144V14.244C35.7344 14.244 36.1164 14.1664 36.4158 14.0039L36.3681 13.916ZM39.8563 6.656L39.7835 6.72477L39.7876 6.7287L39.8563 6.656ZM39.8563 5.672L39.927 5.74271L39.8563 5.672ZM40.8403 5.672L40.7676 5.74069L40.7696 5.74271L40.8403 5.672ZM40.8403 6.656L40.911 6.72674L40.913 6.72466L40.8403 6.656ZM39.8443 14H39.7443V14.1H39.8443V14ZM39.8443 8V7.9H39.7443V8H39.8443ZM40.8523 8H40.9523V7.9H40.8523V8ZM40.8523 14V14.1H40.9523V14H40.8523ZM40.3603 6.86V6.76C40.1947 6.76 40.051 6.70238 39.9249 6.5833L39.8563 6.656L39.7876 6.7287C39.9495 6.88162 40.1419 6.96 40.3603 6.96V6.86ZM39.8563 6.656L39.929 6.58734C39.809 6.46034 39.7523 6.3204 39.7523 6.164H39.6523H39.5523C39.5523 6.37559 39.6315 6.56365 39.7836 6.72466L39.8563 6.656ZM39.6523 6.164H39.7523C39.7523 5.99857 39.8097 5.85999 39.927 5.74271L39.8563 5.672L39.7856 5.60129C39.6309 5.75601 39.5523 5.94543 39.5523 6.164H39.6523ZM39.8563 5.672L39.927 5.74271C40.0535 5.6162 40.1965 5.556 40.3603 5.556V5.456V5.356C40.14 5.356 39.9471 5.4398 39.7856 5.60129L39.8563 5.672ZM40.3603 5.456V5.556C40.5145 5.556 40.6489 5.61496 40.7676 5.74066L40.8403 5.672L40.913 5.60334C40.7597 5.44104 40.5741 5.356 40.3603 5.356V5.456ZM40.8403 5.672L40.7696 5.74271C40.8869 5.85999 40.9443 5.99857 40.9443 6.164H41.0443H41.1443C41.1443 5.94543 41.0657 5.75601 40.911 5.60129L40.8403 5.672ZM41.0443 6.164H40.9443C40.9443 6.3204 40.8875 6.46034 40.7676 6.58734L40.8403 6.656L40.913 6.72466C41.065 6.56365 41.1443 6.37559 41.1443 6.164H41.0443ZM40.8403 6.656L40.7696 6.58529C40.6514 6.70348 40.5165 6.76 40.3603 6.76V6.86V6.96C40.5721 6.96 40.7572 6.88052 40.911 6.72671L40.8403 6.656ZM39.8443 14H39.9443V8H39.8443H39.7443V14H39.8443ZM39.8443 8V8.1H40.8523V8V7.9H39.8443V8ZM40.8523 8H40.7523V14H40.8523H40.9523V8H40.8523ZM40.8523 14V13.9H39.8443V14V14.1H40.8523V14ZM42.3855 14H42.2855V14.1H42.3855V14ZM42.3855 5.456V5.356H42.2855V5.456H42.3855ZM43.3935 5.456H43.4935V5.356H43.3935V5.456ZM43.3935 14V14.1H43.4935V14H43.3935ZM42.3855 14H42.4855V5.456H42.3855H42.2855V14H42.3855ZM42.3855 5.456V5.556H43.3935V5.456V5.356H42.3855V5.456ZM43.3935 5.456H43.2935V14H43.3935H43.4935V5.456H43.3935ZM43.3935 14V13.9H42.3855V14V14.1H43.3935V14ZM45.7552 13.784L45.7033 13.8695L45.7052 13.8706L45.7552 13.784ZM44.7952 12.716L44.7055 12.7601L44.7058 12.7607L44.7952 12.716ZM44.7832 9.32L44.8733 9.36348L44.8736 9.36287L44.7832 9.32ZM45.7192 8.24L45.7719 8.325L45.7731 8.32423L45.7192 8.24ZM47.9152 8.012L47.8785 8.1051L47.8819 8.1063L47.9152 8.012ZM48.6232 8.444L48.554 8.51615L48.5554 8.51748L48.6232 8.444ZM49.0552 9.152L48.9591 9.17947L49.1552 9.152H49.0552ZM49.0552 5.456V5.356H48.9552V5.456H49.0552ZM50.0632 5.456H50.1632V5.356H50.0632V5.456ZM50.2192 13.004L50.1485 13.0748L50.1514 13.0775L50.2192 13.004ZM50.8192 13.052H50.9192V12.9281L50.7981 12.9543L50.8192 13.052ZM50.8192 13.868L50.8707 13.9537L50.9192 13.9246V13.868H50.8192ZM50.5552 13.976L50.531 13.879L50.5289 13.8795L50.5552 13.976ZM49.4152 13.736L49.4815 13.6611L49.4152 13.736ZM49.1032 12.824H49.2032L49.0106 12.7863L49.1032 12.824ZM48.7192 13.46L48.7958 13.5243L48.797 13.5228L48.7192 13.46ZM48.0712 13.952L48.0276 13.862L48.0265 13.8626L48.0712 13.952ZM48.5632 12.62L48.4834 12.5598L48.4832 12.56L48.5632 12.62ZM48.8272 9.884L48.7342 9.92078L48.7353 9.92339L48.8272 9.884ZM48.2152 9.068L48.1548 9.14772L48.156 9.14856L48.2152 9.068ZM46.2352 9.08L46.2956 9.15971L46.296 9.15944L46.2352 9.08ZM45.6472 9.896L45.7407 9.9316L45.7409 9.93087L45.6472 9.896ZM45.6472 12.152L45.7407 12.1164L45.6472 12.152ZM46.2232 12.956L46.1616 13.0348L46.1644 13.0369L46.2232 12.956ZM47.1592 14.144V14.044C46.6553 14.044 46.2048 13.9279 45.8052 13.6974L45.7552 13.784L45.7052 13.8706C46.1377 14.1201 46.6232 14.244 47.1592 14.244V14.144ZM45.7552 13.784L45.8072 13.6985C45.4166 13.4612 45.109 13.12 44.8847 12.6713L44.7952 12.716L44.7058 12.7607C44.9454 13.24 45.2778 13.6108 45.7033 13.8695L45.7552 13.784ZM44.7952 12.716L44.885 12.6719C44.6613 12.2169 44.5472 11.6608 44.5472 11H44.4472H44.3472C44.3472 11.6832 44.4651 12.2711 44.7055 12.7601L44.7952 12.716ZM44.4472 11H44.5472C44.5472 10.3551 44.6574 9.81073 44.8733 9.36347L44.7832 9.32L44.6932 9.27653C44.4611 9.75726 44.3472 10.3329 44.3472 11H44.4472ZM44.7832 9.32L44.8736 9.36287C45.0903 8.90626 45.39 8.56177 45.7719 8.32499L45.7192 8.24L45.6665 8.15501C45.2484 8.41423 44.9242 8.78974 44.6929 9.27713L44.7832 9.32ZM45.7192 8.24L45.7731 8.32423C46.1555 8.0795 46.5964 7.956 47.0992 7.956V7.856V7.756C46.562 7.756 46.0829 7.8885 45.6653 8.15577L45.7192 8.24ZM47.0992 7.856V7.956C47.3665 7.956 47.6261 8.00558 47.8786 8.10504L47.9152 8.012L47.9519 7.91896C47.6764 7.81042 47.3919 7.756 47.0992 7.756V7.856ZM47.9152 8.012L47.8819 8.1063C48.1411 8.19775 48.3647 8.3344 48.554 8.51614L48.6232 8.444L48.6925 8.37186C48.4818 8.1696 48.2334 8.01825 47.9485 7.9177L47.9152 8.012ZM48.6232 8.444L48.5554 8.51748C48.7495 8.69666 48.884 8.91658 48.9591 9.17947L49.0552 9.152L49.1514 9.12453C49.0665 8.82742 48.9129 8.57534 48.691 8.37052L48.6232 8.444ZM49.0552 9.152H49.1552V5.456H49.0552H48.9552V9.152H49.0552ZM49.0552 5.456V5.556H50.0632V5.456V5.356H49.0552V5.456ZM50.0632 5.456H49.9632V12.488H50.0632H50.1632V5.456H50.0632ZM50.0632 12.488H49.9632C49.9632 12.7385 50.0169 12.9431 50.1485 13.0747L50.2192 13.004L50.2899 12.9333C50.2136 12.8569 50.1632 12.7175 50.1632 12.488H50.0632ZM50.2192 13.004L50.1514 13.0775C50.2255 13.1459 50.326 13.1786 50.4392 13.1877C50.5526 13.1967 50.6871 13.1829 50.8404 13.1497L50.8192 13.052L50.7981 12.9543C50.6553 12.9851 50.5418 12.9952 50.4552 12.9883C50.3684 12.9814 50.3169 12.9581 50.287 12.9305L50.2192 13.004ZM50.8192 13.052H50.7192V13.868H50.8192H50.9192V13.052H50.8192ZM50.8192 13.868L50.7678 13.7823C50.6967 13.8249 50.618 13.8572 50.531 13.879L50.5552 13.976L50.5795 14.073C50.6845 14.0468 50.7817 14.0071 50.8707 13.9537L50.8192 13.868ZM50.5552 13.976L50.5289 13.8795C50.4533 13.9001 50.3434 13.912 50.1952 13.912V14.012V14.112C50.351 14.112 50.4812 14.0999 50.5815 14.0725L50.5552 13.976ZM50.1952 14.012V13.912C49.9044 13.912 49.6689 13.8269 49.4815 13.6611L49.4152 13.736L49.349 13.8109C49.5775 14.0131 49.862 14.112 50.1952 14.112V14.012ZM49.4152 13.736L49.4815 13.6611C49.3041 13.5042 49.2032 13.2345 49.2032 12.824H49.1032H49.0032C49.0032 13.2615 49.1103 13.5998 49.349 13.8109L49.4152 13.736ZM49.1032 12.824L49.0106 12.7863C48.9268 12.992 48.8042 13.1957 48.6414 13.3972L48.7192 13.46L48.797 13.5228C48.9703 13.3083 49.1036 13.088 49.1958 12.8617L49.1032 12.824ZM48.7192 13.46L48.6426 13.3957C48.4848 13.5836 48.2805 13.7394 48.0276 13.862L48.0712 13.952L48.1148 14.042C48.3899 13.9086 48.6177 13.7364 48.7958 13.5243L48.7192 13.46ZM48.0712 13.952L48.0265 13.8626C47.7872 13.9822 47.4992 14.044 47.1592 14.044V14.144V14.244C47.5232 14.244 47.8432 14.1778 48.1159 14.0414L48.0712 13.952ZM47.2072 13.244V13.344C47.8257 13.344 48.3095 13.1249 48.6432 12.68L48.5632 12.62L48.4832 12.56C48.1929 12.9471 47.7727 13.144 47.2072 13.144V13.244ZM48.5632 12.62L48.643 12.6802C48.979 12.2351 49.1432 11.6725 49.1432 11H49.0432H48.9432C48.9432 11.6395 48.7875 12.1569 48.4834 12.5598L48.5632 12.62ZM49.0432 11H49.1432C49.1432 10.58 49.0691 10.1944 48.9191 9.84461L48.8272 9.884L48.7353 9.92339C48.8734 10.2456 48.9432 10.604 48.9432 11H49.0432ZM48.8272 9.884L48.9202 9.84723C48.778 9.48748 48.563 9.19963 48.2745 8.98743L48.2152 9.068L48.156 9.14856C48.4114 9.33637 48.6045 9.59252 48.7342 9.92077L48.8272 9.884ZM48.2152 9.068L48.2756 8.98829C47.9915 8.7731 47.6454 8.668 47.2432 8.668V8.768V8.868C47.609 8.868 47.9109 8.9629 48.1548 9.14771L48.2152 9.068ZM47.2432 8.768V8.668C46.8251 8.668 46.4667 8.77707 46.1745 9.00056L46.2352 9.08L46.296 9.15944C46.5477 8.96693 46.8613 8.868 47.2432 8.868V8.768ZM46.2352 9.08L46.1748 9.00029C45.8941 9.21299 45.6874 9.50131 45.5535 9.86113L45.6472 9.896L45.7409 9.93087C45.8631 9.60269 46.0484 9.34701 46.2956 9.15971L46.2352 9.08ZM45.6472 9.896L45.5538 9.8604C45.4208 10.2094 45.3552 10.5977 45.3552 11.024H45.4552H45.5552C45.5552 10.6183 45.6176 10.2546 45.7407 9.9316L45.6472 9.896ZM45.4552 11.024H45.3552C45.3552 11.4503 45.4208 11.8386 45.5538 12.1876L45.6472 12.152L45.7407 12.1164C45.6176 11.7934 45.5552 11.4297 45.5552 11.024H45.4552ZM45.6472 12.152L45.5538 12.1876C45.6875 12.5388 45.8898 12.8224 46.1617 13.0348L46.2232 12.956L46.2848 12.8772C46.0447 12.6896 45.8629 12.4372 45.7407 12.1164L45.6472 12.152ZM46.2232 12.956L46.1644 13.0369C46.4487 13.2436 46.7984 13.344 47.2072 13.344V13.244V13.144C46.832 13.144 46.5257 13.0524 46.282 12.8751L46.2232 12.956ZM51.7907 6.656L51.7178 6.72477L51.722 6.7287L51.7907 6.656ZM51.7907 5.672L51.8614 5.74271L51.7907 5.672ZM52.7747 5.672L52.7019 5.74069L52.7039 5.74271L52.7747 5.672ZM52.7747 6.656L52.8454 6.72674L52.8474 6.72466L52.7747 6.656ZM51.7787 14H51.6787V14.1H51.7787V14ZM51.7787 8V7.9H51.6787V8H51.7787ZM52.7867 8H52.8867V7.9H52.7867V8ZM52.7867 14V14.1H52.8867V14H52.7867ZM52.2947 6.86V6.76C52.1291 6.76 51.9854 6.70238 51.8593 6.5833L51.7907 6.656L51.722 6.7287C51.8839 6.88162 52.0762 6.96 52.2947 6.96V6.86ZM51.7907 6.656L51.8634 6.58734C51.7434 6.46034 51.6867 6.3204 51.6867 6.164H51.5867H51.4867C51.4867 6.37559 51.5659 6.56365 51.718 6.72466L51.7907 6.656ZM51.5867 6.164H51.6867C51.6867 5.99857 51.7441 5.85999 51.8614 5.74271L51.7907 5.672L51.7199 5.60129C51.5652 5.75601 51.4867 5.94543 51.4867 6.164H51.5867ZM51.7907 5.672L51.8614 5.74271C51.9879 5.6162 52.1309 5.556 52.2947 5.556V5.456V5.356C52.0744 5.356 51.8814 5.4398 51.7199 5.60129L51.7907 5.672ZM52.2947 5.456V5.556C52.4489 5.556 52.5832 5.61496 52.702 5.74066L52.7747 5.672L52.8474 5.60334C52.6941 5.44104 52.5084 5.356 52.2947 5.356V5.456ZM52.7747 5.672L52.7039 5.74271C52.8212 5.85999 52.8787 5.99857 52.8787 6.164H52.9787H53.0787C53.0787 5.94543 53.0001 5.75601 52.8454 5.60129L52.7747 5.672ZM52.9787 6.164H52.8787C52.8787 6.3204 52.8219 6.46034 52.702 6.58734L52.7747 6.656L52.8474 6.72466C52.9994 6.56365 53.0787 6.37559 53.0787 6.164H52.9787ZM52.7747 6.656L52.7039 6.58529C52.5858 6.70348 52.4508 6.76 52.2947 6.76V6.86V6.96C52.5065 6.96 52.6916 6.88052 52.8454 6.72671L52.7747 6.656ZM51.7787 14H51.8787V8H51.7787H51.6787V14H51.7787ZM51.7787 8V8.1H52.7867V8V7.9H51.7787V8ZM52.7867 8H52.6867V14H52.7867H52.8867V8H52.7867ZM52.7867 14V13.9H51.7787V14V14.1H52.7867V14ZM54.3438 14H54.2438V14.1H54.3438V14ZM54.3438 8V7.9H54.2438V8H54.3438ZM55.3518 8H55.4518V7.9H55.3518V8ZM55.3518 9.128H55.2518L55.4482 9.15476L55.3518 9.128ZM55.6278 8.612L55.709 8.67043L55.6278 8.612ZM58.7958 8.42L58.7251 8.49071L58.7259 8.49145L58.7958 8.42ZM59.3718 14V14.1H59.4718V14H59.3718ZM58.3638 14H58.2638V14.1H58.3638V14ZM57.9918 9.104L57.9248 9.17822L57.9262 9.17941L57.9918 9.104ZM55.7718 9.332L55.6916 9.27227L55.7718 9.332ZM55.3518 14V14.1H55.4518V14H55.3518ZM54.3438 14H54.4438V8H54.3438H54.2438V14H54.3438ZM54.3438 8V8.1H55.3518V8V7.9H54.3438V8ZM55.3518 8H55.2518V9.128H55.3518H55.4518V8H55.3518ZM55.3518 9.128L55.4482 9.15476C55.4836 9.02713 55.568 8.86624 55.709 8.67043L55.6278 8.612L55.5467 8.55357C55.3997 8.75776 55.3 8.94087 55.2555 9.10124L55.3518 9.128ZM55.6278 8.612L55.709 8.67043C55.842 8.48567 56.041 8.31873 56.3116 8.17189L56.2638 8.084L56.2161 7.99611C55.9266 8.15327 55.7017 8.33833 55.5467 8.55357L55.6278 8.612ZM56.2638 8.084L56.3116 8.17189C56.5722 8.03041 56.9181 7.956 57.3558 7.956V7.856V7.756C56.8976 7.756 56.5155 7.83359 56.2161 7.99611L56.2638 8.084ZM57.3558 7.856V7.956C57.9162 7.956 58.3698 8.1354 58.7251 8.49071L58.7958 8.42L58.8666 8.34929C58.4699 7.9526 57.9635 7.756 57.3558 7.756V7.856ZM58.7958 8.42L58.7259 8.49145C59.0848 8.84292 59.2718 9.36144 59.2718 10.064H59.3718H59.4718C59.4718 9.32656 59.2749 8.74908 58.8658 8.34855L58.7958 8.42ZM59.3718 10.064H59.2718V14H59.3718H59.4718V10.064H59.3718ZM59.3718 14V13.9H58.3638V14V14.1H59.3718V14ZM58.3638 14H58.4638V10.208H58.3638H58.2638V14H58.3638ZM58.3638 10.208H58.4638C58.4638 9.67569 58.3373 9.27229 58.0575 9.02859L57.9918 9.104L57.9262 9.17941C58.1424 9.36771 58.2638 9.7003 58.2638 10.208H58.3638ZM57.9918 9.104L58.0589 9.02979C57.789 8.78604 57.4395 8.668 57.0198 8.668V8.768V8.868C57.4002 8.868 57.6987 8.97396 57.9248 9.17821L57.9918 9.104ZM57.0198 8.768V8.668C56.4426 8.668 55.994 8.86624 55.6916 9.27227L55.7718 9.332L55.852 9.39173C56.1097 9.04576 56.4931 8.868 57.0198 8.868V8.768ZM55.7718 9.332L55.6916 9.27227C55.3961 9.66917 55.2518 10.1675 55.2518 10.76H55.3518H55.4518C55.4518 10.2005 55.5876 9.74683 55.852 9.39173L55.7718 9.332ZM55.3518 10.76H55.2518V14H55.3518H55.4518V10.76H55.3518ZM55.3518 14V13.9H54.3438V14V14.1H55.3518V14ZM63.16 16.76L63.1585 16.86H63.1585L63.16 16.76ZM61.696 16.412L61.7401 16.3222L61.696 16.412ZM60.664 15.284L60.6112 15.1991L60.5376 15.2448L60.5724 15.3242L60.664 15.284ZM61.456 14.792L61.5478 14.7524L61.5018 14.6458L61.4032 14.7071L61.456 14.792ZM62.128 15.596L62.1808 15.5111L62.128 15.596ZM65.056 12.848H65.156L64.9601 12.8198L65.056 12.848ZM64.624 13.556L64.6933 13.6281L64.6933 13.6281L64.624 13.556ZM63.916 14L63.9502 14.094L63.9517 14.0934L63.916 14ZM61.72 13.772L61.6661 13.8562L61.6673 13.857L61.72 13.772ZM60.784 12.692L60.6937 12.7349L60.6939 12.7355L60.784 12.692ZM60.796 9.284L60.8854 9.32872L60.796 9.284ZM61.756 8.228L61.8067 8.31419L61.8072 8.31389L61.756 8.228ZM64.708 8.54L64.6314 8.60434L64.6329 8.60606L64.708 8.54ZM65.092 9.176L64.9978 9.20963L65.192 9.176H65.092ZM65.092 8V7.9H64.992V8H65.092ZM66.052 8H66.152V7.9H66.052V8ZM65.656 15.572L65.5707 15.5198L65.5696 15.5217L65.656 15.572ZM64.612 16.496L64.5749 16.4031L64.5734 16.4037L64.612 16.496ZM64.216 12.932L64.2764 13.0117L64.2767 13.0114L64.216 12.932ZM64.828 12.116L64.7361 12.0766L64.7353 12.0785L64.828 12.116ZM64.564 9.38L64.484 9.44L64.4847 9.44097L64.564 9.38ZM62.224 9.056L62.284 9.136L62.2844 9.13571L62.224 9.056ZM61.648 9.848L61.7414 9.8836L61.648 9.848ZM61.648 12.116L61.5543 12.1509L61.5546 12.1516L61.648 12.116ZM62.236 12.932L62.1741 13.0106L62.1768 13.0126L62.236 12.932ZM63.16 16.76L63.1615 16.66C62.6559 16.6522 62.1825 16.5396 61.7401 16.3222L61.696 16.412L61.6519 16.5018C62.1215 16.7324 62.6241 16.8518 63.1585 16.86L63.16 16.76ZM61.696 16.412L61.7401 16.3222C61.3081 16.11 60.9794 15.7533 60.7556 15.2438L60.664 15.284L60.5724 15.3242C60.8126 15.8707 61.1719 16.266 61.6519 16.5018L61.696 16.412ZM60.664 15.284L60.7168 15.3689L61.5088 14.8769L61.456 14.792L61.4032 14.7071L60.6112 15.1991L60.664 15.284ZM61.456 14.792L61.3642 14.8316C61.5234 15.2004 61.7602 15.4851 62.0752 15.6809L62.128 15.596L62.1808 15.5111C61.9038 15.3389 61.6926 15.0876 61.5478 14.7524L61.456 14.792ZM62.128 15.596L62.0752 15.6809C62.3893 15.8762 62.7562 15.972 63.172 15.972V15.872V15.772C62.7878 15.772 62.4587 15.6838 62.1808 15.5111L62.128 15.596ZM63.172 15.872V15.972C63.852 15.972 64.3663 15.7916 64.6885 15.4084L64.612 15.344L64.5355 15.2796C64.2657 15.6004 63.82 15.772 63.172 15.772V15.872ZM64.612 15.344L64.6885 15.4084C65.0055 15.0314 65.156 14.4886 65.156 13.796H65.056H64.956C64.956 14.4634 64.8105 14.9526 64.5355 15.2796L64.612 15.344ZM65.056 13.796H65.156V12.848H65.056H64.956V13.796H65.056ZM65.056 12.848L64.9601 12.8198C64.8851 13.0748 64.7504 13.2957 64.5547 13.4839L64.624 13.556L64.6933 13.6281C64.9136 13.4163 65.0669 13.1652 65.1519 12.8762L65.056 12.848ZM64.624 13.556L64.5547 13.4839C64.3649 13.6661 64.1404 13.8071 63.8803 13.9066L63.916 14L63.9517 14.0934C64.2356 13.9849 64.4831 13.8299 64.6933 13.6281L64.624 13.556ZM63.916 14L63.8818 13.906C63.6287 13.9981 63.3683 14.044 63.1 14.044V14.144V14.244C63.3917 14.244 63.6753 14.1939 63.9502 14.094L63.916 14ZM63.1 14.144V14.044C62.5966 14.044 62.1552 13.9242 61.7727 13.687L61.72 13.772L61.6673 13.857C62.0848 14.1158 62.5634 14.244 63.1 14.244V14.144ZM61.72 13.772L61.7739 13.6878C61.3908 13.4426 61.0907 13.0973 60.8741 12.6485L60.784 12.692L60.6939 12.7355C60.9253 13.2147 61.2492 13.5894 61.6661 13.8562L61.72 13.772ZM60.784 12.692L60.8743 12.6491C60.6581 12.1935 60.548 11.6449 60.548 11H60.448H60.348C60.348 11.6671 60.4619 12.2465 60.6937 12.7349L60.784 12.692ZM60.448 11H60.548C60.548 10.3309 60.6622 9.77521 60.8854 9.32872L60.796 9.284L60.7066 9.23928C60.4658 9.72079 60.348 10.3091 60.348 11H60.448ZM60.796 9.284L60.8854 9.32872C61.1097 8.88027 61.4169 8.54347 61.8067 8.31419L61.756 8.228L61.7053 8.14181C61.2791 8.39253 60.9463 8.75973 60.7066 9.23928L60.796 9.284ZM61.756 8.228L61.8072 8.31389C62.2066 8.07581 62.6567 7.956 63.16 7.956V7.856V7.756C62.6233 7.756 62.1374 7.88419 61.7048 8.1421L61.756 8.228ZM63.16 7.856V7.956C63.5 7.956 63.788 8.0178 64.0273 8.13744L64.072 8.048L64.1167 7.95856C63.844 7.8222 63.524 7.756 63.16 7.756V7.856ZM64.072 8.048L64.0273 8.13744C64.2722 8.25992 64.473 8.41575 64.6314 8.60432L64.708 8.54L64.7846 8.47568C64.607 8.26425 64.3838 8.09208 64.1167 7.95856L64.072 8.048ZM64.708 8.54L64.6329 8.60606C64.8016 8.7977 64.9226 8.9989 64.9978 9.20963L65.092 9.176L65.1862 9.14237C65.1014 8.9051 64.9664 8.6823 64.7831 8.47394L64.708 8.54ZM65.092 9.176H65.192V8H65.092H64.992V9.176H65.092ZM65.092 8V8.1H66.052V8V7.9H65.092V8ZM66.052 8H65.952V13.796H66.052H66.152V8H66.052ZM66.052 13.796H65.952C65.952 14.5379 65.8215 15.1094 65.5707 15.5199L65.656 15.572L65.7413 15.6241C66.0185 15.1706 66.152 14.5581 66.152 13.796H66.052ZM65.656 15.572L65.5696 15.5217C65.3239 15.9439 64.9926 16.2361 64.5749 16.4032L64.612 16.496L64.6491 16.5888C65.1114 16.4039 65.4761 16.0801 65.7424 15.6223L65.656 15.572ZM64.612 16.496L64.5734 16.4037C64.1474 16.5819 63.6772 16.6678 63.1615 16.66L63.16 16.76L63.1585 16.86C63.6988 16.8682 64.1966 16.7781 64.6506 16.5883L64.612 16.496ZM63.244 13.232V13.332C63.6462 13.332 63.9923 13.2269 64.2764 13.0117L64.216 12.932L64.1556 12.8523C63.9117 13.0371 63.6098 13.132 63.244 13.132V13.232ZM64.216 12.932L64.2767 13.0114C64.5638 12.7919 64.7784 12.5051 64.9207 12.1535L64.828 12.116L64.7353 12.0785C64.6056 12.3989 64.4122 12.6561 64.1553 12.8526L64.216 12.932ZM64.828 12.116L64.9199 12.1554C65.0698 11.8056 65.144 11.42 65.144 11H65.044H64.944C64.944 11.396 64.8742 11.7544 64.7361 12.0766L64.828 12.116ZM65.044 11H65.144C65.144 10.3199 64.9799 9.75669 64.6433 9.31903L64.564 9.38L64.4847 9.44097C64.7881 9.83531 64.944 10.3521 64.944 11H65.044ZM64.564 9.38L64.644 9.32C64.3103 8.87509 63.8265 8.656 63.208 8.656V8.756V8.856C63.7735 8.856 64.1937 9.05291 64.484 9.44L64.564 9.38ZM63.208 8.756V8.656C62.7983 8.656 62.448 8.76083 62.1636 8.97629L62.224 9.056L62.2844 9.13571C62.528 8.95117 62.8337 8.856 63.208 8.856V8.756ZM62.224 9.056L62.164 8.976C61.8911 9.1807 61.6884 9.46098 61.5546 9.8124L61.648 9.848L61.7414 9.8836C61.8636 9.56302 62.0449 9.3153 62.284 9.136L62.224 9.056ZM61.648 9.848L61.5546 9.8124C61.4216 10.1614 61.356 10.5497 61.356 10.976H61.456H61.556C61.556 10.5703 61.6184 10.2066 61.7414 9.8836L61.648 9.848ZM61.456 10.976H61.356C61.356 11.4023 61.4216 11.7943 61.5543 12.1509L61.648 12.116L61.7417 12.0811C61.6184 11.7497 61.556 11.3817 61.556 10.976H61.456ZM61.648 12.116L61.5546 12.1516C61.6885 12.5033 61.8949 12.7906 62.1741 13.0105L62.236 12.932L62.2979 12.8535C62.0491 12.6574 61.8635 12.4007 61.7414 12.0804L61.648 12.116ZM62.236 12.932L62.1768 13.0126C62.4689 13.2274 62.8267 13.332 63.244 13.332V13.232V13.132C62.8613 13.132 62.5471 13.0366 62.2952 12.8514L62.236 12.932ZM67.6291 14H67.5291V14.1H67.6291V14ZM67.6291 5.6V5.5H67.5291V5.6H67.6291ZM68.6851 5.6H68.7851V5.5H68.6851V5.6ZM68.6851 13.04H68.5851V13.14H68.6851V13.04ZM72.5611 13.04H72.6611V12.94H72.5611V13.04ZM72.5611 14V14.1H72.6611V14H72.5611ZM67.6291 14H67.7291V5.6H67.6291H67.5291V14H67.6291ZM67.6291 5.6V5.7H68.6851V5.6V5.5H67.6291V5.6ZM68.6851 5.6H68.5851V13.04H68.6851H68.7851V5.6H68.6851ZM68.6851 13.04V13.14H72.5611V13.04V12.94H68.6851V13.04ZM72.5611 13.04H72.4611V14H72.5611H72.6611V13.04H72.5611ZM72.5611 14V13.9H67.6291V14V14.1H72.5611V14ZM74.102 13.772L74.0481 13.8562L74.0493 13.857L74.102 13.772ZM73.166 12.692L73.0757 12.7349L73.076 12.7355L73.166 12.692ZM73.178 9.284L73.2675 9.32872L73.178 9.284ZM74.138 8.228L74.1887 8.31419L74.1892 8.31389L74.138 8.228ZM77.09 8.54L77.0134 8.60434L77.015 8.60606L77.09 8.54ZM77.474 9.176L77.3799 9.20963L77.574 9.176H77.474ZM77.474 8V7.9H77.374V8H77.474ZM78.434 8H78.534V7.9H78.434V8ZM78.434 14V14.1H78.534V14H78.434ZM77.438 14H77.338V14.1H77.438V14ZM77.438 12.848H77.538L77.3421 12.8198L77.438 12.848ZM77.006 13.556L77.0753 13.6281L77.0753 13.6281L77.006 13.556ZM76.298 14L76.3322 14.094L76.3337 14.0934L76.298 14ZM76.598 12.932L76.6584 13.0117L76.6588 13.0114L76.598 12.932ZM77.21 12.116L77.1181 12.0766L77.1173 12.0785L77.21 12.116ZM76.946 9.38L76.866 9.44L76.8668 9.44097L76.946 9.38ZM74.606 9.056L74.666 9.136L74.6664 9.13571L74.606 9.056ZM74.03 9.848L74.1235 9.8836L74.03 9.848ZM74.03 12.116L73.9363 12.1509L73.9366 12.1516L74.03 12.116ZM74.618 12.932L74.5561 13.0106L74.5588 13.0126L74.618 12.932ZM75.482 14.144V14.044C74.9786 14.044 74.5373 13.9242 74.1547 13.687L74.102 13.772L74.0493 13.857C74.4668 14.1158 74.9454 14.244 75.482 14.244V14.144ZM74.102 13.772L74.1559 13.6878C73.7728 13.4426 73.4727 13.0973 73.2561 12.6485L73.166 12.692L73.076 12.7355C73.3073 13.2147 73.6312 13.5894 74.0481 13.8562L74.102 13.772ZM73.166 12.692L73.2564 12.6491C73.0401 12.1935 72.93 11.6449 72.93 11H72.83H72.73C72.73 11.6671 72.8439 12.2465 73.0757 12.7349L73.166 12.692ZM72.83 11H72.93C72.93 10.3309 73.0442 9.77521 73.2675 9.32872L73.178 9.284L73.0886 9.23928C72.8478 9.72079 72.73 10.3091 72.73 11H72.83ZM73.178 9.284L73.2675 9.32872C73.4917 8.88027 73.799 8.54347 74.1887 8.31419L74.138 8.228L74.0873 8.14181C73.6611 8.39253 73.3284 8.75973 73.0886 9.23928L73.178 9.284ZM74.138 8.228L74.1892 8.31389C74.5886 8.07581 75.0387 7.956 75.542 7.956V7.856V7.756C75.0054 7.756 74.5195 7.88419 74.0868 8.1421L74.138 8.228ZM75.542 7.856V7.956C75.882 7.956 76.17 8.0178 76.4093 8.13744L76.454 8.048L76.4988 7.95856C76.226 7.8222 75.9061 7.756 75.542 7.756V7.856ZM76.454 8.048L76.4093 8.13744C76.6543 8.25992 76.8551 8.41575 77.0135 8.60432L77.09 8.54L77.1666 8.47568C76.989 8.26425 76.7658 8.09208 76.4988 7.95856L76.454 8.048ZM77.09 8.54L77.015 8.60606C77.1836 8.7977 77.3046 8.9989 77.3799 9.20963L77.474 9.176L77.5682 9.14237C77.4835 8.9051 77.3485 8.6823 77.1651 8.47394L77.09 8.54ZM77.474 9.176H77.574V8H77.474H77.374V9.176H77.474ZM77.474 8V8.1H78.434V8V7.9H77.474V8ZM78.434 8H78.334V14H78.434H78.534V8H78.434ZM78.434 14V13.9H77.438V14V14.1H78.434V14ZM77.438 14H77.538V12.848H77.438H77.338V14H77.438ZM77.438 12.848L77.3421 12.8198C77.2671 13.0748 77.1324 13.2957 76.9367 13.4839L77.006 13.556L77.0753 13.6281C77.2956 13.4163 77.449 13.1652 77.534 12.8762L77.438 12.848ZM77.006 13.556L76.9368 13.4839C76.7469 13.6661 76.5225 13.8071 76.2623 13.9066L76.298 14L76.3337 14.0934C76.6176 13.9849 76.8652 13.8299 77.0753 13.6281L77.006 13.556ZM76.298 14L76.2639 13.906C76.0108 13.9981 75.7503 14.044 75.482 14.044V14.144V14.244C75.7737 14.244 76.0573 14.1939 76.3322 14.094L76.298 14ZM75.626 13.232V13.332C76.0282 13.332 76.3744 13.2269 76.6584 13.0117L76.598 12.932L76.5376 12.8523C76.2937 13.0371 75.9918 13.132 75.626 13.132V13.232ZM76.598 12.932L76.6588 13.0114C76.9458 12.7919 77.1604 12.5051 77.3027 12.1535L77.21 12.116L77.1173 12.0785C76.9876 12.3989 76.7942 12.6561 76.5373 12.8526L76.598 12.932ZM77.21 12.116L77.3019 12.1554C77.4519 11.8056 77.526 11.42 77.526 11H77.426H77.326C77.326 11.396 77.2562 11.7544 77.1181 12.0766L77.21 12.116ZM77.426 11H77.526C77.526 10.3199 77.362 9.75669 77.0253 9.31903L76.946 9.38L76.8668 9.44097C77.1701 9.83531 77.326 10.3521 77.326 11H77.426ZM76.946 9.38L77.026 9.32C76.6923 8.87509 76.2085 8.656 75.59 8.656V8.756V8.856C76.1555 8.856 76.5757 9.05291 76.866 9.44L76.946 9.38ZM75.59 8.756V8.656C75.1804 8.656 74.8301 8.76083 74.5456 8.97629L74.606 9.056L74.6664 9.13571C74.91 8.95117 75.2157 8.856 75.59 8.856V8.756ZM74.606 9.056L74.546 8.976C74.2731 9.1807 74.0705 9.46098 73.9366 9.8124L74.03 9.848L74.1235 9.8836C74.2456 9.56302 74.427 9.3153 74.666 9.136L74.606 9.056ZM74.03 9.848L73.9366 9.8124C73.8036 10.1614 73.738 10.5497 73.738 10.976H73.838H73.938C73.938 10.5703 74.0004 10.2066 74.1235 9.8836L74.03 9.848ZM73.838 10.976H73.738C73.738 11.4023 73.8036 11.7943 73.9363 12.1509L74.03 12.116L74.1238 12.0811C74.0004 11.7497 73.938 11.3817 73.938 10.976H73.838ZM74.03 12.116L73.9366 12.1516C74.0706 12.5033 74.2769 12.7906 74.5561 13.0105L74.618 12.932L74.6799 12.8535C74.4311 12.6574 74.2455 12.4007 74.1235 12.0804L74.03 12.116ZM74.618 12.932L74.5588 13.0126C74.851 13.2274 75.2088 13.332 75.626 13.332V13.232V13.132C75.2433 13.132 74.9291 13.0366 74.6773 12.8514L74.618 12.932ZM81.6038 13.952L81.5591 14.0414L81.6038 13.952ZM80.9678 13.46L80.89 13.5228L80.8912 13.5243L80.9678 13.46ZM80.5838 12.824L80.6764 12.7863L80.4838 12.824H80.5838ZM80.5838 14V14.1H80.6838V14H80.5838ZM79.6118 14H79.5118V14.1H79.6118V14ZM79.6118 5.36V5.26H79.5118V5.36H79.6118ZM80.6198 5.36H80.7198V5.26H80.6198V5.36ZM80.6198 9.152H80.5198L80.7152 9.18198L80.6198 9.152ZM81.0518 8.444L80.9826 8.37186L81.0518 8.444ZM81.7598 8.012L81.7931 8.10633L81.7955 8.1054L81.7598 8.012ZM83.9558 8.24L83.9011 8.32375L83.9031 8.32499L83.9558 8.24ZM84.8918 9.32L84.8015 9.36287L84.8018 9.36347L84.8918 9.32ZM84.8798 12.716L84.9693 12.7607L84.9696 12.7601L84.8798 12.716ZM83.9198 13.784L83.9705 13.8702L83.9718 13.8695L83.9198 13.784ZM83.4398 12.956L83.4998 13.036L83.5002 13.0357L83.4398 12.956ZM84.0278 12.152L83.9344 12.1164L84.0278 12.152ZM84.0278 9.884L83.9341 9.91887V9.91887L84.0278 9.884ZM83.4398 9.068L83.3779 9.14656L83.3794 9.14771L83.4398 9.068ZM82.4318 8.768V8.86802L82.4338 8.86798L82.4318 8.768ZM81.4478 9.08L81.5082 9.15971L81.5086 9.15944L81.4478 9.08ZM80.8358 9.884L80.7439 9.8446L80.7431 9.84648L80.8358 9.884ZM81.0998 12.62L81.0192 12.6793L81.0205 12.681L81.0998 12.62ZM82.5158 14.144V14.044C82.1758 14.044 81.8878 13.9822 81.6485 13.8626L81.6038 13.952L81.5591 14.0414C81.8318 14.1778 82.1518 14.244 82.5158 14.244V14.144ZM81.6038 13.952L81.6485 13.8626C81.4036 13.7401 81.2028 13.5843 81.0444 13.3957L80.9678 13.46L80.8912 13.5243C81.0688 13.7357 81.292 13.9079 81.5591 14.0414L81.6038 13.952ZM80.9678 13.46L81.0456 13.3972C80.8829 13.1957 80.7602 12.992 80.6764 12.7863L80.5838 12.824L80.4912 12.8617C80.5834 13.088 80.7168 13.3083 80.89 13.5228L80.9678 13.46ZM80.5838 12.824H80.4838V14H80.5838H80.6838V12.824H80.5838ZM80.5838 14V13.9H79.6118V14V14.1H80.5838V14ZM79.6118 14H79.7118V5.36H79.6118H79.5118V14H79.6118ZM79.6118 5.36V5.46H80.6198V5.36V5.26H79.6118V5.36ZM80.6198 5.36H80.5198V9.152H80.6198H80.7198V5.36H80.6198ZM80.6198 9.152L80.7152 9.18198C80.7985 8.91704 80.9339 8.69582 81.1211 8.51614L81.0518 8.444L80.9826 8.37186C80.7697 8.57618 80.6171 8.82696 80.5244 9.12202L80.6198 9.152ZM81.0518 8.444L81.1211 8.51614C81.3104 8.3344 81.534 8.19775 81.7931 8.1063L81.7598 8.012L81.7265 7.9177C81.4417 8.01825 81.1933 8.1696 80.9826 8.37186L81.0518 8.444ZM81.7598 8.012L81.7955 8.1054C82.0569 8.00545 82.3169 7.956 82.5758 7.956V7.856V7.756C82.2908 7.756 82.0067 7.81054 81.7241 7.91859L81.7598 8.012ZM82.5758 7.856V7.956C83.087 7.956 83.5274 8.07966 83.9011 8.32373L83.9558 8.24L84.0105 8.15627C83.6002 7.88834 83.1207 7.756 82.5758 7.756V7.856ZM83.9558 8.24L83.9031 8.32499C84.285 8.56177 84.5848 8.90626 84.8015 9.36287L84.8918 9.32L84.9822 9.27713C84.7509 8.78974 84.4266 8.41423 84.0085 8.15501L83.9558 8.24ZM84.8918 9.32L84.8018 9.36347C85.0177 9.81073 85.1278 10.3551 85.1278 11H85.2278H85.3278C85.3278 10.3329 85.2139 9.75726 84.9819 9.27653L84.8918 9.32ZM85.2278 11H85.1278C85.1278 11.6608 85.0137 12.2169 84.7901 12.6719L84.8798 12.716L84.9696 12.7601C85.2099 12.2711 85.3278 11.6832 85.3278 11H85.2278ZM84.8798 12.716L84.7904 12.6713C84.566 13.12 84.2584 13.4612 83.8679 13.6985L83.9198 13.784L83.9718 13.8695C84.3972 13.6108 84.7296 13.24 84.9693 12.7607L84.8798 12.716ZM83.9198 13.784L83.8691 13.6978C83.4782 13.9278 83.0281 14.044 82.5158 14.044V14.144V14.244C83.0595 14.244 83.5454 14.1202 83.9705 13.8702L83.9198 13.784ZM82.4678 13.244V13.344C82.8765 13.344 83.2229 13.2437 83.4998 13.036L83.4398 12.956L83.3798 12.876C83.1447 13.0523 82.8432 13.144 82.4678 13.144V13.244ZM83.4398 12.956L83.5002 13.0357C83.7804 12.8234 83.9872 12.5396 84.1213 12.1876L84.0278 12.152L83.9344 12.1164C83.8124 12.4364 83.6272 12.6886 83.3794 12.8763L83.4398 12.956ZM84.0278 12.152L84.1213 12.1876C84.2542 11.8386 84.3198 11.4503 84.3198 11.024H84.2198H84.1198C84.1198 11.4297 84.0574 11.7934 83.9344 12.1164L84.0278 12.152ZM84.2198 11.024H84.3198C84.3198 10.5977 84.2542 10.2057 84.1215 9.84913L84.0278 9.884L83.9341 9.91887C84.0574 10.2503 84.1198 10.6183 84.1198 11.024H84.2198ZM84.0278 9.884L84.1215 9.84913C83.9877 9.48931 83.781 9.20098 83.5002 8.98829L83.4398 9.068L83.3794 9.14771C83.6267 9.33501 83.812 9.59069 83.9341 9.91887L84.0278 9.884ZM83.4398 9.068L83.5017 8.98945C83.2159 8.76426 82.8558 8.65967 82.4299 8.66802L82.4318 8.768L82.4338 8.86798C82.8238 8.86033 83.1357 8.95574 83.3779 9.14655L83.4398 9.068ZM82.4318 8.768V8.668C82.0287 8.668 81.6786 8.77762 81.3871 9.00056L81.4478 9.08L81.5086 9.15944C81.761 8.96638 82.067 8.868 82.4318 8.868V8.768ZM81.4478 9.08L81.3874 9.00029C81.1082 9.21183 80.894 9.49436 80.7439 9.84461L80.8358 9.884L80.9277 9.92339C81.0656 9.60164 81.2594 9.34817 81.5082 9.15971L81.4478 9.08ZM80.8358 9.884L80.7431 9.84648C80.6017 10.1958 80.5318 10.5807 80.5318 11H80.6318H80.7318C80.7318 10.6033 80.7979 10.2442 80.9285 9.92152L80.8358 9.884ZM80.6318 11H80.5318C80.5318 11.672 80.6918 12.2343 81.0193 12.6793L81.0998 12.62L81.1804 12.5607C80.8838 12.1577 80.7318 11.64 80.7318 11H80.6318ZM81.0998 12.62L81.0205 12.681C81.3621 13.125 81.8493 13.344 82.4678 13.344V13.244V13.144C81.9023 13.144 81.4775 12.947 81.1791 12.559L81.0998 12.62ZM87.3669 13.784L87.3159 13.87L87.3171 13.8707L87.3669 13.784ZM86.3229 12.692L86.4102 12.6432L86.3229 12.692ZM86.3229 9.332L86.2356 9.28318L86.3229 9.332ZM90.1509 8.18L90.1041 8.2684L90.1062 8.26944L90.1509 8.18ZM91.1349 9.164L91.0467 9.21123L91.0478 9.2131L91.1349 9.164ZM91.5069 11.24V11.34H91.6069V11.24H91.5069ZM86.9229 11.24V11.14H86.8172L86.8231 11.2455L86.9229 11.24ZM87.4269 12.68L87.3485 12.7421L87.3491 12.7429L87.4269 12.68ZM89.7309 12.992L89.6815 12.905L89.7309 12.992ZM90.4269 12.284L90.4645 12.1913L90.3823 12.158L90.3394 12.2356L90.4269 12.284ZM91.3149 12.644L91.4046 12.6882L91.4521 12.5917L91.3525 12.5513L91.3149 12.644ZM87.5709 9.224L87.4993 9.15424L87.4992 9.15426L87.5709 9.224ZM86.9949 10.352L86.8971 10.3314L86.8717 10.452H86.9949V10.352ZM90.4989 10.352V10.452H90.5989V10.352H90.4989ZM90.2949 9.656L90.206 9.7019L90.2079 9.7053L90.2949 9.656ZM89.7189 9.032L89.6622 9.11442L89.664 9.1156L89.7189 9.032ZM88.7709 14.156V14.056C88.2842 14.056 87.8334 13.9365 87.4167 13.6973L87.3669 13.784L87.3171 13.8707C87.7645 14.1275 88.2497 14.256 88.7709 14.256V14.156ZM87.3669 13.784L87.4179 13.698C87.0022 13.4516 86.6663 13.101 86.4102 12.6432L86.3229 12.692L86.2356 12.7408C86.5076 13.227 86.8676 13.6044 87.3159 13.87L87.3669 13.784ZM86.3229 12.692L86.4102 12.6432C86.1559 12.1886 86.0269 11.6501 86.0269 11.024H85.9269H85.8269C85.8269 11.6779 85.9619 12.2514 86.2356 12.7408L86.3229 12.692ZM85.9269 11.024H86.0269C86.0269 10.3815 86.1561 9.83503 86.4102 9.38082L86.3229 9.332L86.2356 9.28318C85.9617 9.77297 85.8269 10.3545 85.8269 11.024H85.9269ZM86.3229 9.332L86.4102 9.38082C86.6663 8.92298 87.0022 8.57235 87.4179 8.32603L87.3669 8.24L87.3159 8.15397C86.8676 8.41965 86.5076 8.79702 86.2356 9.28318L86.3229 9.332ZM87.3669 8.24L87.4179 8.32603C87.8344 8.07921 88.2848 7.956 88.7709 7.956V7.856V7.756C88.249 7.756 87.7634 7.88879 87.3159 8.15397L87.3669 8.24ZM88.7709 7.856V7.956C89.2684 7.956 89.7121 8.06081 90.1041 8.26838L90.1509 8.18L90.1977 8.09162C89.7738 7.86719 89.2974 7.756 88.7709 7.756V7.856ZM90.1509 8.18L90.1062 8.26944C90.502 8.46734 90.8156 8.77967 91.0468 9.21122L91.1349 9.164L91.2231 9.11678C90.9742 8.65233 90.6318 8.30866 90.1956 8.09056L90.1509 8.18ZM91.1349 9.164L91.0478 9.2131C91.2848 9.63351 91.4069 10.183 91.4069 10.868H91.5069H91.6069C91.6069 10.161 91.4811 9.57449 91.222 9.1149L91.1349 9.164ZM91.5069 10.868H91.4069V11.24H91.5069H91.6069V10.868H91.5069ZM91.5069 11.24V11.14H86.9229V11.24V11.34H91.5069V11.24ZM86.9229 11.24L86.8231 11.2455C86.856 11.8384 87.0295 12.3392 87.3485 12.7421L87.4269 12.68L87.5053 12.6179C87.2163 12.2528 87.0538 11.7936 87.0228 11.2345L86.9229 11.24ZM87.4269 12.68L87.3491 12.7429C87.6758 13.1469 88.1471 13.344 88.7469 13.344V13.244V13.144C88.1947 13.144 87.786 12.9651 87.5047 12.6171L87.4269 12.68ZM88.7469 13.244V13.344C89.1232 13.344 89.4683 13.256 89.7803 13.079L89.7309 12.992L89.6815 12.905C89.4015 13.064 89.0906 13.144 88.7469 13.144V13.244ZM89.7309 12.992L89.7803 13.079C90.0927 12.9017 90.3377 12.6522 90.5144 12.3324L90.4269 12.284L90.3394 12.2356C90.1801 12.5238 89.9612 12.7463 89.6815 12.905L89.7309 12.992ZM90.4269 12.284L90.3893 12.3767L91.2773 12.7367L91.3149 12.644L91.3525 12.5513L90.4645 12.1913L90.4269 12.284ZM91.3149 12.644L91.2252 12.5998C90.9845 13.0889 90.6609 13.4513 90.2558 13.692C89.8503 13.933 89.3568 14.056 88.7709 14.056V14.156V14.256C89.385 14.256 89.9155 14.127 90.358 13.864C90.8009 13.6007 91.1493 13.2071 91.4046 12.6882L91.3149 12.644ZM88.7469 8.768V8.668C88.2363 8.668 87.817 8.82796 87.4993 9.15424L87.5709 9.224L87.6426 9.29376C87.9169 9.01204 88.2815 8.868 88.7469 8.868V8.768ZM87.5709 9.224L87.4992 9.15426C87.1964 9.46552 86.9964 9.85932 86.8971 10.3314L86.9949 10.352L87.0928 10.3726C87.1854 9.93268 87.3694 9.57448 87.6426 9.29374L87.5709 9.224ZM86.9949 10.352V10.452H90.4989V10.352V10.252H86.9949V10.352ZM90.4989 10.352H90.5989C90.5989 10.1071 90.5245 9.85828 90.3819 9.6067L90.2949 9.656L90.2079 9.7053C90.3373 9.93372 90.3989 10.1489 90.3989 10.352H90.4989ZM90.2949 9.656L90.3838 9.61014C90.2471 9.34538 90.0427 9.1249 89.7738 8.94839L89.7189 9.032L89.664 9.1156C89.9071 9.2751 90.0867 9.47062 90.206 9.70186L90.2949 9.656ZM89.7189 9.032L89.7756 8.9496C89.499 8.75946 89.1538 8.668 88.7469 8.668V8.768V8.868C89.124 8.868 89.4268 8.95254 89.6623 9.1144L89.7189 9.032ZM92.5909 14H92.4909V14.1H92.5909V14ZM92.5909 5.456V5.356H92.4909V5.456H92.5909ZM93.5989 5.456H93.6989V5.356H93.5989V5.456ZM93.5989 14V14.1H93.6989V14H93.5989ZM92.5909 14H92.6909V5.456H92.5909H92.4909V14H92.5909ZM92.5909 5.456V5.556H93.5989V5.456V5.356H92.5909V5.456ZM93.5989 5.456H93.4989V14H93.5989H93.6989V5.456H93.5989ZM93.5989 14V13.9H92.5909V14V14.1H93.5989V14Z" fill="black" mask="url(#path-6-outside-1_2156_25133)"/>
</svg>
